<svg xmlns="http://www.w3.org/2000/svg" xmlns:xlink="http://www.w3.org/1999/xlink" width="430.791" height="456.038" viewBox="0 0 430.791 456.038">
  <defs>
    <clipPath id="clip-path">
      <path id="Path_540" data-name="Path 540" d="M250.377,123.462c-1.317-15.316,4.266-30.283,6.548-45.485s.1-33.05-12.42-41.972a29.4,29.4,0,0,0-16.443-5.173,36.371,36.371,0,0,0-60.011,27.651c0,1.17.061,2.324.169,3.466-9.164,5.452-19.374,9.273-29.837,8.17-11.931-1.258-22.171-8.641-33.075-13.646s-24.987-7.237-33.964.723c-10.349,9.175-7.821,25.54-10.4,39.127-3.089,16.251-14.363,29.892-18.421,45.928a54.843,54.843,0,0,0,12.113,49.176c13.417,14.889,32.013,18.714,51.206,17.733,23.62-1.207,47.5.169,71.152.539,16.549.258,33.525.449,49.1-5.164s29.679-18.37,31.989-34.759C260.272,154.189,251.725,139.145,250.377,123.462Z" fill="none"/>
    </clipPath>
    <clipPath id="clip-path-2">
      <path id="Path_578" data-name="Path 578" d="M453.888,70.933c2.822-32.9-35.488-53.614-60.469-31.639-7.75-10.311-21.707-17.192-37.64-17.192-24.357,0-44.1,16.077-44.1,35.91a30.116,30.116,0,0,0,3.3,13.627c-12.462,8.269-21.983,21.525-26.763,35.89-7.179,21.577-5.238,45.178-.319,67.379,2.581,11.652,6.272,23.675,14.769,32.055,9.85,9.715,24.4,12.808,38.193,13.867,26.328,2.02,53.864-2.126,76.085-16.389s38.134-39.782,36.483-66.136c-.875-13.978,14.321-30.38,15.829-44.3C470.2,85.26,465.75,67.75,453.888,70.933Z" fill="none"/>
    </clipPath>
    <clipPath id="clip-path-3">
      <path id="Path_608" data-name="Path 608" d="M239.234,338.7c-2.544-8.044-5.517-16.077-10.386-22.966s-11.864-12.6-20.107-14.4l-.042-.007c-.306-19.268-19.483-34.812-43.107-34.812-14.379,0-27.106,5.763-34.941,14.615a47.367,47.367,0,0,0-10.812-5.214A36.189,36.189,0,0,0,72.657,311.5c.349,11.373,5.957,21.811,9.468,32.634s4.509,23.919-3.025,32.446c-7.475,8.458-20.5,9.291-29.476,16.133-11.414,8.7-13.7,25.927-8.144,39.159S58.8,454.785,71.344,461.764A128.485,128.485,0,0,0,153.1,476.143c26.156-4.115,50.447-.237,71.058-21.122,14.445-14.637,22.038-35.115,23.648-55.615S245.433,358.308,239.234,338.7Z" fill="none"/>
    </clipPath>
    <clipPath id="clip-path-4">
      <path id="Path_668" data-name="Path 668" d="M460.98,317.168c2.8-17.624-8.09-36.47-24.756-42.848-10.418-3.987-20.094-2.758-28.975,1.191-5.143-4.142-15.035-5.371-19.971-5.057a31.892,31.892,0,0,0-22.142,11.213c-6.855,8.188-8.974,18.981-9.7,29.832-7.7,4.11-15.726,7.763-24.128,11.346-10.41,4.438-21.016,9.3-30.425,15.558-4.9-7.481-12.21-15.688-21.022-10.149-3.649,2.294-5.333,6.687-6.418,10.858a75.489,75.489,0,0,0-2.268,14c-.26,3.907-.02,8.315,2.837,10.992a7.648,7.648,0,0,0,2.12,1.4c-11.416,24.375-4.789,55.809,13.186,76.434,19.862,22.79,50.659,33.7,80.827,35.642,19.529,1.256,39.769-1.022,57.052-10.2s31.174-26.063,33.344-45.512c2.83-25.348-13.851-50.442-8.715-75.426C453.892,336.411,459.374,327.28,460.98,317.168Z" fill="none"/>
    </clipPath>
    <clipPath id="clip-path-5">
      <path id="Path_661" data-name="Path 661" d="M409.21,395.846l18.835,1.585,6.865,1.329-1.056-17.524-40.788-2.826a223.891,223.891,0,0,1-34.9-5.2l-18.591-4.292-13.454,13.2,17.846,4.753-4.689,10.837a19.22,19.22,0,0,0,3.741,20.909h0a18.314,18.314,0,0,1,5.039,13.683l-.7,12.339a46.781,46.781,0,0,1-3.727,15.828L335.7,478.932h82.409L414.255,460.7a119.326,119.326,0,0,1-2.389-17.937Z" fill="none"/>
    </clipPath>
  </defs>
  <g id="OBJECTS" transform="translate(-38.582 -21.86)">
    <g id="Group_230" data-name="Group 230">
      <path id="Path_516" data-name="Path 516" d="M54.633,191.427A54.843,54.843,0,0,1,42.52,142.251c4.058-16.036,15.332-29.677,18.421-45.928,2.582-13.587.054-29.952,10.4-39.127,8.977-7.96,23.061-5.728,33.964-.723s21.144,12.389,33.075,13.646c13.021,1.373,25.653-4.875,36.36-12.41s20.487-16.6,32.323-22.2,26.777-7.108,37.439.492c12.518,8.922,14.7,26.77,12.42,41.972s-7.865,30.169-6.548,45.485c1.348,15.683,9.9,30.727,7.7,46.314-2.31,16.389-16.418,29.146-31.989,34.759s-32.546,5.422-49.1,5.164c-23.647-.37-47.532-1.746-71.152-.539C86.646,210.141,68.05,206.316,54.633,191.427Z" fill="#f5d896"/>
      <g id="Group_229" data-name="Group 229">
        <g id="Group_228" data-name="Group 228" clip-path="url(#clip-path)">
          <g id="Group_227" data-name="Group 227">
            <g id="Group_215" data-name="Group 215">
              <rect id="Rectangle_32" data-name="Rectangle 32" width="118.902" height="13.092" transform="translate(99.18 169.003)" fill="#8c404c"/>
              <rect id="Rectangle_33" data-name="Rectangle 33" width="44.355" height="13.092" transform="translate(99.18 182.095) rotate(180)" fill="#a64f5a"/>
              <g id="Group_213" data-name="Group 213">
                <rect id="Rectangle_34" data-name="Rectangle 34" width="110.215" height="29.819" transform="translate(101.903 182.095)" fill="#8c404c"/>
                <rect id="Rectangle_35" data-name="Rectangle 35" width="41.114" height="29.819" transform="translate(101.903 211.914) rotate(180)" fill="#a64f5a"/>
              </g>
              <g id="Group_214" data-name="Group 214">
                <rect id="Rectangle_36" data-name="Rectangle 36" width="110.215" height="9.132" transform="translate(101.903 182.095)" fill="#422c4f"/>
                <rect id="Rectangle_37" data-name="Rectangle 37" width="41.114" height="9.132" transform="translate(101.903 191.227) rotate(180)" fill="#454f6b"/>
              </g>
            </g>
            <g id="Group_218" data-name="Group 218">
              <g id="Group_216" data-name="Group 216">
                <path id="Path_517" data-name="Path 517" d="M174.937,169H94.909a5.592,5.592,0,0,1-5.537-4.814l-8.68-61.827a5.591,5.591,0,0,1,5.537-6.368h80.027a5.59,5.59,0,0,1,5.537,4.813l8.68,61.827A5.591,5.591,0,0,1,174.937,169Z" fill="#c7d2d7"/>
                <path id="Path_518" data-name="Path 518" d="M94.909,166.766a3.369,3.369,0,0,1-3.322-2.887l-8.68-61.828a3.353,3.353,0,0,1,3.322-3.821h80.028a3.369,3.369,0,0,1,3.321,2.889l8.681,61.826a3.355,3.355,0,0,1-3.322,3.821Z" fill="#422c4f"/>
                <path id="Path_519" data-name="Path 519" d="M95.881,162.294,87.515,102.7h77.769l8.366,59.59Z" fill="#7dd3e9"/>
              </g>
              <g id="Group_217" data-name="Group 217">
                <path id="Path_520" data-name="Path 520" d="M114.649,169h75.99a4.892,4.892,0,0,0,4.892-4.892H114.649Z" fill="#495375"/>
                <path id="Path_521" data-name="Path 521" d="M118.9,169H96.431a4.892,4.892,0,0,1-4.892-4.892h32.253A4.892,4.892,0,0,1,118.9,169Z" fill="#99a3b0"/>
              </g>
            </g>
            <g id="Group_226" data-name="Group 226">
              <g id="Group_220" data-name="Group 220">
                <path id="Path_522" data-name="Path 522" d="M225.723,64.871a22.364,22.364,0,0,0-44.728,0V75.494a22.364,22.364,0,0,0,22.364,22.364V105.4H221.25V88.871a22.234,22.234,0,0,0,4.473-13.377Z" fill="#bd6c67"/>
                <path id="Path_523" data-name="Path 523" d="M197.228,85.9c4.314,9.792,15.5,13.007,24.022,12.1V88.871Z" fill="#a64f5a"/>
                <path id="Path_524" data-name="Path 524" d="M187.922,78.062a9.015,9.015,0,0,1-1.558-8.7,11.078,11.078,0,0,1-6.459-6.955,11.607,11.607,0,0,1,.987-9.676c-2.5-5.1-1.753-11.921,2.381-15.813a13.775,13.775,0,0,1,15.794-1.895,8.172,8.172,0,0,1,6.038-3.346,9.067,9.067,0,0,1,6.92,2.287c4.069-3.7,11.231-3.381,15.486.1s5.8,9.728,4.142,14.97c4.83,2.358,8.913,7.758,9.147,13.128A15.347,15.347,0,0,1,233.532,75.7c2.284,3.4,1.707,8.574-.645,11.924s-6.215,5.393-10.192,6.362A25.744,25.744,0,0,1,192.826,78.85C191.477,78.647,189.27,78.264,187.922,78.062Z" fill="#422c4f"/>
                <g id="Group_219" data-name="Group 219">
                  <ellipse id="Ellipse_135" data-name="Ellipse 135" cx="6.639" cy="8.177" rx="6.639" ry="8.177" transform="translate(186.446 70.881)" fill="#bd6c67"/>
                  <ellipse id="Ellipse_136" data-name="Ellipse 136" cx="4.142" cy="5.102" rx="4.142" ry="5.102" transform="translate(188.943 73.956)" fill="#a64f5a"/>
                </g>
              </g>
              <g id="Group_225" data-name="Group 225">
                <g id="Group_223" data-name="Group 223">
                  <path id="Path_525" data-name="Path 525" d="M190.819,105.4H229.4a20.843,20.843,0,0,1,20.1,15.32h0a196.7,196.7,0,0,1,6.836,43.371l2.652,59.559H182.672l1.677-45.846-2.982-22.83L176.8,167.372l-22.084-14.257,13.5-32.606A24.463,24.463,0,0,1,190.819,105.4Z" fill="#e4e4e0"/>
                  <g id="Group_221" data-name="Group 221">
                    <path id="Path_526" data-name="Path 526" d="M177.68,164.987h4.994l-1.307-10.008Z" fill="none"/>
                    <path id="Path_527" data-name="Path 527" d="M184.349,177.809l-.076,2.074H257.04l-.663-14.9h-73.7Z" fill="#797c99"/>
                    <path id="Path_528" data-name="Path 528" d="M183.184,209.673h75.183l-.663-14.9H183.729Z" fill="#797c99"/>
                    <path id="Path_529" data-name="Path 529" d="M176.8,167.372l.879-2.385h-4.573Z" fill="#797c99"/>
                    <path id="Path_530" data-name="Path 530" d="M162.137,135.2l-6.168,14.9h99.223q-.872-7.491-2.313-14.9Z" fill="#797c99"/>
                    <path id="Path_531" data-name="Path 531" d="M229.4,105.4H190.819a24.459,24.459,0,0,0-22.506,14.9h81.052A20.833,20.833,0,0,0,229.4,105.4Z" fill="#797c99"/>
                  </g>
                  <g id="Group_222" data-name="Group 222">
                    <path id="Path_532" data-name="Path 532" d="M184.349,177.809l1.507-12.822h-3.181Z" fill="#495375"/>
                    <path id="Path_533" data-name="Path 533" d="M189.684,132.405l-1.028,2.791h.7Z" fill="#99a3b0"/>
                    <path id="Path_534" data-name="Path 534" d="M183.168,150.092l-1.8,4.887,1.307,10.008h3.181l1.75-14.9Z" fill="#99a3b0"/>
                    <path id="Path_535" data-name="Path 535" d="M189.356,135.2h-.7l-5.488,14.9h4.438Z" fill="#495375"/>
                  </g>
                </g>
                <g id="Group_224" data-name="Group 224">
                  <path id="Path_536" data-name="Path 536" d="M156.843,154.488l-2.871,7.293L137.486,151a20.813,20.813,0,0,0-26.675,3.3h0a16.121,16.121,0,0,0-2.713,4.006l-1.145,2.4a2.38,2.38,0,0,0,2.147,3.4h8.35a4.261,4.261,0,0,0,4-2.794v0l7.641-.186,19.535,22.209a12.771,12.771,0,0,0,21.477-3.765l5.178-13.182Z" fill="#bd6c67"/>
                  <path id="Path_537" data-name="Path 537" d="M121.451,161.315h0a11.741,11.741,0,0,1-7.145-2.424l-1.941-1.49-2.376,6.71h7.461a4.261,4.261,0,0,0,4-2.794Z" fill="#a64f5a"/>
                  <path id="Path_538" data-name="Path 538" d="M153.972,161.781l-4.139,10.51-.241-1.659A11.333,11.333,0,0,1,152.781,161h0Z" fill="#a64f5a"/>
                  <path id="Path_539" data-name="Path 539" d="M156.843,154.488l18.439,11.9-3.48,8.859L156.091,156.4Z" fill="#422c4f"/>
                </g>
              </g>
            </g>
          </g>
        </g>
      </g>
    </g>
    <g id="Group_248" data-name="Group 248">
      <path id="Path_541" data-name="Path 541" d="M393.374,39.332c-8.058,7.11-14.879,16.186-24.832,20.237-10.246,4.17-21.87,2.211-32.806,3.875-22.481,3.42-40.347,22.509-47.526,44.085s-5.238,45.178-.319,67.379c2.581,11.652,6.272,23.675,14.769,32.055,9.85,9.715,24.4,12.808,38.193,13.867,26.328,2.02,53.864-2.126,76.085-16.389s38.134-39.782,36.483-66.136c-.875-13.978-6.445-27.667-4.937-41.592.947-8.74,4.653-17.022,5.4-25.78C456.712,38.008,418.353,17.293,393.374,39.332Z" fill="#d3fbf0"/>
      <g id="Group_247" data-name="Group 247">
        <g id="Group_246" data-name="Group 246" clip-path="url(#clip-path-2)">
          <g id="Group_245" data-name="Group 245">
            <g id="Group_231" data-name="Group 231">
              <path id="Path_542" data-name="Path 542" d="M317.235,195.226c10.3.44,11.618-11,11.618-11l-8.889-2.2-3.081,8.009Z" fill="#422c4f"/>
              <path id="Path_543" data-name="Path 543" d="M331.89,108.224h0a16.4,16.4,0,0,0-9.949,8.219L300.1,158.824a18.27,18.27,0,0,0,2.766,20.708l14.372,15.694,1.187-4.036a9.572,9.572,0,0,1,8.591-6.852l1.84-.114L316.8,166.973l8.978-18.131Z" fill="#7dd3e9"/>
              <path id="Path_544" data-name="Path 544" d="M318.422,191.19l3.126,4.036h0a13.217,13.217,0,0,0-5.633,7.177l-1.408,4.353h-3.34a6.21,6.21,0,0,0-5.462,3.256h0l15.843,3.609,10.914-13.466-.572-8.538-4.807-7.283-.07,0a9.572,9.572,0,0,0-8.591,6.852Z" fill="#eba58e"/>
              <path id="Path_545" data-name="Path 545" d="M316.8,166.973l-11.09-5.544H307.7a14.873,14.873,0,0,1,9.952,3.82h0Z" fill="#5fa5cc"/>
              <path id="Path_546" data-name="Path 546" d="M330.138,119.854l-2.926,2.968a10.772,10.772,0,0,0-2.578,4.243l-.779,2.4a44.213,44.213,0,0,1-4.02,8.9l-2.207,3.725a14.726,14.726,0,0,0,.673,16.044l1.691,2.376,5.781-11.676Z" fill="#5fa5cc"/>
            </g>
            <g id="Group_232" data-name="Group 232">
              <path id="Path_547" data-name="Path 547" d="M419.684,135.552l12.674-1.672,10.826,8.009-13.29,6.6Z" fill="#422c4f"/>
              <path id="Path_548" data-name="Path 548" d="M331.89,108.224,326.6,127.86a64.518,64.518,0,0,1-4.053,10.967l-2.167,4.545a16.5,16.5,0,0,0,1.674,16.972h0a20.667,20.667,0,0,1,4.1,11.734l.251,8.154a46.57,46.57,0,0,1-2.323,16.023l-9.042,27.4h80.621L385.148,197.19a47.571,47.571,0,0,1-3.313-19.6h0a47.55,47.55,0,0,1,5.085-19.434l2.4-4.739,4.406,22.46a15.38,15.38,0,0,0,11.716,12.043h0a15.379,15.379,0,0,0,16.888-7.66l20.855-38.373-7.536,1.313a10,10,0,0,1-7.471-1.673l-8.493-5.977-9.242,24.028-8.6-41.587a12.942,12.942,0,0,0-6.19-8.581h0Z" fill="#7dd3e9"/>
              <path id="Path_549" data-name="Path 549" d="M384.059,165.132a47.573,47.573,0,0,1,2.861-6.974l2.4-4.739-3.17-16.16A56.2,56.2,0,0,0,384.059,165.132Z" fill="#5fa5cc"/>
              <path id="Path_550" data-name="Path 550" d="M404.8,167.906v6.348l5.643-14.674-.992-4.8A20.851,20.851,0,0,0,404.8,167.906Z" fill="#5fa5cc"/>
              <path id="Path_551" data-name="Path 551" d="M374.533,167.633H329.777a16.983,16.983,0,0,1,2.231-1.7,7.787,7.787,0,0,1,3.043-.759c1.887-.119,3.82.14,5.647-.347a14.817,14.817,0,0,0,3.68-1.775,12.612,12.612,0,0,1,3.718-1.682c2.987-.642,5.137,1.549,7.65,2.674,2.907,1.3,6.248.9,9.429.739S372.226,165.437,374.533,167.633Z" fill="#5fa5cc"/>
            </g>
            <path id="Path_552" data-name="Path 552" d="M331.89,108.224c8.845,6.381,5.657,34.981,24.776,37.1,25.436,2.816,21.563-32.565,38.99-35.91Z" fill="#5fa5cc"/>
            <g id="Group_236" data-name="Group 236">
              <g id="Group_234" data-name="Group 234">
                <path id="Path_553" data-name="Path 553" d="M354.236,166.857c-21.4-26.69-18.4-59.315-18.4-59.315l-3.943.682c-3.057,18.026-.729,48.765,14.691,67.437Z" fill="#495375"/>
                <g id="Group_233" data-name="Group 233">
                  <path id="Path_554" data-name="Path 554" d="M332,144.071l8.461-3.508a1,1,0,0,1,1.319.573l1.555,4.146a1,1,0,0,1-.533,1.266l-8.682,3.828a1,1,0,0,1-1.361-.629l-1.334-4.466A1,1,0,0,1,332,144.071Z" fill="#797c99"/>
                  <path id="Path_555" data-name="Path 555" d="M333.6,145.573l6.671-2.766.86,2.292-6.78,2.989Z" fill="#495375"/>
                </g>
              </g>
              <g id="Group_235" data-name="Group 235">
                <path id="Path_556" data-name="Path 556" d="M381.2,181.034a97.65,97.65,0,0,1-26.969-14.177l-7.655,8.8c-.639,26.39,28.173,29.576,36.91,15.971q.519-.759.971-1.487A6.153,6.153,0,0,0,381.2,181.034Z" fill="#797c99"/>
                <path id="Path_557" data-name="Path 557" d="M354.935,170.122l-1.183,1.612A86.472,86.472,0,0,0,377.7,184.107a25.951,25.951,0,0,0,7.355,1.358c.063,0,.125-.006.188-.007a6.214,6.214,0,0,0-.886-2.022,24.907,24.907,0,0,1-6.026-1.227A84.5,84.5,0,0,1,354.935,170.122Z" fill="#99a3b0"/>
              </g>
            </g>
            <path id="Path_558" data-name="Path 558" d="M328.853,69.9V64.3a29.085,29.085,0,0,1,29.085-29.085h0a26.628,26.628,0,0,1,26.628,26.628v16.62a43.059,43.059,0,0,1-2.791,15.249L380.5,97.072a5.709,5.709,0,0,0,3.954,7.56l6.844,1.711a7.387,7.387,0,0,1,4.355,3.069h0l-3.285,1.122a21.492,21.492,0,0,0-11.581,9.442l-5.355,9.1a19.03,19.03,0,0,1-16.4,9.38h0a19.03,19.03,0,0,1-17.862-12.467l-4.5-12.259a10.29,10.29,0,0,0-4.777-5.507h0l.271-.353a7.389,7.389,0,0,1,2.592-2.123l1.182-.582a5.708,5.708,0,0,0,2.218-8.3l-1.994-2.971A43.048,43.048,0,0,1,328.853,69.9Z" fill="#cc6164"/>
            <g id="Group_240" data-name="Group 240">
              <g id="Group_237" data-name="Group 237">
                <path id="Path_559" data-name="Path 559" d="M360.142,43.665a19.671,19.671,0,0,0-19.671,19.672V69a14.338,14.338,0,0,1,14.338-14.338h10.666A14.338,14.338,0,0,1,379.813,69V63.337A19.671,19.671,0,0,0,360.142,43.665Z" fill="#a34262"/>
                <path id="Path_560" data-name="Path 560" d="M365.475,54.657H354.809A14.338,14.338,0,0,0,340.471,69v8.26a19.671,19.671,0,1,0,39.342,0V69A14.338,14.338,0,0,0,365.475,54.657Z" fill="#f2c9ad"/>
              </g>
              <g id="Group_238" data-name="Group 238">
                <path id="Path_561" data-name="Path 561" d="M353.277,62.887a7.413,7.413,0,0,0-5.765,2.747h11.53A7.413,7.413,0,0,0,353.277,62.887Z" fill="#8c404c"/>
              </g>
              <path id="Path_562" data-name="Path 562" d="M356.116,72.05c0,1.057-.636,1.914-1.42,1.914s-1.419-.857-1.419-1.914.636-1.914,1.419-1.914S356.116,70.993,356.116,72.05Z" fill="#422c4f"/>
              <g id="Group_239" data-name="Group 239">
                <path id="Path_563" data-name="Path 563" d="M371.628,62.887a4.81,4.81,0,0,0-4.027,2.747h8.054A4.808,4.808,0,0,0,371.628,62.887Z" fill="#8c404c"/>
              </g>
              <path id="Path_564" data-name="Path 564" d="M373.8,72.05c0,1.057-.635,1.914-1.419,1.914s-1.419-.857-1.419-1.914.635-1.914,1.419-1.914S373.8,70.993,373.8,72.05Z" fill="#422c4f"/>
              <path id="Path_565" data-name="Path 565" d="M367.322,78.563h-5.375a2.97,2.97,0,0,0,2.536,2.174C365.7,80.817,366.794,79.667,367.322,78.563Z" fill="#eba58e"/>
              <path id="Path_566" data-name="Path 566" d="M369.916,84.018a39.385,39.385,0,0,1-15.314.087,9.444,9.444,0,0,0,7.431,4.562C365.042,88.775,368.161,86.464,369.916,84.018Z" fill="#fff"/>
            </g>
            <path id="Path_567" data-name="Path 567" d="M389.319,153.419l.344,1.753-.344-1.753Z" fill="none"/>
            <g id="Group_242" data-name="Group 242">
              <g id="Group_241" data-name="Group 241">
                <path id="Path_568" data-name="Path 568" d="M357.527,67.286a46.866,46.866,0,0,0-8.507-.673,5.8,5.8,0,0,0-1.344.147c-1.037.257-1.148.727-1.214,1.009a2.739,2.739,0,0,0,.517,1.972,12.616,12.616,0,0,0,2.3,2.39,16.7,16.7,0,0,0,5.256,3.539,5.4,5.4,0,0,0,2.947.173,2.975,2.975,0,0,0,1.445-.779,6.7,6.7,0,0,0,1.325-3.46c.36-2.185.015-3.084-.339-3.454A4.717,4.717,0,0,0,357.527,67.286Z" fill="#422c4f"/>
                <path id="Path_569" data-name="Path 569" d="M382.2,66.916c-.354-2.286-2.17-2.8-3.868-2.725a35.563,35.563,0,0,0-7.426,1.082,5.539,5.539,0,0,0-3.1,1.69,4.179,4.179,0,0,0-.57.944,2.58,2.58,0,0,1-2.354,1.61l-.151,0a2.5,2.5,0,0,1-2.322-1.665,3.737,3.737,0,0,0-.8-1.316,6.475,6.475,0,0,0-3.667-1.551,49.47,49.47,0,0,0-8.929-.709c-2.05.011-4.275.626-4.822,2.96a5,5,0,0,0,.83,3.778,14.33,14.33,0,0,0,2.722,2.879,18.7,18.7,0,0,0,6.045,3.994c2.3.781,5.112.553,6.814-1.185a8.368,8.368,0,0,0,1.962-4.716c.247-1.663,3.995-1.528,4.223.412a8.981,8.981,0,0,0,1.424,4.583c1.336,1.647,3.653,1.754,5.593.883a17.818,17.818,0,0,0,5.177-4.209,15.43,15.43,0,0,0,2.377-2.964A6.04,6.04,0,0,0,382.2,66.916ZM360.25,71.6a6.7,6.7,0,0,1-1.325,3.46,2.975,2.975,0,0,1-1.445.779,5.4,5.4,0,0,1-2.947-.173,16.7,16.7,0,0,1-5.256-3.539,12.616,12.616,0,0,1-2.3-2.39,2.739,2.739,0,0,1-.517-1.972c.066-.282.177-.752,1.214-1.009a5.8,5.8,0,0,1,1.344-.147,46.866,46.866,0,0,1,8.507.673,4.717,4.717,0,0,1,2.384.864C360.265,68.52,360.61,69.419,360.25,71.6Zm19.53-2.089a13.57,13.57,0,0,1-2.006,2.462,15.958,15.958,0,0,1-4.5,3.725,3.878,3.878,0,0,1-2.449.3,2.1,2.1,0,0,1-1.163-.71,6.864,6.864,0,0,1-.951-3.367c-.205-2.146.119-3.051.428-3.432a3.938,3.938,0,0,1,2.011-.956,33.739,33.739,0,0,1,7.075-1.028,3.912,3.912,0,0,1,1.107.089c.848.21.919.671.963.947A3.322,3.322,0,0,1,379.78,69.515Z" fill="#fff"/>
                <path id="Path_570" data-name="Path 570" d="M379.329,66.6a3.912,3.912,0,0,0-1.107-.089,33.739,33.739,0,0,0-7.075,1.028,3.938,3.938,0,0,0-2.011.956c-.309.381-.633,1.286-.428,3.432a6.864,6.864,0,0,0,.951,3.367,2.1,2.1,0,0,0,1.163.71,3.878,3.878,0,0,0,2.449-.3,15.958,15.958,0,0,0,4.5-3.725,13.57,13.57,0,0,0,2.006-2.462,3.322,3.322,0,0,0,.512-1.973C380.248,67.266,380.177,66.805,379.329,66.6Z" fill="#422c4f"/>
              </g>
              <path id="Path_571" data-name="Path 571" d="M344.625,67.813l-4.154,1.182v2.568l4.544-.55Z" fill="#fff"/>
            </g>
            <g id="Group_244" data-name="Group 244">
              <g id="Group_243" data-name="Group 243">
                <path id="Path_572" data-name="Path 572" d="M459.983,77.169l-5.757-3.205c-6.1,1.194-9.3,7.161-9.3,7.161l2.557,2.2Z" fill="#fdf7e7"/>
                <path id="Path_573" data-name="Path 573" d="M447.482,83.327l-2.557-2.2c-9.446-5.1-22.539-3.19-29.255.131l6.3,4.878Z" fill="#fdf7e7"/>
                <path id="Path_574" data-name="Path 574" d="M447.482,83.327c-9.748-4.8-22.113-.618-25.508,2.807l-9.124,46.54c8.239-3.641,19.188-3.51,22.967-1.373Z" fill="#e58e5e"/>
                <path id="Path_575" data-name="Path 575" d="M447.482,83.327c1.918-4.854,8.553-6.14,12.5-6.158L450.855,122.8c-5.39-1.232-12.9,5.442-15.038,8.5Z" fill="#dc784a"/>
                <path id="Path_576" data-name="Path 576" d="M421.974,86.134l-6.3-4.878L407.62,127.3l5.478,4.1Z" fill="#fff"/>
              </g>
              <path id="Path_577" data-name="Path 577" d="M448.308,93.221a5,5,0,0,0-1.276-2.059,1.913,1.913,0,0,0-2.259-.253,2.542,2.542,0,0,0-.7,2.424,38.495,38.495,0,0,0,1.55,5.7,8.914,8.914,0,0,1-.358,5.949,21.357,21.357,0,0,0-3.921-12.725,4.658,4.658,0,0,0-1.4-1.418,1.843,1.843,0,0,0-1.9-.034,1.946,1.946,0,0,0-.638,2.022,7.564,7.564,0,0,0,.946,2.033,16.137,16.137,0,0,1,1.669,11.078A20.611,20.611,0,0,0,437.3,95.479a3.809,3.809,0,0,0-1.026-1.273,1.479,1.479,0,0,0-1.551-.166c-.817.472-.706,1.666-.486,2.583q.641,2.667,1.279,5.334c.454,1.895.527,4.191.981,6.085-.29-1.631-2.654-4.043-4.035-4.958l-.044-.028a1.742,1.742,0,0,0-2.38,2.459c1.537,2.177,3.173,4.516,4.183,6.346a30.209,30.209,0,0,0-3.624,14.485l.017,3.773-5.476,9.386,3.067,2.1a10,10,0,0,0,7.374,1.605l.237-.041,2.127-8.783,12.15-25.625A30.351,30.351,0,0,0,448.308,93.221Z" fill="#f2c9ad"/>
            </g>
          </g>
        </g>
      </g>
    </g>
    <g id="Group_266" data-name="Group 266">
      <path id="Path_579" data-name="Path 579" d="M224.161,455.021c14.445-14.637,22.038-35.115,23.648-55.615s-2.376-41.1-8.575-60.705c-2.544-8.044-5.517-16.077-10.386-22.966s-11.864-12.6-20.107-14.4c-12.976-2.828-26.365,4.288-39.528,2.517-18.926-2.547-31.181-22.126-49.374-27.935A36.189,36.189,0,0,0,72.657,311.5c.349,11.373,5.957,21.811,9.468,32.634s4.509,23.919-3.025,32.446c-7.475,8.458-20.5,9.291-29.476,16.133-11.414,8.7-13.7,25.927-8.144,39.159S58.8,454.785,71.344,461.764A128.485,128.485,0,0,0,153.1,476.143C179.259,472.028,203.55,475.906,224.161,455.021Z" fill="#b9f3ff"/>
      <g id="Group_265" data-name="Group 265">
        <g id="Group_264" data-name="Group 264" clip-path="url(#clip-path-3)">
          <g id="Group_263" data-name="Group 263">
            <g id="Group_250" data-name="Group 250">
              <g id="Group_249" data-name="Group 249">
                <rect id="Rectangle_38" data-name="Rectangle 38" width="34.495" height="52" transform="translate(132.512 430.667)" fill="#797c99"/>
                <path id="Rectangle_39" data-name="Rectangle 39" d="M8,0h8.833a8,8,0,0,1,8,8V52a0,0,0,0,1,0,0H0a0,0,0,0,1,0,0V8A8,8,0,0,1,8,0Z" transform="translate(117.34 430.667)" fill="#99a3b0"/>
              </g>
              <rect id="Rectangle_40" data-name="Rectangle 40" width="24.833" height="3.069" transform="translate(117.34 444.667)" fill="#f5d896"/>
            </g>
            <g id="Group_251" data-name="Group 251">
              <path id="Path_580" data-name="Path 580" d="M165.651,363.149l-6.637,18.21a62.755,62.755,0,0,0-3.774,19.9l-.156,6.137-.516,20.312c-.016.653-.051,1.3-.081,1.957a95.849,95.849,0,0,1-3.774,22.625l-7.828,26.643h33.482l4.922-28.075a79.9,79.9,0,0,0,1.175-15.831l-.136-5.355-.367-14.481-.312-12.283a85.4,85.4,0,0,1,1.684-19.1q.761-3.765,1.864-7.454c.508-1.708,1.051-3.407,1.667-5.084l3.763-10.237Z" fill="#fff"/>
              <path id="Path_581" data-name="Path 581" d="M195.376,353.119l-44.488,5.541-39.474-8.845L132,312.667l-3.159-3.251-6.37-8.257a46.736,46.736,0,0,0-7.85,8.959L92.775,342.679a14.786,14.786,0,0,0,5.837,21.547l45.5,20.443.427,13.506h0l.694,21.93a106.374,106.374,0,0,1-3.746,31.536l-7.5,27.29h8.9l7.828-26.643a95.849,95.849,0,0,0,3.774-22.625c.03-.652.065-1.3.081-1.957l.516-20.312.156-6.137a62.755,62.755,0,0,1,3.774-19.9l6.637-18.21,24.976-2.112-3.763,10.237c-.616,1.677-1.159,3.376-1.667,5.084q-1.1,3.688-1.864,7.454a85.4,85.4,0,0,0-1.684,19.1l.312,12.283.367,14.481.136,5.355a79.9,79.9,0,0,1-1.175,15.831l-4.922,28.075h38.156l4.859-103.5A21.39,21.39,0,0,0,195.376,353.119Z" fill="#6ca8bf"/>
              <path id="Path_582" data-name="Path 582" d="M183.333,383.812l13.5-17.89L185.2,376.358h0Q184.1,380.046,183.333,383.812Z" fill="#468097"/>
              <path id="Path_583" data-name="Path 583" d="M192.343,417.278l21.651-36.7-22.444,30.233-9.59,4.381.368,14.482Z" fill="#468097"/>
              <path id="Path_584" data-name="Path 584" d="M154.487,429.664h0c.03-.652.065-1.3.081-1.957l.516-20.312-10.546-9.22h0l7.082,25.618A17.511,17.511,0,0,0,154.487,429.664Z" fill="#468097"/>
              <path id="Path_585" data-name="Path 585" d="M185.2,376.358l-19.9,17.853,4.737,7.356,4.885-6.6,8.417-11.154h0Q184.093,380.047,185.2,376.358Z" fill="#e4e4e0"/>
              <path id="Path_586" data-name="Path 586" d="M154.487,429.664a17.457,17.457,0,0,0,27.49.441l.351-.434h0l-.367-14.481h0l-11.8,5.388-15.079-13.183h0l-.516,20.312C154.552,428.36,154.517,429.012,154.487,429.664Z" fill="#e4e4e0"/>
              <path id="Path_587" data-name="Path 587" d="M111.66,336.166q-.041.642-.051,1.289l-.195,12.36L132,312.667l-6.7,3.382A24.533,24.533,0,0,0,111.66,336.166Z" fill="#468097"/>
            </g>
            <g id="Group_257" data-name="Group 257">
              <g id="Group_252" data-name="Group 252">
                <path id="Path_588" data-name="Path 588" d="M162.77,349.683l2.881,13.466h0a15.607,15.607,0,0,0,22.492.383l2.484-2.5-8.384-21.19Z" fill="#f0bf9c"/>
                <path id="Path_589" data-name="Path 589" d="M177.866,354.26a16.392,16.392,0,0,0,4.34-8.906,31.373,31.373,0,0,0,.445-4.476l-.408-1.031-19.473,9.836,1.5,7.028a12.342,12.342,0,0,0,13.592-2.451Z" fill="#422c4f"/>
              </g>
              <g id="Group_256" data-name="Group 256">
                <rect id="Rectangle_41" data-name="Rectangle 41" width="41.543" height="54.569" rx="20.771" transform="translate(144.111 298.238)" fill="#f0bf9c"/>
                <path id="Path_590" data-name="Path 590" d="M185.016,335.491l-.931-.211a5.368,5.368,0,0,1-4.16-5.752l.6-6.249-1.073-1.073a8.753,8.753,0,0,1-2.164-8.8l2.115-6.76a3.835,3.835,0,0,0-3.145-1.657,11.5,11.5,0,0,0-3.688.471l-10.7,2.569c-3.925.943-8,1.889-11.96,1.078a14.5,14.5,0,0,1-10.788-10.227,15.23,15.23,0,0,1,3.9-14.424c4.974-4.995,13.07-5.954,19.715-3.6s11.965,7.523,15.982,13.316a24.073,24.073,0,0,0-1.347-8.159,7.18,7.18,0,0,1,4.521,3.387,7.423,7.423,0,0,1,.707,5.706,10.678,10.678,0,0,1,5.223-3.553,9.61,9.61,0,0,1,5.989-.088c-2.466,1.759-4.946,3.751-7.411,5.51,1.846-1.674,4.532-1.675,6.988-1.251a8.368,8.368,0,0,1,5.858,4.226c1.267,2.363,1.308,5.186,1.055,7.856C199.3,318.381,193.165,328.67,185.016,335.491Z" fill="#422c4f"/>
                <g id="Group_253" data-name="Group 253">
                  <circle id="Ellipse_137" data-name="Ellipse 137" cx="7.525" cy="7.525" r="7.525" transform="matrix(0.925, -0.381, 0.381, 0.925, 179.944, 328.231)" fill="#f0bf9c"/>
                  <path id="Path_591" data-name="Path 591" d="M194.521,332.322a4.752,4.752,0,1,1-4.752-4.753A4.753,4.753,0,0,1,194.521,332.322Z" fill="#eba588"/>
                </g>
                <g id="Group_254" data-name="Group 254">
                  <path id="Path_592" data-name="Path 592" d="M168.161,314.477a7.455,7.455,0,0,0-6.139,3.575H174.3A7.455,7.455,0,0,0,168.161,314.477Z" fill="#422c4f"/>
                </g>
                <g id="Group_255" data-name="Group 255">
                  <path id="Path_593" data-name="Path 593" d="M168.485,321.776a4.906,4.906,0,0,0-3.382,4.184,19.033,19.033,0,0,1,8.612-2.926A4.906,4.906,0,0,0,168.485,321.776Z" fill="#422c4f"/>
                </g>
                <path id="Path_594" data-name="Path 594" d="M163.894,333.378h-7.329a3.859,3.859,0,0,0,3.591,2.861A4.511,4.511,0,0,0,163.894,333.378Z" fill="#eba588"/>
                <path id="Path_595" data-name="Path 595" d="M174.4,336.9a62.632,62.632,0,0,1-17.489,4.017c1.126,2.544,2.939,4.891,5.635,5.58a9.379,9.379,0,0,0,7.9-1.617A11.335,11.335,0,0,0,174.4,336.9Z" fill="#fff"/>
              </g>
            </g>
            <g id="Group_259" data-name="Group 259">
              <g id="Group_258" data-name="Group 258">
                <rect id="Rectangle_42" data-name="Rectangle 42" width="24.028" height="41.323" rx="3.168" transform="translate(135.97 302.815)" fill="#495375"/>
                <rect id="Rectangle_43" data-name="Rectangle 43" width="24.028" height="41.323" rx="3.168" transform="translate(128.841 302.815)" fill="#797c99"/>
                <rect id="Rectangle_44" data-name="Rectangle 44" width="3.829" height="8.427" rx="1.056" transform="translate(145.739 305.786)" fill="#fff"/>
              </g>
              <path id="Path_596" data-name="Path 596" d="M142.414,318.284h-4.373v2.431a9.04,9.04,0,0,0,0,10.232v2.431h4.373c3.291,0,5.959-3.379,5.959-7.547S145.705,318.284,142.414,318.284Z" fill="#422c4f"/>
            </g>
            <path id="Path_597" data-name="Path 597" d="M155.586,295.354l-7.224-4.4a8.448,8.448,0,0,0-8.093-.379l-7.287,3.548a46.757,46.757,0,0,0-10.511,7.033l6.37,8.257,5.5,2.273a6.794,6.794,0,0,0,5.55-.165l6.521-3.157a3.7,3.7,0,0,0,1.8-4.756l-2.481-5.945,5.15,1.892a3.17,3.17,0,0,1,1.846,1.788l1.606,3.977a2.572,2.572,0,0,0,3.194,1.478h0a2.572,2.572,0,0,0,1.623-3.273l-2.222-6.493A3.167,3.167,0,0,0,155.586,295.354Z" fill="#f0bf9c"/>
            <path id="Path_598" data-name="Path 598" d="M139.93,354.832l3.787-9.067a20.332,20.332,0,0,0,1.5-6.13l.525-6.257,1.915-7.855a6.6,6.6,0,0,0-5.742,4.358l-2.156,6.02a5.455,5.455,0,0,1-6.483,3.446l-6.237-1.59-5.878-14.851-4.564,9.158a9.153,9.153,0,0,0,.658,9.277l10.4,15.075,2.3,5.491,10.719-5.933Z" fill="#f0bf9c"/>
            <path id="Path_599" data-name="Path 599" d="M201.835,353.3l-15.861,26.729L138.84,461.275l-5.013-13.54,60.134-94.44.971-.869a2.653,2.653,0,0,1,1.769-.676h2.723a2.654,2.654,0,0,1,2.411,1.545Z" fill="#495375"/>
            <path id="Path_600" data-name="Path 600" d="M191.551,410.809l-5.577-30.785-15.943,21.543-29.365-45.593-15.328,8.484,27.529,55.973A16,16,0,0,0,178.9,424.31Z" fill="#6ca8bf"/>
            <path id="Path_601" data-name="Path 601" d="M140.666,355.974l-.736-1.142L128.6,358.693l1.343,3.214Z" fill="#422c4f"/>
            <g id="Group_262" data-name="Group 262">
              <g id="Group_261" data-name="Group 261">
                <path id="Path_602" data-name="Path 602" d="M133.945,313.9h-6.909v3.841a14.286,14.286,0,0,0,0,16.17v3.841h6.909c5.2,0,9.418-5.34,9.418-11.926S139.147,313.9,133.945,313.9Z" fill="#495375"/>
                <ellipse id="Ellipse_138" data-name="Ellipse 138" cx="9.417" cy="11.926" rx="9.417" ry="11.926" transform="translate(117.619 313.905)" fill="#797c99"/>
                <g id="Group_260" data-name="Group 260">
                  <path id="Path_603" data-name="Path 603" d="M136.454,325.831a13.3,13.3,0,0,0-3.5-9.269,6.9,6.9,0,0,0-3.855-1.21c-4.57,0-8.274,4.692-8.274,10.479s3.7,10.479,8.274,10.479a6.894,6.894,0,0,0,3.855-1.211A13.3,13.3,0,0,0,136.454,325.831Z" fill="#422c4f"/>
                </g>
              </g>
              <path id="Path_604" data-name="Path 604" d="M134.144,320.562c.95,2.525.609,4.99-.762,5.506s-3.253-1.112-4.2-3.637-.609-4.99.762-5.506S133.193,318.037,134.144,320.562Z" fill="#5e4670"/>
            </g>
            <path id="Path_605" data-name="Path 605" d="M170.031,401.567l6.219,8.683v-4.566a6.163,6.163,0,0,0-4.815-6.014h0Z" fill="#468097"/>
            <path id="Path_606" data-name="Path 606" d="M125.338,352.807l2.314,3.609,2.295,5.491-4.609,2.551,7.435,15.117-19.593-29.3Z" fill="#468097"/>
            <path id="Path_607" data-name="Path 607" d="M140.666,355.974l17.652,27.407-12.332-25.819Z" fill="#468097"/>
          </g>
        </g>
      </g>
    </g>
    <g id="Group_288" data-name="Group 288">
      <path id="Path_609" data-name="Path 609" d="M436.224,274.319c16.666,6.379,27.554,25.226,24.756,42.849-1.606,10.112-7.087,19.243-9.15,29.272-5.136,24.984,11.545,50.078,8.715,75.426-2.17,19.449-16.062,36.332-33.344,45.512s-37.523,11.458-57.052,10.2c-30.168-1.94-60.965-12.852-80.827-35.642s-25.87-58.776-8.991-83.855c11.7-17.389,31.7-27.017,50.981-35.238,20.195-8.61,38.268-17.591,54.6-32.486C399.846,277.643,416.74,266.863,436.224,274.319Z" fill="#eba7ac"/>
      <g id="Group_267" data-name="Group 267">
        <path id="Path_610" data-name="Path 610" d="M334.2,308.812l.007,0L329.428,296.3c3.892-.395,3.32,7.086,3.32,7.086a9.059,9.059,0,0,0,.407-6.434,6.126,6.126,0,0,0-5.226-3.621h-.767l5.564,14.55a5.357,5.357,0,0,0-3.305.8,6.023,6.023,0,0,0-2.089,1.918,2.124,2.124,0,0,0-.245,2.224,2.066,2.066,0,0,0,1.909.9l.14,0a6.543,6.543,0,0,0,4.8-2.768A2.154,2.154,0,0,0,334.2,308.812Z" fill="#422c4f"/>
        <path id="Path_611" data-name="Path 611" d="M309.42,306.531l-5.637-15.588-8.551,8.031,7.085,19.29a3.59,3.59,0,0,0-.617-.045,6.543,6.543,0,0,0-4.8,2.768,2.125,2.125,0,0,0-.244,2.226,2.1,2.1,0,0,0,1.925.895,5.816,5.816,0,0,0,2.828-.846,6.015,6.015,0,0,0,2.09-1.917,2.152,2.152,0,0,0,.276-2.14l.008,0L297.4,301.813l6.862-6.442,3.7,10.232a5.291,5.291,0,0,0-3.336.794c-1.986,1.146-3.013,2.965-2.334,4.142a2.1,2.1,0,0,0,1.927.9,5.822,5.822,0,0,0,2.828-.847,6.024,6.024,0,0,0,2.09-1.917,2.158,2.158,0,0,0,.276-2.138Zm-12.415-5.794-.541-1.473,6.872-6.452.535,1.479Z" fill="#422c4f"/>
        <path id="Path_612" data-name="Path 612" d="M356.584,287.322l-5.237-13.843-11,10.225,4.574,11.72a3.694,3.694,0,0,0-.617-.045,6.543,6.543,0,0,0-4.8,2.768,2.125,2.125,0,0,0-.244,2.226,2.1,2.1,0,0,0,1.925.9,5.827,5.827,0,0,0,2.828-.846,6.027,6.027,0,0,0,2.09-1.918,2.152,2.152,0,0,0,.276-2.14l.008,0-3.877-9.818,9.307-8.637,3.3,8.488a5.3,5.3,0,0,0-3.336.793c-1.986,1.146-3.012,2.966-2.334,4.142a2.1,2.1,0,0,0,1.927.9,5.832,5.832,0,0,0,2.828-.847,6.036,6.036,0,0,0,2.09-1.918,2.156,2.156,0,0,0,.276-2.137Zm-14.462-1.854-.541-1.473,9.318-8.647.535,1.479Z" fill="#422c4f"/>
        <path id="Path_613" data-name="Path 613" d="M321.393,304.773l-5.9-16.634-1,.352,5.446,15.346a5.336,5.336,0,0,0-3.342.8,6.023,6.023,0,0,0-2.09,1.916,2.132,2.132,0,0,0-.244,2.226,2.068,2.068,0,0,0,1.909.9c.046,0,.093,0,.14,0a6.03,6.03,0,0,0,2.706-.851c1.938-1.119,2.95-2.875,2.368-4.052Z" fill="#422c4f"/>
      </g>
      <g id="Group_287" data-name="Group 287">
        <g id="Group_286" data-name="Group 286" clip-path="url(#clip-path-4)">
          <g id="Group_285" data-name="Group 285">
            <g id="Group_284" data-name="Group 284">
              <g id="Group_268" data-name="Group 268">
                <path id="Path_614" data-name="Path 614" d="M304.891,356.966l.937-14.622a2.17,2.17,0,0,0-1.7-2.259h0a2.17,2.17,0,0,0-2.515,1.4l-3.719,10.563Z" fill="#8c404c"/>
                <path id="Path_615" data-name="Path 615" d="M330.168,383.193l-8.62,11.8-12.674-29.066h0a16.465,16.465,0,0,0-6.864-13.377l-4.4-3.159.7-4.4a10.693,10.693,0,0,0-5.8-11.258l-6.341-3.151-3.528,14.4a9.93,9.93,0,0,0,2.941,9.689L298.84,366.8l7.266,45.819a14.109,14.109,0,0,0,9.626,11.225h0a14.108,14.108,0,0,0,16.23-5.888L350.417,388.8,339.579,385.7Z" fill="#a64f5a"/>
                <path id="Path_616" data-name="Path 616" d="M330.168,383.193l20.249,5.612-6.3,9.955-15.034-14.08Z" fill="#422c4f"/>
                <path id="Path_617" data-name="Path 617" d="M321.548,394.988l5.682,13.032a17.979,17.979,0,0,1-.148-3.4,15.32,15.32,0,0,0-4.507-10.944l-.039-.038Z" fill="#8c404c"/>
              </g>
              <path id="Path_618" data-name="Path 618" d="M360.649,352.959a18.357,18.357,0,0,1-2.436-29.052,13.031,13.031,0,0,1-.933-9.281,12.421,12.421,0,0,1,5.777-7.03,15.578,15.578,0,0,1-.474-11.173,15.235,15.235,0,0,1,7.435-8.186,13.008,13.008,0,0,1,8.439-11.416,13.47,13.47,0,0,1,14.083,3.315c2.366-2.714,6.094-4.591,9.661-4.1a11.11,11.11,0,0,1,8.366,6.121c5.655-2.437,13.1-.722,16.855,4.157a14.4,14.4,0,0,1-.081,17.156,15.621,15.621,0,0,1,4.135,11.473,16.237,16.237,0,0,1-5.626,11.1c2.3,2.9,3.693,6.911,2.781,10.5a12.256,12.256,0,0,1-6.977,8.133c2.691,3.054,4.783,7.924,4.473,11.983a15.486,15.486,0,0,1-5.441,10.573,6.16,6.16,0,0,1-2.453,4.627,12.532,12.532,0,0,1-4.536,1.9,48.524,48.524,0,0,1-29.066-1.74C375.426,368.478,368.952,358.277,360.649,352.959Z" fill="#422c4f"/>
              <g id="Group_269" data-name="Group 269">
                <path id="Path_619" data-name="Path 619" d="M378.87,345.414l-.583,6.052a3.169,3.169,0,0,1-3.36,2.858l-12.25-.8a16.89,16.89,0,0,0-14.5,6.572l-7.041,9.176L380.518,384.1l49.6,1.849,1.486-9.4a14.251,14.251,0,0,0-11.741-16.286l-18.852-3.13a3.169,3.169,0,0,1-2.629-3.489l1.239-10.735Z" fill="#a64f5a"/>
                <path id="Path_620" data-name="Path 620" d="M386.116,353.593a15.265,15.265,0,0,0,9.575-4.834,26.774,26.774,0,0,0,3.846-5.159l.08-.694-20.747,2.508-.532,5.523A10.48,10.48,0,0,0,386.116,353.593Z" fill="#422c4f"/>
              </g>
              <g id="Group_275" data-name="Group 275">
                <path id="Path_621" data-name="Path 621" d="M406.921,324.6a17.2,17.2,0,0,1-.355-14.3,30.171,30.171,0,0,1-7.179-2.427,10.409,10.409,0,0,1-5.029-5.582,25.177,25.177,0,0,1-21.134.581,20.244,20.244,0,0,0-3.145,7.259l-3.16,14.625a20.332,20.332,0,0,0,15.58,24.166h0a20.326,20.326,0,0,0,21.756-9.484A20.555,20.555,0,0,1,406.921,324.6Z" fill="#a64f5a"/>
                <g id="Group_274" data-name="Group 274">
                  <g id="Group_270" data-name="Group 270">
                    <path id="Path_622" data-name="Path 622" d="M397.137,312.435a8.718,8.718,0,0,0-7.388,1.332l13.077,3.567A8.715,8.715,0,0,0,397.137,312.435Z" fill="#422c4f"/>
                  </g>
                  <g id="Group_271" data-name="Group 271">
                    <path id="Path_623" data-name="Path 623" d="M376.98,306.962a5.67,5.67,0,0,0-5.431,1.866l9.163,2.5A5.67,5.67,0,0,0,376.98,306.962Z" fill="#422c4f"/>
                  </g>
                  <g id="Group_272" data-name="Group 272">
                    <path id="Path_624" data-name="Path 624" d="M378.87,316.138a8.922,8.922,0,0,1-7.783-1.267h0a5.022,5.022,0,0,0,7.783,1.267Z" fill="#422c4f"/>
                  </g>
                  <g id="Group_273" data-name="Group 273">
                    <path id="Path_625" data-name="Path 625" d="M397.83,323.01a15.5,15.5,0,0,1-8.706-3.425,6.8,6.8,0,0,0,8.706,3.425Z" fill="#422c4f"/>
                  </g>
                  <path id="Path_626" data-name="Path 626" d="M385.351,326.459a23.469,23.469,0,0,0-7.3-2.8,3.609,3.609,0,0,0,1.009,3.194,4.211,4.211,0,0,0,3.108,1.1A6.141,6.141,0,0,0,385.351,326.459Z" fill="#8c404c"/>
                  <path id="Path_627" data-name="Path 627" d="M394.473,334.43a62.447,62.447,0,0,1-19.641-3.85,11.748,11.748,0,0,0,1,6.949,9.254,9.254,0,0,0,6.192,4.522,10.961,10.961,0,0,0,7.63-1.29C391.944,339.45,393.3,336.793,394.473,334.43Z" fill="#fff"/>
                </g>
              </g>
              <g id="Group_279" data-name="Group 279">
                <path id="Path_628" data-name="Path 628" d="M409.21,395.846l18.835,1.585,6.865,1.329-1.056-17.524-40.788-2.826a223.891,223.891,0,0,1-34.9-5.2l-18.591-4.292-13.454,13.2,17.846,4.753-4.689,10.837a19.22,19.22,0,0,0,3.741,20.909h0a18.314,18.314,0,0,1,5.039,13.683l-.7,12.339a46.781,46.781,0,0,1-3.727,15.828L335.7,478.932h82.409L414.255,460.7a119.326,119.326,0,0,1-2.389-17.937Z" fill="#fff"/>
                <g id="Group_278" data-name="Group 278">
                  <g id="Group_277" data-name="Group 277" clip-path="url(#clip-path-5)">
                    <g id="Group_276" data-name="Group 276">
                      <path id="Path_629" data-name="Path 629" d="M354.477,378.673a5.837,5.837,0,1,0-5.837-5.837A5.836,5.836,0,0,0,354.477,378.673Z" fill="#f4d071"/>
                      <path id="Path_630" data-name="Path 630" d="M338.1,392.041a5.836,5.836,0,1,0-5.837-5.837A5.836,5.836,0,0,0,338.1,392.041Z" fill="#f4d071"/>
                      <path id="Path_631" data-name="Path 631" d="M375.129,383.771a5.837,5.837,0,1,0-5.837-5.836A5.837,5.837,0,0,0,375.129,383.771Z" fill="#f4d071"/>
                      <path id="Path_632" data-name="Path 632" d="M364.112,393.605a5.863,5.863,0,1,0-.477.885l-2.305-3.572Z" fill="#f4d071"/>
                      <circle id="Ellipse_139" data-name="Ellipse 139" cx="5.837" cy="5.837" r="5.837" transform="translate(336.532 398.833)" fill="#f4d071"/>
                      <path id="Path_633" data-name="Path 633" d="M395.781,388.87a5.837,5.837,0,1,0-5.836-5.837A5.837,5.837,0,0,0,395.781,388.87Z" fill="#f4d071"/>
                      <path id="Path_634" data-name="Path 634" d="M373.565,396.4a5.837,5.837,0,1,0,5.836-5.837A5.836,5.836,0,0,0,373.565,396.4Z" fill="#f4d071"/>
                      <path id="Path_635" data-name="Path 635" d="M368.858,409.768a5.837,5.837,0,1,0-5.837,5.837A5.836,5.836,0,0,0,368.858,409.768Z" fill="#f4d071"/>
                      <path id="Path_636" data-name="Path 636" d="M352.315,421.787a5.83,5.83,0,1,0,.055,2.454h-3.2A5.388,5.388,0,0,1,352.315,421.787Z" fill="#f4d071"/>
                      <path id="Path_637" data-name="Path 637" d="M402.762,438.431a5.827,5.827,0,0,1,2.669-4.9l-16.566-16.008a5.834,5.834,0,1,1-8.028-7.758l-16.725-16.162a5.8,5.8,0,0,1-.477.885l14.33,22.216c-3.022-1.95-7.61-1.469-10.858.075-2.232,1.061-4.072,2.889-6.41,3.69-1.989.681-4.15.555-6.236.819a10.531,10.531,0,0,0-2.146.5,5.683,5.683,0,0,1,.055,2.454h10.675a5.818,5.818,0,0,1,8.5,0h8.976l3.474,4.807a5.833,5.833,0,1,1,6.785,9.387l.6.822a14.462,14.462,0,0,0,16.973,5A5.832,5.832,0,0,1,402.762,438.431Z" fill="#e4e4e0"/>
                      <path id="Path_638" data-name="Path 638" d="M361.33,390.918l2.305,3.572a5.8,5.8,0,0,0,.477-.885Z" fill="#e4e4e0"/>
                      <path id="Path_639" data-name="Path 639" d="M352.315,421.787a5.388,5.388,0,0,0-3.146,2.454h3.2a5.683,5.683,0,0,0-.055-2.454Z" fill="#eca85e"/>
                      <path id="Path_640" data-name="Path 640" d="M416.434,393.968a5.836,5.836,0,1,0-5.837-5.837A5.836,5.836,0,0,0,416.434,393.968Z" fill="#f4d071"/>
                      <path id="Path_641" data-name="Path 641" d="M394.217,401.5a5.837,5.837,0,1,0,5.837-5.837A5.836,5.836,0,0,0,394.217,401.5Z" fill="#f4d071"/>
                      <path id="Path_642" data-name="Path 642" d="M389.51,414.867a5.835,5.835,0,0,0-8.673-5.1l8.028,7.758A5.8,5.8,0,0,0,389.51,414.867Z" fill="#f4d071"/>
                      <path id="Path_643" data-name="Path 643" d="M377.837,414.867a5.834,5.834,0,0,0,11.028,2.658l-8.028-7.758A5.836,5.836,0,0,0,377.837,414.867Z" fill="#eca85e"/>
                      <path id="Path_644" data-name="Path 644" d="M361.457,428.234a5.837,5.837,0,1,0,10.085-3.993h-8.5A5.808,5.808,0,0,0,361.457,428.234Z" fill="#f4d071"/>
                      <path id="Path_645" data-name="Path 645" d="M367.294,422.4a5.816,5.816,0,0,0-4.249,1.843h8.5A5.814,5.814,0,0,0,367.294,422.4Z" fill="#eca85e"/>
                      <path id="Path_646" data-name="Path 646" d="M356.75,441.6a5.837,5.837,0,1,0-5.836,5.836A5.836,5.836,0,0,0,356.75,441.6Z" fill="#f4d071"/>
                      <path id="Path_647" data-name="Path 647" d="M437.086,387.393a5.837,5.837,0,1,0,5.837,5.837A5.836,5.836,0,0,0,437.086,387.393Z" fill="#f4d071"/>
                      <path id="Path_648" data-name="Path 648" d="M398.49,419.965a5.837,5.837,0,1,0,5.836-5.837A5.836,5.836,0,0,0,398.49,419.965Z" fill="#f4d071"/>
                      <path id="Path_649" data-name="Path 649" d="M382.11,433.332a5.834,5.834,0,0,0,8.667,5.1l-6.785-9.387A5.813,5.813,0,0,0,382.11,433.332Z" fill="#f4d071"/>
                      <path id="Path_650" data-name="Path 650" d="M393.783,433.332a5.83,5.83,0,0,0-9.791-4.284l6.785,9.387A5.833,5.833,0,0,0,393.783,433.332Z" fill="#eca85e"/>
                      <path id="Path_651" data-name="Path 651" d="M377.4,446.7a5.837,5.837,0,1,0-5.837,5.837A5.837,5.837,0,0,0,377.4,446.7Z" fill="#f4d071"/>
                      <path id="Path_652" data-name="Path 652" d="M361.023,460.068a5.837,5.837,0,1,0-5.837,5.836A5.837,5.837,0,0,0,361.023,460.068Z" fill="#f4d071"/>
                      <circle id="Ellipse_140" data-name="Ellipse 140" cx="5.837" cy="5.837" r="5.837" transform="translate(332.97 467.599)" fill="#f4d071"/>
                      <path id="Path_653" data-name="Path 653" d="M411.866,442.764l-3.049,1.311c-.156.067-.315.118-.472.179.085,0,.168.013.254.013a5.837,5.837,0,1,0-3.168-10.734l6.254,6.044Z" fill="#f4d071"/>
                      <path id="Path_654" data-name="Path 654" d="M402.762,438.431a5.832,5.832,0,0,0,5.583,5.823c.157-.061.316-.112.472-.179l3.049-1.311-.181-3.187-6.254-6.044A5.827,5.827,0,0,0,402.762,438.431Z" fill="#eca85e"/>
                      <path id="Path_655" data-name="Path 655" d="M398.055,451.8a5.837,5.837,0,1,0-5.836,5.837A5.836,5.836,0,0,0,398.055,451.8Z" fill="#f4d071"/>
                      <path id="Path_656" data-name="Path 656" d="M375.839,459.329a5.837,5.837,0,1,0,5.836,5.837A5.837,5.837,0,0,0,375.839,459.329Z" fill="#f4d071"/>
                      <path id="Path_657" data-name="Path 657" d="M359.459,472.7a5.837,5.837,0,1,0,5.836,5.836A5.836,5.836,0,0,0,359.459,472.7Z" fill="#f4d071"/>
                      <path id="Path_658" data-name="Path 658" d="M418.708,456.9a5.837,5.837,0,1,0-5.837,5.836A5.837,5.837,0,0,0,418.708,456.9Z" fill="#f4d071"/>
                      <path id="Path_659" data-name="Path 659" d="M396.491,464.428a5.837,5.837,0,1,0,5.837,5.836A5.837,5.837,0,0,0,396.491,464.428Z" fill="#f4d071"/>
                      <path id="Path_660" data-name="Path 660" d="M417.143,469.526a5.837,5.837,0,1,0,5.837,5.836A5.836,5.836,0,0,0,417.143,469.526Z" fill="#f4d071"/>
                    </g>
                  </g>
                </g>
              </g>
              <g id="Group_283" data-name="Group 283">
                <g id="Group_281" data-name="Group 281">
                  <circle id="Ellipse_141" data-name="Ellipse 141" cx="10.21" cy="10.21" r="10.21" transform="translate(344.031 350.099) rotate(-42.633)" fill="#495375"/>
                  <g id="Group_280" data-name="Group 280">
                    <path id="Path_662" data-name="Path 662" d="M357.373,352.559c-2.793-1.058-5.622-.421-6.32,1.421L335.7,393.89l5.8,2.2,19.666-38.277C361.865,355.967,360.166,353.617,357.373,352.559Z" fill="#797c99"/>
                    <path id="Path_663" data-name="Path 663" d="M341.5,396.087c-.4,1.057-2.023,1.422-3.626.815s-2.577-1.955-2.177-3.012,2.024-1.422,3.626-.815S341.9,395.03,341.5,396.087Z" fill="#495375"/>
                    <path id="Path_664" data-name="Path 664" d="M347.362,384.681l-.994-1.552-6.937,1.062,1.128-2.954,7.569,1.056.383.513Z" fill="#422c4f"/>
                  </g>
                </g>
                <g id="Group_282" data-name="Group 282">
                  <path id="Path_665" data-name="Path 665" d="M368.019,381.236l38.023,32.389,3.168-17.779,18.835,1.585-6.753,32.128a13.125,13.125,0,0,1-22.919,5.713L361.33,390.918l-1.069-.284a21.9,21.9,0,0,1-12.133-8.342h0l-7.569-1.056h0a5.838,5.838,0,0,1-.294-5.984l3.777-7.081a3.7,3.7,0,0,1,2.856-1.936l9.588-1.059a5.99,5.99,0,0,1,6.158,3.583Z" fill="#a64f5a"/>
                  <path id="Path_666" data-name="Path 666" d="M413.687,420.138l-7.645-6.513.46-2.58h0a7.549,7.549,0,0,1,6.727,6.3Z" fill="#8c404c"/>
                  <path id="Path_667" data-name="Path 667" d="M409.21,395.846l18.835,1.584-.33,1.57-19.544,2.673Z" fill="#422c4f"/>
                </g>
              </g>
            </g>
          </g>
        </g>
      </g>
    </g>
    <g id="Group_290" data-name="Group 290">
      <path id="Path_669" data-name="Path 669" d="M224.433,49.336c-.838-6.3-1.885-13.058-6.273-17.659-2.883-3.022-6.872-4.719-10.839-6.024a80.836,80.836,0,0,0-16.377-3.56,19.359,19.359,0,0,0-7.467.263,7.794,7.794,0,0,0-5.423,4.766c-.982,3.089.688,6.349,2.431,9.082a104.169,104.169,0,0,0,14.764,18.018C204.472,52.505,215.21,51.052,224.433,49.336Z" fill="#a34262"/>
      <g id="Group_289" data-name="Group 289">
        <path id="Path_670" data-name="Path 670" d="M227.375,27.625a24.334,24.334,0,0,1,8.731,3.043,39.2,39.2,0,0,0-9.273-5.5c-20.5-9.08-28,3.666-32.465,14.137-3.3,6.436-1.485,12.939,3.519,18.315C209.041,31.958,212.951,25.3,227.375,27.625Z" fill="#cc6164"/>
        <path id="Path_671" data-name="Path 671" d="M236.106,30.668a24.334,24.334,0,0,0-8.731-3.043c-14.424-2.323-18.334,4.333-29.488,29.994a34.867,34.867,0,0,0,9.613,7.048c11.547,5.925,23.735,5.738,28.683-3.9C243.152,48.4,245.6,38.577,236.106,30.668Z" fill="#e8916a"/>
      </g>
      <path id="Path_672" data-name="Path 672" d="M235.5,29.874c-.358.689-1.662.722-2.913.072s-1.976-1.735-1.618-2.424,1.662-.722,2.913-.072S235.855,29.185,235.5,29.874Z" fill="#f0bf6c"/>
    </g>
    <g id="Group_291" data-name="Group 291">
      <path id="Path_673" data-name="Path 673" d="M128.661,161.52c.244-.091.425-.222.431-.391,0-6.066,6.769-11.188,11.928-7.815a3.176,3.176,0,0,0-.029-.426C138.026,149.269,128.713,151.819,128.661,161.52Z" fill="#c7d2d7"/>
      <path id="Path_674" data-name="Path 674" d="M139.322,150.439l-1.2-.66a4.589,4.589,0,0,0-2.71-.556c-7.571.848-8.748,6.79-8.454,11.958.05.52,1.093.566,1.7.339.052-9.7,9.365-12.251,12.33-8.632A3.28,3.28,0,0,0,139.322,150.439Z" fill="#fff"/>
    </g>
  </g>
</svg>
