<svg xmlns="http://www.w3.org/2000/svg" width="2153.765" height="1617.23" viewBox="0 0 2153.765 1617.23">
  <g id="Group_434" data-name="Group 434" transform="translate(-435.576 -174.498)">
    <g id="Group_298" data-name="Group 298">
      <path id="Path_680" data-name="Path 680" d="M2268.723,1162.265A755.569,755.569,0,0,0,2343,1050.659c51.048-93.874,74.1-199.683,64.169-306.593-12.31-132.565-93.185-264.157-227.008-302.744-118.7-34.225-222.38,32.691-306.221,110.279-62.674,58-122.971,121.284-201.207,158.487-83.343,39.632-191.884,38.846-282.266,31.492-122.23-9.945-239.593-46.3-361.634-54.495C903.588,678.676,761.9,709.847,673.4,804.717c-104.828,112.366-91.128,285.45-13.6,409.013a413.7,413.7,0,0,0,27.119,38.247c91.879,115.082,232.585,185.045,374.137,217.347,317.77,72.514,678.364,62.434,966.6-103.332C2119.378,1313.239,2202.444,1244.978,2268.723,1162.265Z" fill="#f6f5f5"/>
      <path id="Path_681" data-name="Path 681" d="M2259.816,1268.291a788.211,788.211,0,0,0,93.255-104.228c66.634-89.365,106.126-195.205,111.73-307.074,6.949-138.713-57.047-286.59-189.511-346.282-117.491-52.945-234.48.776-332.562,68.46-73.319,50.6-144.968,107-231.272,133.815-91.938,28.564-203.9,11.654-296.141-9.343-124.74-28.4-240.538-83.343-365.343-109.9-128.085-27.259-279.016-16.085-384.477,68.753-124.91,100.484-136.433,281.244-74.7,420.333a431.781,431.781,0,0,0,22.331,43.516c77.808,132.46,212.726,225.573,354.1,279.921,317.377,122.006,691.224,165.075,1013.442,36.651C2083.211,1402.04,2179.109,1343.873,2259.816,1268.291Z" fill="none" stroke="#f6f5f5" stroke-miterlimit="10" stroke-width="10"/>
    </g>
    <g id="Group_404" data-name="Group 404" opacity="0.6">
      <g id="Group_301" data-name="Group 301">
        <g id="Group_300" data-name="Group 300">
          <g id="Group_299" data-name="Group 299">
            <path id="Path_682" data-name="Path 682" d="M1089.388,971.336l6.789-.032,6.1-.029,1.464-.007s-.345,4.148-.225,9.739a18.007,18.007,0,0,0,2.885,9.718,21.9,21.9,0,0,0,2.573,5.137,1.211,1.211,0,0,1-.649,1.841c-2.23.332-4.193.687-5.926,1.029-3.775,1.636-5.131,2.986-6.1.02a15.337,15.337,0,0,1-1.817-3.951c-.389-1.139-.76-2.5-1.111-4.014a52.674,52.674,0,0,1-3.005-9.717C1089.733,975.522,1089.388,971.336,1089.388,971.336Z" fill="#fbc343"/>
          </g>
        </g>
      </g>
      <g id="Group_304" data-name="Group 304">
        <g id="Group_303" data-name="Group 303">
          <g id="Group_302" data-name="Group 302">
            <path id="Path_683" data-name="Path 683" d="M1077.461,858.067l3.158,6.011,1.2,2.285.681,1.3s3.492-2.271,8.472-4.814a5.694,5.694,0,0,1,5.291.405,21.707,21.707,0,0,1,5.73-.162,1.216,1.216,0,0,0,1.318-1.445c-.754-2.127-1.363-4.028-1.875-5.721.684-2.176,1.6-3.317-1.209-2.28a15.21,15.21,0,0,0-4.331.267c-1.186.2-2.56.514-4.057.92a16.841,16.841,0,0,0-5.346-.509C1081.31,856.389,1077.461,858.067,1077.461,858.067Z" fill="#9490e6"/>
          </g>
        </g>
      </g>
      <g id="Group_307" data-name="Group 307">
        <g id="Group_306" data-name="Group 306">
          <g id="Group_305" data-name="Group 305">
            <path id="Path_684" data-name="Path 684" d="M666.978,1068.46l6.393,2.288,9.314,3.335,1.378.493s-1.658,3.811-3.342,9.148c-1.366,4.4-2.646,10.179-2.113,15.279a22.414,22.414,0,0,0,.767,5.743,1.194,1.194,0,0,1-1.2,1.523c-2.2-.448-4.162-.782-5.9-1.05-6.286-.532-8.792,0-9.311-3.344a15.669,15.669,0,0,1-.438-4.362c0-1.212.089-2.628.245-4.181a118.749,118.749,0,0,1,2-15.319C665.958,1072.542,666.978,1068.46,666.978,1068.46Z" fill="#8cbfbe"/>
          </g>
        </g>
      </g>
      <g id="Group_310" data-name="Group 310">
        <g id="Group_309" data-name="Group 309">
          <g id="Group_308" data-name="Group 308">
            <path id="Path_685" data-name="Path 685" d="M600.525,824.705l-4.181,5.349-5.034,6.441-.9,1.153s3.406,2.376,7.638,6.041c2.627,2.329,5.673,5.684,7.064,9.614a22.821,22.821,0,0,1,2.381,5.315,1.184,1.184,0,0,0,1.815.663c1.621-1.552,3.095-2.878,4.42-4.031,4.361-2.952,6.516-3.528,5.026-6.446a15.939,15.939,0,0,0-1.93-3.959c-.639-1.035-1.461-2.2-2.411-3.443a72.5,72.5,0,0,0-6.99-9.707C603.537,827.651,600.525,824.705,600.525,824.705Z" fill="#708cd5"/>
          </g>
        </g>
      </g>
      <g id="Group_313" data-name="Group 313">
        <g id="Group_312" data-name="Group 312">
          <g id="Group_311" data-name="Group 311">
            <path id="Path_686" data-name="Path 686" d="M857.288,490.473l6.7,1.127,4.743.8,1.444.243s-1,4.036-1.778,9.576a12.454,12.454,0,0,0,1.6,8.143,22.126,22.126,0,0,0,1.714,5.509,1.2,1.2,0,0,1-.933,1.707c-2.251-.052-4.241-.037-6,.005-3.191,1.1-4.459,2.252-4.742-.808a15.522,15.522,0,0,1-1.159-4.209c-.2-1.192-.349-2.6-.454-4.153a36.369,36.369,0,0,1-1.714-8.162C856.961,494.664,857.288,490.473,857.288,490.473Z" fill="#fbc343"/>
          </g>
        </g>
      </g>
      <g id="Group_316" data-name="Group 316">
        <g id="Group_315" data-name="Group 315">
          <g id="Group_314" data-name="Group 314">
            <path id="Path_687" data-name="Path 687" d="M789.883,586.111l-6.7,1.127-4.743.8L777,588.28s1,4.036,1.777,9.576a12.443,12.443,0,0,1-1.6,8.142,22.175,22.175,0,0,1-1.714,5.51,1.2,1.2,0,0,0,.933,1.707c2.251-.053,4.241-.037,6,0,3.191,1.1,4.459,2.253,4.741-.807a15.477,15.477,0,0,0,1.16-4.21c.2-1.191.349-2.6.454-4.152a36.381,36.381,0,0,0,1.714-8.162C790.211,590.3,789.883,586.111,789.883,586.111Z" fill="#fbc343"/>
          </g>
        </g>
      </g>
      <g id="Group_319" data-name="Group 319">
        <g id="Group_318" data-name="Group 318">
          <g id="Group_317" data-name="Group 317">
            <path id="Path_688" data-name="Path 688" d="M1235.642,420.736l-6.682,1.2-2.489.449-1.441.26s1.047,4.025,1.882,9.556a5.647,5.647,0,0,1-2.07,4.823,22.255,22.255,0,0,1-1.654,5.53,1.2,1.2,0,0,0,.951,1.7c2.25-.079,4.24-.086,6-.065,1.811,1.317,2.59,2.542,2.487-.458a15.541,15.541,0,0,0,1.114-4.223c.188-1.194.32-2.6.408-4.158a16.715,16.715,0,0,0,2.187-4.844C1236.015,424.923,1235.642,420.736,1235.642,420.736Z" fill="#fbc343"/>
          </g>
        </g>
      </g>
      <g id="Group_322" data-name="Group 322">
        <g id="Group_321" data-name="Group 321">
          <g id="Group_320" data-name="Group 320">
            <path id="Path_689" data-name="Path 689" d="M1474.569,420.111l6.786.2,3,.09,1.463.044s-.479,4.134-.541,9.727a6.748,6.748,0,0,0,2.7,5.215,21.97,21.97,0,0,0,2.4,5.223,1.21,1.21,0,0,1-.707,1.818c-2.24.254-4.213.541-5.957.822-1.906,1.562-2.614,2.884-3-.1a15.37,15.37,0,0,1-1.687-4.011c-.352-1.153-.678-2.527-.981-4.051a19.878,19.878,0,0,1-2.816-5.219C1474.779,424.307,1474.569,420.111,1474.569,420.111Z" fill="#ee6f57"/>
          </g>
        </g>
      </g>
      <g id="Group_325" data-name="Group 325">
        <g id="Group_324" data-name="Group 324">
          <g id="Group_323" data-name="Group 323">
            <path id="Path_690" data-name="Path 690" d="M1319.09,536.938s.562-2.954,1.268-6.67c.254-1.337.575-3.023.72-3.785l.273-1.439s4.007,1.128,9.519,2.073a9.14,9.14,0,0,0,6.814-1.6,21.926,21.926,0,0,0,5.535-1.548,1.211,1.211,0,0,1,1.684.986c-.1,2.253-.129,4.246-.125,6.012,1.144,2.647,2.3,3.742-.729,3.784a15.325,15.325,0,0,1-4.226,1.033c-1.193.165-2.6.27-4.154.327a26.7,26.7,0,0,1-6.835,1.722C1323.265,537.4,1319.09,536.938,1319.09,536.938Z" fill="#8cbfbe"/>
          </g>
        </g>
      </g>
      <g id="Group_328" data-name="Group 328">
        <g id="Group_327" data-name="Group 327">
          <g id="Group_326" data-name="Group 326">
            <path id="Path_691" data-name="Path 691" d="M997.464,611.864l-6.573-1.7-5.469-1.417L984,608.377s-.754,4.088-2.337,9.455a15.781,15.781,0,0,1-5.136,7.9,22.334,22.334,0,0,1-3.842,4.323,1.2,1.2,0,0,0,.145,1.937c2.075.869,3.884,1.7,5.475,2.451,2.958,2.438,3.821,4.05,5.472,1.409a15.662,15.662,0,0,0,2.8-3.365c.676-1,1.393-2.227,2.131-3.6a46.133,46.133,0,0,0,5.25-7.87C996.03,615.818,997.464,611.864,997.464,611.864Z" fill="#8cbfbe"/>
          </g>
        </g>
      </g>
      <g id="Group_331" data-name="Group 331">
        <g id="Group_330" data-name="Group 330">
          <g id="Group_329" data-name="Group 329">
            <path id="Path_692" data-name="Path 692" d="M1690.338,484.464l-2.269,6.4c-.825,2.327-1.864,5.258-2.334,6.585l-.489,1.38s-3.757-1.815-9.018-3.71a16.233,16.233,0,0,0-9.606-.607,21.328,21.328,0,0,0-5.666.576,1.231,1.231,0,0,1-1.5-1.272c.445-2.218.778-4.191,1.046-5.945-.066-4.655-.8-6.6,2.343-6.581a14.944,14.944,0,0,1,4.3-.29c1.2.043,2.593.183,4.125.4a47.489,47.489,0,0,1,9.646.495C1686.313,483.286,1690.338,484.464,1690.338,484.464Z" fill="#fbc343"/>
          </g>
        </g>
      </g>
      <g id="Group_334" data-name="Group 334">
        <g id="Group_333" data-name="Group 333">
          <g id="Group_332" data-name="Group 332">
            <path id="Path_693" data-name="Path 693" d="M1253.98,712.4l-2.269,6.4-2.334,6.585-.489,1.38s-3.757-1.815-9.018-3.71a16.232,16.232,0,0,0-9.606-.607,21.327,21.327,0,0,0-5.666.576,1.231,1.231,0,0,1-1.5-1.272c.445-2.218.778-4.191,1.046-5.945-.066-4.655-.8-6.6,2.343-6.581a14.975,14.975,0,0,1,4.3-.291c1.2.044,2.593.184,4.125.4a47.492,47.492,0,0,1,9.646.5C1249.955,711.224,1253.98,712.4,1253.98,712.4Z" fill="#ee6f57"/>
          </g>
        </g>
      </g>
      <g id="Group_337" data-name="Group 337">
        <g id="Group_336" data-name="Group 336">
          <g id="Group_335" data-name="Group 335">
            <path id="Path_694" data-name="Path 694" d="M1940.386,648.778s-1.005,2.834-2.268,6.4l-2.335,6.584-.489,1.38s-3.757-1.814-9.017-3.71a16.244,16.244,0,0,0-9.607-.606,21.373,21.373,0,0,0-5.666.575,1.231,1.231,0,0,1-1.5-1.271c.445-2.218.778-4.191,1.046-5.945-.066-4.655-.8-6.6,2.343-6.581a14.975,14.975,0,0,1,4.3-.291c1.2.044,2.594.184,4.125.4a47.488,47.488,0,0,1,9.646.495C1936.361,647.6,1940.386,648.778,1940.386,648.778Z" fill="#ee6f57"/>
          </g>
        </g>
      </g>
      <g id="Group_340" data-name="Group 340">
        <g id="Group_339" data-name="Group 339">
          <g id="Group_338" data-name="Group 338">
            <path id="Path_695" data-name="Path 695" d="M1578.245,694.906l5.3-4.247,5.6-4.488,1.143-.916s2.2,3.549,5.63,7.968c2.006,2.51,4.944,5.4,8.534,6.657a21.094,21.094,0,0,0,5.077,2.529,1.241,1.241,0,0,1,.59,1.883c-1.548,1.653-2.874,3.158-4.027,4.51-2.5,4.078-2.945,6.156-5.6,4.482a14.786,14.786,0,0,1-3.778-2.046c-.984-.674-2.087-1.538-3.264-2.535a59.093,59.093,0,0,1-8.626-6.583C1581.012,698.055,1578.245,694.906,1578.245,694.906Z" fill="#d3d3d3"/>
          </g>
        </g>
      </g>
      <g id="Group_343" data-name="Group 343">
        <g id="Group_342" data-name="Group 342">
          <g id="Group_341" data-name="Group 341">
            <path id="Path_696" data-name="Path 696" d="M1574.364,433.667l-6.774.469-4.125.286-1.461.1s.631,4.113.9,9.7a10.065,10.065,0,0,1-2.4,6.986,22,22,0,0,1-2.211,5.314,1.208,1.208,0,0,0,.774,1.79c2.247.166,4.228.375,5.981.588,2.661,1.438,3.669,2.715,4.125-.294a15.441,15.441,0,0,0,1.539-4.075c.309-1.166.586-2.552.832-4.087a29.413,29.413,0,0,0,2.515-6.995C1574.308,437.868,1574.364,433.667,1574.364,433.667Z" fill="#9490e6"/>
          </g>
        </g>
      </g>
      <g id="Group_346" data-name="Group 346">
        <g id="Group_345" data-name="Group 345">
          <g id="Group_344" data-name="Group 344">
            <path id="Path_697" data-name="Path 697" d="M1464.57,289.427l6.028-5.85.436-.423,1.275-1.237s3.351,4.172,8.39,9.294c.273.106,1.057-.181,3.126-1.817a28.482,28.482,0,0,0,6.812,2.582,1.587,1.587,0,0,1,1.046,2.276c-1.7,2.223-3.134,4.236-4.354,6.016l-.445.416a19.886,19.886,0,0,1-5.1-2.134c-1.352-.732-2.885-1.687-4.52-2.785a23.323,23.323,0,0,1-3.231,1.918C1468.571,293.041,1464.57,289.427,1464.57,289.427Z" fill="#fbc343"/>
          </g>
        </g>
      </g>
      <g id="Group_349" data-name="Group 349">
        <g id="Group_348" data-name="Group 348">
          <g id="Group_347" data-name="Group 347">
            <path id="Path_698" data-name="Path 698" d="M1697.5,359.225l-3.457,5.843c-.925,1.563-2.09,3.533-2.618,4.424l-.746,1.26s-3.319-2.533-8.093-5.445a10.048,10.048,0,0,0-7.32-1.273,21.113,21.113,0,0,0-5.65-.563,1.239,1.239,0,0,1-1.22-1.549c.865-2.093,1.573-3.968,2.175-5.64.255-3.608-.3-5.315,2.625-4.419a14.844,14.844,0,0,1,4.262.571c1.161.281,2.5.7,3.955,1.211a29.263,29.263,0,0,1,7.38,1.171C1693.8,357.264,1697.5,359.225,1697.5,359.225Z" fill="#708cd5"/>
          </g>
        </g>
      </g>
      <g id="Group_352" data-name="Group 352">
        <g id="Group_351" data-name="Group 351">
          <g id="Group_350" data-name="Group 350">
            <path id="Path_699" data-name="Path 699" d="M2187.373,432.069l-7.762-5.609-1.48-1.069-1.674-1.21s-2.858,5.151-7.381,11.613c-.621.666-1.972,1.109-4.906.106a29.762,29.762,0,0,1-6.979,3.916,1.749,1.749,0,0,0-.7,2.693c2.3,2.22,4.27,4.246,5.99,6.069-.36,2.556-1.09,4.366,1.488,1.059a20.864,20.864,0,0,0,5.182-3.144c1.34-1.018,2.834-2.312,4.424-3.8a14.874,14.874,0,0,0,5.041-.008C2183.693,436.7,2187.373,432.069,2187.373,432.069Z" fill="#ee6f57"/>
          </g>
        </g>
      </g>
      <g id="Group_355" data-name="Group 355">
        <g id="Group_354" data-name="Group 354">
          <g id="Group_353" data-name="Group 353">
            <path id="Path_700" data-name="Path 700" d="M2016.239,495.825l6.184-2.8,3.151-1.428,1.334-.6s1.286,3.97,3.553,9.082a7.224,7.224,0,0,0,4.745,3.916,21.229,21.229,0,0,0,4.33,3.69,1.234,1.234,0,0,1,.119,1.965c-1.907,1.217-3.561,2.346-5.011,3.37-1.322,2.376-1.5,3.932-3.155,1.42a14.908,14.908,0,0,1-3.183-2.9c-.8-.893-1.659-2-2.564-3.251a21.093,21.093,0,0,1-4.852-3.867C2018.17,499.547,2016.239,495.825,2016.239,495.825Z" fill="#8cbfbe"/>
          </g>
        </g>
      </g>
      <g id="Group_358" data-name="Group 358">
        <g id="Group_357" data-name="Group 357">
          <g id="Group_356" data-name="Group 356">
            <path id="Path_701" data-name="Path 701" d="M2015.921,644.119l-6.76-.634-3.9-.366-1.458-.137s0,4.166-.582,9.727a9.23,9.23,0,0,1-3.4,6.18,21.733,21.733,0,0,1-2.988,4.891,1.217,1.217,0,0,0,.494,1.893c2.194.529,4.119,1.056,5.817,1.55,2.275,1.839,3.028,3.259,3.9.357a15.208,15.208,0,0,0,2.137-3.776c.482-1.1.964-2.426,1.44-3.9a27.007,27.007,0,0,0,3.513-6.169C2015.23,648.259,2015.921,644.119,2015.921,644.119Z" fill="#fbc343"/>
          </g>
        </g>
      </g>
      <g id="Group_361" data-name="Group 361">
        <g id="Group_360" data-name="Group 360">
          <g id="Group_359" data-name="Group 359">
            <path id="Path_702" data-name="Path 702" d="M1868.92,796.979l6.51,1.929,3.871,1.147,1.4.416s-1.455,3.894-2.856,9.311a9.586,9.586,0,0,0,.984,7.1,22.355,22.355,0,0,0,1.07,5.687,1.2,1.2,0,0,1-1.12,1.586c-2.225-.324-4.2-.549-5.953-.721-2.831.849-4.054,1.888-3.869-1.156a15.643,15.643,0,0,1-.668-4.327c-.064-1.209-.05-2.627.023-4.185a28.113,28.113,0,0,1-1.1-7.134C1868.117,801.108,1868.92,796.979,1868.92,796.979Z" fill="#8cbfbe"/>
          </g>
        </g>
      </g>
      <g id="Group_364" data-name="Group 364">
        <g id="Group_363" data-name="Group 363">
          <g id="Group_362" data-name="Group 362">
            <path id="Path_703" data-name="Path 703" d="M1753.409,877.558l6.553-1.778,5.8-1.572,1.413-.384s.668,4.116,2.133,9.512a16.928,16.928,0,0,0,5.067,8.426,21.437,21.437,0,0,0,3.726,4.324,1.226,1.226,0,0,1-.182,1.954c-2.076.9-3.886,1.746-5.479,2.523-3.2,2.544-4.16,4.2-5.8,1.564a15.031,15.031,0,0,1-2.709-3.367c-.651-1.006-1.338-2.233-2.043-3.611a49.394,49.394,0,0,1-5.182-8.395C1754.753,881.532,1753.409,877.558,1753.409,877.558Z" fill="#fbc343"/>
          </g>
        </g>
      </g>
      <g id="Group_367" data-name="Group 367">
        <g id="Group_366" data-name="Group 366">
          <g id="Group_365" data-name="Group 365">
            <path id="Path_704" data-name="Path 704" d="M2378.91,738.593l-5.857-3.434-7.006-4.108-1.263-.741s-1.679,3.823-4.449,8.681c-1.873,3.211-4.684,7.055-8.308,9.254a21.174,21.174,0,0,1-4.674,3.228,1.239,1.239,0,0,0-.317,1.946c1.771,1.411,3.3,2.707,4.635,3.877,3.565,3.966,4.484,6.062,7.011,4.1a14.793,14.793,0,0,0,3.454-2.563c.88-.807,1.85-1.82,2.876-2.974a77.253,77.253,0,0,0,8.41-9.194C2376.615,742.1,2378.91,738.593,2378.91,738.593Z" fill="#ee6f57"/>
          </g>
        </g>
      </g>
      <g id="Group_370" data-name="Group 370">
        <g id="Group_369" data-name="Group 369">
          <g id="Group_368" data-name="Group 368">
            <path id="Path_705" data-name="Path 705" d="M2396.028,985.889l5.621-3.807c2.71-1.836,6.125-4.149,7.671-5.195l1.212-.821s1.917,3.71,4.987,8.384c2.322,3.483,5.688,7.647,9.693,10.009a21.115,21.115,0,0,0,4.865,2.923,1.24,1.24,0,0,1,.44,1.923c-1.676,1.523-3.117,2.916-4.376,4.172-3.888,4.588-4.883,6.883-7.675,5.187a14.822,14.822,0,0,1-3.608-2.338c-.928-.75-1.96-1.7-3.055-2.786a96.266,96.266,0,0,1-9.792-9.942C2398.538,989.246,2396.028,985.889,2396.028,985.889Z" fill="#fbc343"/>
          </g>
        </g>
      </g>
      <g id="Group_373" data-name="Group 373">
        <g id="Group_372" data-name="Group 372">
          <g id="Group_371" data-name="Group 371">
            <path id="Path_706" data-name="Path 706" d="M2248.37,837.863l5.471-4.021c2.481-1.825,5.609-4.123,7.024-5.163l1.18-.867s2.055,3.636,5.3,8.192c2.3,3.173,5.628,6.927,9.566,8.914a21.111,21.111,0,0,0,4.97,2.737,1.241,1.241,0,0,1,.512,1.9c-1.616,1.587-3,3.035-4.212,4.338-3.437,4.534-4.245,6.795-7.03,5.154a14.777,14.777,0,0,1-3.691-2.2c-.956-.714-2.022-1.623-3.158-2.668a85.12,85.12,0,0,1-9.661-8.844C2251,841.123,2248.37,837.863,2248.37,837.863Z" fill="#8cbfbe"/>
          </g>
        </g>
      </g>
      <g id="Group_376" data-name="Group 376">
        <g id="Group_375" data-name="Group 375">
          <g id="Group_374" data-name="Group 374">
            <path id="Path_707" data-name="Path 707" d="M998.59,333.4l8,3.427,1.278.547,1.725.739s-2.4,4.754-4.955,11.462c-.18.8.167,2.066,2.369,3.889a28.893,28.893,0,0,0,.553,7.418,1.528,1.528,0,0,1-1.65,1.858c-2.784-.743-5.263-1.323-7.467-1.8-1.562,1.589-2.487,3.066-1.273-.557a20.265,20.265,0,0,1-.235-5.623c.091-1.553.31-3.361.625-5.339a14.621,14.621,0,0,1-2.508-3.949C996.981,338.553,998.59,333.4,998.59,333.4Z" fill="#fbc343"/>
          </g>
        </g>
      </g>
      <g id="Group_379" data-name="Group 379">
        <g id="Group_378" data-name="Group 378">
          <g id="Group_377" data-name="Group 377">
            <path id="Path_708" data-name="Path 708" d="M1058.812,420.736l7.531,4.256,2.36,1.334,1.625.918s-2.872,4.447-6.094,10.81c-.517,1.253-.631,3.158,1.094,5.683a28.807,28.807,0,0,0-.236,7.4c.119,1.061-.965,1.995-1.823,1.661-2.667-1.036-5.051-1.878-7.174-2.59-2.426,1-3.752,2.214-2.355-1.344a20.2,20.2,0,0,1,.36-5.591c.254-1.527.661-3.293,1.179-5.217a17.725,17.725,0,0,1-1.225-5.757C1056.683,425.661,1058.812,420.736,1058.812,420.736Z" fill="#708cd5"/>
          </g>
        </g>
      </g>
      <g id="Group_382" data-name="Group 382">
        <g id="Group_381" data-name="Group 381">
          <g id="Group_380" data-name="Group 380">
            <path id="Path_709" data-name="Path 709" d="M2231.676,564.122l5.384-4.135,2.467-1.894,1.161-.892s2.13,3.593,5.467,8.081a5.786,5.786,0,0,0,4.986,2.077,21.048,21.048,0,0,0,5.025,2.633,1.242,1.242,0,0,1,.552,1.9c-1.583,1.621-2.939,3.1-4.121,4.426-.585,2.489-.352,4-2.471,1.886a14.79,14.79,0,0,1-3.736-2.122c-.97-.694-2.055-1.581-3.212-2.6a16.981,16.981,0,0,1-5.08-2.005C2234.377,567.327,2231.676,564.122,2231.676,564.122Z" fill="#708cd5"/>
          </g>
        </g>
      </g>
      <g id="Group_385" data-name="Group 385">
        <g id="Group_384" data-name="Group 384">
          <g id="Group_383" data-name="Group 383">
            <path id="Path_710" data-name="Path 710" d="M1378.015,350.284l9.593.5,1.5.078,2.069.108s-.8,5.834-1.052,13.743c.095.976.909,2.255,3.861,3.384a31.09,31.09,0,0,0,3.247,7.464,1.71,1.71,0,0,1-1.055,2.55c-3.176.289-1.744,1.435-4.218,1.778-1.041,2.238-5.7,3.317-5.729-.894a21.767,21.767,0,0,1-2.269-5.728c-.463-1.641-.885-3.6-1.268-5.761a15.761,15.761,0,0,1-4.028-3.392C1378.188,356.225,1378.015,350.284,1378.015,350.284Z" fill="#8cbfbe"/>
          </g>
        </g>
      </g>
      <g id="Group_388" data-name="Group 388">
        <g id="Group_387" data-name="Group 387">
          <g id="Group_386" data-name="Group 386">
            <path id="Path_711" data-name="Path 711" d="M1546.438,349.157l-9.492-1.206-1.31-.166-2.047-.26s-.18,5.868-1.241,13.677c-.244.855-1.241,1.857-4.313,2.355a30.522,30.522,0,0,1-4.419,6.753,1.718,1.718,0,0,0,.612,2.69c3.068.846,4.46,1.259,6.83,2.034l2.608.573a21.431,21.431,0,0,0,3.172-5.221c.727-1.53,1.463-3.374,2.2-5.432a15.364,15.364,0,0,0,4.479-2.334C1545.286,354.959,1546.438,349.157,1546.438,349.157Z" fill="#8cbfbe"/>
          </g>
        </g>
      </g>
      <g id="Group_391" data-name="Group 391">
        <g id="Group_390" data-name="Group 390">
          <g id="Group_389" data-name="Group 389">
            <path id="Path_712" data-name="Path 712" d="M1197.213,542.634l-2.574,6.283c-.511,1.247-1.154,2.818-1.446,3.529l-.555,1.355s3.959,1.276,9.075,3.539a9.013,9.013,0,0,1,4.718,5.076,22.175,22.175,0,0,1,3.777,4.362,1.2,1.2,0,0,0,1.943.107c1.142-1.94,2.2-3.623,3.169-5.1,2.387-1.558,3.948-1.824,1.438-3.533a15.507,15.507,0,0,0-2.966-3.2c-.906-.8-2.024-1.667-3.288-2.575a26.4,26.4,0,0,0-4.673-5.187C1200.947,544.565,1197.213,542.634,1197.213,542.634Z" fill="#9490e6"/>
          </g>
        </g>
      </g>
      <g id="Group_394" data-name="Group 394">
        <g id="Group_393" data-name="Group 393">
          <g id="Group_392" data-name="Group 392">
            <path id="Path_713" data-name="Path 713" d="M1666.764,587.715,1664.19,594c-.511,1.247-1.154,2.819-1.446,3.53l-.555,1.355s3.959,1.276,9.075,3.538a9.016,9.016,0,0,1,4.718,5.077,22.172,22.172,0,0,1,3.777,4.361,1.2,1.2,0,0,0,1.943.108c1.142-1.94,2.2-3.623,3.17-5.1,2.387-1.558,3.947-1.824,1.437-3.533a15.521,15.521,0,0,0-2.965-3.2c-.907-.8-2.025-1.667-3.289-2.575a26.391,26.391,0,0,0-4.673-5.186C1670.5,589.646,1666.764,587.715,1666.764,587.715Z" fill="#ee6f57"/>
          </g>
        </g>
      </g>
      <g id="Group_397" data-name="Group 397">
        <g id="Group_396" data-name="Group 396">
          <g id="Group_395" data-name="Group 395">
            <path id="Path_714" data-name="Path 714" d="M677.628,542.943l6.329-2.457,7.331-2.846,1.365-.53s1.2,3.982,3.369,9.139c1.487,3.445,3.84,7.658,7.218,10.384a22.169,22.169,0,0,0,4.29,3.857,1.2,1.2,0,0,1,.071,1.945c-1.961,1.106-3.663,2.137-5.157,3.075-3.942,3.266-5.08,5.149-7.334,2.837a15.527,15.527,0,0,1-3.149-3.024c-.782-.921-1.629-2.055-2.513-3.336a80.613,80.613,0,0,1-7.329-10.341C679.489,546.712,677.628,542.943,677.628,542.943Z" fill="#708cd5"/>
          </g>
        </g>
      </g>
      <g id="Group_400" data-name="Group 400">
        <g id="Group_399" data-name="Group 399">
          <g id="Group_398" data-name="Group 398">
            <path id="Path_715" data-name="Path 715" d="M2139.671,537.074l5.154-4.419,1.561-1.338,1.111-.954s2.318,3.476,5.888,7.78c.664.668,1.882,1.2,4.083.554a21.046,21.046,0,0,0,5.156,2.361,1.242,1.242,0,0,1,.652,1.863c-1.493,1.7-2.768,3.252-3.877,4.642.045,2.093.537,3.441-1.566,1.331a14.75,14.75,0,0,1-3.842-1.92c-1-.642-2.136-1.469-3.344-2.427a11.734,11.734,0,0,1-4.174-.477C2142.539,540.131,2139.671,537.074,2139.671,537.074Z" fill="#fbc343"/>
          </g>
        </g>
      </g>
      <g id="Group_403" data-name="Group 403">
        <g id="Group_402" data-name="Group 402">
          <g id="Group_401" data-name="Group 401">
            <path id="Path_716" data-name="Path 716" d="M521.905,950.509l5.651,3.763,10.122,6.738,1.219.812s-2.494,3.321-5.369,8.125c-2.809,4.707-5.981,10.979-7.117,16.824a22.763,22.763,0,0,0-.6,5.787,1.185,1.185,0,0,1-1.517,1.2c-2.028-.963-3.845-1.758-5.466-2.436-7.128-2.8-10.1-3.165-10.117-6.747a15.9,15.9,0,0,1,.594-4.36c.283-1.182.7-2.543,1.213-4.021a165.81,165.81,0,0,1,7.018-16.89C519.965,954.248,521.905,950.509,521.905,950.509Z" fill="#fbc343"/>
          </g>
        </g>
      </g>
    </g>
    <g id="Group_416" data-name="Group 416">
      <path id="Path_717" data-name="Path 717" d="M974.885,831.529c-29.67,24.155-153.936,69.926-155.495,70.943-6.029,3.934-9.4,10.7-15.527,14.747A49.949,49.949,0,0,1,781,925.287c-28.5,2.613-53.322-18.35-62.965-44-10.027-26.671-1.906-63.951,26.383-76.211,22.627-9.783,38.249-8.817,38.249-8.817-16.1-126.828,46.3-149.456,56.368-149.939C868,608.587,913.608,632.572,918,640.141c24.56-6.039,45.333,46.442,18.155,61.5-.2.121-.4.2-.6.322,1.128,29.432,4.711,51.013,31.808,61.6C997.03,775.161,1004.6,807.371,974.885,831.529Z" fill="#102048"/>
      <g id="Group_405" data-name="Group 405">
        <path id="Path_718" data-name="Path 718" d="M689.018,636.749,650.04,647.975c-14.362-12.748-18.475-23.426-24.547-41.287-2.379-7-11.817-35.094-4.213-37.363,2.588-.773,7.227,2.236,9.882,6.82a81.367,81.367,0,0,1-3.767-20.852c-.118-3.62.827-6.11,3.319-7.059,1.988-.772,4.2.979,6.227,3.743,0-.6,1.343-7.635,4.078-8.649,2.865-1.07,5.94,2.329,8.929,8.238q.6,1.134,1.146,2.408a15.872,15.872,0,0,1,.2-1.978,4.967,4.967,0,0,1,3.072-3.747c5.129-1.954,9.218,8.535,10.588,11.685,5.346,12.292,11.242,24.491,14.995,37.394,1.79,6.156,4.373,12.2,5.8,18.453C686.221,617.862,690.1,636.114,689.018,636.749Z" fill="#f9b384"/>
        <path id="Path_719" data-name="Path 719" d="M686.252,594.372c2.136,15.374.8,28.263-2.974,28.788s-8.573-11.513-10.709-26.887-3.555-27.563,2.975-28.787C680.8,566.5,684.117,579,686.252,594.372Z" fill="#f9b384"/>
      </g>
      <path id="Path_720" data-name="Path 720" d="M761.833,754.181l-6.879,37.56h-44.28l-6.28-8.12-33.72-43.48a78.865,78.865,0,0,1-14.32-29.72l-16.92-77.52,47.2-12.28,21.16,65.84a78.759,78.759,0,0,0,18.84,31.6Z" fill="#f9b384"/>
      <g id="Group_406" data-name="Group 406">
        <path id="Path_721" data-name="Path 721" d="M1059.541,597.144l35.926,11.443c10.66-14.888,14.914-34.925,16.786-52.815.734-7.008,3.572-35.126-3.977-35.629-2.57-.171-6.247,3.606-7.747,8.429a77.618,77.618,0,0,0-.9-20.183c-.656-3.391-2.061-5.506-4.578-5.862-2.011-.3-3.694,1.8-5,4.795-.127-.558-2.862-6.815-5.619-7.18-2.89-.389-5.031,3.421-6.562,9.546q-.318,1.182-.556,2.481a15.185,15.185,0,0,0-.6-1.8,4.738,4.738,0,0,0-3.649-2.834c-5.18-.733-6.766,9.883-7.374,13.1-2.374,12.558-5.278,25.147-6.041,37.937-.364,6.1-.495,12.216-.5,18.328C1059.144,578.939,1058.4,596.782,1059.541,597.144Z" fill="#f9b384"/>
        <path id="Path_722" data-name="Path 722" d="M1053.382,558.213c3.52,14.375,9.238,25.327,12.771,24.461s3.543-13.219.023-27.594-6.553-25.675-12.771-24.461C1048.4,531.6,1049.862,543.839,1053.382,558.213Z" fill="#f9b384"/>
      </g>
      <path id="Path_723" data-name="Path 723" d="M1005.1,719.88l24.089-36.931a57.13,57.13,0,0,0,6.969-15.136l22.987-90.909,48.679,3.974-20.6,97.547a57.016,57.016,0,0,1-3.635,12.584L1060.3,746.672l-31.544,13.874Z" fill="#f9b384"/>
      <g id="Group_407" data-name="Group 407">
        <path id="Path_724" data-name="Path 724" d="M1010.994,1463.581l-2,25.76-15.64,202.56-.721,9.48-48.239-7.52v-9.52l-.121-206.28a163.508,163.508,0,0,0-4.44-37.92c-13.919-58.24-55.4-233.24-52.6-237.72l91.92-9.4,29.879,221.08.681,5.08A208.651,208.651,0,0,1,1010.994,1463.581Z" fill="#f9b384"/>
        <path id="Path_725" data-name="Path 725" d="M942.483,1726.69c.958,11.422,9.027,11.274,12.2,11.274,9.137,0,93.4.3,94.325,0a24.425,24.425,0,0,0-6.632-15.659c-4.753-4.9-45.579-28.261-48.968-30.4-26.382,13.78-49.015-7.58-49.015-7.58S941.488,1714.567,942.483,1726.69Z" fill="#6f3428"/>
      </g>
      <g id="Group_408" data-name="Group 408">
        <path id="Path_726" data-name="Path 726" d="M925.793,1206.9s-39.359,159.52-84.16,219c-5.76,7.6-11.559,13.56-17.4,17.36-13.04,8.48-29.721,4.84-49.64-8.32-33.841-22.28-77-71.88-127.561-135.44-2.24-2.76-4.439-5.56-6.679-8.4l18.8-33.2,25.08,8.6,100.72,87,38.28-158.04Z" fill="#f9b384"/>
        <path id="Path_727" data-name="Path 727" d="M652.8,1238.059c-9.417-6.536-14.442-.221-16.46,2.223-5.82,7.045-59.712,71.826-60.071,72.723a24.428,24.428,0,0,0,16.3,4.86c6.8-.544,50.815-17.143,54.622-18.4,6.176-29.115,37.059-32.962,37.059-32.962S662.783,1245.012,652.8,1238.059Z" fill="#6f3428"/>
      </g>
      <path id="Path_728" data-name="Path 728" d="M879.3,1350.966c2.946-10.6,6.118-21.119,9.342-31.625,3.181-10.52,6.626-20.954,9.926-31.435l10.428-31.272c3.6-10.384,7.218-20.761,11.122-31.046l1.487.484c-2.9,10.612-6.084,21.131-9.287,31.644l-9.981,31.417c-3.5,10.415-6.861,20.877-10.483,31.253-3.579,10.391-7.21,20.764-11.067,31.064Z" fill="#e28b6d"/>
      <path id="Path_729" data-name="Path 729" d="M1023.994,1220.381c-165.08,85.72-264.721-4.76-289.88-42.84,35.639-39.16,57.88-93.64,69.4-128.36,6.681-20.2,9.76-33.72,9.76-33.72l139.641-11.16,15.44-1.24s.2.76.6,2.24c1.079,4.2,3.679,14.08,7.16,27.4C990.714,1088.421,1020.954,1204.581,1023.994,1220.381Z" fill="#1f3c88"/>
      <path id="Path_730" data-name="Path 730" d="M976.114,1032.7c-27.4,21.44-92.8,32.28-172.6,16.48,6.681-20.2,9.76-33.72,9.76-33.72l139.641-11.16,16.04,1C970.033,1009.5,972.633,1019.381,976.114,1032.7Z" fill="#102048" opacity="0.6"/>
      <path id="Path_731" data-name="Path 731" d="M1060.314,746.661c-6.08,12.72-21.88,42.68-40.12,73.48-14.441,24.44-22.52,48.88-28.321,76.68-8.319,39.8-21.159,85.16-8.759,109.68,10.639,20.96-34.88,26.16-85.2,28.84-40.041,2.12-106.68,1.96-94.641-20.12,22.441-41.08-2.079-94.68-8.719-116.12-8.88-28.72-45.48-68.96-67.281-91.12-9.8-9.92-16.6-16.24-16.6-16.24s38.24-6.8,51.159-37.56c8.561,8.32,38.161,34.6,54.6,49.16a31.1,31.1,0,0,0,26,7.28l31.12-5.52h33.12c11.92,1.64,20.8,2.68,27.359,3.4a27.535,27.535,0,0,0,26.6-13.44l44.481-75.2S1035.114,749.021,1060.314,746.661Z" fill="#ee6f57"/>
      <path id="Rectangle_57" data-name="Rectangle 57" d="M0,0H58.884a0,0,0,0,1,0,0V52.3A27.942,27.942,0,0,1,30.942,80.238h-3A27.943,27.943,0,0,1,0,52.3V0A0,0,0,0,1,0,0Z" transform="translate(856.633 760.546)" fill="#f9b384"/>
      <g id="Group_409" data-name="Group 409">
        <path id="Path_732" data-name="Path 732" d="M856.633,778.056s35.529,50.613,58.884-5.068C916.373,773.141,856.633,778.056,856.633,778.056Z" fill="#e28b6d"/>
        <path id="Path_733" data-name="Path 733" d="M924.674,721.5c.64,10.2,1.48,18.88.48,27.32a49.964,49.964,0,0,1-4.6,16c-15.4,32.08-60.041,34.32-82.56-10.72-19.04-38.12-10.28-77.52-10.28-77.52l50.24-21.8,48.44,23.72C923.474,696.061,923.954,709.781,924.674,721.5Z" fill="#f9b384"/>
      </g>
      <path id="Path_734" data-name="Path 734" d="M935.548,701.963c-39.457,6.744-60.293-3.825-78.915-25.466-11.072,9.059-8.226,16.188-7.549,29.694.5,10.046-2.013,20.634-27.178,20.634l-10.317-36.236,11.576-26.674,50.4-20.887,59.312,9.563Z" fill="#102048"/>
      <g id="Group_410" data-name="Group 410">
        <path id="Path_735" data-name="Path 735" d="M874.992,723.039c.146,2.888-1.311,5.309-3.255,5.407s-3.638-2.163-3.784-5.051,1.311-5.308,3.254-5.407S874.846,720.151,874.992,723.039Z" fill="#0c1836"/>
        <path id="Path_736" data-name="Path 736" d="M876.8,714.419a8.743,8.743,0,0,0-4.352-2.3,9.746,9.746,0,0,0-4.778.258,15.284,15.284,0,0,0-4.469,2.225,29.9,29.9,0,0,0-4,3.563l-1.082-.645a13.6,13.6,0,0,1,3.269-5.072,12.267,12.267,0,0,1,5.42-3.145,10.778,10.778,0,0,1,6.408.206,7.954,7.954,0,0,1,4.633,4.218Z" fill="#0c1836"/>
        <path id="Path_737" data-name="Path 737" d="M900.042,720.445c.146,2.888,1.84,5.149,3.784,5.051s3.4-2.52,3.255-5.408-1.841-5.149-3.784-5.05S899.9,717.557,900.042,720.445Z" fill="#0c1836"/>
        <path id="Path_738" data-name="Path 738" d="M895.619,712.514a11.749,11.749,0,0,1,3.093-4.239,9.286,9.286,0,0,1,5.222-2.183,11.956,11.956,0,0,1,9.493,4.4l-.737,1.02c-1.563-.541-2.966-1.247-4.415-1.622a12.588,12.588,0,0,0-4.134-.616,8.14,8.14,0,0,0-3.831,1.2,27.33,27.33,0,0,0-3.682,2.792Z" fill="#0c1836"/>
        <path id="Path_739" data-name="Path 739" d="M880.738,755.595l21.273-2.9h0c-.707,10.208-14.883,15.812-21.273,2.9Z" fill="#fff"/>
        <path id="Path_740" data-name="Path 740" d="M890.276,721.484c.354,2.362.558,4.73,1.429,6.581a5.964,5.964,0,0,0,1.776,2.238l1.427.953.727.5a6.713,6.713,0,0,1,.874.769,5.892,5.892,0,0,1-8,8.64l.618-1.042c2.026.743,4.3.315,5.331-1.038a3.344,3.344,0,0,0-.208-4.482,6.182,6.182,0,0,0-1.169-.978l-1.49-1.112a7.2,7.2,0,0,1-2.325-3.5,16.137,16.137,0,0,1-.2-7.533Z" fill="#e28b6d"/>
        <circle id="Ellipse_147" data-name="Ellipse 147" cx="13.716" cy="13.716" r="13.716" transform="translate(844.01 742.241) rotate(-31.314)" fill="#fc8879" opacity="0.4"/>
        <path id="Path_741" data-name="Path 741" d="M925.154,748.821a7.892,7.892,0,0,1-1.68.08,13.713,13.713,0,0,1,1.2-27.4C925.314,731.7,926.154,740.381,925.154,748.821Z" fill="#fc8879" opacity="0.4"/>
      </g>
      <g id="Group_411" data-name="Group 411">
        <path id="Path_742" data-name="Path 742" d="M840.9,727.986c-8.256-6.823-17.274-7.783-21.228.417-4.637,9.615,9.365,31.218,23.1,24.142C844.018,750.672,840.9,727.986,840.9,727.986Z" fill="#f9b384"/>
        <path id="Path_743" data-name="Path 743" d="M834.988,736.039a10.749,10.749,0,0,0-4.566-5.875,4.74,4.74,0,0,0-6.375.837l-.68-.386a4.679,4.679,0,0,1,3.436-3.006,6.641,6.641,0,0,1,4.607.837,8.986,8.986,0,0,1,4.349,7.464Z" fill="#e28b6d"/>
      </g>
      <g id="Group_412" data-name="Group 412" opacity="0.4">
        <path id="Path_744" data-name="Path 744" d="M856.633,851.641a53.1,53.1,0,0,0,31.293,9.548,43.629,43.629,0,0,0,15.526-3.137A61.776,61.776,0,0,0,918,849.141a29.893,29.893,0,0,1-11.581,14.405,34.2,34.2,0,0,1-18.321,5.639,37.909,37.909,0,0,1-18.5-4.422C864.026,861.819,859.062,857.311,856.633,851.641Z" fill="#6f3428"/>
      </g>
      <g id="Group_413" data-name="Group 413" opacity="0.4">
        <path id="Path_745" data-name="Path 745" d="M918,1004.3c6.245-2.2,12.427-4.405,18.327-7.021a58.856,58.856,0,0,0,16.029-10.107A42.972,42.972,0,0,0,962.9,971.716a111.741,111.741,0,0,0,5.549-18.7,60.535,60.535,0,0,1-2.623,19.786,39.4,39.4,0,0,1-10.748,17.3,49.95,49.95,0,0,1-17.6,10.069A86.149,86.149,0,0,1,918,1004.3Z" fill="#6f3428"/>
      </g>
      <g id="Group_414" data-name="Group 414">
        <path id="Path_746" data-name="Path 746" d="M668.074,589.207c-2.249,4.261-4.247,8.567-4.556,13.088a17.032,17.032,0,0,0,3.833,12.581l-.75.9a12.522,12.522,0,0,1-4.909-5.984,17.16,17.16,0,0,1-1.135-7.76,22.942,22.942,0,0,1,6.573-13.521Z" fill="#e28b6d"/>
        <path id="Path_747" data-name="Path 747" d="M634.481,592.705a22.46,22.46,0,0,1,6.306-4.738,51.115,51.115,0,0,1,7.134-3.132,73.652,73.652,0,0,1,7.436-2.127,50.874,50.874,0,0,1,7.649-1.141l.235,1.149c-4.763,1.844-9.622,3.216-14.34,4.925-2.4.745-4.713,1.69-7.018,2.609a40.965,40.965,0,0,0-6.617,3.327Z" fill="#e28b6d"/>
      </g>
      <g id="Group_415" data-name="Group 415">
        <path id="Path_748" data-name="Path 748" d="M1067.953,545.483a22.948,22.948,0,0,1,9.7,11.489,17.169,17.169,0,0,1,.808,7.8,12.509,12.509,0,0,1-3.286,7.008l-.949-.689a17.032,17.032,0,0,0,.621-13.138c-1.412-4.3-4.407-7.987-7.636-11.564Z" fill="#e28b6d"/>
        <path id="Path_749" data-name="Path 749" d="M1100.787,546.44a40.92,40.92,0,0,0-7.138-1.979c-2.44-.454-4.893-.931-7.391-1.2-4.96-.76-9.992-1.162-15.023-2.047l.007-1.172a51.141,51.141,0,0,1,7.725-.367,74.217,74.217,0,0,1,7.708.643,51.324,51.324,0,0,1,7.606,1.687,22.483,22.483,0,0,1,7.106,3.424Z" fill="#e28b6d"/>
      </g>
      <path id="Path_750" data-name="Path 750" d="M1010.994,1463.581l-2,25.76c-31.32-35.96-22.721-59.32.039-75.24l.681,5.08A208.651,208.651,0,0,1,1010.994,1463.581Z" fill="#fc8879" opacity="0.4"/>
      <path id="Path_751" data-name="Path 751" d="M841.633,1425.9c-5.76,7.6-11.559,13.56-17.4,17.36-13.04,8.48-29.721,4.84-49.64-8.32C796.633,1411.021,819.074,1408.341,841.633,1425.9Z" fill="#fc8879" opacity="0.4"/>
    </g>
    <g id="Group_426" data-name="Group 426">
      <g id="Group_417" data-name="Group 417">
        <path id="Path_752" data-name="Path 752" d="M2368.523,1581.89c10.383,7.833,7.726,17.24,6.212,20.5-4.317,9.3-33.761,82.653-59.858,88.567-4.7,1.066-8.558-5.4-11.016-15.844-1.827-7.528.458-60.851.458-65.4,29.194-16.982,22.7-50.189,22.382-51.724l-.013-.058S2357.489,1573.6,2368.523,1581.89Z" fill="#ee6f57"/>
        <path id="Path_753" data-name="Path 753" d="M2293.716,1534.426l32.972,23.508.013.058c.318,1.535,6.812,34.742-22.382,51.724l-39.711-33.986Z" fill="#f9b384"/>
      </g>
      <g id="Group_418" data-name="Group 418">
        <path id="Path_754" data-name="Path 754" d="M2184.507,1725.028c-1.087,12.961-10.243,12.794-13.839,12.794-10.368,0-105.987.334-107.032,0a27.716,27.716,0,0,1,7.526-17.769c5.393-5.561,51.718-32.068,55.565-34.493,29.935,15.637,54.561-7.567,55.69-8.654l.041-.042S2185.636,1711.273,2184.507,1725.028Z" fill="#ee6f57"/>
        <path id="Path_755" data-name="Path 755" d="M2184.758,1636.434l-2.3,40.43-.041.042c-1.129,1.087-25.755,24.291-55.69,8.654l7.567-51.718Z" fill="#f9b384"/>
      </g>
      <path id="Path_756" data-name="Path 756" d="M2215.469,1226.262l17.656,166.348a45.985,45.985,0,0,0,6.394,18.97l69.078,114.059-53.165,78.184L2165.4,1473.378Z" fill="#102048"/>
      <path id="Path_757" data-name="Path 757" d="M2241.914,1158.181a345.375,345.375,0,0,0-19.68,94.72l-26.52,396.08h-88.841l10.321-519,1.159-57.96,131.721-11.52a91.124,91.124,0,0,1,4.6,19.84C2257.554,1104.421,2251.873,1130.7,2241.914,1158.181Z" fill="#1f3c88"/>
      <path id="Path_758" data-name="Path 758" d="M2056.326,665.545c-9.242-7.783-13.692-21.383-8.218-33.389A12.586,12.586,0,0,1,2058.93,625c-9.557-9.484-4.157-19.179-1.54-24.205a19,19,0,0,1,7.9-8.382c4.414-2.238,11.623-3.022,19.929-.841-.6-8.556,3.685-11.276,4.811-12.511a25.642,25.642,0,0,1,12.558-7.571c6.857-1.733,16.76-.737,21.633,5,.88,1.036,2.089,4.75,3.392,5.026.963.2,1.675-.831,2.211-1.657,3.028-4.66,9.033-6.46,14.587-6.615,4.7-.131,9.688.794,13.17,3.948s4.777,8.988,1.839,12.654c7.836-4.275,18.132-4.749,25.394.442s9.9,16.568,4.309,23.529c4.423-.174,8.657,2.344,11.368,5.842s4.074,7.867,4.8,12.234c2.769,16.67-3.845,34.815-17.313,45.022a44.173,44.173,0,0,1-24.157,8.842c-6.909.368-13.79-.9-20.594-2.161-12-2.226-24.084-4.476-35.44-8.943a95.928,95.928,0,0,1-23.04-13c-2.816-2.149-4.083,9.517-7.834,10.033A26.16,26.16,0,0,1,2056.326,665.545Z" fill="#6f3428"/>
      <g id="Group_420" data-name="Group 420">
        <g id="Group_419" data-name="Group 419">
          <path id="Path_759" data-name="Path 759" d="M2015.961,896.731l-31.209,35.238s-41.472-35.646-61.338-67.256c-.374-.685-.871-1.318-1.244-2a88.954,88.954,0,0,1-6.335-12.716c.008-.119-.048-.183-.044-.242-.531-2.794-.024-4.977,1.879-6.527,2.476-2.051,3.092-.548,7.783,3.665-4.33-9.125-7.242-14.358-9.218-19.706-1.465-4.055-1.311-7.222,1.16-9.213,1.967-1.6,5.111-.435,8.427,1.947-.221-.68-1.288-9.138,1.435-11.292,2.85-2.265,7.582.452,13.139,6.041q1.1,1.063,2.182,2.3a19.073,19.073,0,0,1-.5-2.311,5.917,5.917,0,0,1,2.1-5.373c5.087-4.1,13.575,6.272,16.284,9.334,10.575,11.949,21.736,23.59,30.731,36.817,4.292,6.311,8.341,12.784,12.255,19.334C2004.748,876.955,2016.949,895.615,2015.961,896.731Z" fill="#e28b6d"/>
        </g>
        <path id="Path_760" data-name="Path 760" d="M1984.752,931.969s88.193,76.013,118.788,72.839,39.333-67.333,39.333-67.333l-126.912-40.744-34.154,12.279Z" fill="#e28b6d"/>
      </g>
      <path id="Path_761" data-name="Path 761" d="M2175.833,684.741V791.9h-60.12v-96.72Z" fill="#f9b384"/>
      <g id="Group_421" data-name="Group 421">
        <path id="Path_762" data-name="Path 762" d="M2155.914,723.821c-2.561,9.12-12.24,29.32-40.2,34.08v-31.36Z" fill="#e28b6d"/>
        <path id="Path_763" data-name="Path 763" d="M2165.394,709.661c-11.16,21.6-32.76,38.32-57.121,30.64-12.6-3.96-19.88-13.6-24.24-27.16a132.6,132.6,0,0,1-4.92-26.76c-1.48-15.08-1.72-32.32-2.2-50.6l46.679-30.64,46,25.76S2176.554,688.061,2165.394,709.661Z" fill="#f9b384"/>
      </g>
      <path id="Path_764" data-name="Path 764" d="M2254.674,1080.341c-21.921,31.04-84.321,48.12-137.48,49.64l1.159-57.96,131.721-11.52A91.124,91.124,0,0,1,2254.674,1080.341Z" fill="#102048" opacity="0.6"/>
      <path id="Path_765" data-name="Path 765" d="M2249.033,1077.581c-38.44,20.48-88.639,23.6-142.6,20.64a10.982,10.982,0,0,1-13-10.68q-.66-32.58-1.281-65.12-.78-38.1-1.479-76.24-.122-7.32-.361-14.64c-1.04-31.88-3.24-64.12-2.28-95.84,1-32.88,17.6-54.52,48.281-65.76,21.8-8,49.16-13.12,65.76,7.92,28.439,36.08,31.24,84.36,41.039,127.32,10.6,46.32,17.241,93.44,22.361,140.64C2266.873,1058.581,2264.354,1067.821,2249.033,1077.581Z" fill="#708cd5"/>
      <path id="Path_766" data-name="Path 766" d="M2190.194,936.461c-4.88,32.36-25.96,90.72-98.041,85.96q-.78-38.1-1.479-76.24-.122-7.32-.361-14.64Z" fill="#1f3c88" opacity="0.3"/>
      <path id="Path_767" data-name="Path 767" d="M2194.674,931.941s-7.921,26.72-23.84,43.84c-4.8,5.2-10.321,9.48-16.6,11.92-7.16,2.8-18.481,2.24-32.4-1.2-32.08-7.88-78.159-30.92-120-63.2l-12.68-58.48c40.321-5.56,93.12,31.64,136.521,49Z" fill="#f9b384"/>
      <path id="Path_768" data-name="Path 768" d="M2174.474,643.741a16.131,16.131,0,0,0-12.64-21,9.892,9.892,0,0,0-5.44-6.24,32.364,32.364,0,0,0-8.24-2.32,15.107,15.107,0,0,1-3.96-1.2,23.715,23.715,0,0,1-4.56-3.48,26.278,26.278,0,0,0-21.321-5.6c-4.16.8-8.119,2.6-12.319,3.2-5.161.76-10.76-.2-15.4,2.24-3.84,2-6.2,5.96-9.48,8.72-3.679,3.12-8.96,5.44-9.679,10.2-.2,1.2-.081,2.56-.841,3.52a6.561,6.561,0,0,1-2.72,1.56,7.989,7.989,0,0,0-4.2,4.04c-2,4.2-.521,10.08,2.04,13.84a15.322,15.322,0,0,0,10.24,6.72,16.859,16.859,0,0,0,8.079,1.12c6.52-.72,12.681-6.04,13.72-12.6a9.689,9.689,0,0,0,3,6.68,14.294,14.294,0,0,0,8.241,3.64c6.288.744,13.855-.486,16.56-7.08-.36.88,4.44,5.16,5.16,5.84a33.464,33.464,0,0,0,3.2,2.6c1.24.92,2.52,1.76,3.839,2.56,1,.56,2.04,1.12,3.081,1.6a31.042,31.042,0,0,0,17,3.2,29.949,29.949,0,0,0,20.48-11.92A14.052,14.052,0,0,0,2174.474,643.741Z" fill="#6f3428"/>
      <g id="Group_422" data-name="Group 422">
        <path id="Path_769" data-name="Path 769" d="M2030.615,885.975l-28.767,37.258s-43.777-32.773-65.726-62.975c-.418-.658-.957-1.256-1.376-1.914a88.92,88.92,0,0,1-7.176-12.26c0-.119-.06-.179-.06-.239-.717-2.751-.359-4.964,1.435-6.638,2.333-2.213,5.928,1.57,10.892,5.458a96.845,96.845,0,0,1-13.4-21.367c-1.735-3.947-1.794-7.117.538-9.269,1.854-1.735,5.069-.778,8.538,1.375-.266-.664-1.9-9.031.672-11.363,2.691-2.452,7.595-.06,13.516,5.143q1.165.987,2.332,2.153a18.889,18.889,0,0,1-.657-2.272,5.913,5.913,0,0,1,1.734-5.5c4.8-4.431,13.965,5.344,16.875,8.217,11.354,11.21,23.274,22.074,33.139,34.665,4.706,6.008,9.182,12.193,13.528,18.465C2018.1,867,2031.525,884.795,2030.615,885.975Z" fill="#f9b384"/>
        <path id="Path_770" data-name="Path 770" d="M2011.345,845.657c7.723,20.222,10.546,37.929,6.3,39.549s-13.942-13.46-21.666-33.682-13.527-36.322-6.3-39.549C1995.491,809.378,2003.621,825.435,2011.345,845.657Z" fill="#f9b384"/>
      </g>
      <path id="Path_771" data-name="Path 771" d="M2194.667,814.808c22.873,40.667,26.558,109.392,16.373,136.833l-7.315-2.274Z" fill="#1f3c88" opacity="0.3"/>
      <path id="Path_772" data-name="Path 772" d="M2125.681,913.829s1.394-102.433,39.719-109.4c37.11-6.747,48.081,18.117,38.325,144.939C2202.332,949.367,2125.681,913.829,2125.681,913.829Z" fill="#708cd5"/>
      <path id="Path_773" data-name="Path 773" d="M2065.233,634.061a10.931,10.931,0,0,0-1.56,3.32" fill="none"/>
      <path id="Path_774" data-name="Path 774" d="M2203.4,950.079c-6.7-2.526-13.307-5.268-19.888-8.059-6.6-2.75-13.084-5.754-19.632-8.618q-9.744-4.469-19.414-9.1c-6.417-3.152-12.826-6.32-19.111-9.763l.648-1.423c6.723,2.48,13.321,5.234,19.911,8.005q9.844,4.248,19.608,8.672c6.46,3.058,12.983,5.978,19.39,9.151,6.427,3.131,12.83,6.312,19.135,9.71Z" fill="#1f3c88"/>
      <path id="Path_775" data-name="Path 775" d="M2154.879,810.257c-1.812,1.813-3.665,3.051-5.311,4.656a24.887,24.887,0,0,0-2.379,2.428,22.635,22.635,0,0,0-2.144,2.625,50.625,50.625,0,0,0-6.669,11.822,120.65,120.65,0,0,0-7.237,26.525c-.733,4.555-1.4,9.141-1.963,13.736-.4,4.621-.932,9.227-1.223,13.865-.729,9.269-.982,18.572-1.49,27.9l-1.564.023c-.273-4.675-.388-9.358-.579-14.046-.095-4.686.1-9.378.143-14.074a224.885,224.885,0,0,1,2.772-28.086c1.691-9.274,4.019-18.557,8.06-27.232a51.843,51.843,0,0,1,7.651-12.15c3.052-3.688,7.252-6.588,10.82-9.094Z" fill="#1f3c88"/>
      <path id="Path_776" data-name="Path 776" d="M2170.834,975.781a46.139,46.139,0,0,1-16.6,11.92c-7.5,2.981-22.419,2.04-37.64-2.588C2125.627,963.141,2162.123,964.391,2170.834,975.781Z" fill="#fc8879" opacity="0.4"/>
      <g id="Group_423" data-name="Group 423">
        <path id="Path_777" data-name="Path 777" d="M1950.119,808.777c4.922,4.125,9.4,8.692,13.883,13.252q3.294,3.484,6.488,7.057c2.089,2.418,4.167,4.844,6.073,7.417l-.879.776c-2.5-2.045-4.825-4.236-7.14-6.436q-3.417-3.351-6.725-6.8c-4.327-4.675-8.656-9.344-12.543-14.454Z" fill="#e28b6d"/>
        <path id="Path_778" data-name="Path 778" d="M1935.64,814.515c5.342,4.852,10.224,10.125,15.109,15.394q3.6,4.014,7.09,8.116c2.29,2.771,4.569,5.55,6.678,8.478l-.88.776c-2.7-2.4-5.236-4.953-7.758-7.513q-3.727-3.89-7.346-7.876c-4.739-5.392-9.481-10.78-13.763-16.588Z" fill="#e28b6d"/>
        <path id="Path_779" data-name="Path 779" d="M1938.163,841.7a75.2,75.2,0,0,1,8.747,7.905q2.01,2.148,3.92,4.384a48.684,48.684,0,0,1,3.506,4.744l-.88.776a49.649,49.649,0,0,1-4.57-3.762q-2.134-2.013-4.157-4.122a74.989,74.989,0,0,1-7.407-9.107Z" fill="#e28b6d"/>
      </g>
      <g id="Group_424" data-name="Group 424">
        <path id="Path_780" data-name="Path 780" d="M2123.989,677.035c.22,2.988,2.029,5.29,4.04,5.141s3.463-2.691,3.242-5.678-2.03-5.29-4.041-5.141S2123.768,674.048,2123.989,677.035Z" fill="#2d1510"/>
        <path id="Path_781" data-name="Path 781" d="M2119.957,667.776a9.557,9.557,0,0,1,9.38-4.956,10.725,10.725,0,0,1,5.214,2.076,12.112,12.112,0,0,1,3.348,4.151l-.925.72a29.617,29.617,0,0,0-3.866-2.683,10.34,10.34,0,0,0-4.062-1.306,9.641,9.641,0,0,0-4.217.461,12.15,12.15,0,0,0-3.918,2.218Z" fill="#2d1510"/>
        <path id="Path_782" data-name="Path 782" d="M2097.9,677.585c.221,2.988-1.231,5.53-3.242,5.679s-3.82-2.154-4.04-5.141,1.231-5.53,3.242-5.679S2097.683,674.6,2097.9,677.585Z" fill="#2d1510"/>
        <path id="Path_783" data-name="Path 783" d="M2101.213,668.535c-2.724-1.65-5.83-2.641-8.667-2.19a9.053,9.053,0,0,0-3.989,1.525,23.251,23.251,0,0,0-3.519,3.17l-1.021-.577a11.36,11.36,0,0,1,2.9-4.64,9.965,9.965,0,0,1,5.242-2.425,10.74,10.74,0,0,1,9.895,4.324Z" fill="#2d1510"/>
        <path id="Path_784" data-name="Path 784" d="M2122.342,707.92l-22.939-.742h0c4.97,10.8,13.137,13.963,22.939.742Z" fill="#fff"/>
        <path id="Path_785" data-name="Path 785" d="M2110.376,674.68c.639,2.746,1.216,5.687.464,8.776a8.056,8.056,0,0,1-2.381,4.065,27.3,27.3,0,0,0-2.936,2.788,4.066,4.066,0,0,0,.743,5.832c1.811,1.41,4.767,1.315,7.055.031l.579.788a7.513,7.513,0,0,1-8.859.992,6,6,0,0,1-2.769-4.219,6.732,6.732,0,0,1,1.247-4.886,23.731,23.731,0,0,1,3.26-2.967,6.959,6.959,0,0,0,2.035-3.028c.824-2.4.657-5.231.592-8.046Z" fill="#e28b6d"/>
        <circle id="Ellipse_148" data-name="Ellipse 148" cx="13.804" cy="13.804" r="13.804" transform="translate(2126.168 688.931) rotate(-13.103)" fill="#fc8879" opacity="0.4"/>
        <path id="Path_786" data-name="Path 786" d="M2084.033,713.141a132.6,132.6,0,0,1-4.92-26.76,13.805,13.805,0,0,1,4.92,26.76Z" fill="#fc8879" opacity="0.4"/>
      </g>
      <g id="Group_425" data-name="Group 425">
        <path id="Path_787" data-name="Path 787" d="M2163.914,672.854c4.292-4.978,9.96-8.026,17.168-6.97,10.193,1.494,8.583,40.825-16.1,33.358C2160.158,699.242,2163.914,672.854,2163.914,672.854Z" fill="#f9b384"/>
        <path id="Path_788" data-name="Path 788" d="M2172.01,679.666a7.928,7.928,0,0,1,1.871-7.886,5.026,5.026,0,0,1,4.531-1.075,5.89,5.89,0,0,1,3.312,2.623l-.7.684a7.854,7.854,0,0,0-3.053-1.165,3.163,3.163,0,0,0-2.457.8c-1.5,1.2-2.033,3.582-2.527,5.968Z" fill="#e28b6d"/>
      </g>
    </g>
    <line id="Line_246" data-name="Line 246" x2="2153.765" transform="translate(435.576 1738.048)" fill="none" stroke="#102048" stroke-miterlimit="10" stroke-width="4.8"/>
    <g id="Group_433" data-name="Group 433">
      <g id="Group_427" data-name="Group 427">
        <path id="Path_789" data-name="Path 789" d="M1369.063,1634.12l-11.014,39.264c11.245,23.813,37.7,32.236,62.579,9.668l8.937-42.146Z" fill="#f9b384"/>
        <path id="Path_790" data-name="Path 790" d="M1358.049,1673.384l-21.214,75.628c-3.8,16.306,14.446,43.415,22.726,42.683h0c13.209.732,39.995-10.883,43.793-27.189l17.274-81.454C1389.437,1701.558,1373.445,1691.288,1358.049,1673.384Z" fill="#102048"/>
      </g>
      <g id="Group_428" data-name="Group 428">
        <path id="Path_791" data-name="Path 791" d="M1525.805,1624.254l2.583,45.4.047.047c9.688,20.187,50.438,37.687,62.54,9.719l-8.5-58.079Z" fill="#f9b384"/>
        <path id="Path_792" data-name="Path 792" d="M1526.087,1723.746c1.221,14.555,11.5,14.367,15.541,14.367,11.644,0,119.024.376,120.2,0a31.123,31.123,0,0,0-8.452-19.954c-6.057-6.245-58.08-36.013-62.4-38.736-10.1,13.552-40.1,13.552-62.54-9.719l-.047-.047S1524.819,1708.3,1526.087,1723.746Z" fill="#102048"/>
      </g>
      <path id="Path_793" data-name="Path 793" d="M1304.363,1000.119c13.968,11.819,56.409,35.994,75.749,30.085s10.207-50.5,10.207-50.5L1328,961.439Z" fill="#f9b384"/>
      <path id="Path_794" data-name="Path 794" d="M1556.988,590.6a4.574,4.574,0,0,1-.473.387c-27.935,20.759-48.006-18.265-62.7-21.833-14.655-3.61-33.48,10.272-46.029,1.677,0,0-7.779,52.132-2.407,69.323-80.283-31.718-36.531-112.044-14.57-102.889,15.387-53.723,68.035-29.827,91.157-21.231C1575.082,492.83,1584.365,569.331,1556.988,590.6Z" fill="#102048"/>
      <path id="Path_795" data-name="Path 795" d="M1810.112,555.855c-1.639-.544,5.285-26.076,6.346-28.936,2.674-7.209,6.74-13.536,14.316-17.584,19.426-10.376,43-12.3,65.242-13.2,13.939-.565,45.823-2.369,53.183,8.306,6.913,10.027-10.566,17.03-18.589,18.9-15.385,3.583-32.791,3.87-45.947,12.6-12.118,8.044-23.417,24.4-19.637,38.082Z" fill="#f9b384"/>
      <path id="Path_796" data-name="Path 796" d="M1634.936,966.99l-32.95,676.189-84.524,2.865,2.865-383.937L1440.1,1650.342l-88.821-2.865L1424.344,945.5Z" fill="#102048"/>
      <path id="Path_797" data-name="Path 797" d="M1634.234,1009.781a93.742,93.742,0,0,1-9.52,5.52c-17.681,9.12-43.961,17.2-73.081,21.76a302.994,302.994,0,0,1-64.76,3.32c-25.2-1.48-49.48-6.72-69.679-17.16l1.48-20.24,20-274.16,145.04-6.44Z" fill="#fff"/>
      <path id="Path_798" data-name="Path 798" d="M1502.062,746.548h0a32.053,32.053,0,0,1-32.053-32.291l-3.046-65.3h64.109l3.043,65.781A32.054,32.054,0,0,1,1502.062,746.548Z" fill="#f9b384"/>
      <path id="Path_799" data-name="Path 799" d="M1467.9,673.007c13.474,21.044,43.808,36.3,64.008-2.018Z" fill="#e28b6d"/>
      <path id="Path_800" data-name="Path 800" d="M1546.353,636.581c-1.52,15.36-6.159,28.2-15.8,35.52-20.079,15.32-59.639,15.6-80.079-17.16-20.4-32.8-18.8-90.28-18.8-90.28l48.879-22,50.52,2.68,9.121,22.56a344.986,344.986,0,0,1,6.2,41.92A161.259,161.259,0,0,1,1546.353,636.581Z" fill="#f9b384"/>
      <g id="Group_430" data-name="Group 430">
        <rect id="Rectangle_58" data-name="Rectangle 58" width="25.121" height="186.025" transform="translate(1868.524 278.427)" fill="#bb9132"/>
        <path id="Path_801" data-name="Path 801" d="M1932.994,315.381l12.24,71.44-64.16-33.76-64.16,33.76,8.28-48.12,4-23.32-51.92-50.6,71.72-10.44,32.08-65,32.08,65,16.2,2.36,55.56,8.08Z" fill="#fbc343"/>
        <path id="Path_802" data-name="Path 802" d="M1943.434,482.5H1818.753l1.6-7.24,9.321-41.76a11.927,11.927,0,0,1,11.6-9.32h79.6a11.9,11.9,0,0,1,11.6,9.32Z" fill="#fbc343"/>
        <path id="Path_803" data-name="Path 803" d="M1932.994,315.381l12.24,71.44-64.161-33.76-64.159,33.76,8.28-48.12c57.079-10.8,88.159-50.2,104.159-82l55.561,8.08Z" fill="#bb9132" opacity="0.3"/>
        <path id="Path_804" data-name="Path 804" d="M1851.963,271.862c.958,4.455-5.57,9.637-14.58,11.574s-17.091-.1-18.048-4.557,5.569-9.637,14.579-11.574S1851.005,267.408,1851.963,271.862Z" fill="#fff" opacity="0.9"/>
        <path id="Path_805" data-name="Path 805" d="M1943.434,482.5H1818.753l1.6-7.24c32.841-2.24,63.92-27.64,78.68-51.08h21.84a11.9,11.9,0,0,1,11.6,9.32Z" fill="#bb9132" opacity="0.3"/>
        <path id="Path_806" data-name="Path 806" d="M1954.355,497.288H1807.814a11.126,11.126,0,0,1-11.126-11.126h0a11.126,11.126,0,0,1,11.126-11.127h146.541a11.126,11.126,0,0,1,11.126,11.127h0A11.126,11.126,0,0,1,1954.355,497.288Z" fill="#bb9132"/>
        <g id="Group_429" data-name="Group 429">
          <path id="Path_807" data-name="Path 807" d="M1775.649,174.5a142.958,142.958,0,0,1,21.47,16.733c3.319,3.066,6.534,6.244,9.59,9.592a90.3,90.3,0,0,1,8.58,10.675l-2.134,2.286a90.271,90.271,0,0,1-11.24-7.825c-3.55-2.818-6.942-5.807-10.229-8.908a142.957,142.957,0,0,1-18.171-20.267Z" fill="#fbc343"/>
          <path id="Path_808" data-name="Path 808" d="M1988.672,176.784a142.957,142.957,0,0,1-18.171,20.267c-3.287,3.1-6.679,6.09-10.229,8.908a90.21,90.21,0,0,1-11.241,7.825L1946.9,211.5a90.2,90.2,0,0,1,8.579-10.675c3.057-3.348,6.272-6.526,9.591-9.592a142.958,142.958,0,0,1,21.47-16.733Z" fill="#fbc343"/>
          <path id="Path_809" data-name="Path 809" d="M1959.961,225.254a46.153,46.153,0,0,1,12.346-9.145,50.223,50.223,0,0,1,6.946-3.085,30.3,30.3,0,0,1,7.63-1.77l1.443,2.774a30.223,30.223,0,0,1-5.831,5.23,50,50,0,0,1-6.515,3.915,46.1,46.1,0,0,1-14.576,4.855Z" fill="#fbc343"/>
          <path id="Path_810" data-name="Path 810" d="M1800.783,228.028a46.1,46.1,0,0,1-14.576-4.855,49.931,49.931,0,0,1-6.515-3.915,30.223,30.223,0,0,1-5.831-5.23l1.443-2.774a30.3,30.3,0,0,1,7.63,1.77,50.281,50.281,0,0,1,6.946,3.085,46.155,46.155,0,0,1,12.346,9.145Z" fill="#fbc343"/>
        </g>
      </g>
      <g id="Group_431" data-name="Group 431" opacity="0.3">
        <path id="Path_811" data-name="Path 811" d="M1484.373,757.577a59.5,59.5,0,0,0,11.891,5.816,25.41,25.41,0,0,0,11.394,1.182,28.851,28.851,0,0,0,10.912-3.9,93.419,93.419,0,0,0,10.815-7.863,25.663,25.663,0,0,1-6.912,12.8,23.728,23.728,0,0,1-13.83,6.905,22.535,22.535,0,0,1-15.162-3.5A22.981,22.981,0,0,1,1484.373,757.577Z" fill="#1f3c88"/>
      </g>
      <path id="Path_812" data-name="Path 812" d="M1624.714,1015.3c-17.681,9.12-43.961,17.2-73.081,21.76-16.52-50.56-24.12-153-13.28-258.32Z" fill="#1f3c88" opacity="0.3"/>
      <path id="Path_813" data-name="Path 813" d="M1486.873,1040.381c-25.2-1.48-49.48-6.72-69.679-17.16l1.48-20.24,60.56-231.4C1497.234,868.141,1496.873,982.981,1486.873,1040.381Z" fill="#1f3c88" opacity="0.3"/>
      <path id="Path_814" data-name="Path 814" d="M1533.938,706.615c61.608-7.977,122.264-14.808,181.594-21.989a30.9,30.9,0,0,0,23.905-16.854l63.472-126.623L1876.33,558.7l-54.064,141.025a124.071,124.071,0,0,1-80.4,74.486l-103.619,30.9s-7.922,82.174,52.248,247.64c-2.149,12.893-53.723,29.368-105.3,27.219C1560.846,1057.76,1551.845,1009.968,1533.938,706.615Z" fill="#1f3c88"/>
      <path id="Path_815" data-name="Path 815" d="M1470.009,714.257s-54.746-1.2-127.413,10.7a104.119,104.119,0,0,0-61.037,33.429c-29.5,33.179-64.664,84.99-85.312,116.62a40.368,40.368,0,0,0,5.083,50.459l90.139,97.754,55.872-59.095-65.542-71.63,73.779-88.1s12.894-5.731,22.206,1.432c2.865,9.312,4.116,119.591-36.713,279.326,16.475,12.893,100.282,20.773,118.906,3.581C1464.275,1082.282,1505.647,882.708,1470.009,714.257Z" fill="#1f3c88"/>
      <path id="Path_816" data-name="Path 816" d="M1482.159,609.89c.341,3.574-1.333,6.657-3.738,6.886s-4.632-2.481-4.973-6.055,1.333-6.656,3.738-6.886S1481.818,606.317,1482.159,609.89Z" fill="#0c1836"/>
      <path id="Path_817" data-name="Path 817" d="M1484.01,599.194a17.2,17.2,0,0,0-11.7-.988c-3.875.906-7.042,3.241-10,6.508l-1.377-.74a14.061,14.061,0,0,1,3.825-6.15,14.442,14.442,0,0,1,6.6-3.485,15.816,15.816,0,0,1,7.4-.007,10.873,10.873,0,0,1,6.35,3.753Z" fill="#0c1836"/>
      <path id="Path_818" data-name="Path 818" d="M1513.083,605.287c.341,3.574,2.567,6.285,4.973,6.055s4.078-3.312,3.737-6.886-2.567-6.285-4.972-6.055S1512.742,601.714,1513.083,605.287Z" fill="#0c1836"/>
      <path id="Path_819" data-name="Path 819" d="M1506.124,594.428a12.882,12.882,0,0,1,5.07-5.235,16.276,16.276,0,0,1,7-2.35,13.119,13.119,0,0,1,7.439,1.436,12.561,12.561,0,0,1,5.141,5.2l-1.213.987c-3.521-2.658-7.09-4.028-11.026-3.658a20.86,20.86,0,0,0-11.12,4.5Z" fill="#0c1836"/>
      <path id="Path_820" data-name="Path 820" d="M1486.611,645.228l33.705-5.739h0c-.583,16.285-22.849,25.957-33.705,5.74Z" fill="#fff"/>
      <path id="Path_821" data-name="Path 821" d="M1556.988,590.6a4.574,4.574,0,0,1-.473.387c-27.935,20.759-48.006-18.265-62.7-21.833-14.655-3.61-33.48,10.272-46.029,1.677,0,0-16.125,35.555-2.407,69.323l-24.412-35.715s-2.965-39.8-3.782-39.8c0-.6,25.272-20.114,25.272-20.114l49.682-18.567,50.757,8.6,8.037,29.053Z" fill="#102048"/>
      <path id="Path_822" data-name="Path 822" d="M1442.251,611.765c-13.61,0-22.084,2.363-20.773,16.758,1.075,11.793,13.968,32.9,31.876,17.379Z" fill="#f9b384"/>
      <g id="Group_432" data-name="Group 432" opacity="0.6">
        <path id="Path_823" data-name="Path 823" d="M1510.645,1305.1c2.016-12.192,4.116-24.367,6.392-36.507,2.2-12.155,4.671-24.255,6.993-36.385l7.51-36.283c2.632-12.068,5.282-24.133,8.227-36.138l1.533.307c-1.908,12.214-4.111,24.368-6.333,36.518l-7.051,36.374c-2.532,12.089-4.913,24.207-7.568,36.271-2.577,12.079-5.331,24.123-8.169,36.15Z" fill="#708cd5"/>
      </g>
      <path id="Path_824" data-name="Path 824" d="M1440.787,630.3a18.072,18.072,0,0,0-1.787-5.4,5.521,5.521,0,0,0-3.746-2.848,5.047,5.047,0,0,0-4.418,1.288,11.32,11.32,0,0,0-3.052,4.562l-1.154-.208a9.448,9.448,0,0,1,2.389-6.242,7.344,7.344,0,0,1,6.8-2.317,7.7,7.7,0,0,1,5.439,4.626,12.442,12.442,0,0,1,.7,6.537Z" fill="#e28b6d"/>
      <path id="Path_825" data-name="Path 825" d="M1498.936,604.321c.489,3.338.862,6.719,2.318,9.384a8.357,8.357,0,0,0,3.014,3.168,28.334,28.334,0,0,1,4.449,2.849,8.064,8.064,0,0,1,2.456,5.519,7.185,7.185,0,0,1-2.42,5.542,9.006,9.006,0,0,1-10.666.612l.526-1.048c2.961,1.056,6.472.573,8.328-1.457a4.872,4.872,0,0,0-.3-7.038,32.688,32.688,0,0,0-4.03-2.7,9.645,9.645,0,0,1-3.631-4.321c-1.51-3.5-1.421-7.088-1.219-10.461Z" fill="#e28b6d"/>
      <path id="Path_826" data-name="Path 826" d="M1546.353,636.581a13.828,13.828,0,0,1-4.48.72,14.12,14.12,0,0,1,0-28.24,13.238,13.238,0,0,1,4.52.76A161.259,161.259,0,0,1,1546.353,636.581Z" fill="#fc8879" opacity="0.4"/>
      <circle id="Ellipse_149" data-name="Ellipse 149" cx="14.109" cy="14.109" r="14.109" transform="matrix(1, -0.005, 0.005, 1, 1451.206, 623.237)" fill="#fc8879" opacity="0.4"/>
    </g>
  </g>
</svg>
