<svg xmlns="http://www.w3.org/2000/svg" xmlns:xlink="http://www.w3.org/1999/xlink" width="138.419" height="193.184" viewBox="0 0 138.419 193.184">
  <defs>
    <clipPath id="clip-path">
      <path id="Path_771" data-name="Path 771" d="M530.378,29.633c-.013,2.6,2.08,2.831,4.663,2.845a4.7,4.7,0,0,0,.049-9.4C532.507,23.064,530.392,27.037,530.378,29.633Z" fill="#ffb3b6"/>
    </clipPath>
  </defs>
  <g id="Group_1529" data-name="Group 1529" transform="translate(-454.79 -23.077)">
    <g id="Group_1483" data-name="Group 1483">
      <path id="Path_750" data-name="Path 750" d="M526.657,36.223c0,1.978-2.4,7.1-2.4,7.1s-2.916-5.119-2.916-7.1,2.916-7.618,2.916-7.618S526.657,34.245,526.657,36.223Z" fill="#ffc1c1"/>
    </g>
    <g id="Group_1484" data-name="Group 1484">
      <path id="Path_751" data-name="Path 751" d="M505.069,39.106c.673,1.859.163,7.493.163,7.493s-4.483-3.808-5.156-5.667.147-8.161.147-8.161S504.4,37.248,505.069,39.106Z" fill="#ffc1c1"/>
    </g>
    <g id="Group_1485" data-name="Group 1485">
      <path id="Path_752" data-name="Path 752" d="M547.924,40.932c-.673,1.859-4.669,5.845-4.669,5.845s-1-5.812-.324-7.671,5.333-6.157,5.333-6.157S548.6,39.074,547.924,40.932Z" fill="#ffc1c1"/>
    </g>
    <g id="Group_1486" data-name="Group 1486">
      <path id="Path_753" data-name="Path 753" d="M504.086,36.011l.386,3.1s-4.89-.97-5.276-1.81a.913.913,0,0,1,.257-1.228Z" fill="#ffb3b6"/>
    </g>
    <g id="Group_1491" data-name="Group 1491">
      <g id="Group_1487" data-name="Group 1487">
        <path id="Path_754" data-name="Path 754" d="M536.164,216.261H513.979a5.782,5.782,0,0,1-5.768-5.8V188.174a5.782,5.782,0,0,1,5.768-5.8h22.185a5.782,5.782,0,0,1,5.768,5.8v22.291A5.782,5.782,0,0,1,536.164,216.261Z" fill="#425ac2"/>
      </g>
      <g id="Group_1490" data-name="Group 1490">
        <g id="Group_1488" data-name="Group 1488">
          <path id="Path_755" data-name="Path 755" d="M527.6,206.332l-2.759,2.772L511.8,196l2.759-2.772Z" fill="#fff"/>
        </g>
        <g id="Group_1489" data-name="Group 1489">
          <path id="Path_756" data-name="Path 756" d="M522.2,206.332l2.759,2.772L538.006,196l-2.759-2.772Z" fill="#fff"/>
        </g>
      </g>
    </g>
    <g id="Group_1499" data-name="Group 1499">
      <g id="Group_1496" data-name="Group 1496">
        <g id="Group_1492" data-name="Group 1492">
          <path id="Path_757" data-name="Path 757" d="M497.286,216.261H475.1a5.782,5.782,0,0,1-5.768-5.8V188.174a5.782,5.782,0,0,1,5.768-5.8h22.185a5.782,5.782,0,0,1,5.768,5.8v22.291A5.782,5.782,0,0,1,497.286,216.261Z" fill="#425ac2"/>
        </g>
        <g id="Group_1495" data-name="Group 1495">
          <g id="Group_1493" data-name="Group 1493">
            <path id="Path_758" data-name="Path 758" d="M488.722,206.332l-2.759,2.772L472.919,196l2.759-2.772Z" fill="#fff"/>
          </g>
          <g id="Group_1494" data-name="Group 1494">
            <path id="Path_759" data-name="Path 759" d="M483.325,206.332l2.759,2.772L499.128,196l-2.759-2.772Z" fill="#fff"/>
          </g>
        </g>
      </g>
      <g id="Group_1498" data-name="Group 1498">
        <g id="Group_1497" data-name="Group 1497">
          <path id="Path_760" data-name="Path 760" d="M575.042,216.261H552.857a5.782,5.782,0,0,1-5.768-5.8V188.174a5.782,5.782,0,0,1,5.768-5.8h22.185a5.782,5.782,0,0,1,5.768,5.8v22.291A5.782,5.782,0,0,1,575.042,216.261Z" fill="#bbb"/>
        </g>
      </g>
    </g>
    <g id="Group_1500" data-name="Group 1500">
      <path id="Path_761" data-name="Path 761" d="M530.543,153.079l-5.434.715v-.224l-5.51-.722,5.51,43.371Z" fill="#03053f"/>
    </g>
    <g id="Group_1501" data-name="Group 1501">
      <rect id="Rectangle_484" data-name="Rectangle 484" width="45.27" height="62.873" transform="translate(502.437 95.26)" fill="#ffc1c1"/>
    </g>
    <g id="Group_1503" data-name="Group 1503">
      <g id="Group_1502" data-name="Group 1502">
        <path id="Path_762" data-name="Path 762" d="M552.437,102.035H497.706c-2.988,0-5.41-2.063-5.41-4.609v-3.8c0-2.545,2.422-4.609,5.41-4.609h54.731c2.988,0,5.41,2.064,5.41,4.609v3.8C557.847,99.972,555.425,102.035,552.437,102.035Z" fill="#fe958e"/>
      </g>
    </g>
    <g id="Group_1505" data-name="Group 1505">
      <g id="Group_1504" data-name="Group 1504">
        <path id="Path_763" data-name="Path 763" d="M552.437,165.487H497.706c-2.988,0-5.41-2.063-5.41-4.609v-3.8c0-2.546,2.422-4.609,5.41-4.609h54.731c2.988,0,5.41,2.063,5.41,4.609v3.8C557.847,163.424,555.425,165.487,552.437,165.487Z" fill="#fe958e"/>
      </g>
    </g>
    <g id="Group_1506" data-name="Group 1506">
      <path id="Path_764" data-name="Path 764" d="M527.6,32.656c-3.4,0-11.48,5.536-11.48,5.536l-12.048-2.266-.809,2.882,13.766,3.905S525.52,40,527.464,37.6,529.568,32.656,527.6,32.656Z" fill="#03053f"/>
    </g>
    <g id="Group_1507" data-name="Group 1507">
      <path id="Path_765" data-name="Path 765" d="M560.709,39.01l-.386,3.1s4.89-.97,5.276-1.81a.912.912,0,0,0-.258-1.228Z" fill="#ffb3b6"/>
    </g>
    <g id="Group_1508" data-name="Group 1508">
      <path id="Path_766" data-name="Path 766" d="M536.628,35.347c2.831,0,11.326,5.844,11.326,5.844l12.772-2.266.809,2.882-13.766,3.905S539.275,43,537.331,40.6,534.656,35.347,536.628,35.347Z" fill="#03053f"/>
    </g>
    <g id="Group_1509" data-name="Group 1509">
      <path id="Path_767" data-name="Path 767" d="M533.495,55.506l-13.853-.023,4.189-19.311c.323-1.537,2.856-3.919,4.353-3.466L538.2,35.65a2.685,2.685,0,0,1,1.712,3.555Z" fill="#03053f"/>
    </g>
    <g id="Group_1510" data-name="Group 1510">
      <path id="Path_768" data-name="Path 768" d="M534.123,35.552l-1.746-.529a1.1,1.1,0,0,1-.648-1.408l.648-2.162a1.1,1.1,0,0,1,1.315-.814l1.745.528a1.1,1.1,0,0,1,.648,1.409l-.647,2.161A1.1,1.1,0,0,1,534.123,35.552Z" fill="#e98896"/>
    </g>
    <g id="Group_1513" data-name="Group 1513">
      <path id="Path_769" data-name="Path 769" d="M530.378,29.633c-.013,2.6,2.08,2.831,4.663,2.845a4.7,4.7,0,0,0,.049-9.4C532.507,23.064,530.392,27.037,530.378,29.633Z" fill="#ffb3b6"/>
      <g id="Group_1512" data-name="Group 1512" clip-path="url(#clip-path)">
        <g id="Group_1511" data-name="Group 1511">
          <path id="Path_770" data-name="Path 770" d="M536.839,26.032s-.477,1.59-.259,1.656a1.6,1.6,0,0,1,1.505.933c.37.949-.515,1.518-1.273,1.468s-.826,1.962.963,2.145,3.589-3.636,3.177-5.435-2.685-4.339-3.7-4.527-11.416.411-11.416.411Z" fill="#fe958e"/>
        </g>
      </g>
    </g>
    <g id="Group_1514" data-name="Group 1514">
      <path id="Path_772" data-name="Path 772" d="M533.495,55.506l-13.853-.023V86.95h2.745s2.078-15.523,2.862-24.1h1.9L531.806,74.1l13.776,5.075,1.491-2.519-11.134-5.478s-2.278-10.948-2.318-13.1A24.174,24.174,0,0,0,533.495,55.506Z" fill="#fe958e"/>
    </g>
    <g id="Group_1515" data-name="Group 1515">
      <path id="Path_773" data-name="Path 773" d="M519.6,86.91h2.791v2.151h-5.661c-.374,0-.5-.843-.175-1.025Z" fill="#0e24a5"/>
    </g>
    <g id="Group_1516" data-name="Group 1516">
      <path id="Path_774" data-name="Path 774" d="M545.17,78.845l1.545-2.336L548.5,77.7l-3.133,4.737c-.207.312-.977-.047-.947-.421Z" fill="#0e24a5"/>
    </g>
    <g id="Group_1517" data-name="Group 1517">
      <path id="Path_775" data-name="Path 775" d="M485.765,49.234c1.265,1.515,2.7,6.986,2.7,6.986s-5.509-2.039-6.774-3.554-2.639-7.719-2.639-7.719S484.5,47.719,485.765,49.234Z" fill="#ffc1c1"/>
    </g>
    <g id="Group_1518" data-name="Group 1518">
      <path id="Path_776" data-name="Path 776" d="M471.072,65.386c1.705.989,4.918,5.635,4.918,5.635s-5.87-.022-7.575-1.011-5.108-6.347-5.108-6.347S469.368,64.4,471.072,65.386Z" fill="#ffc1c1"/>
    </g>
    <g id="Group_1519" data-name="Group 1519">
      <path id="Path_777" data-name="Path 777" d="M462.763,85.613c1.939.343,6.54,3.605,6.54,3.605s-5.524,2-7.462,1.653-6.961-4.209-6.961-4.209S460.825,85.269,462.763,85.613Z" fill="#ffc1c1"/>
    </g>
    <g id="Group_1520" data-name="Group 1520">
      <path id="Path_778" data-name="Path 778" d="M461.841,107.475c1.938-.343,7.372,1.14,7.372,1.14s-4.511,3.775-6.45,4.118-7.973-1.563-7.973-1.563S459.9,107.818,461.841,107.475Z" fill="#ffc1c1"/>
    </g>
    <g id="Group_1521" data-name="Group 1521">
      <path id="Path_779" data-name="Path 779" d="M468.415,128.336c1.7-.989,7.316-1.462,7.316-1.462s-2.954,5.1-4.659,6.086-8.024,1.271-8.024,1.271S466.711,129.325,468.415,128.336Z" fill="#ffc1c1"/>
    </g>
    <g id="Group_1522" data-name="Group 1522">
      <path id="Path_780" data-name="Path 780" d="M481.694,145.679c1.265-1.515,6.377-3.888,6.377-3.888s-1.041,5.8-2.306,7.32-7.108,3.953-7.108,3.953S480.429,147.194,481.694,145.679Z" fill="#ffc1c1"/>
    </g>
    <g id="Group_1523" data-name="Group 1523">
      <path id="Path_781" data-name="Path 781" d="M562.235,149.111c-1.265-1.515-2.7-6.985-2.7-6.985s5.508,2.038,6.774,3.553,2.639,7.72,2.639,7.72S563.5,150.626,562.235,149.111Z" fill="#ffc1c1"/>
    </g>
    <g id="Group_1524" data-name="Group 1524">
      <path id="Path_782" data-name="Path 782" d="M576.928,132.96c-1.7-.989-4.918-5.635-4.918-5.635s5.87.022,7.575,1.011,5.108,6.346,5.108,6.346S578.632,133.949,576.928,132.96Z" fill="#ffc1c1"/>
    </g>
    <g id="Group_1525" data-name="Group 1525">
      <path id="Path_783" data-name="Path 783" d="M585.236,112.733c-1.938-.343-6.539-3.605-6.539-3.605s5.524-2,7.462-1.653,6.96,4.208,6.96,4.208S587.175,113.076,585.236,112.733Z" fill="#ffc1c1"/>
    </g>
    <g id="Group_1526" data-name="Group 1526">
      <path id="Path_784" data-name="Path 784" d="M586.159,90.871c-1.938.343-7.372-1.141-7.372-1.141s4.511-3.774,6.449-4.117,7.973,1.562,7.973,1.562S588.1,90.527,586.159,90.871Z" fill="#ffc1c1"/>
    </g>
    <g id="Group_1527" data-name="Group 1527">
      <path id="Path_785" data-name="Path 785" d="M579.585,70.01c-1.705.989-7.316,1.462-7.316,1.462s2.954-5.1,4.659-6.086,8.024-1.272,8.024-1.272S581.289,69.021,579.585,70.01Z" fill="#ffc1c1"/>
    </g>
    <g id="Group_1528" data-name="Group 1528">
      <path id="Path_786" data-name="Path 786" d="M566.306,52.666c-1.266,1.515-6.377,3.888-6.377,3.888s1.041-5.805,2.306-7.32,7.107-3.952,7.107-3.952S567.571,51.151,566.306,52.666Z" fill="#ffc1c1"/>
    </g>
  </g>
</svg>
