<svg xmlns="http://www.w3.org/2000/svg" xmlns:xlink="http://www.w3.org/1999/xlink" width="153.319" height="151.882" viewBox="0 0 153.319 151.882">
  <defs>
    <clipPath id="clip-path">
      <path id="Path_359" data-name="Path 359" d="M432.141,329.7c2.34,4.273-.922,6.538-5.194,8.877a8.82,8.82,0,1,1-8.471-15.472C422.748,320.763,429.8,325.425,432.141,329.7Z" transform="translate(-413.89 -322.476)" fill="none"/>
    </clipPath>
    <clipPath id="clip-path-2">
      <path id="Path_369" data-name="Path 369" d="M514.047,318.872h22.918l-3.153-11.7,6.015-18.74c.256-2.483-2.144-4.614-5.2-4.614H516.382c-3.053,0-5.453,2.131-5.2,4.614l6.5,18.74Z" transform="translate(-511.166 -283.815)" fill="none"/>
    </clipPath>
    <clipPath id="clip-path-3">
      <path id="Path_379" data-name="Path 379" d="M546.049,366.612H530.021l-4.1-25.824c-.218-2.106,1.818-3.914,4.408-3.914h16.69c2.589,0,4.625,1.808,4.407,3.914Z" transform="translate(-525.9 -336.874)" fill="none"/>
    </clipPath>
    <clipPath id="clip-path-4">
      <rect id="Rectangle_49" data-name="Rectangle 49" width="18.612" height="18.612" rx="3.184" fill="none"/>
    </clipPath>
    <clipPath id="clip-path-7">
      <path id="Path_387" data-name="Path 387" d="M527.823,279.986c-2.9,2.433-5.124.292-7.557-2.609a6.66,6.66,0,0,1,.508-9.517c2.9-2.433,7.567-2.4,10,.5S530.724,277.553,527.823,279.986Z" transform="translate(-518.514 -266.107)" fill="none"/>
    </clipPath>
    <clipPath id="clip-path-8">
      <path id="Path_392" data-name="Path 392" d="M530.021,366.612h16.028s4.181,4.89,7.124,19.447c2.515,12.446,5.11,31.281,5.11,31.281H520.149s2.739-27.7,4.878-36.7C527.234,371.347,530.021,366.612,530.021,366.612Z" transform="translate(-520.149 -366.612)" fill="none"/>
    </clipPath>
    <clipPath id="clip-path-9">
      <path id="Path_396" data-name="Path 396" d="M566.792,409.888h19.06l-3.322,24.436H570.113Z" transform="translate(-566.792 -409.888)" fill="none"/>
    </clipPath>
  </defs>
  <g id="Group_555" data-name="Group 555" transform="translate(-413.89 -231.334)">
    <g id="Group_430" data-name="Group 430" transform="translate(527.352 256.585)">
      <g id="Group_420" data-name="Group 420" transform="translate(0 56.918)">
        <path id="Path_332" data-name="Path 332" d="M571.885,413.667c-1.644-.328-6.081-3.779-9.7-13.311-2.066-5.445-7.888-33.524,0-35.5S568.6,377.021,568.6,390C568.6,397.919,571.885,413.667,571.885,413.667Z" transform="translate(-558.177 -364.675)" fill="#0e24a5"/>
      </g>
      <g id="Group_421" data-name="Group 421" transform="translate(13.103)">
        <path id="Path_333" data-name="Path 333" d="M575.5,414.982c-4.148-.276-3.287-42.234-3.615-52.094s-2.3-46.671,3.286-52.587,11.339-.658,11.832,6.984c.234,3.623-.986,29.991-1.643,37.55s-1.479,24.651-2.136,35.5S580.43,415.311,575.5,414.982Z" transform="translate(-571.28 -307.756)" fill="#0e24a5"/>
      </g>
      <g id="Group_423" data-name="Group 423" transform="translate(22.581 26.205)">
        <g id="Group_422" data-name="Group 422">
          <path id="Path_334" data-name="Path 334" d="M583.224,415.475s9.209-18.168,11.5-32.21c4.109-25.143,4.93-49.629-.657-49.3s-5.992,24.982-6.245,35.5c-.657,27.28-7.066,44.371-7.066,44.371Z" transform="translate(-580.759 -333.962)" fill="#0e24a5"/>
        </g>
      </g>
      <g id="Group_424" data-name="Group 424" transform="translate(23.87 63.998)">
        <path id="Path_335" data-name="Path 335" d="M582.428,414.722l-.381-.137c.033-.09,3.278-9.1,5.423-15.118,4.214-11.831,4.912-27.556,4.918-27.713l.405.017c-.007.157-.708,15.944-4.942,27.832C585.706,405.626,582.461,414.632,582.428,414.722Z" transform="translate(-582.047 -371.754)" fill="#ffc1c1"/>
      </g>
      <g id="Group_425" data-name="Group 425" transform="translate(18.271 82.235)">
        <path id="Path_336" data-name="Path 336" d="M576.853,412.189h-.405c0-5.611.976-22.033.986-22.2l.4.024C577.828,390.18,576.853,406.59,576.853,412.189Z" transform="translate(-576.448 -389.991)" fill="#ffc1c1"/>
      </g>
      <g id="Group_426" data-name="Group 426" transform="translate(5.154 74.838)">
        <path id="Path_337" data-name="Path 337" d="M570.3,413.5a145.5,145.5,0,0,1-5.433-16.049,52.787,52.787,0,0,1-1.484-14.855l.4.028a52.346,52.346,0,0,0,1.474,14.726,144.709,144.709,0,0,0,5.414,16Z" transform="translate(-563.332 -382.594)" fill="#ffc1c1"/>
      </g>
      <g id="Group_427" data-name="Group 427" transform="translate(18.473 81.343)">
        <path id="Path_338" data-name="Path 338" d="M579.115,390.332a1.232,1.232,0,1,1-1.232-1.233A1.232,1.232,0,0,1,579.115,390.332Z" transform="translate(-576.65 -389.099)" fill="#425ac2"/>
      </g>
      <g id="Group_428" data-name="Group 428" transform="translate(4.176 73.784)">
        <path id="Path_339" data-name="Path 339" d="M564.818,382.772a1.232,1.232,0,1,1-1.232-1.232A1.233,1.233,0,0,1,564.818,382.772Z" transform="translate(-562.353 -381.54)" fill="#425ac2"/>
      </g>
      <g id="Group_429" data-name="Group 429" transform="translate(33.18 62.774)">
        <path id="Path_340" data-name="Path 340" d="M593.823,371.762a1.233,1.233,0,1,1-1.232-1.232A1.232,1.232,0,0,1,593.823,371.762Z" transform="translate(-591.358 -370.53)" fill="#425ac2"/>
      </g>
    </g>
    <g id="Group_439" data-name="Group 439" transform="translate(457.386 255.242)">
      <g id="Group_431" data-name="Group 431" transform="translate(19.778)">
        <path id="Path_341" data-name="Path 341" d="M496.6,272.553,489.7,275.71a1.232,1.232,0,0,1-1.738-1.236l.713-7.548a1.231,1.231,0,0,1,1.939-.888l6.181,4.391A1.232,1.232,0,0,1,496.6,272.553Z" transform="translate(-487.96 -265.809)" fill="#425ac2"/>
      </g>
      <g id="Group_432" data-name="Group 432" transform="translate(0 17.104)">
        <path id="Path_342" data-name="Path 342" d="M472.031,283.245l7.342,5.831a1.523,1.523,0,0,1-.387,2.609l-8.721,3.443a1.522,1.522,0,0,1-2.065-1.64l1.378-9.274A1.523,1.523,0,0,1,472.031,283.245Z" transform="translate(-468.183 -282.913)" fill="#425ac2"/>
      </g>
      <g id="Group_433" data-name="Group 433" transform="translate(7.334 7.891)">
        <path id="Path_343" data-name="Path 343" d="M481.919,274.515l.681,5.657a.925.925,0,0,1-1.282.961l-5.239-2.238a.925.925,0,0,1-.192-1.591l4.558-3.418A.925.925,0,0,1,481.919,274.515Z" transform="translate(-475.517 -273.7)" fill="#425ac2"/>
      </g>
      <g id="Group_434" data-name="Group 434" transform="translate(16.777 14.717)">
        <path id="Path_344" data-name="Path 344" d="M492.171,290.411l-6.59-3.751a1.231,1.231,0,0,1-.013-2.132l6.543-3.832a1.231,1.231,0,0,1,1.853,1.055l.047,7.582A1.231,1.231,0,0,1,492.171,290.411Z" transform="translate(-484.959 -280.525)" fill="#425ac2"/>
      </g>
      <g id="Group_435" data-name="Group 435" transform="translate(13.769 4.635)">
        <path id="Path_345" data-name="Path 345" d="M486.735,301.914c-.28-.515-.563-1.025-.844-1.531-3.154-5.681-6.134-11.047-1.68-18.341s7.6-11.556,7.632-11.6l.325.241c-.031.042-3.175,4.3-7.611,11.568-4.331,7.093-1.408,12.359,1.688,17.933q.423.762.846,1.534Z" transform="translate(-481.952 -270.444)" fill="#0e24a5"/>
      </g>
      <g id="Group_436" data-name="Group 436" transform="translate(11.555 11.475)">
        <rect id="Rectangle_19" data-name="Rectangle 19" width="0.405" height="7.074" transform="translate(0 0.219) rotate(-32.704)" fill="#0e24a5"/>
      </g>
      <g id="Group_437" data-name="Group 437" transform="translate(6.999 23.687)">
        <rect id="Rectangle_20" data-name="Rectangle 20" width="0.405" height="7.074" transform="translate(0 0.4) rotate(-80.821)" fill="#0e24a5"/>
      </g>
      <g id="Group_438" data-name="Group 438" transform="translate(14.55 19.438)">
        <rect id="Rectangle_21" data-name="Rectangle 21" width="7.074" height="0.405" transform="translate(0 0.388) rotate(-3.141)" fill="#0e24a5"/>
      </g>
    </g>
    <g id="Group_448" data-name="Group 448" transform="translate(461.45 327.409)">
      <g id="Group_440" data-name="Group 440" transform="translate(0 22.914)">
        <path id="Path_346" data-name="Path 346" d="M474.644,397.558l7.146-.909a1.17,1.17,0,0,1,1.227,1.613l-2.786,6.643a1.17,1.17,0,0,1-2.01.256l-4.361-5.734A1.17,1.17,0,0,1,474.644,397.558Z" transform="translate(-473.62 -396.639)" fill="#425ac2"/>
      </g>
      <g id="Group_441" data-name="Group 441" transform="translate(21.075 10.819)">
        <path id="Path_347" data-name="Path 347" d="M499.953,394.823l-5.006-7.369a1.446,1.446,0,0,1,1.091-2.255l8.884-.651a1.446,1.446,0,0,1,1.408,2.072l-3.878,8.02A1.447,1.447,0,0,1,499.953,394.823Z" transform="translate(-494.695 -384.544)" fill="#425ac2"/>
      </g>
      <g id="Group_442" data-name="Group 442" transform="translate(14.877 20.171)">
        <path id="Path_348" data-name="Path 348" d="M488.512,399.938l.986-5.323a.879.879,0,0,1,1.435-.508l4.116,3.515a.879.879,0,0,1-.277,1.5l-5.1,1.808A.879.879,0,0,1,488.512,399.938Z" transform="translate(-488.497 -393.896)" fill="#425ac2"/>
      </g>
      <g id="Group_443" data-name="Group 443" transform="translate(5.966 8.52)">
        <path id="Path_349" data-name="Path 349" d="M483.719,382.618l4.914,5.269a1.169,1.169,0,0,1-.593,1.937l-7.019,1.621a1.17,1.17,0,0,1-1.382-1.482l2.106-6.889A1.17,1.17,0,0,1,483.719,382.618Z" transform="translate(-479.587 -382.245)" fill="#425ac2"/>
      </g>
      <g id="Group_444" data-name="Group 444" transform="translate(4.506)">
        <path id="Path_350" data-name="Path 350" d="M478.365,400.826l-.239-.327c.04-.029,4.1-3,10.18-8.333,5.933-5.2,4.774-10.8,3.548-16.732-.112-.54-.225-1.083-.332-1.63l.4-.079c.108.546.22,1.088.332,1.627,1.251,6.049,2.434,11.762-3.677,17.118C482.478,397.814,478.4,400.8,478.365,400.826Z" transform="translate(-478.126 -373.725)" fill="#0e24a5"/>
      </g>
      <g id="Group_445" data-name="Group 445" transform="translate(15.557 17.639)">
        <rect id="Rectangle_22" data-name="Rectangle 22" width="0.405" height="6.721" transform="translate(0 0.107) rotate(-15.349)" fill="#0e24a5"/>
      </g>
      <g id="Group_446" data-name="Group 446" transform="translate(19.171 11.164)">
        <rect id="Rectangle_23" data-name="Rectangle 23" width="0.405" height="6.721" transform="translate(0 0.362) rotate(-63.468)" fill="#0e24a5"/>
      </g>
      <g id="Group_447" data-name="Group 447" transform="translate(10.788 13.864)">
        <rect id="Rectangle_24" data-name="Rectangle 24" width="0.405" height="6.721" transform="matrix(0.246, -0.969, 0.969, 0.246, 0, 0.392)" fill="#0e24a5"/>
      </g>
    </g>
    <g id="Group_449" data-name="Group 449" transform="translate(535.966 358.716)">
      <path id="Path_351" data-name="Path 351" d="M566.792,409.888h19.06l-3.322,24.436H570.113Z" transform="translate(-566.792 -409.888)" fill="#ffc1c1"/>
    </g>
    <g id="Group_450" data-name="Group 450" transform="translate(437.193 311.348)">
      <path id="Path_352" data-name="Path 352" d="M471.252,362.52l9.292,41.192-7.385,26.344h-6.1l3.262-26.421s-4.955-12.621-7.433-19.28l-4.181.929,1.393,19.28-4.895,25.492h-6.1l.773-25.259s-6.592-31.78-6.5-35.773C443.215,368.37,471.252,362.52,471.252,362.52Z" transform="translate(-443.377 -362.52)" fill="#fe958e"/>
    </g>
    <g id="Group_451" data-name="Group 451" transform="translate(424.009 299.748)">
      <path id="Path_353" data-name="Path 353" d="M473.575,368.559l-28.8,5.576-18.965-21.027a5.034,5.034,0,0,1-.333-7.4l12.421-12.491a5.033,5.033,0,0,1,7.406.29Z" transform="translate(-424.009 -331.727)" fill="#0e24a5"/>
    </g>
    <g id="Group_452" data-name="Group 452" transform="translate(425.084 306.355)">
      <path id="Path_354" data-name="Path 354" d="M434.115,339.906l-2.423,2.437a2.066,2.066,0,0,1-2.908-.165l-3-2.986a2.067,2.067,0,0,1-.182-2.907l2.423-2.437a2.067,2.067,0,0,1,2.908.165l3,2.986A2.066,2.066,0,0,1,434.115,339.906Z" transform="translate(-425.084 -333.325)" fill="#e98896"/>
    </g>
    <g id="Group_453" data-name="Group 453" transform="translate(423.99 312.069)">
      <path id="Path_355" data-name="Path 355" d="M424.188,347.851c-.739,1.849.733,25.752,2.1,27.485,2.711,3.451,24.4,4.93,24.4,4.93v-5.3l-16.022-5.67-2.342-19.844S425.306,345.056,424.188,347.851Z" transform="translate(-423.99 -346.921)" fill="#0e24a5"/>
    </g>
    <g id="Group_454" data-name="Group 454" transform="translate(413.89 297.384)">
      <path id="Path_356" data-name="Path 356" d="M432.141,329.7c2.34,4.273-.922,6.538-5.194,8.877a8.82,8.82,0,1,1-8.471-15.472C422.748,320.763,429.8,325.425,432.141,329.7Z" transform="translate(-413.89 -322.476)" fill="#ffb3b6"/>
    </g>
    <g id="Group_455" data-name="Group 455" transform="translate(416.094 290.819)">
      <path id="Path_357" data-name="Path 357" d="M416.743,331.8s10.111-7.959,11.722-11.79c1.517-3.606.587-6.37-3.389-6.416-5.1-.059-7.823,5.324-8.9,11.378C415.819,326.972,416.743,331.8,416.743,331.8Z" transform="translate(-416.094 -313.59)" fill="#7f4d4e"/>
    </g>
    <g id="Group_458" data-name="Group 458" transform="translate(413.89 297.384)">
      <g id="Group_457" data-name="Group 457" clip-path="url(#clip-path)">
        <g id="Group_456" data-name="Group 456" transform="translate(-2.096 0.907)">
          <path id="Path_358" data-name="Path 358" d="M418.213,329.547s2.209,2.2,1.906,2.5a3.024,3.024,0,0,0-1.662,2.891c.233,1.9,2.208,2.044,3.421,1.281s3.12,2.5.316,4.4-9.2-2.784-10.118-6.123.58-9.57,2.1-10.79,5.472,1.352,5.472,1.352Z" transform="translate(-411.794 -323.383)" fill="#7f4d4e"/>
        </g>
      </g>
    </g>
    <g id="Group_459" data-name="Group 459" transform="translate(425.109 301.037)">
      <path id="Path_360" data-name="Path 360" d="M435.639,328.4a6.175,6.175,0,1,1-8.733.024A6.174,6.174,0,0,1,435.639,328.4Z" transform="translate(-425.109 -326.6)" fill="#7f4d4e"/>
    </g>
    <g id="Group_460" data-name="Group 460" transform="translate(426.894 303.39)">
      <rect id="Rectangle_25" data-name="Rectangle 25" width="4.511" height="2.339" rx="0.961" transform="translate(0 3.199) rotate(-45.164)" fill="#ffb3b6"/>
    </g>
    <g id="Group_467" data-name="Group 467" transform="translate(463.93 324.202)">
      <g id="Group_463" data-name="Group 463" transform="translate(0 0.46)">
        <g id="Group_461" data-name="Group 461" transform="translate(1.252)">
          <path id="Path_361" data-name="Path 361" d="M483.895,432.647l-2.231-.977L506.2,375.834l2.231.977Z" transform="translate(-481.663 -375.834)" fill="#ccc"/>
        </g>
        <g id="Group_462" data-name="Group 462" transform="translate(0 53.986)">
          <path id="Path_362" data-name="Path 362" d="M484.889,432.017a2.239,2.239,0,1,1-2.28-2.2A2.24,2.24,0,0,1,484.889,432.017Z" transform="translate(-480.412 -429.82)" fill="#ffc1c1"/>
        </g>
      </g>
      <g id="Group_466" data-name="Group 466" transform="translate(31.505)">
        <g id="Group_464" data-name="Group 464">
          <path id="Path_363" data-name="Path 363" d="M536.659,432.647l2.231-.977-24.742-56.3-2.231.977Z" transform="translate(-511.917 -375.373)" fill="#ccc"/>
        </g>
        <g id="Group_465" data-name="Group 465" transform="translate(23.748 54.446)">
          <path id="Path_364" data-name="Path 364" d="M535.665,432.017a2.239,2.239,0,1,0,2.279-2.2A2.239,2.239,0,0,0,535.665,432.017Z" transform="translate(-535.665 -429.82)" fill="#ffc1c1"/>
        </g>
      </g>
    </g>
    <g id="Group_468" data-name="Group 468" transform="translate(484.368 256.005)">
      <path id="Path_365" data-name="Path 365" d="M503.866,292.539c.431-4.533,4.1-5.828,5.612-7.771s1.871-7.7,3.669-10.864c1.927-3.391,5.037-8.49,13.527-7.555,6.839.754,8.705,6.116,8.921,10.217s3.885,7.986,6.475,9.281,3.886,6.044,3.67,8.2S503.866,292.539,503.866,292.539Z" transform="translate(-503.866 -266.236)" fill="#0e24a5"/>
    </g>
    <g id="Group_469" data-name="Group 469" transform="translate(491.878 267.829)">
      <path id="Path_366" data-name="Path 366" d="M514.047,318.872h22.918l-3.153-11.7,6.015-18.74c.256-2.483-2.144-4.614-5.2-4.614H516.382c-3.053,0-5.453,2.131-5.2,4.614l6.5,18.74Z" transform="translate(-511.166 -283.815)" fill="#fe958e"/>
    </g>
    <g id="Group_470" data-name="Group 470" transform="translate(485.086 257.148)">
      <path id="Path_367" data-name="Path 367" d="M514.037,292.976c-1.86-.207-4.616-3.583-8.681-10.749s-4.41-8.543-4.341-9.577,2.963-15.5,2.963-15.5h4.409l-1.309,15.709s5.422,8.889,8.875,11.048C517.867,285.1,514.037,292.976,514.037,292.976Z" transform="translate(-501.008 -257.148)" fill="#fe958e"/>
    </g>
    <g id="Group_471" data-name="Group 471" transform="translate(512.825 257.148)">
      <path id="Path_368" data-name="Path 368" d="M536.767,292.976c1.86-.207,4.616-3.583,8.682-10.749s4.409-8.543,4.34-9.577-2.962-15.5-2.962-15.5h-4.41l1.309,15.709s-5.433,8.566-8.347,11.12C533.667,285.477,536.767,292.976,536.767,292.976Z" transform="translate(-534.863 -257.148)" fill="#fe958e"/>
    </g>
    <g id="Group_474" data-name="Group 474" transform="translate(491.878 267.829)">
      <g id="Group_473" data-name="Group 473" clip-path="url(#clip-path-2)">
        <g id="Group_472" data-name="Group 472" transform="translate(5.049 -12.956)">
          <circle id="Ellipse_68" data-name="Ellipse 68" cx="9.198" cy="9.198" r="9.198" fill="#e98896"/>
        </g>
      </g>
    </g>
    <g id="Group_476" data-name="Group 476" transform="translate(422.705 264.86)">
      <g id="Group_475" data-name="Group 475">
        <rect id="Rectangle_26" data-name="Rectangle 26" width="127.361" height="87.34" rx="8.827" fill="#fee2e3"/>
      </g>
    </g>
    <g id="Group_477" data-name="Group 477" transform="translate(441.289 280.125)">
      <path id="Rectangle_27" data-name="Rectangle 27" d="M3.184,0H15.428a3.183,3.183,0,0,1,3.183,3.183V15.428a3.184,3.184,0,0,1-3.184,3.184H3.184A3.184,3.184,0,0,1,0,15.428V3.184A3.184,3.184,0,0,1,3.184,0Z" fill="#ffc1c1"/>
    </g>
    <g id="Group_478" data-name="Group 478" transform="translate(463.211 280.125)">
      <rect id="Rectangle_28" data-name="Rectangle 28" width="18.612" height="18.612" rx="3.184" fill="#ffc1c1"/>
    </g>
    <g id="Group_479" data-name="Group 479" transform="translate(485.132 280.125)">
      <rect id="Rectangle_29" data-name="Rectangle 29" width="18.612" height="18.612" rx="3.184" fill="#ffc1c1"/>
    </g>
    <g id="Group_480" data-name="Group 480" transform="translate(507.054 280.125)">
      <path id="Rectangle_30" data-name="Rectangle 30" d="M3.183,0H15.428a3.184,3.184,0,0,1,3.184,3.184V15.428a3.184,3.184,0,0,1-3.184,3.184H3.183A3.183,3.183,0,0,1,0,15.428V3.183A3.183,3.183,0,0,1,3.183,0Z" fill="#ffc1c1"/>
    </g>
    <g id="Group_482" data-name="Group 482" transform="translate(524.486 280.125)">
      <g id="Group_481" data-name="Group 481">
        <rect id="Rectangle_31" data-name="Rectangle 31" width="18.612" height="18.612" rx="3.184" fill="#ffc1c1"/>
      </g>
    </g>
    <g id="Group_483" data-name="Group 483" transform="translate(441.289 299.259)">
      <rect id="Rectangle_32" data-name="Rectangle 32" width="18.612" height="18.612" rx="3.184" fill="#ffc1c1"/>
    </g>
    <g id="Group_484" data-name="Group 484" transform="translate(463.211 299.259)">
      <rect id="Rectangle_33" data-name="Rectangle 33" width="18.612" height="18.612" rx="3.184" fill="#ffc1c1"/>
    </g>
    <g id="Group_485" data-name="Group 485" transform="translate(485.132 299.259)">
      <rect id="Rectangle_34" data-name="Rectangle 34" width="18.612" height="18.612" rx="3.184" fill="#ffc1c1"/>
    </g>
    <g id="Group_486" data-name="Group 486" transform="translate(524.486 299.259)">
      <rect id="Rectangle_35" data-name="Rectangle 35" width="18.612" height="18.612" rx="3.184" fill="#ffc1c1"/>
    </g>
    <g id="Group_487" data-name="Group 487" transform="translate(441.289 318.393)">
      <rect id="Rectangle_36" data-name="Rectangle 36" width="18.612" height="18.612" rx="3.184" fill="#ffc1c1"/>
    </g>
    <g id="Group_488" data-name="Group 488" transform="translate(463.211 318.393)">
      <rect id="Rectangle_37" data-name="Rectangle 37" width="18.612" height="18.612" rx="3.184" fill="#ffc1c1"/>
    </g>
    <g id="Group_489" data-name="Group 489" transform="translate(485.132 318.393)">
      <rect id="Rectangle_38" data-name="Rectangle 38" width="18.612" height="18.612" rx="3.184" fill="#ffc1c1"/>
    </g>
    <g id="Group_490" data-name="Group 490" transform="translate(507.054 318.393)">
      <path id="Rectangle_39" data-name="Rectangle 39" d="M3.184,0H15.428a3.184,3.184,0,0,1,3.184,3.184V15.428a3.184,3.184,0,0,1-3.184,3.184H3.183A3.183,3.183,0,0,1,0,15.428V3.184A3.184,3.184,0,0,1,3.184,0Z" fill="#ffc1c1"/>
    </g>
    <g id="Group_491" data-name="Group 491" transform="translate(524.486 318.393)">
      <rect id="Rectangle_40" data-name="Rectangle 40" width="18.612" height="18.612" rx="3.184" fill="#ffc1c1"/>
    </g>
    <g id="Group_492" data-name="Group 492" transform="translate(457.541 378.809)">
      <path id="Path_370" data-name="Path 370" d="M473.159,429.981h-6.14v4.037h10.674c.7,0,.946-1.583.33-1.924Z" transform="translate(-467.019 -429.981)" fill="#425ac2"/>
    </g>
    <g id="Group_493" data-name="Group 493" transform="translate(442.783 378.809)">
      <path id="Path_371" data-name="Path 371" d="M455.207,429.981h-6.15v4.037H459.73c.7,0,.947-1.583.33-1.924Z" transform="translate(-449.057 -429.981)" fill="#425ac2"/>
    </g>
    <g id="Group_494" data-name="Group 494" transform="translate(517.221 305.436)">
      <path id="Path_372" data-name="Path 372" d="M549.5,338.625c1.394.465,4.968,3.28,6.594,6.415,1.219,2.35,7.5,14.956,7.188,16.969s-19.047,14.247-19.047,14.247l-2.788-6.2s13.008-8.672,12.544-9.911-7.014-14.355-7.014-14.355Z" transform="translate(-541.448 -338.625)" fill="#fff"/>
    </g>
    <g id="Group_495" data-name="Group 495" transform="translate(506.433 330.977)">
      <path id="Path_373" data-name="Path 373" d="M537.728,382.149H526.51l.606,48.484h4.334s3.281-24.391,4.518-37.872h1.574C537.745,389.224,537.752,385.7,537.728,382.149Z" transform="translate(-526.51 -382.149)" fill="#ffb3b6"/>
    </g>
    <g id="Group_496" data-name="Group 496" transform="translate(506.931 329.766)">
      <path id="Path_374" data-name="Path 374" d="M539.963,380.938l-10.321,5.019c1.576,3.187,3.109,6.355,4.473,9.625l1.286-.626,17.374,33.665,3.9-1.9s-12.029-36.435-15.358-42.968A28.337,28.337,0,0,0,539.963,380.938Z" transform="translate(-529.642 -380.938)" fill="#ffb3b6"/>
    </g>
    <g id="Group_497" data-name="Group 497" transform="translate(504.131 305.713)">
      <path id="Path_375" data-name="Path 375" d="M546.049,366.612H530.021l-4.1-25.824c-.218-2.106,1.818-3.914,4.408-3.914h16.69c2.589,0,4.625,1.808,4.407,3.914Z" transform="translate(-525.9 -336.874)" fill="#fff"/>
    </g>
    <g id="Group_498" data-name="Group 498" transform="translate(502.031 379.392)">
      <path id="Path_376" data-name="Path 376" d="M526.743,430.564h4.9v3.76H521.7c-.656,0-.882-1.474-.307-1.792Z" transform="translate(-521.066 -430.564)" fill="#0e24a5"/>
    </g>
    <g id="Group_499" data-name="Group 499" transform="translate(524.486 375.442)">
      <path id="Path_377" data-name="Path 377" d="M552.332,428.758l4.409-2.144L558.386,430l-8.943,4.349c-.59.287-1.438-.941-1.06-1.477Z" transform="translate(-548.289 -426.614)" fill="#0e24a5"/>
    </g>
    <g id="Group_500" data-name="Group 500" transform="translate(497.716 315.44)">
      <path id="Path_378" data-name="Path 378" d="M530.021,366.612h16.028s4.181,4.89,7.124,19.447c2.515,12.446,5.11,31.281,5.11,31.281H520.149s2.739-27.7,4.878-36.7C527.234,371.347,530.021,366.612,530.021,366.612Z" transform="translate(-520.149 -366.612)" fill="#425ac2"/>
    </g>
    <g id="Group_508" data-name="Group 508" transform="translate(504.131 305.713)">
      <g id="Group_507" data-name="Group 507" clip-path="url(#clip-path-3)">
        <g id="Group_501" data-name="Group 501" transform="translate(-3.002 25.106)">
          <rect id="Rectangle_41" data-name="Rectangle 41" width="32.52" height="1.856" fill="#03053f"/>
        </g>
        <g id="Group_502" data-name="Group 502" transform="translate(-3.002 20.568)">
          <rect id="Rectangle_42" data-name="Rectangle 42" width="32.52" height="1.856" fill="#03053f"/>
        </g>
        <g id="Group_503" data-name="Group 503" transform="translate(-3.002 16.031)">
          <rect id="Rectangle_43" data-name="Rectangle 43" width="32.52" height="1.856" fill="#03053f"/>
        </g>
        <g id="Group_504" data-name="Group 504" transform="translate(-3.002 11.493)">
          <rect id="Rectangle_44" data-name="Rectangle 44" width="32.52" height="1.857" fill="#03053f"/>
        </g>
        <g id="Group_505" data-name="Group 505" transform="translate(-3.002 6.955)">
          <rect id="Rectangle_45" data-name="Rectangle 45" width="32.52" height="1.856" fill="#03053f"/>
        </g>
        <g id="Group_506" data-name="Group 506" transform="translate(-3.002 2.417)">
          <rect id="Rectangle_46" data-name="Rectangle 46" width="32.52" height="1.856" fill="#03053f"/>
        </g>
      </g>
    </g>
    <g id="Group_509" data-name="Group 509" transform="translate(514.146 305.186)">
      <path id="Path_380" data-name="Path 380" d="M536.8,338.634h2.923a1.758,1.758,0,0,0,1.644-1.853v-3.6a1.758,1.758,0,0,0-1.644-1.853H536.8a1.758,1.758,0,0,0-1.644,1.853v3.6A1.758,1.758,0,0,0,536.8,338.634Z" transform="translate(-535.154 -331.326)" fill="#e98896"/>
    </g>
    <g id="Group_510" data-name="Group 510" transform="translate(510.1 294.937)">
      <path id="Path_381" data-name="Path 381" d="M531.824,331.322c1.174,3.972,4.5,3.364,8.469,2.19a7.5,7.5,0,1,0-4.251-14.387C532.069,320.3,530.65,327.349,531.824,331.322Z" transform="translate(-531.425 -318.816)" fill="#ffcace"/>
    </g>
    <g id="Group_511" data-name="Group 511" transform="translate(508.94 292.739)">
      <path id="Path_382" data-name="Path 382" d="M536.293,318.076c-4.588,1.761-4.936,4.123-5.168,5.594-.207,1.307.7.465,2.845.755,1.266.171,2.5.174,2.613.987.264,1.846.02,16.977.949,16.977s14.3.812,14.615-.426-2.207-18.7-7.2-22.184C540.89,316.95,538.3,317.3,536.293,318.076Z" transform="translate(-531.096 -317.528)" fill="#fe958e"/>
    </g>
    <g id="Group_512" data-name="Group 512" transform="translate(484.178 294.612)">
      <path id="Path_383" data-name="Path 383" d="M531.337,336.968s-12.493-.529-14.092-.929S505.058,320.3,505.058,320.3l-3.331,1.732s9.594,17.99,11.593,18.79,13.836,5.287,13.836,5.287,2.168,0,3.562-3.562C532.185,338.794,531.337,336.968,531.337,336.968Z" transform="translate(-501.727 -320.296)" fill="#fff"/>
    </g>
    <g id="Group_519" data-name="Group 519" transform="translate(485.132 280.125)">
      <g id="Group_518" data-name="Group 518" clip-path="url(#clip-path-4)">
        <g id="Group_517" data-name="Group 517" transform="translate(-9.928 -9.927)">
          <g id="Group_514" data-name="Group 514" transform="translate(0.001)">
            <g id="Group_513" data-name="Group 513">
              <rect id="Rectangle_47" data-name="Rectangle 47" width="2.127" height="52.272" transform="matrix(0.707, -0.707, 0.707, 0.707, 0, 1.504)" fill="#425ac2"/>
            </g>
          </g>
          <g id="Group_516" data-name="Group 516" transform="translate(0 0.001)">
            <g id="Group_515" data-name="Group 515">
              <rect id="Rectangle_48" data-name="Rectangle 48" width="52.272" height="2.127" transform="translate(0 36.96) rotate(-44.996)" fill="#425ac2"/>
            </g>
          </g>
        </g>
      </g>
    </g>
    <g id="Group_526" data-name="Group 526" transform="translate(441.289 299.259)">
      <g id="Group_525" data-name="Group 525" clip-path="url(#clip-path-4)">
        <g id="Group_524" data-name="Group 524" transform="translate(-9.928 -9.928)">
          <g id="Group_521" data-name="Group 521" transform="translate(0 0.001)">
            <g id="Group_520" data-name="Group 520">
              <rect id="Rectangle_50" data-name="Rectangle 50" width="2.127" height="52.273" transform="matrix(0.707, -0.707, 0.707, 0.707, 0, 1.504)" fill="#425ac2"/>
            </g>
          </g>
          <g id="Group_523" data-name="Group 523" transform="translate(0.001)">
            <g id="Group_522" data-name="Group 522">
              <rect id="Rectangle_51" data-name="Rectangle 51" width="52.273" height="2.127" transform="translate(0 36.963) rotate(-45.002)" fill="#425ac2"/>
            </g>
          </g>
        </g>
      </g>
    </g>
    <g id="Group_530" data-name="Group 530" transform="translate(463.211 318.393)">
      <g id="Group_529" data-name="Group 529" clip-path="url(#clip-path-4)">
        <g id="Group_527" data-name="Group 527" transform="translate(-9.927 -9.927)">
          <rect id="Rectangle_53" data-name="Rectangle 53" width="2.127" height="52.272" transform="translate(0 1.504) rotate(-45)" fill="#425ac2"/>
        </g>
        <g id="Group_528" data-name="Group 528" transform="translate(-9.927 -9.927)">
          <rect id="Rectangle_54" data-name="Rectangle 54" width="52.272" height="2.127" transform="translate(0 36.962) rotate(-45)" fill="#425ac2"/>
        </g>
      </g>
    </g>
    <g id="Group_531" data-name="Group 531" transform="translate(502.957 265.191)">
      <rect id="Rectangle_56" data-name="Rectangle 56" width="6.907" height="8.634" fill="#e98896"/>
    </g>
    <g id="Group_532" data-name="Group 532" transform="translate(499.786 256.653)">
      <path id="Path_384" data-name="Path 384" d="M527.609,280.02c-2.9,2.433-4.91.258-7.343-2.643a6.855,6.855,0,1,1,10.505-8.811C533.2,271.467,530.51,277.586,527.609,280.02Z" transform="translate(-518.663 -266.115)" fill="#ffb3b6"/>
    </g>
    <g id="Group_533" data-name="Group 533" transform="translate(502.462 255.339)">
      <path id="Path_385" data-name="Path 385" d="M524.016,267.393c-1.5,0-4.363-4.487-1.745-6.98,2.465-2.347,6.459-.2,6.606,2.368C529.126,267.144,527.256,267.393,524.016,267.393Z" transform="translate(-521.21 -259.405)" fill="#0e24a5"/>
    </g>
    <g id="Group_536" data-name="Group 536" transform="translate(499.643 256.648)">
      <g id="Group_535" data-name="Group 535" clip-path="url(#clip-path-7)">
        <g id="Group_534" data-name="Group 534" transform="translate(-2.417 -1.386)">
          <path id="Path_386" data-name="Path 386" d="M516.673,274.7c1.007,0,4.173-.773,4.892-2.932s.918-2.482,3.13-2.482c2.868,0,3.683.032,4.1,1.565.648,2.374,3.993,5.882,6.152,5.45s1.295-7.356-2.159-8.939-12.951-4.173-14.534-1.44S516.1,274.7,516.1,274.7Z" transform="translate(-516.097 -264.721)" fill="#0e24a5"/>
        </g>
      </g>
    </g>
    <g id="Group_537" data-name="Group 537" transform="translate(486.066 289.571)">
      <rect id="Rectangle_57" data-name="Rectangle 57" width="7.552" height="2.8" transform="translate(0 5.34) rotate(-45)" fill="#fff"/>
    </g>
    <g id="Group_538" data-name="Group 538" transform="translate(485.26 290.972)">
      <path id="Path_388" data-name="Path 388" d="M505.058,320.3s.96-4.7-.2-4.93c-.763-.153-1.006,1.935-2.09,1.548-.461-.165.7-4.413-.155-4.491s-2.632,4.1-2.478,5.266a27.037,27.037,0,0,0,1.594,4.339Z" transform="translate(-500.124 -312.422)" fill="#ffb3b6"/>
    </g>
    <g id="Group_539" data-name="Group 539" transform="translate(490.88 289.546)">
      <path id="Path_389" data-name="Path 389" d="M506.645,310.185l1.98,1.98.8-2.065-.532-.592Z" transform="translate(-506.645 -309.508)" fill="#fee2e3"/>
    </g>
    <g id="Group_540" data-name="Group 540" transform="translate(492.897 289.323)">
      <path id="Path_390" data-name="Path 390" d="M508.893,309.508l.532.592s.755-.715.464-1.006C509.541,308.745,508.893,309.508,508.893,309.508Z" transform="translate(-508.893 -309.003)" fill="#0e24a5"/>
    </g>
    <g id="Group_543" data-name="Group 543" transform="translate(497.716 315.44)">
      <g id="Group_542" data-name="Group 542" clip-path="url(#clip-path-8)">
        <g id="Group_541" data-name="Group 541" transform="translate(0.052 7.615)">
          <path id="Path_391" data-name="Path 391" d="M524.145,374.227h8.381s.74,10.928-5.916,13.065c-5.2,1.667-6.409-1.233-6.409-1.233Z" transform="translate(-520.201 -374.227)" fill="#0e24a5"/>
        </g>
      </g>
    </g>
    <g id="Group_544" data-name="Group 544" transform="translate(444.117 338.694)">
      <path id="Path_393" data-name="Path 393" d="M450.687,380.266s7.765-.616,8.5-1.725-1.356-2.835-4.191-2.589a6.516,6.516,0,0,0-4.437,2.589Z" transform="translate(-450.564 -375.928)" fill="#ffb3b6"/>
    </g>
    <g id="Group_545" data-name="Group 545" transform="translate(488.357 250.159)">
      <path id="Path_394" data-name="Path 394" d="M503.978,257.148h4.409s1.461-6.6.66-6.974c-.478-.22-1.171,2.1-1.479,2.65s-2.712-.246-3.328.617S503.978,257.148,503.978,257.148Z" transform="translate(-503.877 -250.159)" fill="#ffb3b6"/>
    </g>
    <g id="Group_546" data-name="Group 546" transform="translate(519.533 250.159)">
      <path id="Path_395" data-name="Path 395" d="M546.86,257.148h-4.41s-1.461-6.6-.659-6.974c.478-.22,1.171,2.1,1.479,2.65s2.711-.246,3.327.617S546.86,257.148,546.86,257.148Z" transform="translate(-541.551 -250.159)" fill="#ffb3b6"/>
    </g>
    <g id="Group_549" data-name="Group 549" transform="translate(535.966 358.716)">
      <g id="Group_548" data-name="Group 548" clip-path="url(#clip-path-9)">
        <g id="Group_547" data-name="Group 547" transform="translate(-4.685 2.054)">
          <rect id="Rectangle_58" data-name="Rectangle 58" width="35.496" height="1.972" fill="#fee2e3"/>
        </g>
      </g>
    </g>
    <g id="Group_550" data-name="Group 550" transform="translate(503.982 231.334)">
      <path id="Path_397" data-name="Path 397" d="M527.35,238.016c0,1.735-2.114,6.226-2.114,6.226s-2.57-4.491-2.57-6.226,2.57-6.682,2.57-6.682S527.35,236.281,527.35,238.016Z" transform="translate(-522.666 -231.334)" fill="#ffc1c1"/>
    </g>
    <g id="Group_551" data-name="Group 551" transform="translate(484.001 238.041)">
      <path id="Path_398" data-name="Path 398" d="M504.379,242.3c.995,1.421,1.842,6.312,1.842,6.312s-4.682-2.2-5.678-3.624-1.73-6.947-1.73-6.947S503.383,240.88,504.379,242.3Z" transform="translate(-498.813 -238.041)" fill="#ffc1c1"/>
    </g>
    <g id="Group_552" data-name="Group 552" transform="translate(471.139 258.035)">
      <path id="Path_399" data-name="Path 399" d="M490.621,258.53c1.614.635,5.021,4.244,5.021,4.244s-5.12.749-6.735.115-5.279-4.837-5.279-4.837S489.006,257.895,490.621,258.53Z" transform="translate(-483.628 -258.035)" fill="#ffc1c1"/>
    </g>
    <g id="Group_553" data-name="Group 553" transform="translate(520.986 238.041)">
      <path id="Path_400" data-name="Path 400" d="M545.455,242.3c-1,1.421-1.843,6.312-1.843,6.312s4.682-2.2,5.678-3.624,1.731-6.947,1.731-6.947S546.45,240.88,545.455,242.3Z" transform="translate(-543.612 -238.041)" fill="#ffc1c1"/>
    </g>
    <g id="Group_554" data-name="Group 554" transform="translate(529.066 258.035)">
      <path id="Path_401" data-name="Path 401" d="M559.213,258.53c-1.615.635-5.021,4.244-5.021,4.244s5.119.749,6.734.115,5.279-4.837,5.279-4.837S560.827,257.895,559.213,258.53Z" transform="translate(-554.192 -258.035)" fill="#ffc1c1"/>
    </g>
  </g>
</svg>
