<svg xmlns="http://www.w3.org/2000/svg" width="195.578" height="195.578" viewBox="0 0 195.578 195.578">
  <g id="Group_132" data-name="Group 132" transform="translate(-993.848 -281.411)">
    <g id="Group_129" data-name="Group 129">
      <g id="Group_126" data-name="Group 126">
        <circle id="Ellipse_23" data-name="Ellipse 23" cx="85.236" cy="85.236" r="85.236" transform="translate(993.848 449.682) rotate(-80.783)" fill="#ffd05d"/>
      </g>
      <g id="Group_127" data-name="Group 127">
        <path id="Path_154" data-name="Path 154" d="M1136.231,306.451A85.249,85.249,0,0,1,1019.81,425.012a85.243,85.243,0,1,0,116.421-118.561Z" fill="#fdc453"/>
      </g>
      <g id="Group_128" data-name="Group 128">
        <path id="Path_155" data-name="Path 155" d="M1017.985,388.193a79.135,79.135,0,0,1,141.868-48.241A79.142,79.142,0,1,0,1028.5,427.635,78.767,78.767,0,0,1,1017.985,388.193Z" fill="#ffd77f"/>
      </g>
    </g>
    <g id="Group_130" data-name="Group 130">
      <path id="Path_156" data-name="Path 156" d="M1055.409,396.643a36.462,36.462,0,0,0,72.456,0Z" fill="#695342"/>
      <path id="Path_157" data-name="Path 157" d="M1066.612,419.02a36.429,36.429,0,0,0,49.195.787l-.335-.784C1091.143,407.16,1066.943,418.859,1066.612,419.02Z" fill="#f06669"/>
    </g>
    <g id="Group_131" data-name="Group 131">
      <path id="Path_158" data-name="Path 158" d="M1079.883,354.416c0-.042,0-.084,0-.126,0-7.871-5.693-15.078-14.253-15.078-6.8,0-10.745,4.888-12.091,9.464h0c-1.345-4.576-5.289-9.464-12.091-9.464-8.56,0-14.252,7.207-14.252,15.078,0,.042,0,.084,0,.126-.046,1.712,0,19.138,26.332,33.341v0l0,0,0,0,0,0,0,0v0C1079.886,373.554,1079.928,356.128,1079.883,354.416Z" fill="#e62728"/>
      <path id="Path_159" data-name="Path 159" d="M1156.072,354.416c0-.042,0-.084,0-.126,0-7.871-5.693-15.078-14.252-15.078-6.8,0-10.746,4.888-12.092,9.464h0c-1.345-4.576-5.289-9.464-12.091-9.464-8.56,0-14.252,7.207-14.252,15.078,0,.042,0,.084,0,.126-.046,1.712,0,19.138,26.333,33.341v0l0,0,0,0,0,0,0,0v0C1156.075,373.554,1156.118,356.128,1156.072,354.416Z" fill="#e62728"/>
    </g>
  </g>
</svg>
