<svg xmlns="http://www.w3.org/2000/svg" width="106.249" height="124.389" viewBox="0 0 106.249 124.389">
  <g id="Group_34" data-name="Group 34" transform="translate(-459.065 -278.84)">
    <path id="Path_25" data-name="Path 25" d="M563.282,333.361s-5.1,16.929-31.146,4.966V318.314s15.524,8.236,27.019,6.182C565.431,323.375,563.282,333.361,563.282,333.361Z" fill="#078c81"/>
    <g id="Group_20" data-name="Group 20">
      <path id="Path_26" data-name="Path 26" d="M544.735,387.961c-18.144-7.3-24.118-16.374-22.57-29.429H502.213c1.549,13.055-4.425,22.127-22.57,29.429s-20.578,15.268-20.578,15.268H565.314S562.88,395.263,544.735,387.961Z" fill="#e83f53"/>
      <path id="Path_27" data-name="Path 27" d="M489.222,383.274l.538.43a34.387,34.387,0,0,0,44.859,0l.538-.43c-.617-.373-1.217-.75-1.786-1.133-6.289,5.021-13.5,7.885-21.182,7.885s-14.892-2.864-21.181-7.885h0C490.439,382.524,489.839,382.9,489.222,383.274Z" fill="#fff"/>
      <g id="Group_19" data-name="Group 19">
        <path id="Path_28" data-name="Path 28" d="M491.008,382.141c6.288,5.021,13.5,7.885,21.181,7.885s14.893-2.864,21.182-7.885c-9.289-6.249-12.369-13.806-11.206-23.609H502.213C503.376,368.335,500.3,375.892,491.008,382.141Z" fill="#fd9a8b"/>
        <path id="Path_29" data-name="Path 29" d="M522.165,358.532H502.213c.778,6.559-.356,12.108-3.965,16.936a28.737,28.737,0,0,0,27.944.085C522.533,370.7,521.383,365.129,522.165,358.532Z" fill="#fd7058"/>
      </g>
    </g>
    <g id="Group_24" data-name="Group 24">
      <g id="Group_21" data-name="Group 21">
        <path id="Path_30" data-name="Path 30" d="M487.216,336.755c3.239,6.194,1.882,13.3-3.031,15.867s-11.522-.371-14.76-6.565-1.882-13.3,3.031-15.868S483.978,330.56,487.216,336.755Z" fill="#fd8977"/>
        <path id="Path_31" data-name="Path 31" d="M484.375,348.582c-.02-.252-.067-.47-.094-.714.037.176.059.323.073.44a9.132,9.132,0,0,0-.535-3.1,15.027,15.027,0,0,0-12.364-11.542,32.425,32.425,0,0,1,9.989,9.046c-3.526-1.435-8.975,1.606-8.975,1.606,6.465-1.715,9.406-.3,10.756,1.352A14.34,14.34,0,0,1,484.375,348.582Z" fill="#fd5f47"/>
      </g>
      <g id="Group_23" data-name="Group 23">
        <g id="Group_22" data-name="Group 22">
          <path id="Path_32" data-name="Path 32" d="M536.9,336.755c-3.238,6.194-1.881,13.3,3.032,15.867s11.521-.371,14.76-6.565,1.882-13.3-3.031-15.868S540.137,330.56,536.9,336.755Z" fill="#fd8977"/>
          <path id="Path_33" data-name="Path 33" d="M539.741,348.582c.019-.252.067-.47.093-.714a4.321,4.321,0,0,0-.072.44,9.109,9.109,0,0,1,.534-3.1,15.028,15.028,0,0,1,12.364-11.542,32.424,32.424,0,0,0-9.989,9.046c3.525-1.435,8.975,1.606,8.975,1.606-6.465-1.715-9.406-.3-10.756,1.352A14.363,14.363,0,0,0,539.741,348.582Z" fill="#fd5f47"/>
        </g>
      </g>
    </g>
    <path id="Path_34" data-name="Path 34" d="M546.565,322.433s3.075,25.881-9.962,29.218l-11-16.831,5.614-31.732Z" fill="#1e1c36"/>
    <path id="Path_35" data-name="Path 35" d="M477.4,319.908s-1.689,21.721,8.164,28.7l6.861-46.948Z" fill="#1e1c36"/>
    <g id="Group_32" data-name="Group 32">
      <path id="Path_36" data-name="Path 36" d="M503.009,301.515a20.758,20.758,0,0,0-20.757,20.542l-.207,19.789c0,18.1,13.437,32.769,30.012,32.769s30.012-14.671,30.012-32.769l-.056-20.994a19.388,19.388,0,0,0-19.388-19.337Z" fill="#ebb084"/>
      <path id="Path_37" data-name="Path 37" d="M542.028,326.483l-.015-5.631a19.388,19.388,0,0,0-19.388-19.337H503.009a20.758,20.758,0,0,0-20.757,20.542l-.005.485C493.881,319.915,514.5,318.026,542.028,326.483Z" fill="#fd7058" opacity="0.49"/>
      <path id="Path_38" data-name="Path 38" d="M512.057,368.759a33.992,33.992,0,0,1-27.51-13.813c4.63,11.575,15.2,19.669,27.51,19.669s22.881-8.094,27.511-19.669A33.992,33.992,0,0,1,512.057,368.759Z" fill="#ebc5a9"/>
      <g id="Group_31" data-name="Group 31">
        <g id="Group_26" data-name="Group 26">
          <g id="Group_25" data-name="Group 25">
            <path id="Path_39" data-name="Path 39" d="M527.505,333.2c0,2.355-.8,4.264-1.781,4.264s-1.781-1.909-1.781-4.264.8-4.263,1.781-4.263S527.505,330.85,527.505,333.2Z" fill="#25110d"/>
          </g>
          <path id="Path_40" data-name="Path 40" d="M534.111,328.539c.23-.134-9.637-6.369-15.729-6.145-.076.1.121-5.441,8.2-2.539C534.416,323.083,534.04,328.629,534.111,328.539Z" fill="#1e1c36"/>
        </g>
        <g id="Group_28" data-name="Group 28">
          <g id="Group_27" data-name="Group 27">
            <ellipse id="Ellipse_2" data-name="Ellipse 2" cx="1.781" cy="4.264" rx="1.781" ry="4.264" transform="translate(496.61 328.941)" fill="#25110d"/>
          </g>
          <path id="Path_41" data-name="Path 41" d="M489.1,328.539c-.23-.134,9.637-6.369,15.729-6.145.076.1-.121-5.441-8.2-2.539C488.8,323.083,489.174,328.629,489.1,328.539Z" fill="#1e1c36"/>
        </g>
        <g id="Group_29" data-name="Group 29">
          <path id="Path_42" data-name="Path 42" d="M494.122,347.683a.788.788,0,0,1-.709-1.132L495.9,341.4a.789.789,0,1,1,1.42.686l-2.487,5.149A.79.79,0,0,1,494.122,347.683Z" fill="#fd5f44"/>
          <path id="Path_43" data-name="Path 43" d="M489.148,347.683a.789.789,0,0,1-.709-1.132l2.487-5.149a.789.789,0,0,1,1.421.686l-2.488,5.149A.788.788,0,0,1,489.148,347.683Z" fill="#fd5f44"/>
        </g>
        <g id="Group_30" data-name="Group 30">
          <path id="Path_44" data-name="Path 44" d="M529.52,347.683a.79.79,0,0,1-.711-.446l-2.487-5.149a.789.789,0,0,1,1.42-.686l2.488,5.149a.789.789,0,0,1-.71,1.132Z" fill="#fd5f44"/>
          <path id="Path_45" data-name="Path 45" d="M534.494,347.683a.788.788,0,0,1-.711-.446l-2.487-5.149a.789.789,0,1,1,1.42-.686l2.487,5.149a.788.788,0,0,1-.709,1.132Z" fill="#fd5f44"/>
        </g>
        <path id="Path_46" data-name="Path 46" d="M505.008,353.415c-.383-.251-.729-.5-1.032-.746a.845.845,0,1,1,1.055-1.319c.289.229,7.055,5.526,11.881.707a.845.845,0,0,1,1.194,1.2C513.893,357.46,508.193,355.495,505.008,353.415Z" fill="#fd5f44"/>
      </g>
    </g>
    <path id="Path_47" data-name="Path 47" d="M504.294,345.953s7.875,4.018,15.751,0c0,0,1.607-5.492-7.876-5.464C503,340.516,504.294,345.953,504.294,345.953Z" fill="#fd5f44"/>
    <g id="Group_33" data-name="Group 33">
      <path id="Path_48" data-name="Path 48" d="M546.565,322.433s-44.2-13.345-69.165-2.525c0,0-1.311-20.157,4.759-26.792,5.855-6.4,18.5-12.637,30.961-12.216,15.184.514,30.1,8.82,32.147,12.419C552.7,306.39,546.565,322.433,546.565,322.433Z" fill="#0ac2b2"/>
      <path id="Path_49" data-name="Path 49" d="M496.141,312.089v3.779c10.568-.679,21.757.56,30.907,2.139l.555-4.918-16.6-8.788Z" fill="#078c81"/>
      <path id="Path_50" data-name="Path 50" d="M508.112,280.934c0,1.156,2.49,2.093,5.561,2.093s5.561-.937,5.561-2.093-2.49-2.094-5.561-2.094S508.112,279.778,508.112,280.934Z" fill="#078c81"/>
      <path id="Path_51" data-name="Path 51" d="M527.6,313.089s-17.136-5.029-31.462-1c0,0,2.029-14.668,14.446-16.458S527.6,313.089,527.6,313.089Z" fill="#1e1c36"/>
    </g>
  </g>
</svg>
