<svg xmlns="http://www.w3.org/2000/svg" width="144.486" height="159.343" viewBox="0 0 144.486 159.343">
  <g id="Group_303" data-name="Group 303" transform="translate(-24.263 -70.906)">
    <g id="Group_1" data-name="Group 1">
      <path id="Path_1" data-name="Path 1" d="M107.975,162.749c-2.975,4.088-6.863,6.355-10.9,6.355H95.936c-4.035,0-7.924-2.267-10.9-6.355l-.791-1.087v10.792l-2.954,1.172,1.217,1.743a17.065,17.065,0,0,0,27.993,0l1.216-1.743-2.953-1.172V161.662Z" fill="#f0bf9c"/>
      <path id="Path_2" data-name="Path 2" d="M95.936,169.1h1.141c4.035,0,7.923-2.267,10.9-6.355l.791-1.087v-14.31H84.247v14.31l.791,1.087C88.012,166.837,91.9,169.1,95.936,169.1Z" fill="#3c3247"/>
    </g>
    <g id="Group_9" data-name="Group 9">
      <path id="Path_3" data-name="Path 3" d="M164.011,210.845a36.362,36.362,0,0,0-21.92-25.176l-30.372-12.043-1.216,1.743a17.065,17.065,0,0,1-27.993,0l-1.217-1.743L50.922,185.669A36.366,36.366,0,0,0,29,210.845l-4.738,19.4H168.749Z" fill="#b696ff"/>
      <g id="Group_2" data-name="Group 2">
        <path id="Path_4" data-name="Path 4" d="M29,210.845l-.639,2.62H164.651l-.64-2.62a36.394,36.394,0,0,0-1.945-5.772H30.947A36.4,36.4,0,0,0,29,210.845Z" fill="#7160c1"/>
        <path id="Path_5" data-name="Path 5" d="M24.263,230.249H168.749l-2.049-8.392H26.313Z" fill="#7160c1"/>
        <path id="Path_6" data-name="Path 6" d="M111.719,173.626l-1.216,1.743a17.054,17.054,0,0,1-4.685,4.529h21.718Z" fill="#7160c1"/>
        <path id="Path_7" data-name="Path 7" d="M82.51,175.369l-1.217-1.743L65.477,179.9H87.194A17.05,17.05,0,0,1,82.51,175.369Z" fill="#7160c1"/>
        <path id="Path_8" data-name="Path 8" d="M36.01,196.681H157a36.364,36.364,0,0,0-9.636-8.392H45.646A36.348,36.348,0,0,0,36.01,196.681Z" fill="#7160c1"/>
      </g>
      <g id="Group_8" data-name="Group 8" opacity="0.3">
        <g id="Group_3" data-name="Group 3">
          <path id="Path_9" data-name="Path 9" d="M112.976,179.5a29.051,29.051,0,0,1-7.926,4.818,24.618,24.618,0,0,1-19.869-.414,29.1,29.1,0,0,1-7.718-5.144,19.43,19.43,0,0,0,6.763,6.928,21.2,21.2,0,0,0,21.7.453A19.407,19.407,0,0,0,112.976,179.5Z" fill="#3c3247"/>
        </g>
        <g id="Group_4" data-name="Group 4">
          <path id="Path_10" data-name="Path 10" d="M52.671,228.78a54.523,54.523,0,0,0,.319-18.087,54.48,54.48,0,0,0-5.355-17.279c.856,4.952,2.1,11.255,2.99,17.616C51.544,217.387,52.11,223.786,52.671,228.78Z" fill="#3c3247"/>
        </g>
        <g id="Group_5" data-name="Group 5">
          <path id="Path_11" data-name="Path 11" d="M140.342,228.78a57.088,57.088,0,0,1,5.035-35.366c-.855,4.952-2.1,11.255-2.99,17.616C141.468,217.387,140.9,223.786,140.342,228.78Z" fill="#3c3247"/>
        </g>
        <g id="Group_6" data-name="Group 6">
          <path id="Path_12" data-name="Path 12" d="M130.046,213.612a55.038,55.038,0,0,1-17.365,2.223,66.548,66.548,0,0,1-19.409-3.6,93.991,93.991,0,0,1-17.935-8.556c-5.484-3.309-10.386-6.845-14.607-9.97a95.778,95.778,0,0,0,13.6,11.523,74.513,74.513,0,0,0,18.143,9.338,57.046,57.046,0,0,0,20.214,3.113A43.794,43.794,0,0,0,130.046,213.612Z" fill="#3c3247"/>
        </g>
        <g id="Group_7" data-name="Group 7">
          <path id="Path_13" data-name="Path 13" d="M125.92,201.311a71.616,71.616,0,0,1-15,5.952,71.6,71.6,0,0,1-16,2.122,28.747,28.747,0,0,0,7.705,1.086,34.024,34.024,0,0,0,17.1-4.453A28.82,28.82,0,0,0,125.92,201.311Z" fill="#3c3247"/>
        </g>
      </g>
    </g>
    <g id="Group_17" data-name="Group 17">
      <g id="Group_10" data-name="Group 10">
        <circle id="Ellipse_1" data-name="Ellipse 1" cx="8.976" cy="8.976" r="8.976" transform="matrix(0.23, -0.973, 0.973, 0.23, 54.224, 139.379)" fill="#eba588"/>
        <path id="Path_14" data-name="Path 14" d="M70.1,132.706a5.073,5.073,0,1,1-5.074-5.074A5.074,5.074,0,0,1,70.1,132.706Z" fill="#e78882"/>
      </g>
      <g id="Group_11" data-name="Group 11">
        <circle id="Ellipse_2" data-name="Ellipse 2" cx="8.976" cy="8.976" r="8.976" transform="translate(115.298 132.706) rotate(-45)" fill="#eba588"/>
        <path id="Path_15" data-name="Path 15" d="M122.918,132.706a5.074,5.074,0,1,0,5.073-5.074A5.073,5.073,0,0,0,122.918,132.706Z" fill="#e78882"/>
      </g>
      <path id="Path_16" data-name="Path 16" d="M96.506,86.857h0A27.347,27.347,0,0,0,69.16,114.2v15.983A36.2,36.2,0,0,0,80.9,156.867l1.139,1.044a20.352,20.352,0,0,0,13.751,5.349h1.44a20.351,20.351,0,0,0,13.751-5.349l1.139-1.044a36.193,36.193,0,0,0,11.737-26.68V114.2A27.347,27.347,0,0,0,96.506,86.857Z" fill="#f0bf9c"/>
      <path id="Path_17" data-name="Path 17" d="M112.546,98c2.764-2.271,5.6,4.112,7.26,8.576a18.69,18.69,0,0,1,1.048,4.411l2.7,23.8,3.017-17.647a57.591,57.591,0,0,0-2.629-23.093,14.4,14.4,0,0,0-3.05-5.72c-2-1.744-6.615-2.328-6.615-2.328,1.5-.938,2.988-1.7,4.488-2.637a20.322,20.322,0,0,0-15.148-4.787,15.238,15.238,0,0,1,6.6-4.469A27.852,27.852,0,0,0,91.047,75.96c.706-1.713,1.552-3.341,2.257-5.054A23.2,23.2,0,0,0,78.055,86.5a6.028,6.028,0,0,0-5.934,1.828,14.416,14.416,0,0,0-3.051,5.72,57.609,57.609,0,0,0-2.629,23.093l3.017,17.647,2.681-23.62a18.981,18.981,0,0,1,1.334-5.143,37.055,37.055,0,0,1,3.855-7.2,3.683,3.683,0,0,1,5.167-.775c4.143,3.044,8.974,5.97,13.794,5.905A26.415,26.415,0,0,0,112.546,98Z" fill="#eba25d"/>
      <circle id="Ellipse_3" data-name="Ellipse 3" cx="2.481" cy="2.481" r="2.481" transform="translate(81.805 121.249)" fill="#3c3247"/>
      <circle id="Ellipse_4" data-name="Ellipse 4" cx="2.481" cy="2.481" r="2.481" transform="translate(106.245 121.249)" fill="#3c3247"/>
      <path id="Path_18" data-name="Path 18" d="M101.03,136.159l-8.465.054a12.514,12.514,0,0,0,1.536,2.224,3.462,3.462,0,0,0,4.814.152A16.675,16.675,0,0,0,101.03,136.159Z" fill="#eba588"/>
      <path id="Path_19" data-name="Path 19" d="M106.149,142.153a46.588,46.588,0,0,1-19.285.713,10.154,10.154,0,0,0,5.382,6.724,9.736,9.736,0,0,0,8.423-.137A11.351,11.351,0,0,0,106.149,142.153Z" fill="#fff"/>
      <g id="Group_12" data-name="Group 12">
        <path id="Path_20" data-name="Path 20" d="M83.166,112.893a8.659,8.659,0,0,0-6.75,4.511q7.1-1.084,14.288-1.493A8.661,8.661,0,0,0,83.166,112.893Z" fill="#8c404c"/>
      </g>
      <g id="Group_13" data-name="Group 13">
        <path id="Path_21" data-name="Path 21" d="M109.846,112.893A8.66,8.66,0,0,1,116.6,117.4q-7.1-1.084-14.288-1.493A8.66,8.66,0,0,1,109.846,112.893Z" fill="#8c404c"/>
      </g>
      <path id="Path_22" data-name="Path 22" d="M100.324,154.325a5.3,5.3,0,0,0-7.338-.225C95.3,154.187,98.007,154.238,100.324,154.325Z" fill="#eba588"/>
      <g id="Group_14" data-name="Group 14">
        <path id="Path_23" data-name="Path 23" d="M89.225,127.046a14.833,14.833,0,0,0-9.878,1.172A18.466,18.466,0,0,0,89.225,127.046Z" fill="#eba588"/>
      </g>
      <g id="Group_15" data-name="Group 15">
        <path id="Path_24" data-name="Path 24" d="M103.787,127.046a14.835,14.835,0,0,1,9.879,1.172A18.471,18.471,0,0,1,103.787,127.046Z" fill="#eba588"/>
      </g>
      <g id="Group_16" data-name="Group 16">
        <path id="Path_25" data-name="Path 25" d="M92.029,95.056a12.822,12.822,0,0,1-.117-8.3,15.657,15.657,0,0,1,4.67-7.059,22.367,22.367,0,0,1,6.793-4,15.546,15.546,0,0,0-7.844,2.627,14.634,14.634,0,0,0-5.817,7.741,13.508,13.508,0,0,0-.592,5,11.4,11.4,0,0,0,.211,1.5,23.58,23.58,0,0,1-1.115-2.3,18.693,18.693,0,0,1-1.592-6.758A9.6,9.6,0,0,1,88.4,77.648a8.187,8.187,0,0,0-3.15,5.782,15.362,15.362,0,0,0,1.272,7.547,19.18,19.18,0,0,0,4.26,6.287,17.279,17.279,0,0,0,2.8,2.242,9.461,9.461,0,0,0,3.14,1.637A12.7,12.7,0,0,1,92.029,95.056Z" fill="#f5d896"/>
        <path id="Path_26" data-name="Path 26" d="M99.878,84.158A10.966,10.966,0,0,0,95.093,94.29a10.037,10.037,0,0,0,1.636,4.721,15.054,15.054,0,0,1-.592-4.751,12.752,12.752,0,0,1,4.382-9.277,15.06,15.06,0,0,1,4.046-2.56A10.037,10.037,0,0,0,99.878,84.158Z" fill="#f5d896"/>
      </g>
    </g>
  </g>
</svg>
