<svg xmlns="http://www.w3.org/2000/svg" xmlns:xlink="http://www.w3.org/1999/xlink" width="102.895" height="126.078" viewBox="0 0 102.895 126.078">
  <defs>
    <linearGradient id="linear-gradient" x1="0.819" y1="1.348" x2="0.483" y2="0.081" gradientUnits="objectBoundingBox">
      <stop offset="0" stop-color="#fff200"/>
      <stop offset="0.209" stop-color="#fff200" stop-opacity="0.792"/>
      <stop offset="0.885" stop-color="#fff200" stop-opacity="0"/>
    </linearGradient>
    <linearGradient id="linear-gradient-2" x1="0.523" y1="0.054" x2="0.499" y2="0.486" gradientUnits="objectBoundingBox">
      <stop offset="0" stop-color="#f00e47"/>
      <stop offset="0.209" stop-color="#f00e47" stop-opacity="0.792"/>
      <stop offset="0.365" stop-color="#f00e47" stop-opacity="0.502"/>
      <stop offset="0.885" stop-color="#f00e47" stop-opacity="0"/>
    </linearGradient>
    <linearGradient id="linear-gradient-3" x1="0.22" y1="1.672" x2="0.538" y2="-0.048" xlink:href="#linear-gradient"/>
  </defs>
  <g id="Group_121" data-name="Group 121" transform="translate(-597.331 -91.121)">
    <path id="Path_135" data-name="Path 135" d="M689.559,112.331c-4.731-4.4-11.264-5.456-17.909-5.553-.041-.383-20.05-34.272-60.916-1.136-6.518,5.285-10.07,9.618-11.808,13.176h-.005a13.14,13.14,0,0,0,1.952,15.107,15.8,15.8,0,0,1,3.513,6.526,17.437,17.437,0,0,1-.563,7.865,20.03,20.03,0,0,0-3.545,5.541c-.053.056-.1.111-.15.167l.068.023a31.471,31.471,0,0,0-2.376,15.717,34.763,34.763,0,0,0,5.729,15.918c3.565,5.463,10.982,15.819,4.463,26.044l70.614-.019s13.258-10.055,15.52-35.795a106.652,106.652,0,0,0-2.437-31.809c.449-.839.848-1.714,1.223-2.6C697.148,131.544,696.687,118.961,689.559,112.331Z" fill="#29080f"/>
    <g id="Group_105" data-name="Group 105">
      <path id="Path_136" data-name="Path 136" d="M680.3,202.413c-17.572-7.072-23.357-15.858-21.857-28.5H639.117c1.5,12.643-4.286,21.429-21.857,28.5S597.331,217.2,597.331,217.2h102.9S697.869,209.484,680.3,202.413Z" fill="#8641ba"/>
      <g id="Group_104" data-name="Group 104">
        <path id="Path_137" data-name="Path 137" d="M631.576,194.257a21.847,21.847,0,0,0,34.405,0c-6.41-5.546-8.516-12.131-7.541-20.345H639.117C640.092,182.126,637.986,188.711,631.576,194.257Z" fill="#bf5e2a"/>
        <path id="Path_138" data-name="Path 138" d="M648.614,194.8c4.914,0,9.568-2.072,13.728-4.408-3.544-4.695-4.66-10.094-3.9-16.482H639.117c.764,6.435-.375,11.867-3.982,16.586C639.623,192.838,645.371,194.8,648.614,194.8Z" fill="#ab4f1d"/>
      </g>
    </g>
    <g id="Group_106" data-name="Group 106">
      <path id="Path_139" data-name="Path 139" d="M690.894,179.941c-.045.087-.086.178-.132.264-1.093,2.062-2.543,4.691-3.844,7.708a13.021,13.021,0,0,0,1.773,13.255,22.561,22.561,0,0,0,2.92,2.818,25.177,25.177,0,0,1-6.8,4.129,18.955,18.955,0,0,1-6.083,1.288,9.242,9.242,0,0,1-5.983-1.965,38.266,38.266,0,0,1-13.758-21.616l12.045-5.881Z" fill="#29080f"/>
      <path id="Path_140" data-name="Path 140" d="M690.894,179.941c-.045.087-.086.178-.132.264-1.093,2.062-2.543,4.691-3.844,7.708a13.021,13.021,0,0,0,1.773,13.255,22.561,22.561,0,0,0,2.92,2.818,25.177,25.177,0,0,1-6.8,4.129,18.955,18.955,0,0,1-6.083,1.288,9.242,9.242,0,0,1-5.983-1.965,38.266,38.266,0,0,1-13.758-21.616l12.045-5.881Z" opacity="0.45" fill="url(#linear-gradient)"/>
    </g>
    <g id="Group_110" data-name="Group 110">
      <g id="Group_107" data-name="Group 107">
        <path id="Path_141" data-name="Path 141" d="M623.773,150.945c3.239,6.195,1.882,13.3-3.031,15.868s-11.522-.371-14.76-6.566-1.882-13.3,3.031-15.867S620.535,144.751,623.773,150.945Z" fill="#bf5e2a"/>
        <path id="Path_142" data-name="Path 142" d="M620.931,162.773c-.019-.253-.067-.471-.093-.715.037.177.059.324.072.441a9.109,9.109,0,0,0-.534-3.1,15.025,15.025,0,0,0-12.364-11.542A32.412,32.412,0,0,1,618,156.9c-3.526-1.435-8.975,1.605-8.975,1.605,6.465-1.714,9.406-.295,10.756,1.352A14.284,14.284,0,0,1,620.931,162.773Z" fill="#b03d02"/>
      </g>
      <g id="Group_109" data-name="Group 109">
        <g id="Group_108" data-name="Group 108">
          <path id="Path_143" data-name="Path 143" d="M673.455,150.945c-3.238,6.195-1.881,13.3,3.032,15.868s11.521-.371,14.76-6.566,1.882-13.3-3.031-15.867S676.694,144.751,673.455,150.945Z" fill="#bf5e2a"/>
          <path id="Path_144" data-name="Path 144" d="M676.3,162.773c.019-.253.067-.471.093-.715a4.4,4.4,0,0,0-.072.441,9.11,9.11,0,0,1,.534-3.1,15.025,15.025,0,0,1,12.364-11.542,32.412,32.412,0,0,0-9.989,9.046c3.525-1.435,8.975,1.605,8.975,1.605-6.465-1.714-9.406-.295-10.756,1.352A14.284,14.284,0,0,0,676.3,162.773Z" fill="#b03d02"/>
        </g>
      </g>
    </g>
    <g id="Group_119" data-name="Group 119">
      <path id="Path_145" data-name="Path 145" d="M639.565,113.706c-11.379,0-20.637,11.162-20.756,22.541l-.207,19.789c0,12.284,6.191,22.99,15.351,28.6,4.336,2.655,11.106,5.169,14.661,5.169,5.132,0,9.963-2.406,14.187-4.885,9.421-5.528,15.825-16.389,15.825-28.884l-.056-20.993c-.028-10.688-8.7-21.337-19.388-21.337Z" fill="#e2773f"/>
      <path id="Path_146" data-name="Path 146" d="M639.565,113.706c-11.379,0-20.637,11.162-20.756,22.541l-.207,19.789c0,12.284,6.191,22.99,15.351,28.6,4.336,2.655,11.106,5.169,14.661,5.169,5.132,0,9.963-2.406,14.187-4.885,9.421-5.528,15.825-16.389,15.825-28.884l-.056-20.993c-.028-10.688-8.7-21.337-19.388-21.337Z" opacity="0.45" fill="url(#linear-gradient-2)"/>
      <path id="Path_147" data-name="Path 147" d="M635.327,139.468c11.731-1.555,26.012-.666,31.538-15.111,0,0,7.537,4.788,11.723,17.31l-.018-6.624c-.028-10.688-8.7-21.337-19.388-21.337H639.565c-11.379,0-20.637,11.162-20.756,22.541l-.133,12.737C621.739,145.626,627.571,140.5,635.327,139.468Z" fill="#e2773f" opacity="0.31" style="mix-blend-mode: multiply;isolation: isolate"/>
      <path id="Path_148" data-name="Path 148" d="M663.531,180.459c-4.442,2.479-9.521,4.885-14.917,4.885-3.738,0-10.856-2.514-15.414-5.169a32.5,32.5,0,0,1-13.56-15.6,32.552,32.552,0,0,0,14.313,20.063c4.336,2.655,11.106,5.169,14.661,5.169,5.132,0,9.963-2.406,14.187-4.885a32.482,32.482,0,0,0,14.787-20.358A32.463,32.463,0,0,1,663.531,180.459Z" fill="#e28e56"/>
      <g id="Group_118" data-name="Group 118">
        <g id="Group_117" data-name="Group 117">
          <g id="Group_112" data-name="Group 112">
            <g id="Group_111" data-name="Group 111">
              <path id="Path_149" data-name="Path 149" d="M664.062,147.4c0,2.354-.8,4.263-1.781,4.263S660.5,149.75,660.5,147.4s.8-4.264,1.781-4.264S664.062,145.041,664.062,147.4Z" fill="#1f110b"/>
            </g>
            <path id="Path_150" data-name="Path 150" d="M672.7,145.2c.23-.134-9.637-6.368-15.729-6.144-.076.1.122-5.441,8.2-2.54C673.005,139.749,672.63,145.294,672.7,145.2Z"/>
          </g>
          <g id="Group_114" data-name="Group 114">
            <g id="Group_113" data-name="Group 113">
              <ellipse id="Ellipse_6" data-name="Ellipse 6" cx="1.781" cy="4.264" rx="1.781" ry="4.264" transform="translate(633.167 143.132)" fill="#1f110b"/>
            </g>
            <path id="Path_151" data-name="Path 151" d="M625.66,142.73c-.23-.134,9.637-6.369,15.729-6.145.076.1-.122-5.441-8.2-2.539C625.355,137.274,625.731,142.82,625.66,142.73Z"/>
          </g>
          <g id="Group_115" data-name="Group 115">
            <path id="Path_152" data-name="Path 152" d="M630.679,161.874a.774.774,0,0,1-.342-.079.788.788,0,0,1-.368-1.053l2.488-5.149a.789.789,0,0,1,1.42.686l-2.487,5.149A.792.792,0,0,1,630.679,161.874Z" fill="#a33902"/>
            <path id="Path_153" data-name="Path 153" d="M625.705,161.874a.777.777,0,0,1-.342-.079.789.789,0,0,1-.367-1.053l2.487-5.149a.789.789,0,0,1,1.421.686l-2.488,5.149A.789.789,0,0,1,625.705,161.874Z" fill="#a33902"/>
          </g>
          <g id="Group_116" data-name="Group 116">
            <path id="Path_154" data-name="Path 154" d="M666.077,161.874a.791.791,0,0,1-.711-.446l-2.487-5.149a.789.789,0,0,1,1.42-.686l2.488,5.149a.788.788,0,0,1-.368,1.053A.774.774,0,0,1,666.077,161.874Z" fill="#a33902"/>
            <path id="Path_155" data-name="Path 155" d="M671.051,161.874a.789.789,0,0,1-.711-.446l-2.487-5.149a.789.789,0,1,1,1.42-.686l2.487,5.149a.789.789,0,0,1-.709,1.132Z" fill="#a33902"/>
          </g>
        </g>
        <path id="Path_156" data-name="Path 156" d="M642.18,160.445s6.55,3.341,13.1,0c0,0,1.337-4.568-6.549-4.545C641.1,155.923,642.18,160.445,642.18,160.445Z" fill="#a33902"/>
        <path id="Path_157" data-name="Path 157" d="M638.836,167.742c3.588-.1,7.027-.013,10.39-.385a22.5,22.5,0,0,0,4.879-1.011,11.042,11.042,0,0,0,4.287-2.649,7.447,7.447,0,0,1-3.642,4.07,14.172,14.172,0,0,1-5.307,1.578,21.546,21.546,0,0,1-5.428-.138A18.847,18.847,0,0,1,638.836,167.742Z" fill="#b302c7"/>
        <path id="Path_158" data-name="Path 158" d="M646.494,172.854s9.009,1.112,11.9-2.915C658.392,169.939,656.151,178.018,646.494,172.854Z" fill="#bf5e2a"/>
      </g>
    </g>
    <path id="Path_159" data-name="Path 159" d="M684.566,131.291l-5.94-20.068-62.382-1.28-3.581,29.7a50.281,50.281,0,0,0,6.181,3.8s1.661-10.061,25.518-10.344c15.656-.185,20.846-9.249,22.891-16.576.435,8.554,11.373,10.642,11.373,23.856,0,5.047,2.765.879,5.94-.09Z" fill="#29080f"/>
    <g id="Group_120" data-name="Group 120">
      <path id="Path_160" data-name="Path 160" d="M603.417,185.468c.046.071.086.145.132.215,1.093,1.675,2.544,3.811,3.844,6.262a9.016,9.016,0,0,1-1.773,10.769A21.124,21.124,0,0,1,602.7,205a26.513,26.513,0,0,0,6.8,3.355,22.746,22.746,0,0,0,6.083,1.046,10.706,10.706,0,0,0,5.983-1.6,31.606,31.606,0,0,0,13.758-17.562l-12.045-4.778Z" fill="#29080f"/>
      <path id="Path_161" data-name="Path 161" d="M603.417,185.468c.046.071.086.145.132.215,1.093,1.675,2.544,3.811,3.844,6.262a9.016,9.016,0,0,1-1.773,10.769A21.124,21.124,0,0,1,602.7,205a26.513,26.513,0,0,0,6.8,3.355,22.746,22.746,0,0,0,6.083,1.046,10.706,10.706,0,0,0,5.983-1.6,31.606,31.606,0,0,0,13.758-17.562l-12.045-4.778Z" opacity="0.45" fill="url(#linear-gradient-3)"/>
    </g>
  </g>
</svg>
