<svg xmlns="http://www.w3.org/2000/svg" xmlns:xlink="http://www.w3.org/1999/xlink" width="110.973" height="125.511" viewBox="0 0 110.973 125.511">
  <defs>
    <linearGradient id="linear-gradient" x1="0.461" y1="0.03" x2="0.51" y2="0.5" gradientUnits="objectBoundingBox">
      <stop offset="0" stop-color="#ff2441"/>
      <stop offset="0.209" stop-color="#ff2441" stop-opacity="0.792"/>
      <stop offset="0.885" stop-color="#ff2441" stop-opacity="0"/>
    </linearGradient>
  </defs>
  <g id="Group_103" data-name="Group 103" transform="translate(-50.086 -277.718)">
    <path id="Path_102" data-name="Path 102" d="M159.773,366.138c-.919-5.623-6.06-15.8-8.149-24.959a27.825,27.825,0,0,1-.536-7.786,49.962,49.962,0,0,0-2.6-19.842c-3.791-10.663-11.4-24.7-26.2-31.368a24.423,24.423,0,0,0-7.1-2.154c-.421-.166-.844-.327-1.274-.476a33.084,33.084,0,0,0-4.549-1.22,33.871,33.871,0,0,0-6.443-.615h-.016a15.317,15.317,0,0,0-3.117.319c-13.538,2.824-14.027,12.42-14.027,12.42-10.159.932-16.677,9.3-20.721,17.829a62.107,62.107,0,0,0-5.758,25.987,54.284,54.284,0,0,1-.843,9.819c-1.932,9.235-5.425,16.342-6.518,22.046-5.037,26.266,1.887,37.091,1.887,37.091H156.7S163.922,391.512,159.773,366.138Z" fill="#230e0a"/>
    <path id="Path_103" data-name="Path 103" d="M107.736,403.229h14.329c26.53-23.367,18.582-60.824,18.582-60.824l-35.391.6Z"/>
    <g id="Group_102" data-name="Group 102">
      <g id="Group_95" data-name="Group 95">
        <g id="Group_78" data-name="Group 78">
          <path id="Path_104" data-name="Path 104" d="M136.775,388.443c-17.572-7.071-23.358-15.857-21.858-28.5H95.6c1.5,12.643-4.286,21.429-21.858,28.5s-19.928,14.786-19.928,14.786H156.7S154.346,395.515,136.775,388.443Z" fill="#e82a40"/>
          <path id="Path_105" data-name="Path 105" d="M107.587,393.917a39.862,39.862,0,0,0,23.865-7.851c-.338-.168-.673-.336-1-.505a39.178,39.178,0,0,1-47.678-1.513c-.3.18-.608.358-.921.536A40.169,40.169,0,0,0,107.587,393.917Z" fill="#e8e1e2" opacity="0.28"/>
          <g id="Group_77" data-name="Group 77">
            <path id="Path_106" data-name="Path 106" d="M85.891,382a32.557,32.557,0,0,0,41.058,1.567c-9.914-6.2-13.206-13.731-12.032-23.628H95.6C96.672,369.021,93.992,376.11,85.891,382Z" fill="#ffa3a3"/>
            <path id="Path_107" data-name="Path 107" d="M118.4,375.861c-3.215-4.562-4.207-9.785-3.48-15.918H95.6c.77,6.489-.394,11.957-4.071,16.7,2,1.685,3.624,3.607,6.383,4.4a26.057,26.057,0,0,0,14.466-.01C115.007,380.277,116.395,377.646,118.4,375.861Z" fill="#ff7a7a"/>
          </g>
        </g>
        <g id="Group_94" data-name="Group 94">
          <g id="Group_82" data-name="Group 82">
            <g id="Group_79" data-name="Group 79">
              <path id="Path_108" data-name="Path 108" d="M80.283,336.976c3.239,6.195,1.882,13.3-3.032,15.868s-11.521-.372-14.759-6.566-1.882-13.3,3.031-15.868S77.044,330.781,80.283,336.976Z" fill="#ff8282"/>
              <path id="Path_109" data-name="Path 109" d="M77.441,348.8c-.019-.252-.067-.47-.093-.714.036.177.059.323.072.44a9.1,9.1,0,0,0-.535-3.1,15.024,15.024,0,0,0-12.363-11.542,32.413,32.413,0,0,1,9.989,9.046c-3.526-1.436-8.975,1.605-8.975,1.605,6.465-1.714,9.406-.3,10.756,1.352A14.364,14.364,0,0,1,77.441,348.8Z" fill="#ff4f4f"/>
            </g>
            <g id="Group_81" data-name="Group 81">
              <g id="Group_80" data-name="Group 80">
                <path id="Path_110" data-name="Path 110" d="M129.965,336.976c-3.238,6.195-1.881,13.3,3.032,15.868s11.521-.372,14.76-6.566,1.881-13.3-3.032-15.868S133.2,330.781,129.965,336.976Z" fill="#ff8282"/>
                <path id="Path_111" data-name="Path 111" d="M132.807,348.8c.02-.252.067-.47.094-.714-.037.177-.06.323-.073.44a9.125,9.125,0,0,1,.535-3.1,15.025,15.025,0,0,1,12.364-11.542,32.389,32.389,0,0,0-9.989,9.046c3.525-1.436,8.974,1.605,8.974,1.605-6.465-1.714-9.406-.3-10.756,1.352A14.363,14.363,0,0,0,132.807,348.8Z" fill="#ff4f4f"/>
              </g>
            </g>
          </g>
          <g id="Group_93" data-name="Group 93">
            <g id="Group_83" data-name="Group 83">
              <path id="Path_112" data-name="Path 112" d="M96.075,301.737a20.756,20.756,0,0,0-20.756,20.541l-.207,19.789c0,10.834,5.461,24.157,13.714,27.985,3.589,1.665,5.212,4.787,9.081,5.83a27.784,27.784,0,0,0,14.466-.008c3.228-.875,4.584-4.373,7.493-5.822,8.483-4.225,15.27-16.411,15.27-27.985l-.056-20.993a19.388,19.388,0,0,0-19.388-19.337Z" fill="#fdbfa8"/>
              <path id="Path_113" data-name="Path 113" d="M96.075,301.737a20.756,20.756,0,0,0-20.756,20.541l-.207,19.789c0,10.834,5.461,24.157,13.714,27.985,3.589,1.665,5.212,4.787,9.081,5.83a27.784,27.784,0,0,0,14.466-.008c3.228-.875,4.584-4.373,7.493-5.822,8.483-4.225,15.27-16.411,15.27-27.985l-.056-20.993a19.388,19.388,0,0,0-19.388-19.337Z" opacity="0.45" fill="url(#linear-gradient)"/>
              <path id="Path_114" data-name="Path 114" d="M99.54,357.284s8.11,1.974,12.832-2.222c0,0-.491,3.984-5.952,4.881S99.54,357.284,99.54,357.284Z" fill="#ff7a7a" opacity="0.38"/>
              <path id="Path_115" data-name="Path 115" d="M121.7,365.654c-3.27,1.449-4.795,4.947-8.423,5.821a34.968,34.968,0,0,1-16.262.009c-4.349-1.043-6.173-4.165-10.207-5.83a19.559,19.559,0,0,1-7.139-5.386c2.337,4.446,5.466,8.07,9.161,9.784,3.589,1.665,5.212,4.787,9.081,5.83a27.784,27.784,0,0,0,14.466-.008c3.228-.875,4.584-4.373,7.493-5.822,4.3-2.142,8.162-6.336,10.928-11.456A26.23,26.23,0,0,1,121.7,365.654Z" fill="#ffdccf"/>
            </g>
            <g id="Group_92" data-name="Group 92">
              <g id="Group_90" data-name="Group 90">
                <g id="Group_85" data-name="Group 85">
                  <g id="Group_84" data-name="Group 84">
                    <path id="Path_116" data-name="Path 116" d="M120.572,333.426c0,2.355-.8,4.264-1.781,4.264s-1.781-1.909-1.781-4.264.8-4.263,1.781-4.263S120.572,331.072,120.572,333.426Z" fill="#25110d"/>
                  </g>
                  <path id="Path_117" data-name="Path 117" d="M127.177,328.76c.23-.134-9.636-6.369-15.729-6.145-.076.1.122-5.441,8.2-2.539C127.483,323.3,127.107,328.85,127.177,328.76Z" fill="#25110d"/>
                </g>
                <g id="Group_87" data-name="Group 87">
                  <g id="Group_86" data-name="Group 86">
                    <ellipse id="Ellipse_4" data-name="Ellipse 4" cx="1.781" cy="4.264" rx="1.781" ry="4.264" transform="translate(89.676 329.163)" fill="#25110d"/>
                  </g>
                  <path id="Path_118" data-name="Path 118" d="M82.17,328.76c-.23-.134,9.637-6.369,15.729-6.145.076.1-.122-5.441-8.2-2.539C81.864,323.3,82.24,328.85,82.17,328.76Z" fill="#25110d"/>
                </g>
                <g id="Group_88" data-name="Group 88">
                  <path id="Path_119" data-name="Path 119" d="M87.189,347.9a.788.788,0,0,1-.71-1.131l2.487-5.149a.788.788,0,1,1,1.42.685L87.9,347.458A.79.79,0,0,1,87.189,347.9Z" fill="#ff8282"/>
                  <path id="Path_120" data-name="Path 120" d="M82.215,347.9a.788.788,0,0,1-.709-1.131l2.487-5.149a.788.788,0,1,1,1.42.685l-2.487,5.149A.788.788,0,0,1,82.215,347.9Z" fill="#ff8282"/>
                </g>
                <g id="Group_89" data-name="Group 89">
                  <path id="Path_121" data-name="Path 121" d="M122.587,347.9a.788.788,0,0,1-.711-.446l-2.487-5.149a.788.788,0,1,1,1.42-.685l2.487,5.149a.788.788,0,0,1-.709,1.131Z" fill="#ff8282"/>
                  <path id="Path_122" data-name="Path 122" d="M127.56,347.9a.787.787,0,0,1-.71-.446l-2.488-5.149a.789.789,0,0,1,1.421-.685l2.487,5.149a.788.788,0,0,1-.71,1.131Z" fill="#ff8282"/>
                </g>
              </g>
              <g id="Group_91" data-name="Group 91">
                <path id="Path_123" data-name="Path 123" d="M96.831,346.055s8.4,4.288,16.807,0c0,0,1.715-5.861-8.4-5.831C95.445,340.253,96.831,346.055,96.831,346.055Z" fill="#ff8282"/>
                <path id="Path_124" data-name="Path 124" d="M95.477,353.773l4.654-.263c1.522-.088,3.027-.217,4.524-.371s2.994-.324,4.493-.565c1.512-.2,3-.531,4.6-.734a14.659,14.659,0,0,1-4.216,2.247,19.1,19.1,0,0,1-4.676,1.042,20.4,20.4,0,0,1-4.782-.066A14.594,14.594,0,0,1,95.477,353.773Z" fill="#ff8282"/>
              </g>
            </g>
          </g>
        </g>
      </g>
      <g id="Group_101" data-name="Group 101">
        <g id="Group_100" data-name="Group 100">
          <g id="Group_97" data-name="Group 97">
            <g id="Group_96" data-name="Group 96">
              <circle id="Ellipse_5" data-name="Ellipse 5" cx="12.105" cy="12.105" r="12.105" transform="translate(75.849 326.585)" fill="#a7b9eb" opacity="0.77" style="mix-blend-mode: hue;isolation: isolate"/>
              <path id="Path_125" data-name="Path 125" d="M99.121,334.015,80.573,348.269a12.1,12.1,0,0,0,18.548-14.254Z" fill="#fff" opacity="0.4"/>
              <path id="Path_126" data-name="Path 126" d="M88.778,326.626l-12.214,7.995a12.057,12.057,0,0,0-.715,4.069,12.246,12.246,0,0,0,.089,1.416L92.82,327.611A12.016,12.016,0,0,0,88.778,326.626Z" fill="#fff" opacity="0.4"/>
              <path id="Path_127" data-name="Path 127" d="M87.954,326.585A12.105,12.105,0,1,1,75.849,338.69a12.1,12.1,0,0,1,12.105-12.105m0-1.045A13.15,13.15,0,1,0,101.1,338.69a13.165,13.165,0,0,0-13.149-13.15Z" fill="#230e0a"/>
            </g>
          </g>
          <g id="Group_99" data-name="Group 99">
            <g id="Group_98" data-name="Group 98">
              <path id="Path_128" data-name="Path 128" d="M134.158,338.69a12.105,12.105,0,1,1-12.105-12.105A12.1,12.1,0,0,1,134.158,338.69Z" fill="#a7b9eb" opacity="0.77" style="mix-blend-mode: hue;isolation: isolate"/>
              <path id="Path_129" data-name="Path 129" d="M128.853,328.676l-16.481,17.259a12.113,12.113,0,0,0,5.663,4.162l15.416-15.453A12.129,12.129,0,0,0,128.853,328.676Z" fill="#fff" opacity="0.4"/>
              <path id="Path_130" data-name="Path 130" d="M122.053,326.585a12.105,12.105,0,1,1-12.105,12.105,12.1,12.1,0,0,1,12.105-12.105m0-1.045a13.15,13.15,0,1,0,13.15,13.15,13.164,13.164,0,0,0-13.15-13.15Z" fill="#230e0a"/>
            </g>
          </g>
          <path id="Path_131" data-name="Path 131" d="M100.408,336.409l-.868-.953a9.235,9.235,0,0,1,10.547-.789l-.629,1.125A7.914,7.914,0,0,0,100.408,336.409Z" fill="#230e0a"/>
        </g>
        <path id="Path_132" data-name="Path 132" d="M79.23,330.311a2.424,2.424,0,0,0-.5-.052h-3.3a2.445,2.445,0,1,0,0,4.889h.945A12.083,12.083,0,0,1,79.23,330.311Z" fill="#230e0a"/>
        <path id="Path_133" data-name="Path 133" d="M131.451,330.311a2.416,2.416,0,0,1,.5-.052h3.3a2.445,2.445,0,0,1,0,4.889H134.3A12.083,12.083,0,0,0,131.451,330.311Z" fill="#230e0a"/>
      </g>
    </g>
    <path id="Path_134" data-name="Path 134" d="M91.78,311.791h0a9.8,9.8,0,0,0,8.2-9.12l.233-4.175L82.006,291.18c-8.044,2.379-13.444,9.679-16.965,17.106a62.107,62.107,0,0,0-5.758,25.987,54.284,54.284,0,0,1-.843,9.819c-1.932,9.235-5.425,16.342-6.518,22.046-.464,2.417-.824,4.7-1.1,6.858,1.582,16.5,2.987,30.233,2.987,30.233s5.792-9.209,14.927-12.564c6.271-2.305,9.2,2.852,15.6-4.216,14.548-16.079-6.315-25.865,0-66.259C84.807,317.165,88.758,312.285,91.78,311.791Z" fill="#230e0a"/>
  </g>
</svg>
