<svg xmlns="http://www.w3.org/2000/svg" width="144.486" height="166.398" viewBox="0 0 144.486 166.398">
  <g id="Group_36" data-name="Group 36" transform="translate(-177.757 -63.851)">
    <g id="Group_24" data-name="Group 24">
      <g id="Group_22" data-name="Group 22">
        <g id="Group_19" data-name="Group 19">
          <path id="Path_27" data-name="Path 27" d="M317.505,210.845a36.367,36.367,0,0,0-21.92-25.176l-13.353-5.294a12.529,12.529,0,0,1-.54,4.322l-14,45.552h54.553Z" fill="#454f6b"/>
          <path id="Path_28" data-name="Path 28" d="M264,175.369a17.066,17.066,0,0,1-27.994,0l-1.216-1.743,6.463,56.623h17.5l6.463-56.623Z" fill="#b0b369"/>
          <path id="Path_29" data-name="Path 29" d="M217.767,180.375l-13.352,5.294a36.367,36.367,0,0,0-21.92,25.176l-4.738,19.4H232.31l-14-45.552A12.554,12.554,0,0,1,217.767,180.375Z" fill="#454f6b"/>
          <path id="Path_30" data-name="Path 30" d="M237.741,172.454v-9.622l-13.295,7.044a12.584,12.584,0,0,0-6.138,14.821l14,45.552h8.94l-6.463-56.623Z" fill="#55617c"/>
          <path id="Path_31" data-name="Path 31" d="M282.232,180.375a12.587,12.587,0,0,0-6.678-10.5l-13.295-7.044v9.622l2.954,1.172-6.463,56.623h8.94l14-45.552A12.529,12.529,0,0,0,282.232,180.375Z" fill="#55617c"/>
        </g>
        <g id="Group_20" data-name="Group 20" opacity="0.5">
          <path id="Path_32" data-name="Path 32" d="M204.97,228.409a45.581,45.581,0,0,0-7.37-33.045c1.475,4.552,3.338,10.358,4.647,16.308C203.59,217.615,204.371,223.663,204.97,228.409Z" fill="#3c3247"/>
        </g>
        <g id="Group_21" data-name="Group 21" opacity="0.5">
          <path id="Path_33" data-name="Path 33" d="M295.03,228.409a45.569,45.569,0,0,1,7.37-33.045c-1.475,4.552-3.338,10.358-4.647,16.308C296.41,217.615,295.629,223.663,295.03,228.409Z" fill="#3c3247"/>
        </g>
      </g>
      <g id="Group_23" data-name="Group 23">
        <path id="Path_34" data-name="Path 34" d="M261.469,162.749c-2.975,4.088-6.863,6.355-10.9,6.355h-1.141c-4.035,0-7.923-2.267-10.9-6.355l-.79-1.087v10.792l-2.954,1.172L236,175.369a17.066,17.066,0,0,0,27.994,0l1.216-1.743-2.954-1.172V161.662Z" fill="#bd6c67"/>
        <path id="Path_35" data-name="Path 35" d="M249.429,169.1h1.141c4.036,0,7.924-2.267,10.9-6.355l.79-1.087v-14.31H237.741v14.31l.79,1.087C241.506,166.837,245.394,169.1,249.429,169.1Z" fill="#3c3247"/>
      </g>
    </g>
    <g id="Group_35" data-name="Group 35">
      <circle id="Ellipse_5" data-name="Ellipse 5" cx="49.75" cy="49.75" r="49.75" transform="translate(200.25 63.851)" fill="#3c3247"/>
      <g id="Group_27" data-name="Group 27">
        <g id="Group_25" data-name="Group 25">
          <circle id="Ellipse_6" data-name="Ellipse 6" cx="8.976" cy="8.976" r="8.976" transform="matrix(0.925, -0.381, 0.381, 0.925, 206.799, 127.822)" fill="#a64f5a"/>
          <path id="Path_36" data-name="Path 36" d="M223.588,132.706a5.073,5.073,0,1,1-5.073-5.074A5.073,5.073,0,0,1,223.588,132.706Z" fill="#8c404c"/>
        </g>
        <g id="Group_26" data-name="Group 26">
          <circle id="Ellipse_7" data-name="Ellipse 7" cx="8.976" cy="8.976" r="8.976" transform="matrix(0.381, -0.925, 0.925, 0.381, 269.769, 137.59)" fill="#a64f5a"/>
          <path id="Path_37" data-name="Path 37" d="M276.411,132.706a5.074,5.074,0,1,0,5.074-5.074A5.074,5.074,0,0,0,276.411,132.706Z" fill="#8c404c"/>
        </g>
      </g>
      <g id="Group_28" data-name="Group 28">
        <path id="Path_38" data-name="Path 38" d="M219.833,129h2.82l1.847-16.167h-5.985Z" fill="#3c3247"/>
        <path id="Path_39" data-name="Path 39" d="M275.5,112.832,277.347,129h2.82l1.318-16.167Z" fill="#3c3247"/>
      </g>
      <path id="Path_40" data-name="Path 40" d="M250,97.582c-10.959,0-20.434,2.237-24.976,5.488a27.239,27.239,0,0,0-2.371,11.134v15.983a36.193,36.193,0,0,0,11.737,26.68l1.139,1.044a20.352,20.352,0,0,0,13.751,5.349h1.44a20.352,20.352,0,0,0,13.751-5.349l1.139-1.044a36.2,36.2,0,0,0,11.737-26.68V114.2a27.239,27.239,0,0,0-2.371-11.134C270.434,99.819,260.959,97.582,250,97.582Z" fill="#bd6c67"/>
      <circle id="Ellipse_8" data-name="Ellipse 8" cx="2.481" cy="2.481" r="2.481" transform="translate(235.299 121.249)" fill="#3c3247"/>
      <circle id="Ellipse_9" data-name="Ellipse 9" cx="2.481" cy="2.481" r="2.481" transform="translate(259.739 121.249)" fill="#3c3247"/>
      <path id="Path_41" data-name="Path 41" d="M256.379,136.516a31.227,31.227,0,0,0-12.758-.006,9.272,9.272,0,0,0,6.53,3.636A6.7,6.7,0,0,0,256.379,136.516Z" fill="#a64f5a"/>
      <g id="Group_29" data-name="Group 29">
        <path id="Path_42" data-name="Path 42" d="M237.2,113.621a11.07,11.07,0,0,0-8.623,3.395,160.529,160.529,0,0,0,16.778,1.008A11.075,11.075,0,0,0,237.2,113.621Z" fill="#3c3247"/>
      </g>
      <g id="Group_30" data-name="Group 30">
        <path id="Path_43" data-name="Path 43" d="M262.8,113.621a11.07,11.07,0,0,1,8.623,3.395,160.529,160.529,0,0,1-16.778,1.008A11.073,11.073,0,0,1,262.8,113.621Z" fill="#3c3247"/>
      </g>
      <path id="Path_44" data-name="Path 44" d="M259.584,144.75a46.267,46.267,0,0,1-19.241.938,11.828,11.828,0,0,0,9.924,5.666C254.211,151.269,257.665,148.2,259.584,144.75Z" fill="#fff"/>
      <g id="Group_34" data-name="Group 34">
        <g id="Group_31" data-name="Group 31">
          <circle id="Ellipse_10" data-name="Ellipse 10" cx="8.25" cy="8.25" r="8.25" transform="translate(229.53 117.961)" fill="#fff" opacity="0.3"/>
          <circle id="Ellipse_11" data-name="Ellipse 11" cx="8.25" cy="8.25" r="8.25" transform="translate(253.97 117.961)" fill="#fff" opacity="0.3"/>
          <path id="Path_45" data-name="Path 45" d="M262.22,115.961a10.261,10.261,0,0,0-9.712,7,4.563,4.563,0,0,0-5.016,0,10.229,10.229,0,1,0,.538,3.253c0-.256-.02-.507-.039-.758h.039c0-.589.809-1.246,1.97-1.246s1.97.657,1.97,1.246h.038c-.018.251-.038.5-.038.758a10.25,10.25,0,1,0,10.25-10.25Zm-32.69,10.25a8.25,8.25,0,1,1,8.25,8.25A8.259,8.259,0,0,1,229.53,126.211Zm24.44,0a8.25,8.25,0,1,1,8.25,8.25A8.259,8.259,0,0,1,253.97,126.211Z" fill="#454f6b"/>
        </g>
        <g id="Group_32" data-name="Group 32">
          <path id="Path_46" data-name="Path 46" d="M234.194,122.489a1.241,1.241,0,1,1-1.24-1.24A1.24,1.24,0,0,1,234.194,122.489Z" fill="#fff" opacity="0.5"/>
          <path id="Path_47" data-name="Path 47" d="M232.31,124.875a.6.6,0,1,1-.6-.6A.6.6,0,0,1,232.31,124.875Z" fill="#fff" opacity="0.5"/>
        </g>
        <g id="Group_33" data-name="Group 33">
          <path id="Path_48" data-name="Path 48" d="M258.694,122.489a1.24,1.24,0,1,1-1.24-1.24A1.24,1.24,0,0,1,258.694,122.489Z" fill="#fff" opacity="0.5"/>
          <path id="Path_49" data-name="Path 49" d="M256.81,124.875a.6.6,0,1,1-.6-.6A.6.6,0,0,1,256.81,124.875Z" fill="#fff" opacity="0.5"/>
        </g>
      </g>
      <path id="Path_50" data-name="Path 50" d="M277.472,129,273.5,140.157a2.238,2.238,0,0,1-3.145,1.232l-2.826-1.478a9.986,9.986,0,0,0-5.73-1.076L250,140.146l-11.672-1.311a9.986,9.986,0,0,0-5.73,1.076l-2.826,1.478a2.238,2.238,0,0,1-3.145-1.232L222.653,129h-2.82v6.957a36.192,36.192,0,0,0,5.1,18.517l.819,1.376a22.57,22.57,0,0,0,19.393,11.025h9.845a22.571,22.571,0,0,0,19.393-11.025l.819-1.376a36.192,36.192,0,0,0,5.1-18.517V129Zm-14.613,17.042-2.076,6.211a4.032,4.032,0,0,1-4.15,2.741l-.892-.072a5.431,5.431,0,0,1-3.554-1.735h-4.25a5.426,5.426,0,0,1-3.553,1.735l-.892.072a4.032,4.032,0,0,1-4.15-2.741l-2.076-6.211a1.663,1.663,0,0,1,1.769-2.178l4.333.5a14.269,14.269,0,0,0,6.465-.744l.167-.06.292.06a14.269,14.269,0,0,0,6.465.744l4.333-.5A1.663,1.663,0,0,1,262.859,146.041Z" fill="#3c3247"/>
    </g>
  </g>
</svg>
