<svg xmlns="http://www.w3.org/2000/svg" xmlns:xlink="http://www.w3.org/1999/xlink" width="102.895" height="122.818" viewBox="0 0 102.895 122.818">
  <defs>
    <linearGradient id="linear-gradient" x1="0.465" y1="-0.07" x2="0.511" y2="0.91" gradientUnits="objectBoundingBox">
      <stop offset="0" stop-color="#f00e47"/>
      <stop offset="0.209" stop-color="#f00e47" stop-opacity="0.792"/>
      <stop offset="0.365" stop-color="#f00e47" stop-opacity="0.502"/>
      <stop offset="0.885" stop-color="#f00e47" stop-opacity="0"/>
    </linearGradient>
    <linearGradient id="linear-gradient-2" x1="0.249" y1="0.998" x2="0.531" y2="0.339" gradientUnits="objectBoundingBox">
      <stop offset="0" stop-color="#ff9500"/>
      <stop offset="0.209" stop-color="#ff9500" stop-opacity="0.792"/>
      <stop offset="0.885" stop-color="#ff9500" stop-opacity="0"/>
    </linearGradient>
    <linearGradient id="linear-gradient-3" x1="0.7" y1="0.963" x2="0.447" y2="0.26" xlink:href="#linear-gradient-2"/>
    <linearGradient id="linear-gradient-4" x1="0.497" y1="-0.112" x2="0.502" y2="0.958" xlink:href="#linear-gradient"/>
  </defs>
  <g id="Group_146" data-name="Group 146" transform="translate(-461.886 -94.381)">
    <g id="Group_122" data-name="Group 122">
      <path id="Path_162" data-name="Path 162" d="M564.149,217.2l-1.425-9.1a19.949,19.949,0,0,0-6.168-11.56l-5.543-5.122a12.644,12.644,0,0,1-3.721-6.227l-.009-.037c-.493-1.995-.886-4.141-.172-6.068.81-2.181,2.857-3.622,4.246-5.488,2.452-3.3,2.711-7.678,2.876-11.782a9.11,9.11,0,0,0-.163-2.721,7.831,7.831,0,0,0-2.139-3.3,27.437,27.437,0,0,0-3.382-2.933,11.573,11.573,0,0,0,1.255-2.729c8.735-9.747,8.344-23.282-.024-38.092-5.2-9.21-13.952-10.7-18.959-9.13-3.4-7.623-11.878-10.128-31.553-7.551,0,0-20.435,2.694-23.962,23.836-1.567,9.4-3.149,21.785,2.529,36.148a9.7,9.7,0,0,0-3.088,2.474,7.71,7.71,0,0,0-2.534,6.975c.469,3.317,2.472,6.176,4.212,9.038s3.317,6.122,2.791,9.431c-.567,3.565-3.4,6.259-5.388,9.27a21.734,21.734,0,0,0-3.476,13.928,2.876,2.876,0,0,0,.8,2.033,3.014,3.014,0,0,0,1.495.508C494.075,212.2,564.149,217.2,564.149,217.2Z" fill="#381706"/>
      <path id="Path_163" data-name="Path 163" d="M498.468,100.655c20.553-2.576,29.411-.072,32.96,7.551,5.23-1.569,14.369-.08,19.8,9.13a57.2,57.2,0,0,1,4.026,8.17,51.986,51.986,0,0,0-5.479-13.465c-5.2-9.21-13.952-10.7-18.959-9.13-3.4-7.623-11.878-10.128-31.553-7.551,0,0-19.017,2.513-23.523,21.676C482.4,102.692,498.468,100.655,498.468,100.655Z" fill="#6a2b0c"/>
    </g>
    <g id="Group_123" data-name="Group 123">
      <path id="Path_164" data-name="Path 164" d="M544.852,202.413c-17.572-7.072-23.357-15.858-21.857-28.5H503.672c1.5,12.643-4.286,21.429-21.857,28.5S461.886,217.2,461.886,217.2h102.9S562.424,209.484,544.852,202.413Z" fill="#222961"/>
      <path id="Path_165" data-name="Path 165" d="M513.333,213.077c10.235,0,19.274-6.03,24.847-13.732-12.364-6.533-16.476-14.554-15.185-25.433H503.672c1.291,10.879-2.821,18.9-15.185,25.433C494.06,207.048,503.1,213.077,513.333,213.077Z" fill="#da9039"/>
      <path id="Path_166" data-name="Path 166" d="M513.333,209.912a27.34,27.34,0,0,0,22.542-11.858c-10.571-6.295-14.087-13.969-12.88-24.142H503.672c1.207,10.173-2.309,17.847-12.88,24.142A27.34,27.34,0,0,0,513.333,209.912Z" fill="#d1f9f6"/>
      <path id="Path_167" data-name="Path 167" d="M494.058,195.906a22.741,22.741,0,0,0,38.551,0c-8.029-5.881-10.687-12.95-9.614-21.994H503.672C504.745,182.956,502.087,190.025,494.058,195.906Z" fill="#fd9877"/>
      <path id="Path_168" data-name="Path 168" d="M522.995,173.912H503.672c.828,6.973-.576,12.769-4.938,17.755a33.056,33.056,0,0,0,13.835,3.135,33.558,33.558,0,0,0,14.926-3.636C523.472,186.294,522.2,180.652,522.995,173.912Z" fill="#fd8259"/>
      <path id="Path_169" data-name="Path 169" d="M494.058,195.906a22.741,22.741,0,0,0,38.551,0c-8.029-5.881-10.687-12.95-9.614-21.994H503.672C504.745,182.956,502.087,190.025,494.058,195.906Z" opacity="0.45" fill="url(#linear-gradient)"/>
    </g>
    <g id="Group_124" data-name="Group 124">
      <path id="Path_170" data-name="Path 170" d="M500.683,175.913s.336,13.31-6.793,20.72S479,204.118,480.88,213.691c0,0-11.437-4.257,0-25.354Z" fill="#381706"/>
      <path id="Path_171" data-name="Path 171" d="M500.683,175.913s.336,13.31-6.793,20.72S479,204.118,480.88,213.691c0,0-11.437-4.257,0-25.354Z" opacity="0.45" fill="url(#linear-gradient-2)"/>
    </g>
    <g id="Group_125" data-name="Group 125">
      <path id="Path_172" data-name="Path 172" d="M524.458,173.93s-.335,13.311,6.793,20.72,14.892,7.485,13.01,17.058c0,0,11.437-4.257,0-25.354Z" fill="#381706"/>
      <path id="Path_173" data-name="Path 173" d="M524.458,173.93s-.335,13.311,6.793,20.72,14.892,7.485,13.01,17.058c0,0,11.437-4.257,0-25.354Z" opacity="0.45" fill="url(#linear-gradient-3)"/>
    </g>
    <g id="Group_137" data-name="Group 137">
      <g id="Group_129" data-name="Group 129">
        <g id="Group_126" data-name="Group 126">
          <path id="Path_174" data-name="Path 174" d="M487.728,150.945c3.239,6.195,1.882,13.3-3.031,15.868s-11.522-.371-14.76-6.566-1.882-13.3,3.031-15.867S484.49,144.751,487.728,150.945Z" fill="#fd9877"/>
          <path id="Path_175" data-name="Path 175" d="M484.886,162.773c-.019-.253-.067-.471-.093-.715.037.177.059.324.072.441a9.11,9.11,0,0,0-.534-3.1,15.025,15.025,0,0,0-12.364-11.542,32.413,32.413,0,0,1,9.989,9.046c-3.526-1.435-8.975,1.605-8.975,1.605,6.465-1.714,9.406-.295,10.756,1.352A14.281,14.281,0,0,1,484.886,162.773Z" fill="#fd6933"/>
        </g>
        <g id="Group_128" data-name="Group 128">
          <g id="Group_127" data-name="Group 127">
            <path id="Path_176" data-name="Path 176" d="M537.41,150.945c-3.238,6.195-1.881,13.3,3.032,15.868s11.521-.371,14.76-6.566,1.882-13.3-3.031-15.867S540.649,144.751,537.41,150.945Z" fill="#fd9877"/>
            <path id="Path_177" data-name="Path 177" d="M540.253,162.773c.019-.253.067-.471.093-.715a4.4,4.4,0,0,0-.072.441,9.11,9.11,0,0,1,.534-3.1,15.025,15.025,0,0,1,12.364-11.542,32.413,32.413,0,0,0-9.989,9.046c3.525-1.435,8.975,1.605,8.975,1.605-6.465-1.714-9.406-.295-10.756,1.352A14.281,14.281,0,0,0,540.253,162.773Z" fill="#fd6933"/>
          </g>
        </g>
      </g>
      <g id="Group_136" data-name="Group 136">
        <g id="Group_130" data-name="Group 130">
          <path id="Path_178" data-name="Path 178" d="M503.52,115.706a20.758,20.758,0,0,0-20.756,20.541l-.207,19.789c0,7.315.7,14.07,4.609,19.523a31.013,31.013,0,0,0,49.783,1.422c4.565-5.679,5.632-12.98,5.632-20.945l-.056-20.993a19.388,19.388,0,0,0-19.388-19.337Z" fill="#ebbb81"/>
          <path id="Path_179" data-name="Path 179" d="M503.52,115.706a20.758,20.758,0,0,0-20.756,20.541l-.207,19.789c0,7.315.7,14.07,4.609,19.523a31.013,31.013,0,0,0,49.783,1.422c4.565-5.679,5.632-12.98,5.632-20.945l-.056-20.993a19.388,19.388,0,0,0-19.388-19.337Z" opacity="0.45" fill="url(#linear-gradient-4)"/>
          <path id="Path_180" data-name="Path 180" d="M536.949,172.992a31.013,31.013,0,0,1-49.783-1.422c-3.563-4.963-4.456-11.008-4.588-17.569l-.021,2.035c0,7.315.7,14.07,4.609,19.523a31.013,31.013,0,0,0,49.783,1.422c4.565-5.679,5.632-12.98,5.632-20.945l-.008-3.064C542.49,160.576,541.336,167.534,536.949,172.992Z" fill="#ebc9a0"/>
        </g>
        <g id="Group_135" data-name="Group 135">
          <path id="Path_181" data-name="Path 181" d="M528.843,132.7c-1.371-.1-4.74-.163-6.7-.082a1.368,1.368,0,0,0-1.307,1.313l-.11,2.481a1.065,1.065,0,0,0,1.057,1.118c7.324.012,18.912,2.674,18.736,2.856C540.465,140.513,539.076,133.9,528.843,132.7Z" fill="#381605"/>
          <path id="Path_182" data-name="Path 182" d="M496.676,132.7c1.37-.1,4.739-.163,6.7-.082a1.368,1.368,0,0,1,1.307,1.313l.11,2.481a1.065,1.065,0,0,1-1.057,1.118c-7.324.012-18.912,2.674-18.736,2.856C485.054,140.513,486.443,133.9,496.676,132.7Z" fill="#381605"/>
          <g id="Group_132" data-name="Group 132">
            <g id="Group_131" data-name="Group 131">
              <path id="Path_183" data-name="Path 183" d="M528.017,147.4c0,2.354-.8,4.263-1.781,4.263s-1.781-1.909-1.781-4.263.8-4.264,1.781-4.264S528.017,145.041,528.017,147.4Z" fill="#25120b"/>
            </g>
          </g>
          <g id="Group_134" data-name="Group 134">
            <g id="Group_133" data-name="Group 133">
              <ellipse id="Ellipse_7" data-name="Ellipse 7" cx="1.781" cy="4.264" rx="1.781" ry="4.264" transform="translate(497.122 143.132)" fill="#25120b"/>
            </g>
          </g>
          <path id="Path_184" data-name="Path 184" d="M515.756,156.207c-.1-2.781-1.486-6.074-3.187-6.074-1.719,0-3.116,3.365-3.189,6.164-3.963,1.1-3.245,4.148-3.245,4.148s6.55,3.341,13.1,0C519.234,160.445,520.159,157.218,515.756,156.207Z" fill="#fd6933"/>
          <path id="Path_185" data-name="Path 185" d="M502.984,166.357c1.767.264,3.467.445,5.157.533a30.883,30.883,0,0,0,5-.172c.828-.063,1.629-.259,2.449-.386.8-.21,1.615-.38,2.4-.665a41.026,41.026,0,0,0,4.773-1.97A12.668,12.668,0,0,1,518.6,167.1a15.4,15.4,0,0,1-2.533,1.061,17.091,17.091,0,0,1-2.7.54,16.491,16.491,0,0,1-5.436-.273A13.681,13.681,0,0,1,502.984,166.357Z" fill="#fd6933"/>
          <path id="Path_186" data-name="Path 186" d="M509.8,169.987s8.5,1.452,11.7-2.963c0,0-.377,4.965-4.707,5.723A7.63,7.63,0,0,1,509.8,169.987Z" fill="#fd9877"/>
        </g>
      </g>
    </g>
    <g id="Group_138" data-name="Group 138">
      <path id="Path_187" data-name="Path 187" d="M494.634,161.874a.774.774,0,0,1-.342-.079.788.788,0,0,1-.368-1.053l2.488-5.149a.789.789,0,0,1,1.42.686l-2.487,5.149A.792.792,0,0,1,494.634,161.874Z" fill="#fd7949"/>
      <path id="Path_188" data-name="Path 188" d="M489.66,161.874a.777.777,0,0,1-.342-.079.789.789,0,0,1-.367-1.053l2.487-5.149a.789.789,0,0,1,1.421.686l-2.488,5.149A.789.789,0,0,1,489.66,161.874Z" fill="#fd7949"/>
    </g>
    <g id="Group_139" data-name="Group 139">
      <path id="Path_189" data-name="Path 189" d="M530.032,161.874a.791.791,0,0,1-.711-.446l-2.487-5.149a.789.789,0,0,1,1.42-.686l2.488,5.149a.788.788,0,0,1-.368,1.053A.774.774,0,0,1,530.032,161.874Z" fill="#fd7949"/>
      <path id="Path_190" data-name="Path 190" d="M535.006,161.874a.79.79,0,0,1-.711-.446l-2.487-5.149a.789.789,0,0,1,1.42-.686l2.487,5.149a.789.789,0,0,1-.709,1.132Z" fill="#fd7949"/>
    </g>
    <g id="Group_145" data-name="Group 145">
      <g id="Group_144" data-name="Group 144">
        <g id="Group_141" data-name="Group 141">
          <g id="Group_140" data-name="Group 140">
            <circle id="Ellipse_8" data-name="Ellipse 8" cx="12.105" cy="12.105" r="12.105" transform="translate(483.74 138.442)" fill="#949ceb" opacity="0.77" style="mix-blend-mode: hue;isolation: isolate"/>
            <path id="Path_191" data-name="Path 191" d="M507.012,145.872l-18.547,14.255a12.1,12.1,0,0,0,18.547-14.255Z" fill="#fff" opacity="0.4"/>
            <path id="Path_192" data-name="Path 192" d="M496.67,138.484l-12.214,7.994a12.058,12.058,0,0,0-.716,4.069,12.281,12.281,0,0,0,.09,1.417l16.882-12.5A12.027,12.027,0,0,0,496.67,138.484Z" fill="#fff" opacity="0.4"/>
            <path id="Path_193" data-name="Path 193" d="M495.845,138.442a12.1,12.1,0,1,1-12.105,12.1,12.1,12.1,0,0,1,12.105-12.1m0-1.045a13.15,13.15,0,1,0,13.15,13.15,13.165,13.165,0,0,0-13.15-13.15Z" fill="#230f08"/>
          </g>
        </g>
        <g id="Group_143" data-name="Group 143">
          <g id="Group_142" data-name="Group 142">
            <circle id="Ellipse_9" data-name="Ellipse 9" cx="12.105" cy="12.105" r="12.105" transform="translate(517.84 138.442)" fill="#949ceb" opacity="0.77" style="mix-blend-mode: hue;isolation: isolate"/>
            <path id="Path_194" data-name="Path 194" d="M536.744,140.533l-16.481,17.259a12.118,12.118,0,0,0,5.663,4.162L541.342,146.5A12.128,12.128,0,0,0,536.744,140.533Z" fill="#fff" opacity="0.4"/>
            <path id="Path_195" data-name="Path 195" d="M529.945,138.442a12.1,12.1,0,1,1-12.1,12.1,12.1,12.1,0,0,1,12.1-12.1m0-1.045a13.15,13.15,0,1,0,13.149,13.15,13.165,13.165,0,0,0-13.149-13.15Z" fill="#230f08"/>
          </g>
        </g>
        <path id="Path_196" data-name="Path 196" d="M508.3,148.267l-.868-.953a9.233,9.233,0,0,1,10.546-.79l-.629,1.126A7.911,7.911,0,0,0,508.3,148.267Z" fill="#230f08"/>
      </g>
      <path id="Path_197" data-name="Path 197" d="M487.121,142.168a2.414,2.414,0,0,0-.5-.052h-3.3a2.445,2.445,0,0,0,0,4.889h.945A12.1,12.1,0,0,1,487.121,142.168Z" fill="#230f08"/>
      <path id="Path_198" data-name="Path 198" d="M539.342,142.168a2.431,2.431,0,0,1,.5-.052h3.3a2.445,2.445,0,1,1,0,4.889h-.945A12.085,12.085,0,0,0,539.342,142.168Z" fill="#230f08"/>
    </g>
  </g>
</svg>
