<svg xmlns="http://www.w3.org/2000/svg" width="144.486" height="158.702" viewBox="0 0 144.486 158.702">
  <g id="Group_125" data-name="Group 125" transform="translate(-24.263 -277.447)">
    <path id="Path_128" data-name="Path 128" d="M151.526,351.378c.139-3.772-1.363-8.514-4.275-10.916a14.618,14.618,0,0,0,2.191-13.273c-1.389-4.456-5.213-8.522-9.192-10.961A14.663,14.663,0,0,0,126.312,296.9,14.075,14.075,0,0,0,105.1,283.355c-.35-5.812-15.975-9.706-17.188,0A14.074,14.074,0,0,0,66.7,296.9a14.661,14.661,0,0,0-13.938,19.324c-3.979,2.439-7.8,6.505-9.193,10.961a14.621,14.621,0,0,0,2.191,13.273c-2.911,2.4-4.413,7.144-4.275,10.916a12.535,12.535,0,0,0,5.2,9.613c-2.859,2.966-4.008,8.857-3.356,12.925a13.567,13.567,0,0,0,6.944,9.69c-2.449,3.7-3.223,8.805-1.307,12.809,13.17-4.658,26.686-8.9,39.856-13.563-.031-6.75-.234-13.7-.265-20.452-9.062-6.18-15.129-14.135-14.826-24.834a49.03,49.03,0,0,1,1.1-6.834c2.841-9.5,5.652-12.539,12.5-16.317a76.867,76.867,0,0,0,9.177-5.772,76.868,76.868,0,0,0,9.177,5.772c6.845,3.778,9.656,6.821,12.5,16.317a48.883,48.883,0,0,1,1.1,6.834c.3,10.7-5.764,18.654-14.826,24.834-.031,6.75-.233,13.7-.264,20.452,13.169,4.658,26.686,8.9,39.856,13.563,1.916-4,1.141-9.106-1.307-12.809a13.563,13.563,0,0,0,6.943-9.69c.652-4.068-.5-9.959-3.355-12.925A12.534,12.534,0,0,0,151.526,351.378Z" fill="#3c3247"/>
    <g id="Group_111" data-name="Group 111">
      <g id="Group_100" data-name="Group 100">
        <path id="Path_129" data-name="Path 129" d="M95.936,375h1.141c4.035,0,7.923-2.267,10.9-6.355l.791-1.087v-14.31H84.247v14.31l.791,1.087C88.012,372.737,91.9,375,95.936,375Z" fill="#3c3247"/>
        <path id="Path_130" data-name="Path 130" d="M164.011,416.745a36.359,36.359,0,0,0-21.92-25.175l-12.921-5.124c-7.749,7.477-16.953,13.5-27.675,15.316-14.31,2.418-29.729-3.9-38.072-15.15l-12.5,4.958A36.362,36.362,0,0,0,29,416.745l-4.738,19.4H168.749Z" fill="#5dabff"/>
        <path id="Path_131" data-name="Path 131" d="M101.5,401.762c10.722-1.812,19.926-7.839,27.675-15.316l-17.451-6.92-2.953-1.171V367.562l-.791,1.087C105,372.737,101.112,375,97.077,375H95.936c-4.035,0-7.924-2.267-10.9-6.355l-.791-1.087v10.793l-2.954,1.171-17.87,7.086C71.766,397.865,87.185,404.18,101.5,401.762Z" fill="#bd6c67"/>
      </g>
      <g id="Group_104" data-name="Group 104">
        <g id="Group_101" data-name="Group 101">
          <path id="Path_132" data-name="Path 132" d="M76.59,382.149a1.459,1.459,0,0,1-.58-.11,1.537,1.537,0,0,1-.92-1.38,1.518,1.518,0,0,1,.03-.3c.02-.09.05-.191.08-.281a1.542,1.542,0,0,1,.33-.49,1.014,1.014,0,0,1,.23-.179,1.228,1.228,0,0,1,.25-.14,1.4,1.4,0,0,1,.29-.09,1.558,1.558,0,0,1,1.35.409,2.22,2.22,0,0,1,.19.231,1.281,1.281,0,0,1,.13.259,1.421,1.421,0,0,1,.12.581,1.5,1.5,0,0,1-1.5,1.49Z" fill="#fff"/>
        </g>
        <g id="Group_102" data-name="Group 102">
          <path id="Path_133" data-name="Path 133" d="M95.81,393.218H95.8a1.489,1.489,0,0,1-1.45-1.21h0a1.5,1.5,0,0,1-1.62,1.031h0a1.5,1.5,0,0,1-1.31-1.4h0a1.5,1.5,0,0,1-1.74.8h0a1.5,1.5,0,0,1-1.1-1.57h0a1.514,1.514,0,0,1-1.83.57h0a1.506,1.506,0,0,1-.9-1.691h0a1.507,1.507,0,0,1-1.88.321h0a1.512,1.512,0,0,1-.67-1.79h0a1.5,1.5,0,0,1-1.91.07h0a1.493,1.493,0,0,1-.43-1.86h0a1.5,1.5,0,0,1-1.91-.17h0a1.492,1.492,0,0,1-.18-1.9h0a1.5,1.5,0,0,1-1.87-.429h0a1.5,1.5,0,0,1,.28-2.1h0a1.49,1.49,0,0,1,2.1.279h0a1.5,1.5,0,0,1,.05,1.75h0a1.478,1.478,0,0,1,1.73.271h0a1.484,1.484,0,0,1,.29,1.729h0a1.523,1.523,0,0,1,1.76.05h0a1.5,1.5,0,0,1,.51,1.681h0a1.506,1.506,0,0,1,1.75-.181h0v-.01h0a1.519,1.519,0,0,1,.72,1.611h0a1.5,1.5,0,0,1,1.71-.41h0v.009h0a1.487,1.487,0,0,1,.92,1.491h0a1.488,1.488,0,0,1,1.64-.62h0a1.5,1.5,0,0,1,1.11,1.36h0a1.5,1.5,0,0,1,1.54-.84h0a1.51,1.51,0,0,1,1.28,1.2h0a1.5,1.5,0,0,1,1.44-1.04h0a1.5,1.5,0,0,1,1.4.99h0a1.5,1.5,0,0,1,1.25-1.219h0a1.48,1.48,0,0,1,1.56.79h0a1.515,1.515,0,0,1,1.07-1.4h0a1.508,1.508,0,0,1,1.66.58h0a1.485,1.485,0,0,1,.87-1.519h0a1.5,1.5,0,0,1,1.72.35h0a1.506,1.506,0,0,1,.68-1.621h0a1.49,1.49,0,0,1,1.75.13h0a1.5,1.5,0,0,1,.46-1.7h0a1.505,1.505,0,0,1,1.76-.091h0a1.5,1.5,0,0,1,.23-1.739h0a1.523,1.523,0,0,1,1.73-.33h0a1.486,1.486,0,0,1,0-1.75h0a1.5,1.5,0,0,1,2.09-.34h0a1.5,1.5,0,0,1,.34,2.1h0a1.5,1.5,0,0,1-1.85.48h0a1.511,1.511,0,0,1-.13,1.909h0a1.493,1.493,0,0,1-1.9.221h0a1.513,1.513,0,0,1-.38,1.88h0a1.505,1.505,0,0,1-1.91-.021h0a1.5,1.5,0,0,1-.62,1.8h0a1.486,1.486,0,0,1-1.89-.26h0a1.5,1.5,0,0,1-.84,1.71h0a1.506,1.506,0,0,1-1.85-.5h0a1.5,1.5,0,0,1-1.06,1.59h0a1.5,1.5,0,0,1-1.76-.75h0a1.5,1.5,0,0,1-1.27,1.441h0a1.493,1.493,0,0,1-1.64-.981h0a1.514,1.514,0,0,1-1.49,1.25Z" fill="#fff"/>
        </g>
        <g id="Group_103" data-name="Group 103">
          <path id="Path_134" data-name="Path 134" d="M114.73,381.569a1.365,1.365,0,0,1-.57-.111,1.515,1.515,0,0,1-.93-1.389,1.52,1.52,0,0,1,.44-1.061,1.046,1.046,0,0,1,.23-.18,1.111,1.111,0,0,1,.26-.139,1.307,1.307,0,0,1,.28-.09,1.416,1.416,0,0,1,.58,0,1.308,1.308,0,0,1,.28.09,1.354,1.354,0,0,1,.26.139,1.046,1.046,0,0,1,.23.18,2.121,2.121,0,0,1,.19.231,1.282,1.282,0,0,1,.13.259,1.318,1.318,0,0,1,.09.281,1.479,1.479,0,0,1-.41,1.349A1.459,1.459,0,0,1,114.73,381.569Z" fill="#fff"/>
        </g>
      </g>
      <g id="Group_110" data-name="Group 110" opacity="0.2">
        <g id="Group_105" data-name="Group 105">
          <path id="Path_135" data-name="Path 135" d="M127.429,394.579a51.2,51.2,0,0,1-14.647,8.6,46.571,46.571,0,0,1-37.173-1.464,51.182,51.182,0,0,1-13.925-9.725,41.147,41.147,0,0,0,13.105,11.325,42.686,42.686,0,0,0,38.685,1.524A41.18,41.18,0,0,0,127.429,394.579Z" fill="#3c3247"/>
        </g>
        <g id="Group_106" data-name="Group 106">
          <path id="Path_136" data-name="Path 136" d="M52.7,432.486a49.442,49.442,0,0,0-.663-15.4,49.452,49.452,0,0,0-5.148-14.523c.852,4.2,2.115,9.529,3.15,14.911C51.092,422.857,51.918,428.275,52.7,432.486Z" fill="#3c3247"/>
        </g>
        <g id="Group_107" data-name="Group 107">
          <path id="Path_137" data-name="Path 137" d="M111.358,434.006a79.814,79.814,0,0,1-12.116-4.285,103.674,103.674,0,0,1-12.686-6.844c-8.325-5.226-16.218-11.408-22.835-15.478A93.4,93.4,0,0,0,84.6,426a56.457,56.457,0,0,0,13.688,6.314A38.428,38.428,0,0,0,111.358,434.006Z" fill="#3c3247"/>
        </g>
        <g id="Group_108" data-name="Group 108">
          <path id="Path_138" data-name="Path 138" d="M127.308,419.932a77.593,77.593,0,0,1-17.07,3.625,77.654,77.654,0,0,1-17.439-.629,31.166,31.166,0,0,0,8.017,2.549,36.822,36.822,0,0,0,19.034-1.652A31.161,31.161,0,0,0,127.308,419.932Z" fill="#3c3247"/>
        </g>
        <g id="Group_109" data-name="Group 109">
          <path id="Path_139" data-name="Path 139" d="M140.387,432.146c.456-4.329.968-9.864,1.872-15.346.877-5.485,2.144-10.9,3.082-15.148a45.813,45.813,0,0,0-4.954,30.494Z" fill="#3c3247"/>
        </g>
      </g>
    </g>
    <g id="Group_124" data-name="Group 124">
      <g id="Group_113" data-name="Group 113">
        <g id="Group_112" data-name="Group 112">
          <circle id="Ellipse_20" data-name="Ellipse 20" cx="8.976" cy="8.976" r="8.976" transform="translate(119.016 329.63)" fill="#a64f5a"/>
          <circle id="Ellipse_21" data-name="Ellipse 21" cx="5.073" cy="5.073" r="5.073" transform="translate(122.918 333.532)" fill="#8c404c"/>
        </g>
        <path id="Path_140" data-name="Path 140" d="M126.324,347.581a1.667,1.667,0,1,0,1.667-1.666A1.667,1.667,0,0,0,126.324,347.581Z" fill="#fff"/>
      </g>
      <g id="Group_115" data-name="Group 115">
        <g id="Group_114" data-name="Group 114">
          <circle id="Ellipse_22" data-name="Ellipse 22" cx="8.976" cy="8.976" r="8.976" transform="translate(52.328 338.606) rotate(-45)" fill="#a64f5a"/>
          <path id="Path_141" data-name="Path 141" d="M70.1,338.606a5.073,5.073,0,1,1-5.074-5.074A5.074,5.074,0,0,1,70.1,338.606Z" fill="#8c404c"/>
        </g>
        <path id="Path_142" data-name="Path 142" d="M66.688,347.581a1.667,1.667,0,1,1-1.667-1.666A1.667,1.667,0,0,1,66.688,347.581Z" fill="#fff"/>
      </g>
      <g id="Group_123" data-name="Group 123">
        <g id="Group_122" data-name="Group 122">
          <path id="Path_143" data-name="Path 143" d="M96.506,298.149h0C81.4,298.149,69.16,305,69.16,320.1v15.983A36.2,36.2,0,0,0,80.9,362.767l1.139,1.044a20.352,20.352,0,0,0,13.751,5.349h1.44a20.351,20.351,0,0,0,13.751-5.349l1.139-1.044a36.192,36.192,0,0,0,11.737-26.68V320.1C123.853,305,111.609,298.149,96.506,298.149Z" fill="#bd6c67"/>
          <g id="Group_121" data-name="Group 121">
            <path id="Path_144" data-name="Path 144" d="M86.767,329.63a2.481,2.481,0,1,1-2.481-2.481A2.481,2.481,0,0,1,86.767,329.63Z" fill="#3c3247"/>
            <path id="Path_145" data-name="Path 145" d="M106.245,329.63a2.481,2.481,0,1,0,2.481-2.481A2.481,2.481,0,0,0,106.245,329.63Z" fill="#3c3247"/>
            <path id="Path_146" data-name="Path 146" d="M103.56,343.913a47.741,47.741,0,0,0-12.814-.3,8.29,8.29,0,0,0,6.3,4.126C99.618,347.959,101.93,345.915,103.56,343.913Z" fill="#a64f5a"/>
            <g id="Group_116" data-name="Group 116">
              <path id="Path_147" data-name="Path 147" d="M84.874,319.536a8.394,8.394,0,0,0-6.663,3.745l13.652-.653A8.393,8.393,0,0,0,84.874,319.536Z" fill="#3c3247"/>
            </g>
            <g id="Group_117" data-name="Group 117">
              <path id="Path_148" data-name="Path 148" d="M108.139,319.536a8.392,8.392,0,0,1,6.662,3.745l-13.651-.653A8.392,8.392,0,0,1,108.139,319.536Z" fill="#3c3247"/>
            </g>
            <g id="Group_118" data-name="Group 118">
              <path id="Path_149" data-name="Path 149" d="M88.7,334.482a10.135,10.135,0,0,0-9.071-.272,24.775,24.775,0,0,0,4.525.475A24.9,24.9,0,0,0,88.7,334.482Z" fill="#a64f5a"/>
            </g>
            <g id="Group_119" data-name="Group 119">
              <path id="Path_150" data-name="Path 150" d="M104.317,334.482a10.135,10.135,0,0,1,9.071-.272,30.525,30.525,0,0,1-9.071.272Z" fill="#a64f5a"/>
            </g>
            <g id="Group_120" data-name="Group 120">
              <path id="Path_151" data-name="Path 151" d="M96.816,354.021l-11.935-1.039c3.213,1.167,4.66,4.542,11.935,4.542s8.721-3.375,11.934-4.542Z" fill="#99253e"/>
              <path id="Path_152" data-name="Path 152" d="M98.052,351.676c-.412.2-.824.4-1.236.59-.413-.194-.825-.392-1.237-.59a4.473,4.473,0,0,0-3.284-.183,30.429,30.429,0,0,1-7.414,1.49s8.206,1.038,11.935,1.038,11.934-1.038,11.934-1.038a30.449,30.449,0,0,1-7.414-1.49A4.473,4.473,0,0,0,98.052,351.676Z" fill="#aa3045"/>
            </g>
          </g>
        </g>
        <path id="Path_153" data-name="Path 153" d="M85.366,289.581A28.889,28.889,0,0,0,69.347,304.41a35.349,35.349,0,0,0-2.662,15.733c.172,4.769,1.571,10.233,2.475,14.923.035-1.234-.363-3.209,0-4.421,2.84-9.5,11.325-12.452,18.169-16.23s14.271-8.429,17.71-15.45c1.471-3.005,1-7.07.107-10.482A33.765,33.765,0,0,0,85.366,289.581Z" fill="#3c3247"/>
      </g>
    </g>
  </g>
</svg>
