<svg xmlns="http://www.w3.org/2000/svg" xmlns:xlink="http://www.w3.org/1999/xlink" width="102.895" height="115.722" viewBox="0 0 102.895 115.722">
  <defs>
    <linearGradient id="linear-gradient" x1="0.528" y1="-0.142" x2="0.508" y2="0.28" gradientUnits="objectBoundingBox">
      <stop offset="0" stop-color="#9c1628"/>
      <stop offset="0.209" stop-color="#9c1628" stop-opacity="0.792"/>
      <stop offset="0.365" stop-color="#9c1628" stop-opacity="0.91"/>
      <stop offset="0.885" stop-color="#9c1628" stop-opacity="0"/>
    </linearGradient>
  </defs>
  <g id="Group_171" data-name="Group 171" transform="translate(-323.733 -101.477)">
    <path id="Path_199" data-name="Path 199" d="M412.814,143.691a132.713,132.713,0,0,1-4.714-17.467l-.019-.092c-.008-.037-.016-.071-.023-.109l0,.006c-6.826-31.847-57.973-32.886-65.485-2.1a43,43,0,0,0-1.374,4.54l0-.006c-.008.042-.019.083-.027.125-.077.319-.15.646-.221.976-2.441,9.669-11.954,16.811-11.954,16.811,5.841-2.056,9.182-4.635,11.083-7.055a35.178,35.178,0,0,0,1.4,8.541l-.064,6.428c0,1.268.054,2.518.144,3.754-.466,4.836-.315,13.365,5.511,18.1a8.558,8.558,0,0,1,3.166,8.184c-.6,3.275-2.979,6.575-10.058,6.672,0,0,1.1,8.315,33.386,8.609,32.892.3,33.386-8.455,33.386-8.455-7.079-.066-9.454-2.306-10.058-4.529-.571-2.1.7-4.19,3.166-5.553,4.728-2.61,6.611-11.329,7.353-18.5h.626a52.372,52.372,0,0,0,.653-8.287l-.041-15.973A32.106,32.106,0,0,0,412.814,143.691Z" fill="#080603"/>
    <g id="Group_149" data-name="Group 149">
      <g id="Group_147" data-name="Group 147">
        <path id="Path_200" data-name="Path 200" d="M406.7,202.413c-17.572-7.072-23.357-15.858-21.857-28.5H365.519c1.5,12.643-4.286,21.429-21.857,28.5S323.733,217.2,323.733,217.2H426.628S424.271,209.484,406.7,202.413Z" fill="#c0c1c8"/>
        <path id="Path_201" data-name="Path 201" d="M399.865,199.259c-12.238-6.517-16.308-14.516-15.023-25.347H365.519c1.15,9.695-1.991,17.12-11.437,23.245-.485,5.045-1.528,9.929,4.089,12.451,6.719,3.016,14.556,2.484,21.633.446A54.922,54.922,0,0,0,399.865,199.259Z" fill="#abacb2"/>
      </g>
      <g id="Group_148" data-name="Group 148">
        <path id="Path_202" data-name="Path 202" d="M397.477,197.906c-10.379-6.267-13.833-13.9-12.635-23.994H365.519c1.02,8.6-1.333,15.407-8.462,21.11-.009.163,0,.315-.015.481-.344,4.741-1.77,9.478,3.5,11.842,5.876,2.638,12.73,2.172,18.92.39A48.135,48.135,0,0,0,397.477,197.906Z" fill="#c54e2a"/>
        <path id="Path_203" data-name="Path 203" d="M375.048,193.578a32.943,32.943,0,0,0,13.924-2.9c-3.721-4.761-4.9-10.25-4.13-16.77H365.519c.775,6.531-.4,12.03-4.14,16.8A32.379,32.379,0,0,0,375.048,193.578Z" fill="#b33e1b"/>
      </g>
    </g>
    <g id="Group_170" data-name="Group 170">
      <g id="Group_153" data-name="Group 153">
        <g id="Group_150" data-name="Group 150">
          <path id="Path_204" data-name="Path 204" d="M350.207,150.945c3.239,6.195,1.882,13.3-3.031,15.868s-11.522-.371-14.76-6.566-1.882-13.3,3.031-15.867S346.969,144.751,350.207,150.945Z" fill="#c54e2a"/>
          <path id="Path_205" data-name="Path 205" d="M347.366,162.773c-.02-.253-.067-.471-.094-.715.037.177.059.324.073.441a9.132,9.132,0,0,0-.535-3.1,15.025,15.025,0,0,0-12.364-11.542,32.413,32.413,0,0,1,9.989,9.046c-3.526-1.435-8.975,1.605-8.975,1.605,6.465-1.714,9.406-.295,10.756,1.352A14.332,14.332,0,0,1,347.366,162.773Z" fill="#b62900"/>
          <path id="Path_206" data-name="Path 206" d="M344.981,159.864c.154-.983-7.593-6.932-1.816-25.664l6.242-1.479Z" fill="#080603"/>
        </g>
        <g id="Group_152" data-name="Group 152">
          <g id="Group_151" data-name="Group 151">
            <path id="Path_207" data-name="Path 207" d="M399.889,150.945c-3.238,6.195-1.881,13.3,3.032,15.868s11.521-.371,14.76-6.566,1.882-13.3-3.031-15.867S403.128,144.751,399.889,150.945Z" fill="#c54e2a"/>
            <path id="Path_208" data-name="Path 208" d="M402.732,162.773c.019-.253.067-.471.093-.715a4.392,4.392,0,0,0-.072.441,9.11,9.11,0,0,1,.534-3.1,15.026,15.026,0,0,1,12.364-11.542,32.413,32.413,0,0,0-9.989,9.046c3.525-1.435,8.975,1.605,8.975,1.605-6.465-1.714-9.406-.295-10.756,1.352A14.357,14.357,0,0,0,402.732,162.773Z" fill="#b62900"/>
          </g>
        </g>
      </g>
      <path id="Path_209" data-name="Path 209" d="M403.837,156.036V118.5S415.077,137.049,403.837,156.036Z" fill="#080603"/>
      <g id="Group_169" data-name="Group 169">
        <g id="Group_154" data-name="Group 154">
          <path id="Path_210" data-name="Path 210" d="M366,115.706a20.758,20.758,0,0,0-20.757,20.541l-.207,19.789c0,18.1,11.289,32.769,30.012,32.769,19.16,0,30.012-14.671,30.012-32.769L405,135.043a19.388,19.388,0,0,0-19.388-19.337Z" fill="#e8653f"/>
          <path id="Path_211" data-name="Path 211" d="M366,115.706a20.758,20.758,0,0,0-20.757,20.541l-.207,19.789c0,18.1,11.289,32.769,30.012,32.769,19.16,0,30.012-14.671,30.012-32.769L405,135.043a19.388,19.388,0,0,0-19.388-19.337Z" opacity="0.45" fill="url(#linear-gradient)"/>
          <path id="Path_212" data-name="Path 212" d="M375.048,183.251c-11.745,0-20.912-4.467-26.778-11.5,4.606,10.165,13.945,17.058,26.778,17.058,13.042,0,22.23-6.8,26.771-16.85C396.024,178.871,386.949,183.251,375.048,183.251Z" fill="#ff7f59"/>
        </g>
        <g id="Group_162" data-name="Group 162">
          <g id="Group_161" data-name="Group 161">
            <g id="Group_156" data-name="Group 156">
              <g id="Group_155" data-name="Group 155">
                <path id="Path_213" data-name="Path 213" d="M390.5,147.4c0,2.354-.8,4.263-1.781,4.263s-1.781-1.909-1.781-4.263.8-4.264,1.781-4.264S390.5,145.041,390.5,147.4Z" fill="#25110d"/>
              </g>
            </g>
            <g id="Group_158" data-name="Group 158">
              <g id="Group_157" data-name="Group 157">
                <ellipse id="Ellipse_10" data-name="Ellipse 10" cx="1.781" cy="4.264" rx="1.781" ry="4.264" transform="translate(359.601 143.132)" fill="#25110d"/>
              </g>
            </g>
            <g id="Group_159" data-name="Group 159">
              <path id="Path_214" data-name="Path 214" d="M357.113,161.874a.774.774,0,0,1-.342-.079.787.787,0,0,1-.367-1.053l2.487-5.149a.789.789,0,1,1,1.42.686l-2.487,5.149A.792.792,0,0,1,357.113,161.874Z" fill="#b62900"/>
              <path id="Path_215" data-name="Path 215" d="M352.139,161.874a.77.77,0,0,1-.341-.079.788.788,0,0,1-.368-1.053l2.487-5.149a.789.789,0,0,1,1.421.686l-2.488,5.149A.789.789,0,0,1,352.139,161.874Z" fill="#b62900"/>
            </g>
            <g id="Group_160" data-name="Group 160">
              <path id="Path_216" data-name="Path 216" d="M392.511,161.874a.792.792,0,0,1-.711-.446l-2.487-5.149a.789.789,0,0,1,1.42-.686l2.488,5.149a.788.788,0,0,1-.368,1.053A.774.774,0,0,1,392.511,161.874Z" fill="#b62900"/>
              <path id="Path_217" data-name="Path 217" d="M397.485,161.874a.79.79,0,0,1-.711-.446l-2.487-5.149a.789.789,0,0,1,1.42-.686l2.487,5.149a.787.787,0,0,1-.367,1.053A.774.774,0,0,1,397.485,161.874Z" fill="#b62900"/>
            </g>
          </g>
          <path id="Path_218" data-name="Path 218" d="M378.485,155.929a14.86,14.86,0,0,0,.1-1.707c0-3.593-1.167-8.087-3.535-8.087s-3.534,4.494-3.534,8.087a14.749,14.749,0,0,0,.109,1.807c-4.091,1.174-3.34,4.341-3.34,4.341s6.88,3.51,13.76,0C382.043,160.37,383.022,157.01,378.485,155.929Z" fill="#b62900"/>
          <path id="Path_219" data-name="Path 219" d="M375.027,169.4a19.821,19.821,0,0,1-9.711-2.183,1,1,0,0,1,1.03-1.714h0c.072.043,7.349,4.241,18.914-.079a1,1,0,0,1,.7,1.874A31.168,31.168,0,0,1,375.027,169.4Z" fill="#b62900"/>
          <path id="Path_220" data-name="Path 220" d="M369.717,171.383s8.782,2.309,13.671-1.617a6.411,6.411,0,0,1-5.889,4.7C375.5,174.689,372.8,173.912,369.717,171.383Z" fill="#cf4821"/>
          <path id="Path_221" data-name="Path 221" d="M351,140.04c-.177-.2,11.142-3.047,16.86-.935.041.118,1.581-5.208-7-4.97C352.412,134.761,351.041,140.147,351,140.04Z" fill="#230e0a"/>
          <path id="Path_222" data-name="Path 222" d="M398.3,139.51c.165-.209-11.3-2.388-16.886.057-.034.121-1.884-5.106,6.7-5.373C396.582,134.323,398.268,139.619,398.3,139.51Z" fill="#230e0a"/>
        </g>
        <g id="Group_168" data-name="Group 168">
          <g id="Group_167" data-name="Group 167">
            <g id="Group_164" data-name="Group 164">
              <g id="Group_163" data-name="Group 163">
                <circle id="Ellipse_11" data-name="Ellipse 11" cx="12.105" cy="12.105" r="12.105" transform="translate(346.026 137.572)" fill="#a7b9eb" opacity="0.77" style="mix-blend-mode: hue;isolation: isolate"/>
                <path id="Path_223" data-name="Path 223" d="M369.3,145,350.75,159.257A12.1,12.1,0,0,0,369.3,145Z" fill="#fff" opacity="0.4"/>
                <path id="Path_224" data-name="Path 224" d="M358.955,137.614l-12.214,7.995a12.051,12.051,0,0,0-.715,4.068,12.267,12.267,0,0,0,.089,1.417L363,138.6A12.045,12.045,0,0,0,358.955,137.614Z" fill="#fff" opacity="0.4"/>
                <path id="Path_225" data-name="Path 225" d="M358.131,137.572a12.105,12.105,0,1,1-12.105,12.1,12.106,12.106,0,0,1,12.105-12.1m0-1.044a13.149,13.149,0,1,0,13.149,13.149,13.165,13.165,0,0,0-13.149-13.149Z" fill="#230e0a"/>
              </g>
            </g>
            <g id="Group_166" data-name="Group 166">
              <g id="Group_165" data-name="Group 165">
                <path id="Path_226" data-name="Path 226" d="M404.335,149.677a12.1,12.1,0,1,1-12.1-12.1A12.1,12.1,0,0,1,404.335,149.677Z" fill="#a7b9eb" opacity="0.77" style="mix-blend-mode: hue;isolation: isolate"/>
                <path id="Path_227" data-name="Path 227" d="M399.03,139.663l-16.481,17.259a12.108,12.108,0,0,0,5.663,4.163l15.416-15.453A12.132,12.132,0,0,0,399.03,139.663Z" fill="#fff" opacity="0.4"/>
                <path id="Path_228" data-name="Path 228" d="M392.23,137.572a12.105,12.105,0,1,1-12.105,12.1,12.1,12.1,0,0,1,12.105-12.1m0-1.044a13.149,13.149,0,1,0,13.15,13.149,13.164,13.164,0,0,0-13.15-13.149Z" fill="#230e0a"/>
              </g>
            </g>
            <path id="Path_229" data-name="Path 229" d="M370.585,147.4l-.868-.953a9.233,9.233,0,0,1,10.547-.789l-.63,1.125A7.913,7.913,0,0,0,370.585,147.4Z" fill="#230e0a"/>
          </g>
          <path id="Path_230" data-name="Path 230" d="M349.407,141.3a2.5,2.5,0,0,0-.5-.052h-3.3a2.444,2.444,0,1,0,0,4.889h.945A12.085,12.085,0,0,1,349.407,141.3Z" fill="#230e0a"/>
          <path id="Path_231" data-name="Path 231" d="M401.628,141.3a2.486,2.486,0,0,1,.5-.052h3.3a2.444,2.444,0,0,1,0,4.889h-.945A12.1,12.1,0,0,0,401.628,141.3Z" fill="#230e0a"/>
        </g>
        <path id="Path_232" data-name="Path 232" d="M356.607,114.706l2.794,1.581a23.854,23.854,0,0,0,11.751,3.1h8.2a23.862,23.862,0,0,0,16.871-6.988h0Z" fill="#080603"/>
      </g>
    </g>
  </g>
</svg>
