<svg xmlns="http://www.w3.org/2000/svg" width="102.895" height="121.332" viewBox="0 0 102.895 121.332">
  <g id="Group_18" data-name="Group 18" transform="translate(-597.331 -281.897)">
    <g id="Group_2" data-name="Group 2">
      <path id="Path_1" data-name="Path 1" d="M680.3,388.443c-17.572-7.071-23.357-15.857-21.857-28.5H639.117c1.5,12.643-4.286,21.429-21.857,28.5s-19.929,14.786-19.929,14.786h102.9S697.869,395.515,680.3,388.443Z" fill="#0ac2b2"/>
      <path id="Path_2" data-name="Path 2" d="M649.415,394.166a20.643,20.643,0,0,0-17.1,9.063h34.2A20.642,20.642,0,0,0,649.415,394.166Z" fill="#078c81" opacity="0.44"/>
      <g id="Group_1" data-name="Group 1">
        <path id="Path_3" data-name="Path 3" d="M632.626,379.33a22.826,22.826,0,0,0,33.437,1.03c-6.476-5.561-8.6-12.167-7.623-20.417H639.117C640.036,367.69,638.213,373.987,632.626,379.33Z" fill="#b23a3a"/>
        <path id="Path_4" data-name="Path 4" d="M648.646,378.818a29.308,29.308,0,0,0,13.159-3.13c-3.12-4.521-4.084-9.689-3.365-15.745H639.117c.724,6.1-.262,11.3-3.437,15.84A29.3,29.3,0,0,0,648.646,378.818Z" fill="#9c2222"/>
      </g>
    </g>
    <g id="Group_17" data-name="Group 17">
      <path id="Path_5" data-name="Path 5" d="M686.286,331.912c.568-8.525,2.4-22.361.358-27.381a5.576,5.576,0,0,0,3.383-3.618,3.111,3.111,0,0,0,.072-1.6,3.334,3.334,0,0,0-.611-1.156,6.858,6.858,0,0,0-2.457-1.98,5.577,5.577,0,0,0,.622-6.413,3.135,3.135,0,0,0-1.112-1.154,3.35,3.35,0,0,0-1.261-.352,7.277,7.277,0,0,0-7.337,4.4c-.215.539-.447,1.144-.662,1.781a14.414,14.414,0,0,0-6.768-.818c-.249.014-.388.028-.388.028l-.022,0a10.592,10.592,0,0,1-4.854-.366l-1.155,45Z" fill="#080603"/>
      <g id="Group_6" data-name="Group 6">
        <g id="Group_3" data-name="Group 3">
          <path id="Path_6" data-name="Path 6" d="M623.8,336.976c3.239,6.195,1.882,13.3-3.031,15.868s-11.522-.372-14.76-6.566-1.882-13.3,3.031-15.868S620.567,330.781,623.8,336.976Z" fill="#a82929"/>
          <path id="Path_7" data-name="Path 7" d="M620.964,348.8c-.02-.252-.067-.47-.094-.714.037.177.059.323.073.44a9.126,9.126,0,0,0-.535-3.1,15.025,15.025,0,0,0-12.364-11.542,32.413,32.413,0,0,1,9.989,9.046c-3.526-1.436-8.975,1.605-8.975,1.605,6.465-1.714,9.406-.3,10.756,1.352A14.338,14.338,0,0,1,620.964,348.8Z" fill="#871313"/>
        </g>
        <g id="Group_5" data-name="Group 5">
          <g id="Group_4" data-name="Group 4">
            <path id="Path_8" data-name="Path 8" d="M673.487,336.976c-3.238,6.195-1.881,13.3,3.032,15.868s11.521-.372,14.76-6.566,1.882-13.3-3.031-15.868S676.726,330.781,673.487,336.976Z" fill="#a82929"/>
            <path id="Path_9" data-name="Path 9" d="M676.33,348.8c.019-.252.067-.47.093-.714a4.367,4.367,0,0,0-.072.44,9.1,9.1,0,0,1,.534-3.1,15.026,15.026,0,0,1,12.364-11.542,32.412,32.412,0,0,0-9.989,9.046c3.525-1.436,8.975,1.605,8.975,1.605-6.465-1.714-9.406-.3-10.756,1.352A14.362,14.362,0,0,0,676.33,348.8Z" fill="#871313"/>
          </g>
        </g>
      </g>
      <path id="Path_10" data-name="Path 10" d="M619.146,348.074A55.737,55.737,0,0,1,614.91,314l12.072-9.7Z" fill="#080603"/>
      <path id="Path_11" data-name="Path 11" d="M678.335,348.074A55.733,55.733,0,0,0,682.572,314L670.5,304.3Z" fill="#080603"/>
      <g id="Group_16" data-name="Group 16">
        <g id="Group_7" data-name="Group 7">
          <path id="Path_12" data-name="Path 12" d="M639.6,301.737a20.758,20.758,0,0,0-20.757,20.541l-.207,19.789c0,18.1,13.437,32.769,30.012,32.769s30.012-14.671,30.012-32.769l-.056-20.993a19.388,19.388,0,0,0-19.388-19.337Z" fill="#c06161"/>
          <path id="Path_13" data-name="Path 13" d="M678.611,324.116l-.009-3.042a19.388,19.388,0,0,0-19.388-19.337H639.6a20.758,20.758,0,0,0-20.757,20.541l-.019,1.771c9.287-4.386,31.5-13.7,45.895-10.05C669.905,315.316,674.57,319.208,678.611,324.116Z" fill="#b23a3a"/>
          <path id="Path_14" data-name="Path 14" d="M648.646,370.835a34.079,34.079,0,0,1-25.217-11.011c5.344,9.03,14.638,15.012,25.217,15.012s19.873-5.982,25.218-15.012A34.083,34.083,0,0,1,648.646,370.835Z" fill="#d97979"/>
        </g>
        <g id="Group_15" data-name="Group 15">
          <g id="Group_14" data-name="Group 14">
            <path id="Path_15" data-name="Path 15" d="M652.933,342.556c0,2.84-1.919,5.142-4.287,5.142s-4.286-2.3-4.286-5.142,1.919-6.392,4.286-6.392S652.933,339.716,652.933,342.556Z" fill="#a82929"/>
            <g id="Group_9" data-name="Group 9">
              <g id="Group_8" data-name="Group 8">
                <path id="Path_16" data-name="Path 16" d="M664.094,333.426c0,2.355-.8,4.264-1.781,4.264s-1.781-1.909-1.781-4.264.8-4.263,1.781-4.263S664.094,331.072,664.094,333.426Z" fill="#25110d"/>
              </g>
              <path id="Path_17" data-name="Path 17" d="M670.7,328.76c.23-.134-9.637-6.369-15.729-6.145-.076.1.121-5.441,8.2-2.539C671.005,323.3,670.629,328.85,670.7,328.76Z" fill="#080603"/>
            </g>
            <g id="Group_11" data-name="Group 11">
              <g id="Group_10" data-name="Group 10">
                <ellipse id="Ellipse_1" data-name="Ellipse 1" cx="1.781" cy="4.264" rx="1.781" ry="4.264" transform="translate(633.199 329.163)" fill="#25110d"/>
              </g>
              <path id="Path_18" data-name="Path 18" d="M625.692,328.76c-.23-.134,9.637-6.369,15.729-6.145.076.1-.121-5.441-8.2-2.539C625.387,323.3,625.763,328.85,625.692,328.76Z" fill="#080603"/>
            </g>
            <g id="Group_12" data-name="Group 12">
              <path id="Path_19" data-name="Path 19" d="M630.711,347.9a.788.788,0,0,1-.709-1.131l2.487-5.149a.788.788,0,1,1,1.42.685l-2.487,5.149A.79.79,0,0,1,630.711,347.9Z" fill="#a82929"/>
              <path id="Path_20" data-name="Path 20" d="M625.737,347.9a.788.788,0,0,1-.709-1.131l2.487-5.149a.789.789,0,0,1,1.421.685l-2.488,5.149A.788.788,0,0,1,625.737,347.9Z" fill="#a82929"/>
            </g>
            <g id="Group_13" data-name="Group 13">
              <path id="Path_21" data-name="Path 21" d="M666.109,347.9a.79.79,0,0,1-.711-.446l-2.487-5.149a.788.788,0,1,1,1.42-.685l2.488,5.149a.788.788,0,0,1-.71,1.131Z" fill="#a82929"/>
              <path id="Path_22" data-name="Path 22" d="M671.083,347.9a.788.788,0,0,1-.711-.446l-2.487-5.149a.788.788,0,1,1,1.42-.685l2.487,5.149a.788.788,0,0,1-.709,1.131Z" fill="#a82929"/>
            </g>
          </g>
          <path id="Path_23" data-name="Path 23" d="M645.807,353.473a14.768,14.768,0,0,1-6.971-1.869,1,1,0,1,1,.939-1.766c5.355,2.85,9.046,1.137,9.2,1.063a1,1,0,0,1,.885,1.794A9.705,9.705,0,0,1,645.807,353.473Z" fill="#a82929"/>
        </g>
      </g>
      <path id="Path_24" data-name="Path 24" d="M663.547,284.121c-11.3-3.182-57.261-8.177-60.847,27.37a22.62,22.62,0,0,1,13.232-4.823c-8.22,7.19-7.821,18.471-7.888,18.463,31.109-21.391,63.827-22.3,70.2-7.674C678.074,317.753,684.525,289.783,663.547,284.121Z" fill="#080603"/>
    </g>
  </g>
</svg>
