<svg xmlns="http://www.w3.org/2000/svg" width="145.268" height="147.26" viewBox="0 0 145.268 147.26">
  <g id="Group_289" data-name="Group 289" transform="translate(-321.466 -86.869)">
    <g id="Group_211" data-name="Group 211">
      <path id="Path_72" data-name="Path 72" d="M362.574,215.284s-23.968,4.82-24.981-15.363c-.438-8.735-1.616-7.369-9.254-14.735s-7.638-10.366-6-17.186,8.515-9.163,5.116-15.465c-4.478-8.3-3.105-22.489,6.625-28.02,9.406-5.347,10.465-5.275,10.465-10.758,0-7.161,7.435-18.7,22.775-17.5,13.2,1.031,11.145-5.389,20.5-8.249,17.418-5.327,25.858,9.759,31.859,10.305s16.386.647,21.657,8.623c6.537,9.892.762,17.965,8.946,18.783s16.368,7.911,16.095,15.277-4.638,13.639-1.637,16.913,4.164,22.661-7.945,26.372c-16.548,5.07,0,29.567-30.434,29.113C399,212.984,362.574,215.284,362.574,215.284Z" fill="#3f2037"/>
    </g>
    <g id="Group_213" data-name="Group 213">
      <g id="Group_212" data-name="Group 212">
        <path id="Path_73" data-name="Path 73" d="M461,234.129H323.8s1.378-17.118,9.662-20.428c1.713-.686,4.563-2.023,8.005-3.71.476-.235.966-.475,1.463-.722l.01,0q1.318-.653,2.721-1.358c6.673-3.346,14.521-7.42,20.632-10.62l2.061-1.079c4.844-2.546,8.173-4.316,8.173-4.316l1.048.235a65.376,65.376,0,0,0,29.593-.235s3.453,1.778,8.464,4.331c.064.034.126.065.191.1,3.024,1.543,6.6,3.36,10.326,5.233,10.007,5.039,21.049,10.491,25.19,12.148C459.625,217.011,461,234.129,461,234.129Z" fill="#0075cf"/>
      </g>
    </g>
    <g id="Group_214" data-name="Group 214">
      <path id="Path_74" data-name="Path 74" d="M393.76,224.993a34.787,34.787,0,0,1-8.728-1.106,30.165,30.165,0,0,1-9.567-4.179.75.75,0,1,1,.885-1.21,29.359,29.359,0,0,0,9.123,3.954,34.68,34.68,0,0,0,22.859-2.121.75.75,0,1,1,.6,1.373A37.459,37.459,0,0,1,393.76,224.993Z" fill="#0056a8"/>
    </g>
    <g id="Group_215" data-name="Group 215">
      <path id="Path_75" data-name="Path 75" d="M415.635,196.222C414.017,203.258,408.8,216.4,392.4,216.4c-17.458,0-22.618-14.019-24.046-20.194,4.844-2.546,8.173-4.316,8.173-4.316l1.048.235a65.376,65.376,0,0,0,29.593-.235S410.624,193.669,415.635,196.222Z" fill="#ffb8a1"/>
    </g>
    <g id="Group_216" data-name="Group 216">
      <path id="Path_76" data-name="Path 76" d="M351.384,234.129H323.8s1.378-17.118,9.662-20.428c1.713-.686,4.563-2.023,8.005-3.71.476-.235.966-.475,1.463-.722l.01,0q1.318-.653,2.721-1.358C347.725,213.659,351.144,224.547,351.384,234.129Z" fill="#ffb8a1"/>
    </g>
    <g id="Group_217" data-name="Group 217">
      <path id="Path_77" data-name="Path 77" d="M433.423,234.129H461s-1.378-17.118-9.661-20.428c-1.714-.686-4.563-2.023-8.005-3.71q-.716-.353-1.464-.722l-.01,0q-1.318-.653-2.721-1.358C437.081,213.659,433.662,224.547,433.423,234.129Z" fill="#ffb8a1"/>
    </g>
    <g id="Group_288" data-name="Group 288">
      <g id="Group_226" data-name="Group 226">
        <g id="Group_221" data-name="Group 221">
          <g id="Group_220" data-name="Group 220">
            <g id="Group_219" data-name="Group 219">
              <g id="Group_218" data-name="Group 218">
                <path id="Path_78" data-name="Path 78" d="M407.871,195.385s-2.691,8.458-15.055,8.458c-14.421,0-17.815-7.689-17.815-7.689a62.671,62.671,0,0,0,2.7-9.146h0a49.291,49.291,0,0,0,1.154-11.418l25.335-1c.234,2.145.615,4.671,1.046,7.212C406.379,188.546,407.871,195.385,407.871,195.385Z" fill="#ffb8a1"/>
              </g>
            </g>
          </g>
        </g>
        <g id="Group_225" data-name="Group 225">
          <g id="Group_224" data-name="Group 224">
            <g id="Group_223" data-name="Group 223">
              <g id="Group_222" data-name="Group 222">
                <path id="Path_79" data-name="Path 79" d="M405.234,181.8c-3.926,2.73-12.507,6.794-27.535,5.21a49.291,49.291,0,0,0,1.154-11.418l25.335-1C404.422,176.731,404.8,179.257,405.234,181.8Z" fill="#3f2037"/>
              </g>
            </g>
          </g>
        </g>
      </g>
      <g id="Group_242" data-name="Group 242">
        <g id="Group_241" data-name="Group 241">
          <g id="Group_230" data-name="Group 230">
            <g id="Group_229" data-name="Group 229">
              <g id="Group_228" data-name="Group 228">
                <g id="Group_227" data-name="Group 227">
                  <path id="Path_80" data-name="Path 80" d="M418.78,143.991s5.935-8.078,10.552-3.3-4.287,21.433-12.366,17.806Z" fill="#ffb8a1"/>
                </g>
              </g>
            </g>
          </g>
          <g id="Group_232" data-name="Group 232">
            <g id="Group_231" data-name="Group 231">
              <path id="Path_81" data-name="Path 81" d="M416.327,158.337a11.344,11.344,0,1,0,6.812-.976,10.992,10.992,0,0,0-1.558-.152,5.371,5.371,0,0,1,.27-1.281,12.425,12.425,0,0,1,2.548.381,12.633,12.633,0,1,1-7.886.534Z" fill="#fff7f1"/>
            </g>
          </g>
          <g id="Group_236" data-name="Group 236">
            <g id="Group_235" data-name="Group 235">
              <g id="Group_234" data-name="Group 234">
                <g id="Group_233" data-name="Group 233">
                  <path id="Path_82" data-name="Path 82" d="M421.168,153.538a.364.364,0,0,1-.057,0,.41.41,0,0,1-.35-.462,15.8,15.8,0,0,1,5.6-9.633.41.41,0,0,1,.5.653,15.243,15.243,0,0,0-5.287,9.092A.409.409,0,0,1,421.168,153.538Z" fill="#ff8a8a"/>
                </g>
              </g>
            </g>
          </g>
          <g id="Group_240" data-name="Group 240">
            <g id="Group_239" data-name="Group 239">
              <g id="Group_238" data-name="Group 238">
                <g id="Group_237" data-name="Group 237">
                  <path id="Path_83" data-name="Path 83" d="M422.411,149.507a.411.411,0,0,1-.34-.64c.978-1.446,3.63-1.3,3.742-1.291a.41.41,0,0,1-.05.819c-.638-.038-2.419.054-3.012.931A.412.412,0,0,1,422.411,149.507Z" fill="#ff8a8a"/>
                </g>
              </g>
            </g>
          </g>
        </g>
      </g>
      <g id="Group_260" data-name="Group 260">
        <g id="Group_259" data-name="Group 259">
          <g id="Group_246" data-name="Group 246">
            <g id="Group_245" data-name="Group 245">
              <g id="Group_244" data-name="Group 244">
                <g id="Group_243" data-name="Group 243">
                  <path id="Path_84" data-name="Path 84" d="M367.3,143.991s-5.935-8.078-10.552-3.3,4.287,21.433,12.366,17.806Z" fill="#ffb8a1"/>
                </g>
              </g>
            </g>
          </g>
          <g id="Group_248" data-name="Group 248">
            <g id="Group_247" data-name="Group 247">
              <path id="Path_85" data-name="Path 85" d="M368.909,156.843a12.632,12.632,0,1,1-7.887-.534,12.445,12.445,0,0,1,2.549-.381,5.372,5.372,0,0,1,.27,1.281,11.02,11.02,0,0,0-1.559.152,11.344,11.344,0,1,0,6.812.976Z" fill="#fff7f1"/>
            </g>
          </g>
          <g id="Group_250" data-name="Group 250">
            <g id="Group_249" data-name="Group 249">
              <path id="Path_86" data-name="Path 86" d="M368.909,156.843a12.632,12.632,0,1,1-7.887-.534,12.445,12.445,0,0,1,2.549-.381,5.372,5.372,0,0,1,.27,1.281,11.02,11.02,0,0,0-1.559.152,11.344,11.344,0,1,0,6.812.976Z" fill="#fff7f1"/>
            </g>
          </g>
          <g id="Group_254" data-name="Group 254">
            <g id="Group_253" data-name="Group 253">
              <g id="Group_252" data-name="Group 252">
                <g id="Group_251" data-name="Group 251">
                  <path id="Path_87" data-name="Path 87" d="M364.914,153.538a.364.364,0,0,0,.057,0,.41.41,0,0,0,.35-.462,15.8,15.8,0,0,0-5.6-9.633.41.41,0,0,0-.5.653,15.243,15.243,0,0,1,5.287,9.092A.409.409,0,0,0,364.914,153.538Z" fill="#ff8a8a"/>
                </g>
              </g>
            </g>
          </g>
          <g id="Group_258" data-name="Group 258">
            <g id="Group_257" data-name="Group 257">
              <g id="Group_256" data-name="Group 256">
                <g id="Group_255" data-name="Group 255">
                  <path id="Path_88" data-name="Path 88" d="M363.671,149.507a.411.411,0,0,0,.34-.64c-.978-1.446-3.63-1.3-3.742-1.291a.41.41,0,0,0,.05.819c.638-.038,2.419.054,3.012.931A.412.412,0,0,0,363.671,149.507Z" fill="#ff8a8a"/>
                </g>
              </g>
            </g>
          </g>
        </g>
      </g>
      <g id="Group_264" data-name="Group 264">
        <g id="Group_263" data-name="Group 263">
          <g id="Group_262" data-name="Group 262">
            <g id="Group_261" data-name="Group 261">
              <path id="Path_89" data-name="Path 89" d="M421.788,145.3c-.428,16.441-9.355,38.7-28.975,38.235-17.36-.407-25.981-16.881-28.08-31.909-.176-1.268-.307-2.528-.392-3.765C362.669,123.638,372.3,111.237,393,110.56q1.743-.058,3.594,0a59.4,59.4,0,0,1,7.237,1.206C418.132,116.452,422.236,128.015,421.788,145.3Z" fill="#ffb8a1"/>
            </g>
          </g>
        </g>
      </g>
      <g id="Group_266" data-name="Group 266" opacity="0.5">
        <g id="Group_265" data-name="Group 265">
          <path id="Path_90" data-name="Path 90" d="M383.03,155.161c0,1.9-3.5,3.433-7.817,3.433s-7.818-1.537-7.818-3.433,3.5-3.432,7.818-3.432S383.03,153.266,383.03,155.161Z" fill="#ff8a8a"/>
        </g>
      </g>
      <g id="Group_268" data-name="Group 268" opacity="0.5">
        <g id="Group_267" data-name="Group 267">
          <path id="Path_91" data-name="Path 91" d="M419.808,155.161c0,1.9-3.5,3.433-7.817,3.433s-7.817-1.537-7.817-3.433,3.5-3.432,7.817-3.432S419.808,153.266,419.808,155.161Z" fill="#ff8a8a"/>
        </g>
      </g>
      <g id="Group_271" data-name="Group 271">
        <g id="Group_269" data-name="Group 269">
          <path id="Path_92" data-name="Path 92" d="M381.552,125.364c-5.086.386-3.557,6.278-8.565,9.158-5.5,3.162-4.817,5.056-3.486,9.488,1.977,6.585-4.524,8.151-4.524,8.151-.082-.172-.165-.35-.244-.53-.176-1.268-.307-2.528-.392-3.765-1.672-24.228,6.07-38.347,28.655-37.306C395.8,121.169,388.357,124.847,381.552,125.364Z" fill="#3f2037"/>
        </g>
        <g id="Group_270" data-name="Group 270">
          <path id="Path_93" data-name="Path 93" d="M404.013,123.625c6.762-.108,4.4,6.892,8.394,10.112,4.936,3.981,6.555,2.289,4.386,8.812-2.242,6.745,4.2,9.612,4.2,9.612.083-.172.165-.35.245-.53.175-1.268.307-2.528.392-3.765,1.672-24.228-6.523-38.283-28.655-37.306C390.179,121.169,397.19,123.733,404.013,123.625Z" fill="#3f2037"/>
        </g>
      </g>
      <g id="Group_272" data-name="Group 272">
        <path id="Path_94" data-name="Path 94" d="M386.258,133.748c-2.653.061-8.438.769-11.041,5.587,0,0,5.978-2.84,10.981-2.536a1.526,1.526,0,0,0,1.605-1.718h0A1.525,1.525,0,0,0,386.258,133.748Z" fill="#3f2037"/>
      </g>
      <g id="Group_273" data-name="Group 273">
        <path id="Path_95" data-name="Path 95" d="M400.946,133.748c2.653.061,8.438.769,11.04,5.587,0,0-5.978-2.84-10.98-2.536a1.526,1.526,0,0,1-1.606-1.718h0A1.524,1.524,0,0,1,400.946,133.748Z" fill="#3f2037"/>
      </g>
      <g id="Group_274" data-name="Group 274">
        <path id="Path_96" data-name="Path 96" d="M394.381,161.331a7.78,7.78,0,0,1-3.071-.731.749.749,0,0,1-.445-.784l1.568-12.045a.75.75,0,0,1,1.488.193l-1.494,11.47a3.916,3.916,0,0,0,3.745-.143.75.75,0,1,1,.838,1.243A4.59,4.59,0,0,1,394.381,161.331Z" fill="#ff8a8a"/>
      </g>
      <g id="Group_275" data-name="Group 275">
        <path id="Path_97" data-name="Path 97" d="M392.893,169.293a16.21,16.21,0,0,1-1.854-.107,17.223,17.223,0,0,1-5.925-1.771.75.75,0,0,1,.731-1.31h0c.361.2,8.939,4.834,16.365-2.036a.75.75,0,0,1,1.019,1.1A14.89,14.89,0,0,1,392.893,169.293Z" fill="#ff8a8a"/>
      </g>
      <g id="Group_276" data-name="Group 276">
        <path id="Path_98" data-name="Path 98" d="M394.2,173.692a11.909,11.909,0,0,1-3.242-.457.75.75,0,0,1,.446-1.432c.042.013,3.475,1.047,5.892-.32a.75.75,0,1,1,.738,1.3A7.785,7.785,0,0,1,394.2,173.692Z" fill="#ff8a8a"/>
      </g>
      <g id="Group_287" data-name="Group 287">
        <g id="Group_281" data-name="Group 281">
          <g id="Group_280" data-name="Group 280">
            <g id="Group_279" data-name="Group 279">
              <g id="Group_278" data-name="Group 278">
                <g id="Group_277" data-name="Group 277">
                  <path id="Path_99" data-name="Path 99" d="M384.088,145.274c.036,2.094-.735,3.8-1.724,3.822s-1.821-1.666-1.857-3.76.736-3.806,1.724-3.823S384.052,143.18,384.088,145.274Z" fill="#3f2037"/>
                </g>
              </g>
            </g>
          </g>
        </g>
        <g id="Group_286" data-name="Group 286">
          <g id="Group_285" data-name="Group 285">
            <g id="Group_284" data-name="Group 284">
              <g id="Group_283" data-name="Group 283">
                <g id="Group_282" data-name="Group 282">
                  <path id="Path_100" data-name="Path 100" d="M402.8,145.274c-.036,2.094.736,3.8,1.724,3.822s1.821-1.666,1.857-3.76-.735-3.806-1.724-3.823S402.841,143.18,402.8,145.274Z" fill="#3f2037"/>
                </g>
              </g>
            </g>
          </g>
        </g>
      </g>
    </g>
  </g>
</svg>
