<svg xmlns="http://www.w3.org/2000/svg" width="137.2" height="153.081" viewBox="0 0 137.2 153.081">
  <g id="Group_112" data-name="Group 112" transform="translate(-27.274 -81.047)">
    <g id="Group_2" data-name="Group 2">
      <g id="Group_1" data-name="Group 1">
        <path id="Path_1" data-name="Path 1" d="M58.483,207.424s-10.181-8.566-4.158-22.55,23.619-16.049,40.56-16.054c25.845-.007,56.717,8.888,36.121,38.6C131.006,207.424,105.364,224.383,58.483,207.424Z" fill="#ff9a40"/>
      </g>
    </g>
    <g id="Group_4" data-name="Group 4">
      <g id="Group_3" data-name="Group 3">
        <path id="Path_2" data-name="Path 2" d="M83.975,190.677a.774.774,0,0,1-.735-.536c-1.889-5.849-7.1-9.528-7.155-9.565a.773.773,0,0,1,.881-1.27,22.253,22.253,0,0,1,7.745,10.36.773.773,0,0,1-.5.973A.789.789,0,0,1,83.975,190.677Z" fill="#e96d17"/>
      </g>
    </g>
    <g id="Group_6" data-name="Group 6">
      <g id="Group_5" data-name="Group 5">
        <path id="Path_3" data-name="Path 3" d="M94.938,201.073a.773.773,0,0,1-.651-.356c-6.74-10.5-26.8-13.54-27-13.569a.773.773,0,0,1,.223-1.53c.852.125,20.954,3.172,28.076,14.264a.774.774,0,0,1-.65,1.191Z" fill="#e96d17"/>
      </g>
    </g>
    <g id="Group_8" data-name="Group 8">
      <g id="Group_7" data-name="Group 7">
        <path id="Path_4" data-name="Path 4" d="M164.474,234.128H27.274s1.378-17.115,9.661-20.429c3.347-1.339,11.017-5.155,18.976-9.231,11.12-5.694,22.8-11.89,23.989-12.524l.1-.054,1.048.237q1.968.441,3.95.755,1.959.316,3.929.51a65.447,65.447,0,0,0,21.681-1.494l.033-.008s8.974,4.625,18.981,9.662c1.28.644,2.579,1.3,3.877,1.947,8.845,4.427,17.7,8.755,21.312,10.2C163.093,217.013,164.474,234.128,164.474,234.128Z" fill="#ff9a40"/>
      </g>
    </g>
    <g id="Group_19" data-name="Group 19">
      <g id="Group_13" data-name="Group 13">
        <g id="Group_12" data-name="Group 12">
          <g id="Group_11" data-name="Group 11">
            <g id="Group_10" data-name="Group 10">
              <g id="Group_9" data-name="Group 9">
                <path id="Path_5" data-name="Path 5" d="M102.241,212.342a43.809,43.809,0,0,1-18.257-4.028,41.5,41.5,0,0,1-11.214-7.356.722.722,0,0,1,1.02-1.023,40.89,40.89,0,0,0,10.848,7.09,42.13,42.13,0,0,0,28.443,2.462.722.722,0,1,1,.364,1.4A44.341,44.341,0,0,1,102.241,212.342Z" fill="#e96d17"/>
              </g>
            </g>
          </g>
        </g>
      </g>
      <g id="Group_18" data-name="Group 18">
        <g id="Group_17" data-name="Group 17">
          <g id="Group_16" data-name="Group 16">
            <g id="Group_15" data-name="Group 15">
              <g id="Group_14" data-name="Group 14">
                <path id="Path_6" data-name="Path 6" d="M98.683,219.3a39.049,39.049,0,0,1-7.994-.847.722.722,0,1,1,.295-1.414c14.262,2.978,23.179-3.276,23.267-3.339a.722.722,0,1,1,.843,1.172C114.786,215.1,108.786,219.3,98.683,219.3Z" fill="#e96d17"/>
              </g>
            </g>
          </g>
        </g>
      </g>
    </g>
    <g id="Group_107" data-name="Group 107">
      <g id="Group_30" data-name="Group 30">
        <g id="Group_24" data-name="Group 24">
          <g id="Group_23" data-name="Group 23">
            <g id="Group_22" data-name="Group 22">
              <g id="Group_21" data-name="Group 21">
                <g id="Group_20" data-name="Group 20">
                  <path id="Path_7" data-name="Path 7" d="M111.34,195.385s-2.691,8.458-15.054,8.458c-14.421,0-17.816-7.689-17.816-7.689a62.543,62.543,0,0,0,2.695-9.146h0a49.221,49.221,0,0,0,1.153-11.418l25.335-1c.235,2.145.616,4.671,1.046,7.212C109.849,188.546,111.34,195.385,111.34,195.385Z" fill="#ffb8a1"/>
                </g>
              </g>
            </g>
          </g>
        </g>
        <g id="Group_29" data-name="Group 29">
          <g id="Group_28" data-name="Group 28">
            <g id="Group_27" data-name="Group 27">
              <g id="Group_26" data-name="Group 26">
                <g id="Group_25" data-name="Group 25">
                  <path id="Path_8" data-name="Path 8" d="M108.7,181.8c-3.925,2.73-12.506,6.794-27.534,5.21a49.221,49.221,0,0,0,1.153-11.418l25.335-1C107.892,176.731,108.273,179.257,108.7,181.8Z" fill="#3f2037"/>
                </g>
              </g>
            </g>
          </g>
        </g>
      </g>
      <g id="Group_47" data-name="Group 47">
        <g id="Group_46" data-name="Group 46">
          <g id="Group_35" data-name="Group 35">
            <g id="Group_34" data-name="Group 34">
              <g id="Group_33" data-name="Group 33">
                <g id="Group_32" data-name="Group 32">
                  <g id="Group_31" data-name="Group 31">
                    <path id="Path_9" data-name="Path 9" d="M72.651,142.55s-7.84-10.672-13.939-4.356,5.663,28.314,16.335,23.522Z" fill="#ffb8a1"/>
                  </g>
                </g>
              </g>
            </g>
          </g>
          <g id="Group_40" data-name="Group 40">
            <g id="Group_39" data-name="Group 39">
              <g id="Group_38" data-name="Group 38">
                <g id="Group_37" data-name="Group 37">
                  <g id="Group_36" data-name="Group 36">
                    <path id="Path_10" data-name="Path 10" d="M68.912,155.161a.542.542,0,0,1-.536-.467c-1.031-7.415-6.924-11.966-6.984-12.011a.541.541,0,1,1,.655-.862,20.869,20.869,0,0,1,7.4,12.724.542.542,0,0,1-.462.611A.473.473,0,0,1,68.912,155.161Z" fill="#ff8a8a"/>
                  </g>
                </g>
              </g>
            </g>
          </g>
          <g id="Group_45" data-name="Group 45">
            <g id="Group_44" data-name="Group 44">
              <g id="Group_43" data-name="Group 43">
                <g id="Group_42" data-name="Group 42">
                  <g id="Group_41" data-name="Group 41">
                    <path id="Path_11" data-name="Path 11" d="M67.27,149.836a.54.54,0,0,1-.449-.239c-.787-1.163-3.141-1.282-3.978-1.23a.542.542,0,1,1-.068-1.081c.149-.01,3.651-.205,4.943,1.705a.541.541,0,0,1-.448.845Z" fill="#ff8a8a"/>
                  </g>
                </g>
              </g>
            </g>
          </g>
        </g>
      </g>
      <g id="Group_64" data-name="Group 64">
        <g id="Group_63" data-name="Group 63">
          <g id="Group_52" data-name="Group 52">
            <g id="Group_51" data-name="Group 51">
              <g id="Group_50" data-name="Group 50">
                <g id="Group_49" data-name="Group 49">
                  <g id="Group_48" data-name="Group 48">
                    <path id="Path_12" data-name="Path 12" d="M120.416,142.55s7.841-10.672,13.939-4.356-5.662,28.314-16.335,23.522Z" fill="#ffb8a1"/>
                  </g>
                </g>
              </g>
            </g>
          </g>
          <g id="Group_57" data-name="Group 57">
            <g id="Group_56" data-name="Group 56">
              <g id="Group_55" data-name="Group 55">
                <g id="Group_54" data-name="Group 54">
                  <g id="Group_53" data-name="Group 53">
                    <path id="Path_13" data-name="Path 13" d="M124.156,155.161a.473.473,0,0,1-.075,0,.541.541,0,0,1-.462-.611,20.865,20.865,0,0,1,7.4-12.724.542.542,0,1,1,.656.862c-.06.045-5.956,4.612-6.984,12.011A.542.542,0,0,1,124.156,155.161Z" fill="#ff8a8a"/>
                  </g>
                </g>
              </g>
            </g>
          </g>
          <g id="Group_62" data-name="Group 62">
            <g id="Group_61" data-name="Group 61">
              <g id="Group_60" data-name="Group 60">
                <g id="Group_59" data-name="Group 59">
                  <g id="Group_58" data-name="Group 58">
                    <path id="Path_14" data-name="Path 14" d="M125.8,149.836a.542.542,0,0,1-.448-.846c1.291-1.909,4.794-1.713,4.943-1.7a.542.542,0,0,1-.067,1.081c-.842-.05-3.195.071-3.979,1.231A.543.543,0,0,1,125.8,149.836Z" fill="#ff8a8a"/>
                  </g>
                </g>
              </g>
            </g>
          </g>
        </g>
      </g>
      <g id="Group_69" data-name="Group 69">
        <g id="Group_68" data-name="Group 68">
          <g id="Group_67" data-name="Group 67">
            <g id="Group_66" data-name="Group 66">
              <g id="Group_65" data-name="Group 65">
                <path id="Path_15" data-name="Path 15" d="M103.146,111.44c-21.933-5.352-41.785,14.476-36.838,36.5,3.492,15.548,11.152,35.155,29.976,35.6,19.617.462,27.49-20.9,30.291-37.106a30.45,30.45,0,0,0-20.388-34.125Q104.7,111.823,103.146,111.44Z" fill="#ffb8a1"/>
              </g>
            </g>
          </g>
        </g>
      </g>
      <g id="Group_71" data-name="Group 71">
        <g id="Group_70" data-name="Group 70">
          <path id="Path_16" data-name="Path 16" d="M97.85,161.354a7.812,7.812,0,0,1-3.08-.732.773.773,0,0,1-.458-.809l1.568-12.045a.773.773,0,1,1,1.533.2l-1.491,11.451a3.876,3.876,0,0,0,3.706-.147.773.773,0,1,1,.864,1.282A4.607,4.607,0,0,1,97.85,161.354Z" fill="#ff8a8a"/>
        </g>
      </g>
      <g id="Group_73" data-name="Group 73">
        <g id="Group_72" data-name="Group 72">
          <path id="Path_17" data-name="Path 17" d="M96.417,169.295a17.857,17.857,0,0,1-7.844-1.86.773.773,0,0,1,.753-1.35c.375.207,8.932,4.818,16.338-2.033a.773.773,0,0,1,1.05,1.135A14.791,14.791,0,0,1,96.417,169.295Z" fill="#ff8a8a"/>
        </g>
      </g>
      <g id="Group_75" data-name="Group 75">
        <g id="Group_74" data-name="Group 74">
          <path id="Path_18" data-name="Path 18" d="M97.671,173.714a11.951,11.951,0,0,1-3.248-.457.773.773,0,0,1,.46-1.476h0c.034.011,3.462,1.045,5.873-.318a.773.773,0,0,1,.761,1.346A7.822,7.822,0,0,1,97.671,173.714Z" fill="#ff8a8a"/>
        </g>
      </g>
      <g id="Group_77" data-name="Group 77">
        <g id="Group_76" data-name="Group 76">
          <path id="Path_19" data-name="Path 19" d="M81.35,139.37a20.926,20.926,0,0,1,6.456-2.343,2.017,2.017,0,0,0,1.634-2.669l-.088-.244a2.006,2.006,0,0,0-2.1-1.322c-2.108.224-5.842.962-8.279,3.39a2,2,0,0,0-.487,2.019h0A2.008,2.008,0,0,0,81.35,139.37Z" fill="#3f2037"/>
        </g>
      </g>
      <g id="Group_79" data-name="Group 79">
        <g id="Group_78" data-name="Group 78">
          <path id="Path_20" data-name="Path 20" d="M113.338,139.37a20.935,20.935,0,0,0-6.456-2.343,2.017,2.017,0,0,1-1.634-2.669l.087-.244a2.007,2.007,0,0,1,2.1-1.322c2.108.224,5.843.962,8.279,3.39a2,2,0,0,1,.487,2.019h0A2.007,2.007,0,0,1,113.338,139.37Z" fill="#3f2037"/>
        </g>
      </g>
      <g id="Group_81" data-name="Group 81" opacity="0.5">
        <g id="Group_80" data-name="Group 80">
          <path id="Path_21" data-name="Path 21" d="M87.012,153.268c0,1.9-3.5,3.433-7.818,3.433s-7.817-1.537-7.817-3.433,3.5-3.432,7.817-3.432S87.012,151.373,87.012,153.268Z" fill="#ff8a8a"/>
        </g>
      </g>
      <g id="Group_83" data-name="Group 83" opacity="0.5">
        <g id="Group_82" data-name="Group 82">
          <path id="Path_22" data-name="Path 22" d="M123.79,153.268c0,1.9-3.5,3.433-7.817,3.433s-7.817-1.537-7.817-3.433,3.5-3.432,7.817-3.432S123.79,151.373,123.79,153.268Z" fill="#ff8a8a"/>
        </g>
      </g>
      <g id="Group_88" data-name="Group 88">
        <g id="Group_87" data-name="Group 87">
          <g id="Group_86" data-name="Group 86">
            <g id="Group_85" data-name="Group 85">
              <g id="Group_84" data-name="Group 84">
                <path id="Path_23" data-name="Path 23" d="M67.123,151.328s-4.12-22.7-2.846-27.886,3.932-4.239,3.932-4.239S45.99,100.993,57.04,90.671c8-7.472,17.2,8.516,17.2,8.516S69.688,83.469,76.164,81.31c8.073-2.691,11.725,16.147,11.725,16.147S87.223,83.4,93.784,83.681c9.1.385,3.973,10.893,13.84,14.994s24.775,6.183,19.4,22.714c0,0,7.239-.316-1.767,29.184h0a17.618,17.618,0,0,1-3.3-11.134c.148-3.052.132-6.588-.494-8.761,0,0-5.638-3.939-5.382-9.706,0,0-19.863,11.79-38.188,1.282,0,0,1.153,6.792-4.614,7.817a40.01,40.01,0,0,0-2.5,10.7A23.649,23.649,0,0,1,67.3,151.04Z" fill="#3f2037"/>
              </g>
            </g>
          </g>
        </g>
      </g>
      <g id="Group_93" data-name="Group 93">
        <g id="Group_92" data-name="Group 92">
          <g id="Group_91" data-name="Group 91">
            <g id="Group_90" data-name="Group 90">
              <g id="Group_89" data-name="Group 89">
                <path id="Path_24" data-name="Path 24" d="M125.184,111.019s3.138-10.712,8.207-7.971c3.618,1.957-4.811,10.107-4.811,10.107s7.091-3.833,10.589-1.132-5.785,5.893-11.135,4.98S125.184,111.019,125.184,111.019Z" fill="#3f2037"/>
              </g>
            </g>
          </g>
        </g>
      </g>
      <g id="Group_106" data-name="Group 106">
        <g id="Group_99" data-name="Group 99">
          <g id="Group_98" data-name="Group 98">
            <g id="Group_97" data-name="Group 97">
              <g id="Group_96" data-name="Group 96">
                <g id="Group_95" data-name="Group 95">
                  <g id="Group_94" data-name="Group 94">
                    <path id="Path_25" data-name="Path 25" d="M87.558,145.274c.036,2.094-.736,3.8-1.725,3.822s-1.82-1.666-1.856-3.76.735-3.806,1.724-3.823S87.521,143.18,87.558,145.274Z" fill="#3f2037"/>
                  </g>
                </g>
              </g>
            </g>
          </g>
        </g>
        <g id="Group_105" data-name="Group 105">
          <g id="Group_104" data-name="Group 104">
            <g id="Group_103" data-name="Group 103">
              <g id="Group_102" data-name="Group 102">
                <g id="Group_101" data-name="Group 101">
                  <g id="Group_100" data-name="Group 100">
                    <path id="Path_26" data-name="Path 26" d="M106.274,145.274c-.037,2.094.735,3.8,1.724,3.822s1.82-1.666,1.857-3.76-.736-3.806-1.725-3.823S106.31,143.18,106.274,145.274Z" fill="#3f2037"/>
                  </g>
                </g>
              </g>
            </g>
          </g>
        </g>
      </g>
    </g>
    <g id="Group_109" data-name="Group 109">
      <g id="Group_108" data-name="Group 108">
        <path id="Path_27" data-name="Path 27" d="M75.819,212.61v21.518H74.273V212.61a.773.773,0,1,1,1.546,0Z" fill="#fff"/>
      </g>
    </g>
    <g id="Group_111" data-name="Group 111">
      <g id="Group_110" data-name="Group 110">
        <path id="Path_28" data-name="Path 28" d="M118.794,212.61v21.518h-1.546V212.61a.772.772,0,0,1,1.5-.243A.7.7,0,0,1,118.794,212.61Z" fill="#fff"/>
      </g>
    </g>
  </g>
</svg>
