<svg xmlns="http://www.w3.org/2000/svg" width="144.486" height="151.667" viewBox="0 0 144.486 151.667">
  <g id="Group_99" data-name="Group 99" transform="translate(-331.251 -284.482)">
    <path id="Path_111" data-name="Path 111" d="M451.338,398.085a129.68,129.68,0,0,1-8.841-38.48l-3.02-41.268a36.52,36.52,0,0,0-36.423-33.855h0A36.52,36.52,0,0,0,366.6,318.808l-2.253,37.434a129.681,129.681,0,0,1-9.711,42.012l-.969,2.331h15a129.7,129.7,0,0,0,7.48-43.408V324.649c5.258-.447,14.238-3.4,17.417-7.608a12.813,12.813,0,0,0,10.319,7.381,7.515,7.515,0,0,1-2.086-5.893,20.439,20.439,0,0,0,12.035,6.571c4.613.881,12.315.852,17.008.665v36.152a129.683,129.683,0,0,0,4.7,34.58l1.131,4.088h15.666Z" fill="#3c3247"/>
    <rect id="Rectangle_2" data-name="Rectangle 2" width="64.496" height="74.29" transform="translate(370.667 320.815)" fill="#3c3247"/>
    <g id="Group_89" data-name="Group 89">
      <g id="Group_88" data-name="Group 88">
        <path id="Path_112" data-name="Path 112" d="M414.962,368.649c-2.974,4.088-6.863,6.355-10.9,6.355h-1.141c-4.035,0-7.924-2.267-10.9-6.355l-.791-1.087v10.792l-2.953,1.172,1.216,1.743a17.065,17.065,0,0,0,27.993,0l1.217-1.743-2.954-1.172V367.562Z" fill="#f0bf9c"/>
        <path id="Path_113" data-name="Path 113" d="M402.923,375h1.141c4.035,0,7.924-2.267,10.9-6.355l.791-1.087v-14.31H391.234v14.31l.791,1.087C395,372.737,398.888,375,402.923,375Z" fill="#3c3247"/>
      </g>
      <path id="Path_114" data-name="Path 114" d="M471,416.745a36.362,36.362,0,0,0-21.921-25.175l-30.371-12.044-1.217,1.743a17.065,17.065,0,0,1-27.993,0l-1.216-1.743L357.909,391.57a36.359,36.359,0,0,0-21.92,25.175l-4.738,19.4H475.737Z" fill="#f0bf9c"/>
      <path id="Path_115" data-name="Path 115" d="M442.294,417.143a27.553,27.553,0,0,1,.867-18.3l3.27-8.04a1.388,1.388,0,1,0-2.574-1.038l-3.532,8.829a28.6,28.6,0,0,1-10.116,12.78L403,430.482l-27.21-19.113a28.6,28.6,0,0,1-10.115-12.78l-3.532-8.829a1.388,1.388,0,1,0-2.574,1.038l3.27,8.04a27.553,27.553,0,0,1,.867,18.3L358,436.149h90Z" fill="#cc6164"/>
    </g>
    <g id="Group_93" data-name="Group 93">
      <path id="Path_116" data-name="Path 116" d="M413.832,325.1a20.439,20.439,0,0,1-12.035-6.571,7.515,7.515,0,0,0,2.086,5.893,12.813,12.813,0,0,1-10.319-7.381c-3.179,4.212-12.159,7.161-17.417,7.608v11.438a36.192,36.192,0,0,0,11.737,26.68l1.139,1.044a20.35,20.35,0,0,0,13.751,5.349h1.44a20.354,20.354,0,0,0,13.751-5.349l1.139-1.044a36.2,36.2,0,0,0,11.736-26.68V325.765C426.147,325.952,418.445,325.981,413.832,325.1Z" fill="#f0bf9c"/>
      <g id="Group_92" data-name="Group 92">
        <path id="Path_117" data-name="Path 117" d="M393.755,329.63a2.482,2.482,0,1,1-2.481-2.481A2.481,2.481,0,0,1,393.755,329.63Z" fill="#3c3247"/>
        <path id="Path_118" data-name="Path 118" d="M413.233,329.63a2.481,2.481,0,1,0,2.481-2.481A2.481,2.481,0,0,0,413.233,329.63Z" fill="#3c3247"/>
        <path id="Path_119" data-name="Path 119" d="M407.88,342.379a28.519,28.519,0,0,0-8.773.418,6.033,6.033,0,0,0,4.468,2.606C405.264,345.408,406.9,343.757,407.88,342.379Z" fill="#eba588"/>
        <g id="Group_90" data-name="Group 90">
          <path id="Path_120" data-name="Path 120" d="M396.993,333a19.162,19.162,0,0,0-11.582.528A19.162,19.162,0,0,0,396.993,333Z" fill="#eba588"/>
        </g>
        <g id="Group_91" data-name="Group 91">
          <path id="Path_121" data-name="Path 121" d="M409.994,333a19.162,19.162,0,0,1,11.582.528A19.162,19.162,0,0,1,409.994,333Z" fill="#eba588"/>
        </g>
        <path id="Path_122" data-name="Path 122" d="M413.625,347.535a36.6,36.6,0,0,1-20.3,1.295c1.085,1.673,2.048,3.664,3.521,5.007a9.234,9.234,0,0,0,5.3,2.534,9.477,9.477,0,0,0,6.687-2.424C410.707,352.392,413.233,349.816,413.625,347.535Z" fill="#fff"/>
        <path id="Path_123" data-name="Path 123" d="M406.878,357.92l-7.207.353a4.644,4.644,0,0,0,3.616,1.742A4.971,4.971,0,0,0,406.878,357.92Z" fill="#eba588"/>
      </g>
    </g>
    <g id="Group_98" data-name="Group 98">
      <g id="Group_94" data-name="Group 94">
        <path id="Path_124" data-name="Path 124" d="M433.842,314.35a26.708,26.708,0,0,0-3-10.561,29.625,29.625,0,0,0-19.55-15.263,26.715,26.715,0,0,0-10.973-.346,46.3,46.3,0,0,1,10.3,2.546,38.112,38.112,0,0,1,18.246,14.245A46.22,46.22,0,0,1,433.842,314.35Z" fill="#584d66"/>
      </g>
      <g id="Group_95" data-name="Group 95">
        <path id="Path_125" data-name="Path 125" d="M391.979,293.113a23.436,23.436,0,0,0-14.19,19.893,43.206,43.206,0,0,1,14.19-19.893Z" fill="#584d66"/>
      </g>
      <g id="Group_96" data-name="Group 96">
        <path id="Path_126" data-name="Path 126" d="M421.28,316.338A36.206,36.206,0,0,0,401.594,293a89.365,89.365,0,0,1,19.686,23.338Z" fill="#584d66"/>
      </g>
      <g id="Group_97" data-name="Group 97">
        <path id="Path_127" data-name="Path 127" d="M399.9,318.591a73.514,73.514,0,0,1-2.009-25.555,30.175,30.175,0,0,0,2.009,25.555Z" fill="#584d66"/>
      </g>
    </g>
  </g>
</svg>
