<svg xmlns="http://www.w3.org/2000/svg" width="112.124" height="128.84" viewBox="0 0 112.124 128.84">
  <g id="Group_76" data-name="Group 76" transform="translate(-189.464 -274.389)">
    <g id="Group_51" data-name="Group 51">
      <path id="Path_77" data-name="Path 77" d="M190.15,336.8c.941-5.81,1.949-11.8,5.107-16.767,2.83-4.453,7.473-8.458,7.2-13.727-.134-2.6-1.512-5.007-1.7-7.605-.3-4.145,2.748-8.138,6.691-9.449a11.1,11.1,0,0,1,9.122.778c.014-.043.024-.087.038-.13,4.153-12.554,25.318-17.273,36.553-14.936a35.9,35.9,0,0,1,26.367,23.823,77.14,77.14,0,0,0,2.5,8c4.832,10.956,15.563,10.009,18.978,27.847,2.891,15.1-5.536,31.57-14.033,37.193-22.12,14.638-62.055,10.838-76.108,6.071C186.01,369.47,189.148,342.988,190.15,336.8Z" fill="#e83f53"/>
      <path id="Path_78" data-name="Path 78" d="M197.55,343.065s-1.437,18.15,8.94,33.034a36.315,36.315,0,0,0,4.377,1.8c12.835,4.354,47.25,7.892,69.973-2.676,4.951-8.156,7.25-18.88,5.274-32.161Z" fill="#bf2133"/>
      <path id="Path_79" data-name="Path 79" d="M250.953,280.247c18.3,2.927,29.379,21.346,29.379,21.346v0c-.255-.938-.511-1.877-.8-2.8a35.9,35.9,0,0,0-26.367-23.823c-11.235-2.337-32.4,2.382-36.553,14.936-.014.043-.024.087-.038.13C216.571,290.032,232.647,277.319,250.953,280.247Z" fill="#ff7081"/>
      <path id="Path_80" data-name="Path 80" d="M207.449,289.254a9.962,9.962,0,0,0-6.62,7.725,33.17,33.17,0,0,1,15.541-7.044A11.077,11.077,0,0,0,207.449,289.254Z" fill="#ff7081"/>
    </g>
    <g id="Group_75" data-name="Group 75">
      <g id="Group_53" data-name="Group 53">
        <path id="Path_81" data-name="Path 81" d="M210.664,388.443c17.572-7.071,23.358-15.857,21.858-28.5h19.322c-1.5,12.643,4.286,21.429,21.858,28.5s19.929,14.786,19.929,14.786h-102.9S193.093,395.515,210.664,388.443Z" fill="#ffdf57"/>
        <g id="Group_52" data-name="Group 52">
          <path id="Path_82" data-name="Path 82" d="M251.844,359.943H232.522c1.091,9.194-1.678,16.347-10.023,22.285a28.422,28.422,0,0,0,40.661.88C253.808,377,250.7,369.6,251.844,359.943Z" fill="#ffa3a3"/>
          <path id="Path_83" data-name="Path 83" d="M244.558,359.943H232.522c.708,5.97-.225,11.076-3.242,15.551a25.588,25.588,0,0,0,12.815,3.1,47,47,0,0,0,13.378-2.547c-3.325-4.607-4.367-9.888-3.629-16.106Z" fill="#ff8282"/>
        </g>
      </g>
      <g id="Group_74" data-name="Group 74">
        <g id="Group_56" data-name="Group 56">
          <g id="Group_54" data-name="Group 54">
            <path id="Path_84" data-name="Path 84" d="M217.053,337.124c3.23,6.18,1.877,13.266-3.024,15.829s-11.493-.37-14.723-6.55-1.877-13.265,3.024-15.828S213.822,330.945,217.053,337.124Z" fill="#ff8282"/>
            <path id="Path_85" data-name="Path 85" d="M214.218,348.922c-.019-.251-.067-.469-.094-.712.037.176.06.322.073.439a9.12,9.12,0,0,0-.533-3.1,14.989,14.989,0,0,0-12.333-11.513,32.321,32.321,0,0,1,9.964,9.024c-3.517-1.433-8.953,1.6-8.953,1.6,6.449-1.71,9.383-.294,10.73,1.348A14.313,14.313,0,0,1,214.218,348.922Z" fill="#ff4f4f"/>
          </g>
          <g id="Group_55" data-name="Group 55">
            <path id="Path_86" data-name="Path 86" d="M266.611,337.124c-3.23,6.18-1.877,13.266,3.024,15.829s11.493-.37,14.724-6.55,1.877-13.265-3.024-15.828S269.842,330.945,266.611,337.124Z" fill="#ff8282"/>
            <path id="Path_87" data-name="Path 87" d="M269.446,348.922c.02-.251.067-.469.094-.712-.037.176-.06.322-.073.439a9.093,9.093,0,0,1,.534-3.1,14.987,14.987,0,0,1,12.332-11.513,32.315,32.315,0,0,0-9.963,9.024c3.516-1.433,8.952,1.6,8.952,1.6-6.449-1.71-9.383-.294-10.729,1.348A14.289,14.289,0,0,0,269.446,348.922Z" fill="#ff4f4f"/>
          </g>
        </g>
        <g id="Group_73" data-name="Group 73">
          <g id="Group_58" data-name="Group 58">
            <g id="Group_57" data-name="Group 57">
              <path id="Path_88" data-name="Path 88" d="M242.1,373.492c21.561-1.209,30.428-13.623,30.428-30.427V324.209a22.616,22.616,0,0,0-22.616-22.616H234.284c-12.491,0-15.475,7.049-17.724,24.777-.547,4.315-4.957,9.739-4.893,16.7C211.823,359.869,228.993,374.227,242.1,373.492Z" fill="#fdbfa8"/>
            </g>
            <path id="Path_89" data-name="Path 89" d="M241.416,355.395s7,.63,10.256-3.555c0,0,.232,4-3.323,5.108S241.416,355.395,241.416,355.395Z" fill="#ff8282" opacity="0.47"/>
            <path id="Path_90" data-name="Path 90" d="M242.1,366.3c-10.4.526-23.108-6.663-29.575-16.942,3.628,13.931,18.148,24.773,29.575,24.132,17.141-.961,26.251-9.007,29.27-20.707C266.339,360.507,256.922,365.554,242.1,366.3Z" fill="#fdd3c3"/>
          </g>
          <g id="Group_72" data-name="Group 72">
            <g id="Group_71" data-name="Group 71">
              <g id="Group_70" data-name="Group 70">
                <g id="Group_60" data-name="Group 60">
                  <g id="Group_59" data-name="Group 59">
                    <path id="Path_91" data-name="Path 91" d="M257.173,334.638c0,2.355-.834,4.263-1.862,4.263s-1.862-1.909-1.863-4.263.834-4.263,1.863-4.263S257.173,332.284,257.173,334.638Z" fill="#2e230e"/>
                  </g>
                </g>
                <g id="Group_62" data-name="Group 62">
                  <g id="Group_61" data-name="Group 61">
                    <path id="Path_92" data-name="Path 92" d="M227.229,334.638c0,2.354.833,4.263,1.861,4.262s1.862-1.908,1.863-4.262-.834-4.263-1.863-4.263S227.228,332.283,227.229,334.638Z" fill="#2e230e"/>
                  </g>
                  <path id="Path_93" data-name="Path 93" d="M219.846,329.582s9.563-5.144,14.7-5.772a5.751,5.751,0,0,0-7.77-3.407A10.1,10.1,0,0,0,219.846,329.582Z" fill="#a31727"/>
                  <path id="Path_94" data-name="Path 94" d="M264.345,329.582s-9.563-5.144-14.7-5.772a5.752,5.752,0,0,1,7.771-3.407A10.1,10.1,0,0,1,264.345,329.582Z" fill="#a31727"/>
                </g>
                <path id="Path_95" data-name="Path 95" d="M246.771,343.465a3.513,3.513,0,1,1-7.025,0c0-1.98,1.573-7.26,3.513-7.26S246.771,341.484,246.771,343.465Z" fill="#ff8282"/>
                <g id="Group_69" data-name="Group 69">
                  <g id="Group_63" data-name="Group 63">
                    <path id="Path_96" data-name="Path 96" d="M227.227,349.114a.861.861,0,0,1-.358-.079.773.773,0,0,1-.383-1.053l2.6-5.148a.844.844,0,0,1,1.1-.368.773.773,0,0,1,.384,1.053l-2.6,5.149A.83.83,0,0,1,227.227,349.114Z" fill="#ff8282"/>
                    <path id="Path_97" data-name="Path 97" d="M222.027,349.114a.85.85,0,0,1-.357-.079.772.772,0,0,1-.385-1.053l2.6-5.148a.845.845,0,0,1,1.1-.368.773.773,0,0,1,.384,1.053l-2.6,5.149A.827.827,0,0,1,222.027,349.114Z" fill="#ff8282"/>
                  </g>
                  <g id="Group_68" data-name="Group 68">
                    <g id="Group_65" data-name="Group 65">
                      <g id="Group_64" data-name="Group 64">
                        <path id="Path_98" data-name="Path 98" d="M258.737,349.114a.829.829,0,0,1-.744-.446l-2.6-5.148a.773.773,0,0,1,.384-1.053.844.844,0,0,1,1.1.367l2.6,5.149a.772.772,0,0,1-.384,1.053A.856.856,0,0,1,258.737,349.114Z" fill="#ff8282"/>
                      </g>
                    </g>
                    <g id="Group_67" data-name="Group 67">
                      <g id="Group_66" data-name="Group 66">
                        <path id="Path_99" data-name="Path 99" d="M262.832,348.656a.829.829,0,0,1-.743-.446l-2.6-5.149a.775.775,0,0,1,.385-1.053.845.845,0,0,1,1.1.368l2.6,5.148a.773.773,0,0,1-.384,1.053A.842.842,0,0,1,262.832,348.656Z" fill="#ff8282"/>
                      </g>
                    </g>
                  </g>
                </g>
              </g>
            </g>
            <path id="Path_100" data-name="Path 100" d="M241.945,353.2a19.552,19.552,0,0,1-5.388-.751,1,1,0,0,1,.6-1.909c.088.026,9.039,2.731,13.728-3.255a1,1,0,0,1,1.575,1.233A12.846,12.846,0,0,1,241.945,353.2Z" fill="#ff8282"/>
          </g>
        </g>
        <path id="Path_101" data-name="Path 101" d="M265.63,297.3,243.7,291.761l-30.392,9.832L211.928,340c4.815-5.829,10.171-24.093,12.813-33.953,7.551,13.569,31.662,14.6,43.114,14.276.11,16.558,4.515,22.743,4.515,22.743l1.632-23.1Z" fill="#e83f53"/>
      </g>
    </g>
  </g>
</svg>
