<svg xmlns="http://www.w3.org/2000/svg" width="144.486" height="155.333" viewBox="0 0 144.486 155.333">
  <g id="Group_87" data-name="Group 87" transform="translate(-177.757 -280.816)">
    <g id="Group_69" data-name="Group 69">
      <g id="Group_64" data-name="Group 64">
        <path id="Path_80" data-name="Path 80" d="M279.765,335.9,250,327.68,220.235,335.9a317.858,317.858,0,0,0-3.569,75.4h66.668A317.86,317.86,0,0,0,279.765,335.9Z" fill="#bf4c5b"/>
        <path id="Path_81" data-name="Path 81" d="M297.088,349.774l-5.5-21.975a37.794,37.794,0,0,1-1.131-9.176h0a37.807,37.807,0,0,0-37.807-37.807h-5.306a37.808,37.808,0,0,0-37.808,37.807h0a37.793,37.793,0,0,1-1.13,9.176l-5.5,21.975a253.487,253.487,0,0,0-7.579,61.523h21.333a317.858,317.858,0,0,1,3.569-75.4L250,327.68l29.765,8.216a317.86,317.86,0,0,1,3.569,75.4h21.333A253.537,253.537,0,0,0,297.088,349.774Z" fill="#e4737b"/>
      </g>
      <g id="Group_65" data-name="Group 65">
        <path id="Path_82" data-name="Path 82" d="M208.762,399.649c.891-6.406,1.54-14.7,2.182-22.987.623-8.292,1.24-16.585,1.33-23.052a101.975,101.975,0,0,0-3.512,46.039Z" fill="#f993a0"/>
      </g>
      <g id="Group_66" data-name="Group 66">
        <path id="Path_83" data-name="Path 83" d="M203.552,383.647c.4-3.248.687-7.437,1.034-11.623s.724-8.368.86-11.636a47.077,47.077,0,0,0-1.894,23.259Z" fill="#f993a0"/>
      </g>
      <g id="Group_67" data-name="Group 67">
        <path id="Path_84" data-name="Path 84" d="M293.2,400.585c.984-14.215-1.066-36.933-4.58-50.742C287.637,364.058,289.688,386.776,293.2,400.585Z" fill="#f993a0"/>
      </g>
      <g id="Group_68" data-name="Group 68">
        <path id="Path_85" data-name="Path 85" d="M297.868,385.9a45.713,45.713,0,0,0-2.7-21.542c.225,3.034.731,6.91,1.212,10.788S297.338,382.9,297.868,385.9Z" fill="#f993a0"/>
      </g>
    </g>
    <g id="Group_76" data-name="Group 76">
      <g id="Group_70" data-name="Group 70">
        <path id="Path_86" data-name="Path 86" d="M249.429,375h1.141c4.036,0,7.924-2.267,10.9-6.355l.79-1.087v-14.31H237.741v14.31l.79,1.087C241.506,372.737,245.394,375,249.429,375Z" fill="#3c3247"/>
        <path id="Path_87" data-name="Path 87" d="M219.589,385.552l-15.174,6.018a36.363,36.363,0,0,0-21.92,25.175l-4.738,19.4h47.67l-3.735-32.375Z" fill="#56438c"/>
        <path id="Path_88" data-name="Path 88" d="M317.505,416.745a36.363,36.363,0,0,0-21.92-25.175l-15.175-6.018-2.1,18.222-3.735,32.375h47.67Z" fill="#56438c"/>
        <path id="Path_89" data-name="Path 89" d="M221.692,403.774l3.735,32.375h49.146l3.735-32.375Z" fill="#e8916a"/>
        <path id="Path_90" data-name="Path 90" d="M278.308,403.774l2.1-18.222-15.2-6.026-2.954-1.171V367.562l-.79,1.087c-2.975,4.088-6.863,6.355-10.9,6.355h-1.141c-4.035,0-7.923-2.267-10.9-6.355l-.79-1.087v10.793l-2.954,1.171-15.2,6.026,2.1,18.222Z" fill="#f0bf9c"/>
      </g>
      <path id="Path_91" data-name="Path 91" d="M219.589,385.552l-5.621,20.781a5,5,0,0,0,.666,4.079l2.741,4.112-4.9,9.168a5.005,5.005,0,0,0-.371,3.818l2.643,8.639h10.677Z" fill="#6c6fc3"/>
      <path id="Path_92" data-name="Path 92" d="M280.41,385.552l5.622,20.781a5,5,0,0,1-.666,4.079l-2.741,4.112,4.9,9.168a5,5,0,0,1,.37,3.818l-2.642,8.639H274.573Z" fill="#6c6fc3"/>
      <g id="Group_75" data-name="Group 75">
        <g id="Group_71" data-name="Group 71" opacity="0.3">
          <path id="Path_93" data-name="Path 93" d="M269.06,408.014a98.7,98.7,0,0,1-41.274-2.147,39.427,39.427,0,0,0,9.12,4.075,46.853,46.853,0,0,0,22.66,1.179A39.462,39.462,0,0,0,269.06,408.014Z" fill="#3c3247"/>
        </g>
        <g id="Group_72" data-name="Group 72" opacity="0.3">
          <path id="Path_94" data-name="Path 94" d="M264.844,412.674a67.918,67.918,0,0,1-24.328,1.742,28.4,28.4,0,0,0,24.328-1.742Z" fill="#3c3247"/>
        </g>
        <g id="Group_73" data-name="Group 73" opacity="0.3">
          <path id="Path_95" data-name="Path 95" d="M203.683,434.157a73.063,73.063,0,0,0-6.835-31.578c.656,4.477,1.857,10.173,3.082,15.862S202.429,429.809,203.683,434.157Z" fill="#3c3247"/>
        </g>
        <g id="Group_74" data-name="Group 74" opacity="0.3">
          <path id="Path_96" data-name="Path 96" d="M296.316,434.157c1.254-4.348,2.516-10.03,3.754-15.716s2.426-11.385,3.082-15.862a73.083,73.083,0,0,0-6.836,31.578Z" fill="#3c3247"/>
        </g>
      </g>
    </g>
    <g id="Group_77" data-name="Group 77">
      <circle id="Ellipse_16" data-name="Ellipse 16" cx="8.976" cy="8.976" r="8.976" transform="translate(209.539 329.63)" fill="#eba588"/>
      <circle id="Ellipse_17" data-name="Ellipse 17" cx="5.073" cy="5.073" r="5.073" transform="translate(213.442 333.532)" fill="#e78882"/>
    </g>
    <g id="Group_78" data-name="Group 78">
      <circle id="Ellipse_18" data-name="Ellipse 18" cx="8.976" cy="8.976" r="8.976" transform="translate(272.509 329.63)" fill="#eba588"/>
      <circle id="Ellipse_19" data-name="Ellipse 19" cx="5.073" cy="5.073" r="5.073" transform="translate(276.411 333.532)" fill="#e78882"/>
    </g>
    <g id="Group_80" data-name="Group 80">
      <path id="Path_97" data-name="Path 97" d="M240.306,308.3a59.108,59.108,0,0,1-17.653,18.8v8.988a36.192,36.192,0,0,0,11.737,26.68l1.139,1.044a20.352,20.352,0,0,0,13.751,5.349h1.44a20.352,20.352,0,0,0,13.751-5.349l1.139-1.044a36.2,36.2,0,0,0,11.737-26.68V327.68C262.995,327.558,248.253,320.135,240.306,308.3Z" fill="#f0bf9c"/>
      <path id="Path_98" data-name="Path 98" d="M240.261,329.63a2.481,2.481,0,1,1-2.481-2.481A2.481,2.481,0,0,1,240.261,329.63Z" fill="#3c3247"/>
      <path id="Path_99" data-name="Path 99" d="M259.739,329.63a2.481,2.481,0,1,0,2.481-2.481A2.481,2.481,0,0,0,259.739,329.63Z" fill="#3c3247"/>
      <g id="Group_79" data-name="Group 79">
        <path id="Path_100" data-name="Path 100" d="M237.337,319.941a8.873,8.873,0,0,0-6.866,3.91l14.129-.8A8.874,8.874,0,0,0,237.337,319.941Z" fill="#e4737b"/>
      </g>
      <path id="Path_101" data-name="Path 101" d="M254.126,341.961a25.123,25.123,0,0,0-8.252-.214,11.786,11.786,0,0,0,1.918,2.152,4.233,4.233,0,0,0,2.8.881C252.056,344.642,253.1,343.012,254.126,341.961Z" fill="#eba588"/>
      <path id="Path_102" data-name="Path 102" d="M259.87,347.889a22.894,22.894,0,0,1-18.887.172,15.126,15.126,0,0,0,3.626,5.842,8.613,8.613,0,0,0,6.057,2.348,9.131,9.131,0,0,0,5.717-2.664C257.939,352.106,258.881,349.8,259.87,347.889Z" fill="#fff"/>
      <path id="Path_103" data-name="Path 103" d="M253.625,359.876a5.875,5.875,0,0,0-7.224-.316C248.66,359.7,251.366,359.738,253.625,359.876Z" fill="#eba588"/>
    </g>
    <g id="Group_86" data-name="Group 86">
      <path id="Path_104" data-name="Path 104" d="M240.306,308.3c7.947,11.836,22.689,19.259,37.041,19.381V320.1A27.347,27.347,0,0,0,250,292.757h0A27.347,27.347,0,0,0,222.653,320.1V327.1A59.108,59.108,0,0,0,240.306,308.3Z" fill="#e4737b"/>
      <g id="Group_85" data-name="Group 85">
        <g id="Group_81" data-name="Group 81">
          <path id="Path_105" data-name="Path 105" d="M216.932,318.189a26.579,26.579,0,0,0,7-2.56,31.414,31.414,0,0,0,12.263-11.659,26.623,26.623,0,0,0,2.909-6.86,58.393,58.393,0,0,1-22.17,21.079Z" fill="#f993a0"/>
        </g>
        <g id="Group_82" data-name="Group 82">
          <path id="Path_106" data-name="Path 106" d="M216.333,306.23A27.488,27.488,0,0,0,238.821,292.7a56.367,56.367,0,0,1-22.488,13.526Z" fill="#f993a0"/>
        </g>
        <g id="Group_83" data-name="Group 83">
          <path id="Path_107" data-name="Path 107" d="M279.878,317.945a55.713,55.713,0,0,1-10.658-2.029,45.033,45.033,0,0,1-20.271-12.472,55.719,55.719,0,0,1-6.616-8.6,29.656,29.656,0,0,0,4.811,10.093A33.188,33.188,0,0,0,268.7,318.2,29.687,29.687,0,0,0,279.878,317.945Z" fill="#f993a0"/>
        </g>
        <g id="Group_84" data-name="Group 84">
          <path id="Path_108" data-name="Path 108" d="M273.747,303.383a45.389,45.389,0,0,1-7.824-.459,36.067,36.067,0,0,1-15.986-6.492,45.486,45.486,0,0,1-5.929-5.127,22.711,22.711,0,0,0,4.855,6.432,25.547,25.547,0,0,0,16.919,6.871A22.7,22.7,0,0,0,273.747,303.383Z" fill="#f993a0"/>
        </g>
      </g>
    </g>
    <path id="Path_109" data-name="Path 109" d="M221.659,357.342c0,6.527-.927,7.64-2.07,7.64s-2.069-1.113-2.069-7.64.927-11.818,2.069-11.818S221.659,350.815,221.659,357.342Z" fill="#f4d071"/>
    <path id="Path_110" data-name="Path 110" d="M278.341,357.342c0,6.527.927,7.64,2.069,7.64s2.07-1.113,2.07-7.64-.927-11.818-2.07-11.818S278.341,350.815,278.341,357.342Z" fill="#f4d071"/>
  </g>
</svg>
