<svg xmlns="http://www.w3.org/2000/svg" width="144.486" height="154.541" viewBox="0 0 144.486 154.541">
  <g id="Group_63" data-name="Group 63" transform="translate(-331.251 -75.708)">
    <g id="Group_40" data-name="Group 40">
      <path id="Path_51" data-name="Path 51" d="M447.53,137.843c-1.893-5.56-4.925-10.747-6.119-16.5-1.008-4.855-.656-9.876-.976-14.824s-1.454-10.127-4.836-13.752-11.028-5.686-14.844-2.52l-24.088,1.667.61,5.558c8.756,1,17,3.445,22.229,9.906,9.374,11.589,16.363,25.547,17.5,40.409.94,12.261-2.545,25.112-10.292,34.506h10.412A44.09,44.09,0,0,0,447.53,137.843Z" fill="#a64f5a"/>
      <g id="Group_37" data-name="Group 37">
        <path id="Path_52" data-name="Path 52" d="M435.891,114.285a21.782,21.782,0,0,0-.478-5.765,17.785,17.785,0,0,0-2.6-6.163,13.707,13.707,0,0,0-5.052-4.473,10.052,10.052,0,0,0-5.712-1.1,13.74,13.74,0,0,1,5.1,2.15,16.689,16.689,0,0,1,4.328,4.339C433.864,106.754,435,111.011,435.891,114.285Z" fill="#bd6c67"/>
      </g>
      <g id="Group_38" data-name="Group 38">
        <path id="Path_53" data-name="Path 53" d="M434.487,178.139a37.577,37.577,0,0,0,6.864-33.249,92.18,92.18,0,0,1-1.716,16.979A92.3,92.3,0,0,1,434.487,178.139Z" fill="#bd6c67"/>
      </g>
      <g id="Group_39" data-name="Group 39">
        <path id="Path_54" data-name="Path 54" d="M442,170.916l-.331.424.137.073a24.133,24.133,0,0,0,3.815-10.064,23.779,23.779,0,0,0-.777-10.6,66.255,66.255,0,0,1-.651,10.389,63.249,63.249,0,0,1-2.526,10.208l.137.073C441.876,171.232,441.938,171.073,442,170.916Z" fill="#bd6c67"/>
      </g>
    </g>
    <path id="Path_55" data-name="Path 55" d="M437.008,147.788c-1.139-14.862-8.128-28.82-17.5-40.409-5.227-6.461-13.473-8.9-22.229-9.906l9.307,84.821h20.132C434.463,172.9,437.948,160.049,437.008,147.788Z" fill="#8c404c"/>
    <path id="Path_56" data-name="Path 56" d="M380.765,106.67,371.786,119.6a97.465,97.465,0,0,0-7.93,12.768c-6.18,12.7-12.389,30.515,7.31,48.05h31.167V105.082Z" fill="#8c404c"/>
    <g id="Group_41" data-name="Group 41">
      <path id="Path_57" data-name="Path 57" d="M414.963,162.749c-2.975,4.088-6.863,6.355-10.9,6.355h-1.141c-4.035,0-7.924-2.267-10.9-6.355l-.79-1.087v10.792l-2.954,1.172,1.217,1.743a17.065,17.065,0,0,0,27.993,0l1.216-1.743-2.953-1.172V161.662Z" fill="#eba58e"/>
      <path id="Path_58" data-name="Path 58" d="M402.924,169.1h1.141c4.035,0,7.923-2.267,10.9-6.355l.791-1.087v-14.31H391.235v14.31l.79,1.087C395,166.837,398.889,169.1,402.924,169.1Z" fill="#3c3247"/>
    </g>
    <g id="Group_46" data-name="Group 46">
      <g id="Group_42" data-name="Group 42">
        <circle id="Ellipse_12" data-name="Ellipse 12" cx="8.976" cy="8.976" r="8.976" transform="matrix(0.925, -0.381, 0.381, 0.925, 360.293, 127.822)" fill="#e78882"/>
        <path id="Path_59" data-name="Path 59" d="M377.083,132.706a5.074,5.074,0,1,1-5.074-5.074A5.074,5.074,0,0,1,377.083,132.706Z" fill="#de7274"/>
      </g>
      <g id="Group_43" data-name="Group 43">
        <circle id="Ellipse_13" data-name="Ellipse 13" cx="8.976" cy="8.976" r="8.976" transform="translate(422.286 132.706) rotate(-45)" fill="#e78882"/>
        <path id="Path_60" data-name="Path 60" d="M429.906,132.706a5.073,5.073,0,1,0,5.073-5.074A5.073,5.073,0,0,0,429.906,132.706Z" fill="#de7274"/>
      </g>
      <path id="Path_61" data-name="Path 61" d="M403.494,98.5h0c-15.1,0-27.346.6-27.346,15.705v15.983a36.2,36.2,0,0,0,11.736,26.68l1.139,1.044a20.352,20.352,0,0,0,13.751,5.349h1.44a20.352,20.352,0,0,0,13.751-5.349l1.139-1.044a36.193,36.193,0,0,0,11.737-26.68V114.2C430.841,99.1,418.6,98.5,403.494,98.5Z" fill="#eba58e"/>
      <circle id="Ellipse_14" data-name="Ellipse 14" cx="2.481" cy="2.481" r="2.481" transform="translate(388.793 121.249)" fill="#3c3247"/>
      <circle id="Ellipse_15" data-name="Ellipse 15" cx="2.481" cy="2.481" r="2.481" transform="translate(413.233 121.249)" fill="#3c3247"/>
      <path id="Path_62" data-name="Path 62" d="M407.719,136.573a21.536,21.536,0,0,0-9.1.155,5.138,5.138,0,0,0,4.366,3.091A5.85,5.85,0,0,0,407.719,136.573Z" fill="#e78882"/>
      <g id="Group_44" data-name="Group 44">
        <path id="Path_63" data-name="Path 63" d="M415.725,113.218a8.522,8.522,0,0,0-6.763,3.434l13.583-.115A8.521,8.521,0,0,0,415.725,113.218Z" fill="#a64f5a"/>
      </g>
      <g id="Group_45" data-name="Group 45">
        <path id="Path_64" data-name="Path 64" d="M391.245,113.218a8.522,8.522,0,0,0-6.762,3.434l13.583-.115A8.523,8.523,0,0,0,391.245,113.218Z" fill="#a64f5a"/>
      </g>
      <path id="Path_65" data-name="Path 65" d="M410.6,143.5a22.934,22.934,0,0,1-15.719,1.1c1.938,2.327,5,4.113,8.019,3.849A10.476,10.476,0,0,0,410.6,143.5Z" fill="#fff"/>
    </g>
    <g id="Group_58" data-name="Group 58">
      <path id="Path_66" data-name="Path 66" d="M471,210.845a36.365,36.365,0,0,0-21.92-25.176l-30.372-12.043-1.216,1.743a17.065,17.065,0,0,1-27.993,0l-1.217-1.743-30.372,12.043a36.367,36.367,0,0,0-21.92,25.176l-4.738,19.4H475.737Z" fill="#f0bf6c"/>
      <g id="Group_47" data-name="Group 47">
        <path id="Path_67" data-name="Path 67" d="M378.416,177.538,403.17,216.5v13.75H357.8l1.944-20.59a26.955,26.955,0,0,0-.572-8.6l-3.345-14.485Z" fill="#5195a8"/>
        <path id="Path_68" data-name="Path 68" d="M428.054,177.332,403.17,216.5v13.75h45.368l-1.944-20.59a26.984,26.984,0,0,1,.572-8.6l3.345-14.784Z" fill="#5195a8"/>
      </g>
      <g id="Group_57" data-name="Group 57" opacity="0.3">
        <g id="Group_48" data-name="Group 48">
          <path id="Path_69" data-name="Path 69" d="M418.654,178.306a22.435,22.435,0,0,1-6.762,5.334,19.149,19.149,0,0,1-18.176-.094,22.438,22.438,0,0,1-6.706-5.4,16.112,16.112,0,0,0,5.718,7.015,17.445,17.445,0,0,0,20.136.1A16.112,16.112,0,0,0,418.654,178.306Z" fill="#3c3247"/>
        </g>
        <g id="Group_49" data-name="Group 49">
          <path id="Path_70" data-name="Path 70" d="M418.7,203.2c-3.244-.124-6.914-.326-10.77-.8a89.65,89.65,0,0,1-23.321-6c-3.6-1.448-6.917-3.042-9.819-4.5a41.21,41.21,0,0,0,8.815,6.582,48.755,48.755,0,0,0,24.2,6.223A41.175,41.175,0,0,0,418.7,203.2Z" fill="#3c3247"/>
        </g>
        <g id="Group_50" data-name="Group 50">
          <path id="Path_71" data-name="Path 71" d="M442.517,197.171c-4.043,2.695-8.6,5.958-13.6,9.165a90.934,90.934,0,0,1-16.283,8.548,49.724,49.724,0,0,1-17.832,3.374,35.57,35.57,0,0,1-15.657-3.575,30.568,30.568,0,0,0,15.59,5.286,44.4,44.4,0,0,0,18.715-2.953,71.228,71.228,0,0,0,16.436-9.268A148.317,148.317,0,0,0,442.517,197.171Z" fill="#3c3247"/>
        </g>
        <g id="Group_53" data-name="Group 53">
          <g id="Group_51" data-name="Group 51">
            <path id="Path_72" data-name="Path 72" d="M358.653,217.12a24.824,24.824,0,0,0-.811-11.4,26.4,26.4,0,0,0-5.321-10.1,45.663,45.663,0,0,0,1.988,11.07A51.672,51.672,0,0,0,358.653,217.12Z" fill="#3c3247"/>
          </g>
          <g id="Group_52" data-name="Group 52">
            <path id="Path_73" data-name="Path 73" d="M358.653,217.12a47.1,47.1,0,0,0-11.484-12.028,19.67,19.67,0,0,0,11.484,12.028Z" fill="#3c3247"/>
          </g>
        </g>
        <g id="Group_56" data-name="Group 56">
          <g id="Group_54" data-name="Group 54">
            <path id="Path_74" data-name="Path 74" d="M448.335,217.12a51.556,51.556,0,0,0,4.144-10.435,45.616,45.616,0,0,0,1.988-11.07,26.409,26.409,0,0,0-5.32,10.1A24.825,24.825,0,0,0,448.335,217.12Z" fill="#3c3247"/>
          </g>
          <g id="Group_55" data-name="Group 55">
            <path id="Path_75" data-name="Path 75" d="M448.335,217.12a19.675,19.675,0,0,0,11.485-12.028,47.123,47.123,0,0,0-11.485,12.028Z" fill="#3c3247"/>
          </g>
        </g>
      </g>
    </g>
    <g id="Group_62" data-name="Group 62">
      <path id="Path_76" data-name="Path 76" d="M420.755,90.419c-.812-5.452-4.8-10.109-9.716-12.488s-10.632-2.676-16-1.7c-13.808,2.512-25.66,13.8-28.971,27.594-2.161,9-.967,18.77-4.462,27.332-2.612,6.4-7.661,11.6-9.865,18.158a23.16,23.16,0,0,0,2.334,19.455c3.6,5.69,10.444,10.946,17.087,11.644-7.578-7.618-9.929-19.629-8.047-30.268s3.028-24.516,13.029-28.361c9.523-3.66,23.477-14.66,27.346-23.017Z" fill="#a64f5a"/>
      <g id="Group_59" data-name="Group 59">
        <path id="Path_77" data-name="Path 77" d="M367.836,110.784a23.851,23.851,0,0,0,11.966-1.672,26.086,26.086,0,0,0,6.047-3.438,29.639,29.639,0,0,0,5.089-5.032c1.475-1.8,2.816-3.575,4.291-5.049a11.723,11.723,0,0,1,4.893-3.157,10.588,10.588,0,0,1,5.588-.057,11.013,11.013,0,0,1,4.754,2.569A9.8,9.8,0,0,0,406.234,91a11.117,11.117,0,0,0-6.655-1.033,13,13,0,0,0-6.505,3.317,44.422,44.422,0,0,0-4.736,5.216,35.96,35.96,0,0,1-4.471,4.715,31.516,31.516,0,0,1-5.157,3.617A35.3,35.3,0,0,1,367.836,110.784Z" fill="#bd6c67"/>
      </g>
      <g id="Group_60" data-name="Group 60">
        <path id="Path_78" data-name="Path 78" d="M387.641,89.083a35.107,35.107,0,0,1,5.81-2.641,19.936,19.936,0,0,1,6.873-1.113,15.179,15.179,0,0,1,6.615,1.777,13.271,13.271,0,0,1,4.666,4.126,10.248,10.248,0,0,0-3.933-5.292,13.349,13.349,0,0,0-7.293-2.447,16.075,16.075,0,0,0-7.453,1.675A18.049,18.049,0,0,0,387.641,89.083Z" fill="#bd6c67"/>
      </g>
      <g id="Group_61" data-name="Group 61">
        <path id="Path_79" data-name="Path 79" d="M364.484,175.93a40.691,40.691,0,0,1-3.783-7.208,36.752,36.752,0,0,1-2.421-17.769A40.707,40.707,0,0,1,360,142.995a22,22,0,0,0-3.449,7.651,26.244,26.244,0,0,0,2.566,18.834A21.987,21.987,0,0,0,364.484,175.93Z" fill="#bd6c67"/>
      </g>
    </g>
  </g>
</svg>
