<svg xmlns="http://www.w3.org/2000/svg" width="137.2" height="138.737" viewBox="0 0 137.2 138.737">
  <g id="Group_210" data-name="Group 210" transform="translate(-173.486 -95.392)">
    <g id="Group_113" data-name="Group 113">
      <path id="Path_29" data-name="Path 29" d="M218.771,104.23s-15.114,13.094-15.738,34.678,11.112,30.859.22,40.134-35.11,19.324-20.425,44.315H242.67V108.706Z" fill="#3f2037"/>
    </g>
    <g id="Group_114" data-name="Group 114">
      <path id="Path_30" data-name="Path 30" d="M265.985,104.23s15.114,13.094,15.738,34.678-11.112,30.859-.22,40.134,35.11,19.324,20.425,44.315H242.086V108.706Z" fill="#3f2037"/>
    </g>
    <g id="Group_122" data-name="Group 122">
      <g id="Group_115" data-name="Group 115">
        <path id="Path_31" data-name="Path 31" d="M310.686,234.129h-137.2s1.379-17.118,9.662-20.428c1.713-.686,4.563-2.023,8.005-3.71.476-.235.966-.475,1.463-.722l.011,0c7.167-3.548,16.386-8.33,23.352-11.978,5.934-3.11,10.234-5.395,10.234-5.395l1.049.235a65.372,65.372,0,0,0,29.592-.235s3.54,1.824,8.655,4.429c3.024,1.543,6.6,3.36,10.326,5.233,10.007,5.039,21.049,10.491,25.19,12.148C309.308,217.011,310.686,234.129,310.686,234.129Z" fill="#ff4f4e"/>
      </g>
      <g id="Group_116" data-name="Group 116">
        <path id="Path_32" data-name="Path 32" d="M204.628,234.129h-3.662c-2.836-6.245-7.577-17.027-9.813-24.138.476-.235.966-.475,1.463-.722C194.263,213.476,199.655,226.807,204.628,234.129Z" fill="#c42c31"/>
      </g>
      <g id="Group_117" data-name="Group 117">
        <path id="Path_33" data-name="Path 33" d="M277.055,234.129h3.661c2.837-6.245,8.047-17.944,10.283-25.055-.476-.234-.832-.4-1.33-.646C288.023,212.635,282.028,226.807,277.055,234.129Z" fill="#c42c31"/>
      </g>
      <g id="Group_118" data-name="Group 118">
        <path id="Path_34" data-name="Path 34" d="M234.89,234.129H204.924c-5.045-7.507-9.724-18.4-12.3-24.865-1.3-3.277-2.069-5.421-2.069-5.421,7.729-6.116,25.421-6.557,25.421-6.557C222.276,205.727,230.4,223.669,234.89,234.129Z" fill="#ff4f4e"/>
      </g>
      <g id="Group_119" data-name="Group 119">
        <path id="Path_35" data-name="Path 35" d="M247.075,234.129h29.966c5.045-7.507,9.724-18.4,12.3-24.865,1.3-3.277,2.068-5.421,2.068-5.421-7.729-6.116-25.9-7.523-25.9-7.523C259.212,204.761,251.565,223.669,247.075,234.129Z" fill="#ff4f4e"/>
      </g>
      <g id="Group_120" data-name="Group 120">
        <path id="Path_36" data-name="Path 36" d="M265.509,196.32a123.969,123.969,0,0,1-2.592,14.809c-2.26,9.294-6.163,19.481-12.728,23H239.368c-9.038-3.751-15.219-14.526-19.006-23.7a102.679,102.679,0,0,1-4.383-13.14c5.934-3.11,10.234-5.395,10.234-5.395l1.049.235a65.372,65.372,0,0,0,29.592-.235S260.394,193.715,265.509,196.32Z" fill="#ffb8a1"/>
      </g>
      <g id="Group_121" data-name="Group 121">
        <path id="Path_37" data-name="Path 37" d="M262.917,211.129c-2.26,9.294-6.163,19.481-12.728,23H239.368c-9.038-3.751-15.219-14.526-19.006-23.7,4.743,1.958,11.81,3.741,21.809,3.741A66.673,66.673,0,0,0,262.917,211.129Z" fill="#fff7f1"/>
      </g>
    </g>
    <g id="Group_209" data-name="Group 209">
      <g id="Group_132" data-name="Group 132">
        <g id="Group_127" data-name="Group 127">
          <g id="Group_126" data-name="Group 126">
            <g id="Group_125" data-name="Group 125">
              <g id="Group_123" data-name="Group 123">
                <path id="Path_38" data-name="Path 38" d="M257.553,195.385s-2.691,8.458-15.055,8.458c-14.42,0-17.815-7.689-17.815-7.689a62.667,62.667,0,0,0,2.7-9.146h0a49.334,49.334,0,0,0,1.153-11.418l25.335-1c.235,2.145.615,4.671,1.046,7.212C256.061,188.546,257.553,195.385,257.553,195.385Z" fill="#ffb8a1"/>
              </g>
              <g id="Group_124" data-name="Group 124">
                <path id="Path_39" data-name="Path 39" d="M242.67,207.755a19.876,19.876,0,0,1-15.33-7.13A24.439,24.439,0,0,1,223,193.508a.5.5,0,0,1,.942-.334A23.935,23.935,0,0,0,228.119,200a18.6,18.6,0,0,0,14.551,6.758,16.294,16.294,0,0,0,13.7-6.727,20.657,20.657,0,0,0,3.349-6.8.5.5,0,0,1,.974.228,21.251,21.251,0,0,1-3.5,7.142A17.451,17.451,0,0,1,242.67,207.755Z" fill="#fff7f1"/>
              </g>
            </g>
          </g>
        </g>
        <g id="Group_131" data-name="Group 131">
          <g id="Group_130" data-name="Group 130">
            <g id="Group_129" data-name="Group 129">
              <g id="Group_128" data-name="Group 128">
                <path id="Path_40" data-name="Path 40" d="M254.916,181.8c-3.925,2.73-12.506,6.794-27.534,5.21a49.334,49.334,0,0,0,1.153-11.418l25.335-1C254.1,176.731,254.485,179.257,254.916,181.8Z" fill="#3f2037"/>
              </g>
            </g>
          </g>
        </g>
      </g>
      <g id="Group_151" data-name="Group 151">
        <g id="Group_145" data-name="Group 145">
          <g id="Group_136" data-name="Group 136">
            <g id="Group_135" data-name="Group 135">
              <g id="Group_134" data-name="Group 134">
                <g id="Group_133" data-name="Group 133">
                  <path id="Path_41" data-name="Path 41" d="M218.864,142.55s-7.841-10.672-13.939-4.356,5.663,28.314,16.335,23.522Z" fill="#ffb8a1"/>
                </g>
              </g>
            </g>
          </g>
          <g id="Group_140" data-name="Group 140">
            <g id="Group_139" data-name="Group 139">
              <g id="Group_138" data-name="Group 138">
                <g id="Group_137" data-name="Group 137">
                  <path id="Path_42" data-name="Path 42" d="M215.608,155.161a.542.542,0,0,1-.536-.467c-1.031-7.415-6.925-11.966-6.984-12.011a.541.541,0,1,1,.655-.862,20.869,20.869,0,0,1,7.4,12.724.542.542,0,0,1-.462.611A.473.473,0,0,1,215.608,155.161Z" fill="#ff8a8a"/>
                </g>
              </g>
            </g>
          </g>
          <g id="Group_144" data-name="Group 144">
            <g id="Group_143" data-name="Group 143">
              <g id="Group_142" data-name="Group 142">
                <g id="Group_141" data-name="Group 141">
                  <path id="Path_43" data-name="Path 43" d="M213.965,149.836a.542.542,0,0,1-.449-.239c-.787-1.163-3.14-1.282-3.977-1.23a.542.542,0,1,1-.068-1.081c.149-.01,3.651-.205,4.942,1.705a.541.541,0,0,1-.448.845Z" fill="#ff8a8a"/>
                </g>
              </g>
            </g>
          </g>
        </g>
        <g id="Group_150" data-name="Group 150">
          <g id="Group_149" data-name="Group 149">
            <g id="Group_148" data-name="Group 148">
              <g id="Group_147" data-name="Group 147">
                <g id="Group_146" data-name="Group 146">
                  <path id="Path_44" data-name="Path 44" d="M216.414,162.2a4.249,4.249,0,0,1-.461-.115,2.278,2.278,0,0,1-2.139-.164c-1.808-1.271-.234-4.335-.213-4.375a.577.577,0,0,0-1.021-.538c-.085.163-2.07,4,.57,5.857a3.25,3.25,0,0,0,1.867.563,3.6,3.6,0,0,0,1.9-.542,3.241,3.241,0,0,0,.611-.505C217.153,162.325,216.794,162.256,216.414,162.2Z" fill="#fff7f1"/>
                </g>
              </g>
            </g>
          </g>
        </g>
      </g>
      <g id="Group_170" data-name="Group 170">
        <g id="Group_164" data-name="Group 164">
          <g id="Group_155" data-name="Group 155">
            <g id="Group_154" data-name="Group 154">
              <g id="Group_153" data-name="Group 153">
                <g id="Group_152" data-name="Group 152">
                  <path id="Path_45" data-name="Path 45" d="M266.629,142.55s7.841-10.672,13.939-4.356-5.663,28.314-16.335,23.522Z" fill="#ffb8a1"/>
                </g>
              </g>
            </g>
          </g>
          <g id="Group_159" data-name="Group 159">
            <g id="Group_158" data-name="Group 158">
              <g id="Group_157" data-name="Group 157">
                <g id="Group_156" data-name="Group 156">
                  <path id="Path_46" data-name="Path 46" d="M269.783,155.161a.481.481,0,0,1-.075,0,.541.541,0,0,1-.462-.611,20.864,20.864,0,0,1,7.4-12.724.541.541,0,0,1,.655.862c-.059.045-5.955,4.612-6.984,12.011A.541.541,0,0,1,269.783,155.161Z" fill="#ff8a8a"/>
                </g>
              </g>
            </g>
          </g>
          <g id="Group_163" data-name="Group 163">
            <g id="Group_162" data-name="Group 162">
              <g id="Group_161" data-name="Group 161">
                <g id="Group_160" data-name="Group 160">
                  <path id="Path_47" data-name="Path 47" d="M271.425,149.836a.542.542,0,0,1-.448-.846c1.292-1.909,4.794-1.713,4.943-1.7a.542.542,0,0,1-.067,1.081c-.842-.05-3.2.071-3.979,1.231A.543.543,0,0,1,271.425,149.836Z" fill="#ff8a8a"/>
                </g>
              </g>
            </g>
          </g>
        </g>
        <g id="Group_169" data-name="Group 169">
          <g id="Group_168" data-name="Group 168">
            <g id="Group_167" data-name="Group 167">
              <g id="Group_166" data-name="Group 166">
                <g id="Group_165" data-name="Group 165">
                  <path id="Path_48" data-name="Path 48" d="M269.079,162.2a4.251,4.251,0,0,0,.461-.115,2.278,2.278,0,0,0,2.139-.164c1.808-1.271.234-4.335.213-4.375a.577.577,0,0,1,1.021-.538c.085.163,2.07,4-.57,5.857a3.25,3.25,0,0,1-1.867.563,3.6,3.6,0,0,1-1.9-.542,3.241,3.241,0,0,1-.611-.505C268.34,162.325,268.7,162.256,269.079,162.2Z" fill="#fff7f1"/>
                </g>
              </g>
            </g>
          </g>
        </g>
      </g>
      <g id="Group_174" data-name="Group 174">
        <g id="Group_173" data-name="Group 173">
          <g id="Group_172" data-name="Group 172">
            <g id="Group_171" data-name="Group 171">
              <path id="Path_49" data-name="Path 49" d="M246.273,110.557c-23.166-.676-34.016,11.718-32.249,37.311,1.1,15.9,9.649,35.23,28.472,35.673,19.618.462,28.547-21.795,28.973-38.236.449-17.29-3.656-28.854-17.961-33.543A59.337,59.337,0,0,0,246.273,110.557Z" fill="#ffb8a1"/>
            </g>
          </g>
        </g>
      </g>
      <g id="Group_181" data-name="Group 181">
        <g id="Group_175" data-name="Group 175">
          <path id="Path_50" data-name="Path 50" d="M225.859,152.836a.674.674,0,1,1-.674-.674A.675.675,0,0,1,225.859,152.836Z" fill="#ff8a8a"/>
        </g>
        <g id="Group_176" data-name="Group 176">
          <path id="Path_51" data-name="Path 51" d="M229.154,154.465a.675.675,0,1,1-.675-.675A.675.675,0,0,1,229.154,154.465Z" fill="#ff8a8a"/>
        </g>
        <g id="Group_177" data-name="Group 177">
          <path id="Path_52" data-name="Path 52" d="M225.859,156.811a.674.674,0,1,1-.674-.674A.675.675,0,0,1,225.859,156.811Z" fill="#ff8a8a"/>
        </g>
        <g id="Group_178" data-name="Group 178">
          <path id="Path_53" data-name="Path 53" d="M231.039,157.486a.675.675,0,1,1-.675-.675A.675.675,0,0,1,231.039,157.486Z" fill="#ff8a8a"/>
        </g>
        <g id="Group_179" data-name="Group 179">
          <path id="Path_54" data-name="Path 54" d="M234.491,156.811a.674.674,0,1,1-.674-.674A.675.675,0,0,1,234.491,156.811Z" fill="#ff8a8a"/>
        </g>
        <g id="Group_180" data-name="Group 180">
          <path id="Path_55" data-name="Path 55" d="M232.922,153.511a.675.675,0,1,1-.675-.675A.675.675,0,0,1,232.922,153.511Z" fill="#ff8a8a"/>
        </g>
      </g>
      <g id="Group_188" data-name="Group 188">
        <g id="Group_182" data-name="Group 182">
          <path id="Path_56" data-name="Path 56" d="M260.207,152.836a.675.675,0,1,0,.675-.674A.675.675,0,0,0,260.207,152.836Z" fill="#ff8a8a"/>
        </g>
        <g id="Group_183" data-name="Group 183">
          <path id="Path_57" data-name="Path 57" d="M256.912,154.465a.675.675,0,1,0,.675-.675A.675.675,0,0,0,256.912,154.465Z" fill="#ff8a8a"/>
        </g>
        <g id="Group_184" data-name="Group 184">
          <path id="Path_58" data-name="Path 58" d="M260.207,156.811a.675.675,0,1,0,.675-.674A.675.675,0,0,0,260.207,156.811Z" fill="#ff8a8a"/>
        </g>
        <g id="Group_185" data-name="Group 185">
          <path id="Path_59" data-name="Path 59" d="M255.028,157.486a.675.675,0,1,0,.674-.675A.675.675,0,0,0,255.028,157.486Z" fill="#ff8a8a"/>
        </g>
        <g id="Group_186" data-name="Group 186">
          <path id="Path_60" data-name="Path 60" d="M251.575,156.811a.675.675,0,1,0,.675-.674A.675.675,0,0,0,251.575,156.811Z" fill="#ff8a8a"/>
        </g>
        <g id="Group_187" data-name="Group 187">
          <path id="Path_61" data-name="Path 61" d="M253.145,153.511a.675.675,0,1,0,.675-.675A.675.675,0,0,0,253.145,153.511Z" fill="#ff8a8a"/>
        </g>
      </g>
      <g id="Group_191" data-name="Group 191">
        <g id="Group_189" data-name="Group 189">
          <path id="Path_62" data-name="Path 62" d="M214.948,152.419s4.637-9.79,3.092-17l-5.067-1.476S212.2,146.322,214.948,152.419Z" fill="#3f2037"/>
        </g>
        <g id="Group_190" data-name="Group 190">
          <path id="Path_63" data-name="Path 63" d="M270.492,152.419s-4.637-9.79-3.091-17l5.067-1.476S273.24,146.322,270.492,152.419Z" fill="#3f2037"/>
        </g>
      </g>
      <g id="Group_192" data-name="Group 192">
        <path id="Path_64" data-name="Path 64" d="M218.771,104.23c-5.618,5.548-10,14.641-10.291,20.192-.3,5.62,1.143,11.208,5.358,13.352,13.175,6.7,40.439-18.505,40.439-18.505s9.615,19.551,17.192,18.628,10.8-22.966-7.236-35.3C246.226,90.288,227.382,95.725,218.771,104.23Z" fill="#3f2037"/>
      </g>
      <g id="Group_193" data-name="Group 193">
        <path id="Path_65" data-name="Path 65" d="M223.5,140.739a13.847,13.847,0,0,1,5.505-5.754c5.371-3.349,9.242,2.412,9.242,2.412s-4.214-1.467-7.45-.436A36.691,36.691,0,0,0,223.5,140.739Z" fill="#3f2037"/>
      </g>
      <g id="Group_194" data-name="Group 194">
        <path id="Path_66" data-name="Path 66" d="M263.081,140.739a13.847,13.847,0,0,0-5.505-5.754c-5.371-3.349-9.242,2.412-9.242,2.412s4.214-1.467,7.45-.436A36.69,36.69,0,0,1,263.081,140.739Z" fill="#3f2037"/>
      </g>
      <g id="Group_195" data-name="Group 195">
        <path id="Path_67" data-name="Path 67" d="M244.063,161.331a7.78,7.78,0,0,1-3.071-.731.749.749,0,0,1-.445-.784l1.568-12.045a.75.75,0,0,1,1.488.193l-1.493,11.47a3.914,3.914,0,0,0,3.744-.143.75.75,0,1,1,.838,1.243A4.587,4.587,0,0,1,244.063,161.331Z" fill="#ff8a8a"/>
      </g>
      <g id="Group_196" data-name="Group 196">
        <path id="Path_68" data-name="Path 68" d="M242.575,169.293a16.178,16.178,0,0,1-1.853-.107,17.224,17.224,0,0,1-5.926-1.771.75.75,0,0,1,.731-1.31h0c.361.2,8.94,4.833,16.366-2.036a.75.75,0,0,1,1.018,1.1A14.889,14.889,0,0,1,242.575,169.293Z" fill="#ff8a8a"/>
      </g>
      <g id="Group_197" data-name="Group 197">
        <path id="Path_69" data-name="Path 69" d="M243.884,173.692a11.917,11.917,0,0,1-3.242-.457.75.75,0,0,1,.447-1.432c.05.015,3.477,1.044,5.891-.32a.75.75,0,1,1,.738,1.3A7.782,7.782,0,0,1,243.884,173.692Z" fill="#ff8a8a"/>
      </g>
      <g id="Group_208" data-name="Group 208">
        <g id="Group_202" data-name="Group 202">
          <g id="Group_201" data-name="Group 201">
            <g id="Group_200" data-name="Group 200">
              <g id="Group_199" data-name="Group 199">
                <g id="Group_198" data-name="Group 198">
                  <path id="Path_70" data-name="Path 70" d="M233.77,145.274c.037,2.094-.735,3.8-1.724,3.822s-1.82-1.666-1.857-3.76.736-3.806,1.725-3.823S233.734,143.18,233.77,145.274Z" fill="#3f2037"/>
                </g>
              </g>
            </g>
          </g>
        </g>
        <g id="Group_207" data-name="Group 207">
          <g id="Group_206" data-name="Group 206">
            <g id="Group_205" data-name="Group 205">
              <g id="Group_204" data-name="Group 204">
                <g id="Group_203" data-name="Group 203">
                  <path id="Path_71" data-name="Path 71" d="M252.486,145.274c-.036,2.094.736,3.8,1.725,3.822s1.82-1.666,1.856-3.76-.735-3.806-1.724-3.823S252.523,143.18,252.486,145.274Z" fill="#3f2037"/>
                </g>
              </g>
            </g>
          </g>
        </g>
      </g>
    </g>
  </g>
</svg>
