<svg xmlns="http://www.w3.org/2000/svg" xmlns:xlink="http://www.w3.org/1999/xlink" width="105.021" height="135.212" viewBox="0 0 105.021 135.212">
  <defs>
    <linearGradient id="linear-gradient" x1="0.484" y1="0.154" x2="0.508" y2="0.742" gradientUnits="objectBoundingBox">
      <stop offset="0" stop-color="#690f1b"/>
      <stop offset="0.209" stop-color="#690f1b" stop-opacity="0.792"/>
      <stop offset="0.885" stop-color="#690f1b" stop-opacity="0"/>
    </linearGradient>
    <linearGradient id="linear-gradient-2" x1="0.513" y1="-0.01" x2="0.498" y2="0.561" gradientUnits="objectBoundingBox">
      <stop offset="0" stop-color="#ff2441"/>
      <stop offset="0.209" stop-color="#ff2441" stop-opacity="0.792"/>
      <stop offset="0.885" stop-color="#ff2441" stop-opacity="0"/>
    </linearGradient>
  </defs>
  <g id="Group_220" data-name="Group 220" transform="translate(-50.236 -81.987)">
    <g id="Group_214" data-name="Group 214">
      <g id="Group_193" data-name="Group 193">
        <ellipse id="Ellipse_12" data-name="Ellipse 12" cx="41.227" cy="50.734" rx="41.227" ry="50.734" transform="translate(60.826 81.987)" fill="#e6d66a"/>
        <ellipse id="Ellipse_13" data-name="Ellipse 13" cx="51.817" cy="48.512" rx="51.817" ry="48.512" transform="translate(50.236 86.432)" fill="#faee9b"/>
        <path id="Path_256" data-name="Path 256" d="M102.053,91.921c18.208,0,34.4,7.312,44.811,18.674-8.975-14.445-25.676-24.163-44.811-24.163S66.217,96.15,57.242,110.6C67.648,99.233,83.845,91.921,102.053,91.921Z" fill="#faf3c6"/>
        <path id="Path_257" data-name="Path 257" d="M153.4,141.39a24.947,24.947,0,0,0-14.82-12.17l-64.971-1.9s-14.391,6.643-21.415,20.83c6.145,20.371,26.132,35.305,49.858,35.305C128.334,183.455,150.031,165.133,153.4,141.39Z" fill="#e6d66a"/>
      </g>
      <g id="Group_213" data-name="Group 213">
        <path id="Path_258" data-name="Path 258" d="M138.318,168.594a17,17,0,0,1-.695-9.477c.048-.23.083-.466.126-.7a35.825,35.825,0,0,0,6.582-20.649c0-20.826-18.033-37.709-40.278-37.709S63.775,116.944,63.775,137.77a35.47,35.47,0,0,0,1.777,11.1,36.061,36.061,0,0,1-10.645,10.491c-8.889,5.29-5.333,20.757,12.741,25.468a7.854,7.854,0,0,1-2.889,6.154S76.8,197,89.62,196.457a155.209,155.209,0,0,1,25.518,1.025c26.17,3.217,36.954-14.027,36.954-14.027C144.981,182.1,140.734,174.965,138.318,168.594Z" fill="#230e0a"/>
        <g id="Group_195" data-name="Group 195">
          <path id="Path_259" data-name="Path 259" d="M135.273,202.413c-17.571-7.072-23.357-15.858-21.857-28.5H94.093c1.5,12.643-4.285,21.429-21.857,28.5S52.307,217.2,52.307,217.2H155.2S152.845,209.484,135.273,202.413Z" fill="#fff"/>
          <g id="Group_194" data-name="Group 194">
            <path id="Path_260" data-name="Path 260" d="M84.914,195.578c4.183,10.685,11.06,17.666,18.841,17.666s14.657-6.981,18.841-17.666c-7.687-5.816-10.233-12.789-9.18-21.666H94.093C95.147,182.789,92.6,189.762,84.914,195.578Z" fill="#ff8282"/>
            <path id="Path_261" data-name="Path 261" d="M84.914,195.578c4.183,10.685,11.06,17.666,18.841,17.666s14.657-6.981,18.841-17.666c-7.687-5.816-10.233-12.789-9.18-21.666H94.093C95.147,182.789,92.6,189.762,84.914,195.578Z" opacity="0.45" fill="url(#linear-gradient)"/>
            <path id="Path_262" data-name="Path 262" d="M115.307,191.618c.542-.5,1.123-1.035,1.728-1.607-3.321-4.6-4.356-9.884-3.619-16.1H94.093c.733,6.172-.281,11.422-3.547,16,1.506,1.163,2.906,2.168,4.107,2.993a15.1,15.1,0,0,0,8.553,2.646h1.916A15.1,15.1,0,0,0,115.307,191.618Z" fill="#ff6161" opacity="0.57" style="mix-blend-mode: multiply;isolation: isolate"/>
          </g>
        </g>
        <g id="Group_212" data-name="Group 212">
          <g id="Group_200" data-name="Group 200">
            <g id="Group_199" data-name="Group 199">
              <g id="Group_196" data-name="Group 196">
                <path id="Path_263" data-name="Path 263" d="M78.781,150.945c3.239,6.195,1.882,13.3-3.031,15.868s-11.522-.371-14.76-6.566-1.882-13.3,3.031-15.867S75.543,144.751,78.781,150.945Z" fill="#ff8282"/>
                <path id="Path_264" data-name="Path 264" d="M75.939,162.773c-.019-.253-.067-.471-.093-.715.037.177.059.324.072.441a9.083,9.083,0,0,0-.535-3.1A15.023,15.023,0,0,0,63.02,147.854a32.413,32.413,0,0,1,9.989,9.046c-3.526-1.435-8.975,1.605-8.975,1.605,6.465-1.714,9.406-.295,10.756,1.352A14.281,14.281,0,0,1,75.939,162.773Z" fill="#ff4f4f"/>
              </g>
              <g id="Group_198" data-name="Group 198">
                <g id="Group_197" data-name="Group 197">
                  <path id="Path_265" data-name="Path 265" d="M128.463,150.945c-3.238,6.195-1.881,13.3,3.032,15.868s11.521-.371,14.76-6.566,1.881-13.3-3.031-15.867S131.7,144.751,128.463,150.945Z" fill="#ff8282"/>
                  <path id="Path_266" data-name="Path 266" d="M131.3,162.773c.02-.253.067-.471.094-.715-.037.177-.06.324-.073.441a9.132,9.132,0,0,1,.535-3.1,15.025,15.025,0,0,1,12.364-11.542,32.4,32.4,0,0,0-9.989,9.046c3.525-1.435,8.975,1.605,8.975,1.605-6.465-1.714-9.406-.295-10.757,1.352A14.357,14.357,0,0,0,131.3,162.773Z" fill="#ff4f4f"/>
                </g>
              </g>
            </g>
            <path id="Path_267" data-name="Path 267" d="M73.185,165.5a2.146,2.146,0,1,1-2.147-2.147A2.146,2.146,0,0,1,73.185,165.5Z" fill="#fff"/>
            <path id="Path_268" data-name="Path 268" d="M137.928,165.5a2.147,2.147,0,1,1-2.147-2.147A2.147,2.147,0,0,1,137.928,165.5Z" fill="#fff"/>
          </g>
          <path id="Path_269" data-name="Path 269" d="M131.3,139.124a41.39,41.39,0,0,0,2.073,4.428,28.839,28.839,0,0,0,2.532,4,19.1,19.1,0,0,0,6.82,5.827c.675.326,1.352.553,2.078.855a23.937,23.937,0,0,1,2.419,1.01l1.167.61c.379.226.742.484,1.108.728a8.411,8.411,0,0,1,1.055.8,10.784,10.784,0,0,1,.978.9,11.682,11.682,0,0,1,3.667,9.361,14.341,14.341,0,0,0-5.214-7.6,18.148,18.148,0,0,0-3.944-2.205c-.68-.328-1.437-.513-2.148-.779-.791-.306-1.675-.6-2.473-.975a17.212,17.212,0,0,1-7.472-7.262,21.114,21.114,0,0,1-1.125-2.31c-.292-.8-.591-1.6-.81-2.413A18.778,18.778,0,0,1,131.3,139.124Z" fill="#230e0a"/>
          <path id="Path_270" data-name="Path 270" d="M132.454,159.857s8.446-17.478,5.505-32.163l0-.507a22.222,22.222,0,0,0-22.222-22.163H93.251a23.792,23.792,0,0,0-23.79,23.543l-.088,4.884c-2.244,15.826,4.237,22.585,4.237,22.585l12.225-15.775,39.789-2.038Z" fill="#230e0a"/>
          <g id="Group_211" data-name="Group 211">
            <g id="Group_209" data-name="Group 209">
              <path id="Path_271" data-name="Path 271" d="M94.573,115.706a20.758,20.758,0,0,0-20.756,20.541l-.207,19.789c0,13.714,14.686,25.461,21.8,30.347a13.818,13.818,0,0,0,7.83,2.422H105a13.819,13.819,0,0,0,9.324-3.6c6.737-6.151,19.315-19,19.315-29.165l-.056-20.993a19.388,19.388,0,0,0-19.388-19.337Z" fill="#fdbfa8"/>
              <path id="Path_272" data-name="Path 272" d="M96.605,169.243s6.188,4.332,11.284,1.223c0,0-1.64,3.849-6.892,2.909C99.479,173.1,97.546,171.321,96.605,169.243Z" fill="#ff8282" opacity="0.4"/>
              <path id="Path_273" data-name="Path 273" d="M94.573,115.706a20.758,20.758,0,0,0-20.756,20.541l-.207,19.789c0,13.714,14.686,25.461,21.8,30.347a13.818,13.818,0,0,0,7.83,2.422H105a13.819,13.819,0,0,0,9.324-3.6c6.737-6.151,19.315-19,19.315-29.165l-.056-20.993a19.388,19.388,0,0,0-19.388-19.337Z" opacity="0.45" fill="url(#linear-gradient-2)"/>
              <path id="Path_274" data-name="Path 274" d="M73.817,136.247,73.7,147.4h0s7.678-7.817,8.258-15.761c0,0,12.985,2.116,17.893,1.086l-7.8-16.847A20.75,20.75,0,0,0,73.817,136.247Z" fill="#ff8282" opacity="0.5" style="mix-blend-mode: multiply;isolation: isolate"/>
              <path id="Path_275" data-name="Path 275" d="M115.38,124.037l1.909,6.543,16.252,3.767a19.373,19.373,0,0,0-19.351-18.641H102.064l9.056,16.663Z" fill="#ff8282" opacity="0.5" style="mix-blend-mode: multiply;isolation: isolate"/>
              <path id="Path_276" data-name="Path 276" d="M115.791,180.341a16.99,16.99,0,0,1-10.607,3.6h-2a17.276,17.276,0,0,1-8.907-2.422c-4.565-2.756-11.87-7.695-17.372-13.938,4.75,8.525,13.5,15.36,18.5,18.8a13.818,13.818,0,0,0,7.83,2.422H105a13.819,13.819,0,0,0,9.324-3.6c4.515-4.122,11.647-11.249,15.865-18.563A107.451,107.451,0,0,1,115.791,180.341Z" fill="#fdd4c5"/>
              <g id="Group_208" data-name="Group 208">
                <g id="Group_207" data-name="Group 207">
                  <g id="Group_202" data-name="Group 202">
                    <g id="Group_201" data-name="Group 201">
                      <path id="Path_277" data-name="Path 277" d="M119.07,147.4c0,2.354-.8,4.263-1.781,4.263s-1.781-1.909-1.781-4.263.8-4.264,1.781-4.264S119.07,145.041,119.07,147.4Z" fill="#25110d"/>
                    </g>
                    <path id="Path_278" data-name="Path 278" d="M125.675,142.73c.23-.134-9.636-6.369-15.728-6.145-.076.1.4-7.04,8.479-4.138C126.257,135.675,125.605,142.82,125.675,142.73Z" fill="#230e0a"/>
                  </g>
                  <g id="Group_204" data-name="Group 204">
                    <g id="Group_203" data-name="Group 203">
                      <ellipse id="Ellipse_14" data-name="Ellipse 14" cx="1.781" cy="4.264" rx="1.781" ry="4.264" transform="translate(88.174 143.132)" fill="#25110d"/>
                    </g>
                    <path id="Path_279" data-name="Path 279" d="M80.668,142.73c-.23-.134,9.637-6.369,15.729-6.145.076.1-.141-6.283-8.223-3.381C80.343,136.432,80.738,142.82,80.668,142.73Z" fill="#230e0a"/>
                  </g>
                  <g id="Group_205" data-name="Group 205">
                    <path id="Path_280" data-name="Path 280" d="M85.687,161.874a.774.774,0,0,1-.342-.079.788.788,0,0,1-.368-1.053l2.488-5.149a.789.789,0,0,1,1.42.686L86.4,161.428A.792.792,0,0,1,85.687,161.874Z" fill="#ff8282"/>
                    <path id="Path_281" data-name="Path 281" d="M80.713,161.874a.774.774,0,0,1-.342-.079A.788.788,0,0,1,80,160.742l2.487-5.149a.789.789,0,1,1,1.42.686l-2.487,5.149A.789.789,0,0,1,80.713,161.874Z" fill="#ff8282"/>
                  </g>
                  <g id="Group_206" data-name="Group 206">
                    <path id="Path_282" data-name="Path 282" d="M121.085,161.874a.789.789,0,0,1-.711-.446l-2.487-5.149a.789.789,0,0,1,1.42-.686l2.487,5.149a.787.787,0,0,1-.367,1.053A.774.774,0,0,1,121.085,161.874Z" fill="#ff8282"/>
                    <path id="Path_283" data-name="Path 283" d="M126.059,161.874a.789.789,0,0,1-.711-.446l-2.488-5.149a.789.789,0,0,1,1.421-.686l2.487,5.149a.788.788,0,0,1-.368,1.053A.773.773,0,0,1,126.059,161.874Z" fill="#ff8282"/>
                  </g>
                  <path id="Path_284" data-name="Path 284" d="M96.573,167.606c-.383-.251-.73-.5-1.033-.746a.845.845,0,0,1,1.056-1.319c.288.229,7.055,5.525,11.88.707a.845.845,0,1,1,1.195,1.2C105.458,171.65,99.757,169.685,96.573,167.606Z" fill="#ff8282"/>
                </g>
                <path id="Path_285" data-name="Path 285" d="M106.963,154.94c-.367-2.792-1.671-5.969-3.229-5.969s-2.873,3.205-3.234,6.005c-5.6,1.135-4.641,5.168-4.641,5.168s7.875,4.018,15.75,0C111.609,160.144,112.811,156.023,106.963,154.94Z" fill="#ff8282"/>
                <circle id="Ellipse_15" data-name="Ellipse 15" cx="0.856" cy="0.856" r="0.856" transform="translate(111.711 161.93)" fill="#230e0a"/>
                <circle id="Ellipse_16" data-name="Ellipse 16" cx="0.856" cy="0.856" r="0.856" transform="translate(93.512 162.493)" fill="#230e0a" opacity="0.29"/>
              </g>
            </g>
            <g id="Group_210" data-name="Group 210">
              <path id="Path_286" data-name="Path 286" d="M81.053,126.006c3.392,2.407,8.291,4.277,15.353,4.277l-4.351-14.409a20.715,20.715,0,0,0-14.1,8.189c-.215.287-.433.572-.633.871-.136.2-.255.415-.384.622q-.479.77-.888,1.583c-.147.291-.3.579-.431.877-.117.262-.218.532-.325.8-.126.318-.25.637-.361.963-.09.262-.171.528-.25.794q-.156.529-.285,1.07c-.06.252-.119.5-.17.759-.082.411-.146.828-.2,1.248-.029.216-.066.429-.089.647-.067.642-.111,1.292-.118,1.951L73.7,147.4a27.405,27.405,0,0,0,3.367-7.409Z" fill="#230e0a"/>
              <path id="Path_287" data-name="Path 287" d="M111.712,127.32a32.269,32.269,0,0,0,1.688-11.614H102.064A56.622,56.622,0,0,1,111.712,127.32Z" fill="#230e0a"/>
              <path id="Path_288" data-name="Path 288" d="M115.38,115.766a29.278,29.278,0,0,1,2.43,11.554l12.973,3.2.313,7.555a29.93,29.93,0,0,0,2.071,9.764l.448,1.132-.037-13.928a19.057,19.057,0,0,0-.424-3.938l.012,0A19.381,19.381,0,0,0,115.38,115.766Z" fill="#230e0a"/>
            </g>
          </g>
        </g>
      </g>
    </g>
    <g id="Group_219" data-name="Group 219">
      <g id="Group_216" data-name="Group 216">
        <g id="Group_215" data-name="Group 215">
          <circle id="Ellipse_17" data-name="Ellipse 17" cx="12.105" cy="12.105" r="12.105" transform="matrix(0.305, -0.952, 0.952, 0.305, 71.48, 157.313)" fill="#a7b9eb" opacity="0.77" style="mix-blend-mode: hue;isolation: isolate"/>
          <path id="Path_289" data-name="Path 289" d="M97.868,144.8,79.321,159.059A12.1,12.1,0,0,0,97.868,144.8Z" fill="#fff" opacity="0.4"/>
          <path id="Path_290" data-name="Path 290" d="M87.526,137.416,75.312,145.41a12.062,12.062,0,0,0-.716,4.069,12.264,12.264,0,0,0,.09,1.417l16.882-12.5A12.021,12.021,0,0,0,87.526,137.416Z" fill="#fff" opacity="0.4"/>
          <path id="Path_291" data-name="Path 291" d="M86.7,137.374a12.105,12.105,0,1,1-12.1,12.105,12.1,12.1,0,0,1,12.1-12.105m0-1.045a13.15,13.15,0,1,0,13.15,13.15,13.165,13.165,0,0,0-13.15-13.15Z" fill="#faee9b"/>
        </g>
      </g>
      <g id="Group_218" data-name="Group 218">
        <g id="Group_217" data-name="Group 217">
          <path id="Path_292" data-name="Path 292" d="M132.906,149.479A12.105,12.105,0,1,1,120.8,137.374,12.1,12.1,0,0,1,132.906,149.479Z" fill="#a7b9eb" opacity="0.77" style="mix-blend-mode: hue;isolation: isolate"/>
          <path id="Path_293" data-name="Path 293" d="M127.6,139.465l-16.48,17.259a12.112,12.112,0,0,0,5.662,4.163L132.2,145.433A12.122,12.122,0,0,0,127.6,139.465Z" fill="#fff" opacity="0.4"/>
          <path id="Path_294" data-name="Path 294" d="M120.8,137.374A12.105,12.105,0,1,1,108.7,149.479,12.106,12.106,0,0,1,120.8,137.374m0-1.045a13.15,13.15,0,1,0,13.15,13.15,13.165,13.165,0,0,0-13.15-13.15Z" fill="#faee9b"/>
        </g>
      </g>
      <path id="Path_295" data-name="Path 295" d="M99.156,147.2l-.868-.953a9.231,9.231,0,0,1,10.546-.789l-.629,1.125A7.913,7.913,0,0,0,99.156,147.2Z" fill="#faee9b"/>
    </g>
  </g>
</svg>
