<svg xmlns="http://www.w3.org/2000/svg" width="102.895" height="127.61" viewBox="0 0 102.895 127.61">
  <g id="Group_50" data-name="Group 50" transform="translate(-325.051 -275.619)">
    <g id="Group_35" data-name="Group 35">
      <path id="Path_52" data-name="Path 52" d="M408.018,388.443c-17.572-7.071-23.358-15.857-21.858-28.5H366.838c1.5,12.643-4.286,21.429-21.858,28.5s-19.929,14.786-19.929,14.786h102.9S425.589,395.515,408.018,388.443Z" fill="#ff8482"/>
      <path id="Path_53" data-name="Path 53" d="M376.367,380.543a29.841,29.841,0,0,0,14.118-3.559c-3.886-4.823-5.113-10.4-4.325-17.041H366.838c.793,6.688-.454,12.3-4.4,17.143A29.836,29.836,0,0,0,376.367,380.543Z" fill="#ff5b59"/>
      <path id="Path_54" data-name="Path 54" d="M408.018,388.443a50.984,50.984,0,0,1-14.206-8.058l-16.2,15.047-18.249-15.207c-3.463,3.015-8.189,5.724-14.387,8.218-17.571,7.072-19.929,14.786-19.929,14.786h102.9S425.589,395.515,408.018,388.443Z" fill="#6f87ed"/>
    </g>
    <g id="Group_39" data-name="Group 39">
      <g id="Group_36" data-name="Group 36">
        <path id="Path_55" data-name="Path 55" d="M351.526,336.976c3.239,6.195,1.882,13.3-3.032,15.868s-11.521-.372-14.759-6.566-1.882-13.3,3.031-15.868S348.287,330.781,351.526,336.976Z" fill="#ff8482"/>
        <path id="Path_56" data-name="Path 56" d="M348.684,348.8c-.019-.252-.067-.47-.093-.714.036.177.059.323.072.44a9.1,9.1,0,0,0-.535-3.1,15.024,15.024,0,0,0-12.363-11.542,32.413,32.413,0,0,1,9.989,9.046c-3.526-1.436-8.975,1.605-8.975,1.605,6.465-1.714,9.406-.3,10.756,1.352A14.365,14.365,0,0,1,348.684,348.8Z" fill="#ff5b59"/>
      </g>
      <g id="Group_38" data-name="Group 38">
        <g id="Group_37" data-name="Group 37">
          <path id="Path_57" data-name="Path 57" d="M401.208,336.976c-3.238,6.195-1.881,13.3,3.032,15.868s11.521-.372,14.76-6.566,1.881-13.3-3.032-15.868S404.447,330.781,401.208,336.976Z" fill="#ff8482"/>
          <path id="Path_58" data-name="Path 58" d="M404.05,348.8c.019-.252.067-.47.094-.714-.037.177-.06.323-.073.44a9.126,9.126,0,0,1,.535-3.1,15.025,15.025,0,0,1,12.364-11.542,32.389,32.389,0,0,0-9.989,9.046c3.525-1.436,8.974,1.605,8.974,1.605-6.465-1.714-9.406-.3-10.756,1.352A14.364,14.364,0,0,0,404.05,348.8Z" fill="#ff5b59"/>
        </g>
      </g>
    </g>
    <g id="Group_40" data-name="Group 40">
      <path id="Path_59" data-name="Path 59" d="M414.9,310.686c3.989-8.729,8.861-24.152-10.869-33.149.142.073-8.437-7.156-23.686,5.988-4.861,4.268-11.383,6.139-17.561,4.1-6.159-2.046-14.283-1.809-18.834,9.365a17.484,17.484,0,0,0-1.41,8.067c-1.426-1.8-3.377-2.968-5.2-.106-1.469,2.271-.256,12.326,3.3,21.416,0,0,2.076,21.841,12.033,25.233l9.8-13.436c8.123-.193,18.246-.454,26.574-.644l10.275,14.08c7.109-2.421,10.2-14.244,11.386-20.811.387-.43.768-.864,1.157-1.292,4.587-5.063,6.319-12.085,3.515-17.886Q415.155,311.14,414.9,310.686Z" fill="#420e2f"/>
      <path id="Path_60" data-name="Path 60" d="M362.782,287.62c-6.159-2.046-14.283-1.809-18.834,9.365a20.969,20.969,0,0,0-1.064,3.394l.255.62S349.16,286.918,362.782,287.62Z" fill="#7c1a59"/>
      <path id="Path_61" data-name="Path 61" d="M404.029,277.537c.111.057-5.071-4.313-14.573-.039,1.863-.015,25.59.246,28.651,23.5C419.538,292.989,417.626,283.737,404.029,277.537Z" fill="#7c1a59"/>
    </g>
    <g id="Group_49" data-name="Group 49">
      <path id="Path_62" data-name="Path 62" d="M367.318,301.737a20.756,20.756,0,0,0-20.756,20.541l-.207,19.789c0,18.1,13.437,32.769,30.012,32.769s30.012-14.671,30.012-32.769l-.056-20.993c-.028-10.688-6.9-25.42-17.585-25.42Z" fill="#fdb193"/>
      <path id="Path_63" data-name="Path 63" d="M378.738,360.765s5.382.167,7.3-4.111c0,0,1.531,3.111-2.135,4.945S378.738,360.765,378.738,360.765Z" fill="#ff8282" opacity="0.39"/>
      <path id="Path_64" data-name="Path 64" d="M406.323,321.074c-.028-10.688-6.9-25.42-17.585-25.42l-21.42,6.083a20.756,20.756,0,0,0-20.756,20.541l-.1,9.377,3.015-5.154c.015-.089,2.078-8.912,21.09-9.155,6.641-.086,14.725-2.032,19.977-9.646,1.892,5.683,5.05,10.792,8.813,13.86a14.23,14.23,0,0,0,6.974,3.205Z" fill="#fdb193" opacity="0.55" style="mix-blend-mode: multiply;isolation: isolate"/>
      <path id="Path_65" data-name="Path 65" d="M376.367,370.577a31.794,31.794,0,0,1-28.361-17.793c4.067,12.833,15.224,22.052,28.361,22.052s24.294-9.219,28.361-22.052A31.794,31.794,0,0,1,376.367,370.577Z" fill="#fdd5c5"/>
      <g id="Group_41" data-name="Group 41">
        <path id="Path_66" data-name="Path 66" d="M385.5,347.779a8.9,8.9,0,0,1,.539,3.06,8.5,8.5,0,0,1-16.848,1.772Z" fill="#230f0b"/>
        <path id="Path_67" data-name="Path 67" d="M377.528,359.567a8.284,8.284,0,0,1-4.019-1.041,8.659,8.659,0,0,1,8.634-6.654,9.272,9.272,0,0,1,3.712.775A8.568,8.568,0,0,1,377.528,359.567Z" fill="#e8132c"/>
      </g>
      <g id="Group_48" data-name="Group 48">
        <path id="Path_68" data-name="Path 68" d="M380.653,342.556c0,2.84-1.919,5.142-4.286,5.142s-4.286-2.3-4.286-5.142,1.919-6.392,4.286-6.392S380.653,339.716,380.653,342.556Z" fill="#ff6a68"/>
        <g id="Group_43" data-name="Group 43">
          <g id="Group_42" data-name="Group 42">
            <path id="Path_69" data-name="Path 69" d="M391.815,333.426c0,2.355-.8,4.264-1.781,4.264s-1.781-1.909-1.781-4.264.8-4.263,1.781-4.263S391.815,331.072,391.815,333.426Z" fill="#25110d"/>
          </g>
          <path id="Path_70" data-name="Path 70" d="M398.42,328.76c.23-.134-9.637-6.369-15.729-6.145-.076.1.122-5.441,8.2-2.539C398.726,323.3,398.35,328.85,398.42,328.76Z" fill="#420e2f"/>
        </g>
        <g id="Group_45" data-name="Group 45">
          <g id="Group_44" data-name="Group 44">
            <ellipse id="Ellipse_3" data-name="Ellipse 3" cx="1.781" cy="4.264" rx="1.781" ry="4.264" transform="translate(360.919 329.163)" fill="#25110d"/>
          </g>
          <path id="Path_71" data-name="Path 71" d="M353.413,328.76c-.23-.134,9.637-6.369,15.729-6.145.076.1-.122-5.441-8.2-2.539C353.107,323.3,353.483,328.85,353.413,328.76Z" fill="#420e2f"/>
        </g>
        <g id="Group_46" data-name="Group 46">
          <path id="Path_72" data-name="Path 72" d="M358.432,347.9a.788.788,0,0,1-.71-1.131l2.487-5.149a.788.788,0,1,1,1.42.685l-2.486,5.149A.79.79,0,0,1,358.432,347.9Z" fill="#ff6a68"/>
          <path id="Path_73" data-name="Path 73" d="M353.458,347.9a.788.788,0,0,1-.709-1.131l2.487-5.149a.788.788,0,1,1,1.42.685l-2.487,5.149A.788.788,0,0,1,353.458,347.9Z" fill="#ff6a68"/>
        </g>
        <g id="Group_47" data-name="Group 47">
          <path id="Path_74" data-name="Path 74" d="M393.83,347.9a.788.788,0,0,1-.711-.446l-2.487-5.149a.788.788,0,1,1,1.42-.685l2.487,5.149a.788.788,0,0,1-.709,1.131Z" fill="#ff6a68"/>
          <path id="Path_75" data-name="Path 75" d="M398.8,347.9a.787.787,0,0,1-.71-.446l-2.488-5.149a.789.789,0,0,1,1.421-.685l2.487,5.149a.788.788,0,0,1-.71,1.131Z" fill="#ff6a68"/>
        </g>
      </g>
    </g>
    <path id="Path_76" data-name="Path 76" d="M407.664,312.531l-14.093-24.086-34.055,10.3-18.264,22.134a21.212,21.212,0,0,1,5.271,5.1s1.972-11.36,24.007-11.642c14.46-.185,19.254-9.249,21.144-16.576.4,8.554,4.559,17.371,9.581,21.465a10.305,10.305,0,0,0,10.248,2.118Z" fill="#420e2f"/>
  </g>
</svg>
