<svg xmlns="http://www.w3.org/2000/svg" width="137.2" height="138.113" viewBox="0 0 137.2 138.113">
  <g id="Group_396" data-name="Group 396" transform="translate(-175.182 -288.656)">
    <g id="Group_290" data-name="Group 290">
      <path id="Path_101" data-name="Path 101" d="M216.844,352.271s-4.171,10.521-1.828,14.085,6.852-3.522,6.852-3.522-3.607,12.883,1.417,14.171,10.39-9.777,10.39-9.777S224.058,347.633,216.844,352.271Z" fill="#3f2037"/>
    </g>
    <g id="Group_291" data-name="Group 291">
      <path id="Path_102" data-name="Path 102" d="M271.025,352.271s4.172,10.521,1.828,14.085S266,362.834,266,362.834s3.607,12.883-1.417,14.171-10.39-9.777-10.39-9.777S263.811,347.633,271.025,352.271Z" fill="#3f2037"/>
    </g>
    <g id="Group_293" data-name="Group 293">
      <g id="Group_292" data-name="Group 292">
        <path id="Path_103" data-name="Path 103" d="M312.382,426.769h-137.2s.123-1.546.523-3.8c.136-.763.3-1.608.507-2.5a40.5,40.5,0,0,1,1.577-5.307,26.759,26.759,0,0,1,1.087-2.5,14.4,14.4,0,0,1,4.159-5.31,8.2,8.2,0,0,1,1.808-1.01c.861-.345,2.01-.855,3.378-1.492,2.862-1.329,6.681-3.215,10.821-5.307,1.559-.789,3.161-1.6,4.777-2.432l.136-.07c3.486-1.785,7.021-3.617,10.267-5.31,1.065-.556,2.1-1.1,3.087-1.613q.873-.456,1.695-.889c.085-.046.17-.09.255-.134,4.445-2.331,7.712-4.063,8.477-4.472l.008,0c.023-.013.046-.023.064-.033l.1-.054,1.049.236q1.967.441,3.95.755,1.959.318,3.929.51a65.414,65.414,0,0,0,21.68-1.494l.034-.007s3.262,1.679,8.046,4.119c.369.188.745.382,1.131.577,1.528.778,3.187,1.621,4.926,2.5,1.575.8,3.211,1.623,4.878,2.463,1.28.644,2.579,1.3,3.877,1.948.6.3,1.2.6,1.8.9,1.706.853,3.4,1.693,5.04,2.5,4.246,2.089,8.151,3.975,11.058,5.307,1.388.637,2.55,1.147,3.413,1.492a8.234,8.234,0,0,1,1.809,1.01,14.4,14.4,0,0,1,4.158,5.31,26.506,26.506,0,0,1,1.088,2.5,40.494,40.494,0,0,1,1.576,5.307c.2.894.371,1.739.508,2.5C312.258,425.223,312.382,426.769,312.382,426.769Z" fill="#0075cf"/>
      </g>
    </g>
    <g id="Group_299" data-name="Group 299">
      <g id="Group_294" data-name="Group 294">
        <path id="Path_104" data-name="Path 104" d="M272.653,391.729H214.222c1.688-.881,3.3-1.724,4.782-2.5h48.723C269.255,390.005,270.914,390.848,272.653,391.729Z" fill="#0056a8"/>
      </g>
      <g id="Group_295" data-name="Group 295">
        <path id="Path_105" data-name="Path 105" d="M288.249,399.541H199.042c1.559-.789,3.161-1.6,4.777-2.432l.136-.07h79.254C284.915,397.892,286.607,398.732,288.249,399.541Z" fill="#0056a8"/>
      </g>
      <g id="Group_296" data-name="Group 296">
        <path id="Path_106" data-name="Path 106" d="M304.529,407.35H183.035a8.2,8.2,0,0,1,1.808-1.01c.861-.345,2.01-.855,3.378-1.492H299.307c1.388.637,2.55,1.147,3.413,1.492A8.234,8.234,0,0,1,304.529,407.35Z" fill="#0056a8"/>
      </g>
      <g id="Group_297" data-name="Group 297">
        <path id="Path_107" data-name="Path 107" d="M309.775,415.162H177.789a26.759,26.759,0,0,1,1.087-2.5H308.687A26.506,26.506,0,0,1,309.775,415.162Z" fill="#0056a8"/>
      </g>
      <g id="Group_298" data-name="Group 298">
        <path id="Path_108" data-name="Path 108" d="M311.859,422.971H175.705c.136-.763.3-1.608.507-2.5H311.351C311.555,421.363,311.722,422.208,311.859,422.971Z" fill="#0056a8"/>
      </g>
    </g>
    <g id="Group_300" data-name="Group 300">
      <path id="Path_109" data-name="Path 109" d="M266.6,388.65c-1.571,5.54-8.371,14.248-22.814,14.248-14.943,0-23.222-8.072-26.473-12.782q.873-.456,1.695-.889c.085-.046.17-.09.255-.134,4.445-2.331,7.712-4.063,8.477-4.472l.008,0c.023-.013.046-.023.064-.033l.1-.054,1.049.236q1.967.441,3.95.755,1.959.318,3.929.51a65.414,65.414,0,0,0,21.68-1.494l.034-.007S261.812,386.21,266.6,388.65Z" fill="#0056a8"/>
    </g>
    <g id="Group_395" data-name="Group 395">
      <g id="Group_311" data-name="Group 311">
        <g id="Group_305" data-name="Group 305">
          <g id="Group_304" data-name="Group 304">
            <g id="Group_303" data-name="Group 303">
              <g id="Group_302" data-name="Group 302">
                <g id="Group_301" data-name="Group 301">
                  <path id="Path_110" data-name="Path 110" d="M259.248,388.026s-2.691,8.458-15.054,8.458c-14.421,0-17.816-7.689-17.816-7.689a62.508,62.508,0,0,0,2.695-9.146h0a49.216,49.216,0,0,0,1.153-11.418l25.335-1c.235,2.145.616,4.671,1.046,7.212C257.757,381.187,259.248,388.026,259.248,388.026Z" fill="#ffb8a1"/>
                </g>
              </g>
            </g>
          </g>
        </g>
        <g id="Group_310" data-name="Group 310">
          <g id="Group_309" data-name="Group 309">
            <g id="Group_308" data-name="Group 308">
              <g id="Group_307" data-name="Group 307">
                <g id="Group_306" data-name="Group 306">
                  <path id="Path_111" data-name="Path 111" d="M256.611,374.44c-3.925,2.73-12.506,6.793-27.534,5.209a49.216,49.216,0,0,0,1.153-11.418l25.335-1C255.8,369.373,256.181,371.9,256.611,374.44Z" fill="#3f2037"/>
                </g>
              </g>
            </g>
          </g>
        </g>
      </g>
      <g id="Group_328" data-name="Group 328">
        <g id="Group_327" data-name="Group 327">
          <g id="Group_316" data-name="Group 316">
            <g id="Group_315" data-name="Group 315">
              <g id="Group_314" data-name="Group 314">
                <g id="Group_313" data-name="Group 313">
                  <g id="Group_312" data-name="Group 312">
                    <path id="Path_112" data-name="Path 112" d="M220.559,335.191s-7.84-10.672-13.939-4.356,5.663,28.314,16.335,23.523Z" fill="#ffb8a1"/>
                  </g>
                </g>
              </g>
            </g>
          </g>
          <g id="Group_321" data-name="Group 321">
            <g id="Group_320" data-name="Group 320">
              <g id="Group_319" data-name="Group 319">
                <g id="Group_318" data-name="Group 318">
                  <g id="Group_317" data-name="Group 317">
                    <path id="Path_113" data-name="Path 113" d="M216.82,347.8a.542.542,0,0,1-.536-.467c-1.031-7.415-6.924-11.966-6.984-12.011a.542.542,0,0,1,.655-.863,20.869,20.869,0,0,1,7.4,12.724.542.542,0,0,1-.462.612A.632.632,0,0,1,216.82,347.8Z" fill="#ff8a8a"/>
                  </g>
                </g>
              </g>
            </g>
          </g>
          <g id="Group_326" data-name="Group 326">
            <g id="Group_325" data-name="Group 325">
              <g id="Group_324" data-name="Group 324">
                <g id="Group_323" data-name="Group 323">
                  <g id="Group_322" data-name="Group 322">
                    <path id="Path_114" data-name="Path 114" d="M215.177,342.477a.538.538,0,0,1-.448-.238c-.788-1.164-3.141-1.282-3.978-1.23a.542.542,0,1,1-.068-1.082c.149-.009,3.651-.205,4.943,1.7a.541.541,0,0,1-.449.845Z" fill="#ff8a8a"/>
                  </g>
                </g>
              </g>
            </g>
          </g>
        </g>
      </g>
      <g id="Group_345" data-name="Group 345">
        <g id="Group_344" data-name="Group 344">
          <g id="Group_333" data-name="Group 333">
            <g id="Group_332" data-name="Group 332">
              <g id="Group_331" data-name="Group 331">
                <g id="Group_330" data-name="Group 330">
                  <g id="Group_329" data-name="Group 329">
                    <path id="Path_115" data-name="Path 115" d="M269.052,335.191s7.841-10.672,13.939-4.356-5.663,28.314-16.335,23.523Z" fill="#ffb8a1"/>
                  </g>
                </g>
              </g>
            </g>
          </g>
          <g id="Group_338" data-name="Group 338">
            <g id="Group_337" data-name="Group 337">
              <g id="Group_336" data-name="Group 336">
                <g id="Group_335" data-name="Group 335">
                  <g id="Group_334" data-name="Group 334">
                    <path id="Path_116" data-name="Path 116" d="M272.792,347.8a.631.631,0,0,1-.075-.005.541.541,0,0,1-.462-.611,20.865,20.865,0,0,1,7.4-12.725.542.542,0,0,1,.655.863c-.059.045-5.955,4.612-6.984,12.011A.54.54,0,0,1,272.792,347.8Z" fill="#ff8a8a"/>
                  </g>
                </g>
              </g>
            </g>
          </g>
          <g id="Group_343" data-name="Group 343">
            <g id="Group_342" data-name="Group 342">
              <g id="Group_341" data-name="Group 341">
                <g id="Group_340" data-name="Group 340">
                  <g id="Group_339" data-name="Group 339">
                    <path id="Path_117" data-name="Path 117" d="M274.433,342.477a.541.541,0,0,1-.448-.845c1.292-1.91,4.794-1.714,4.943-1.7a.542.542,0,0,1-.067,1.082c-.841-.05-3.194.071-3.979,1.23A.539.539,0,0,1,274.433,342.477Z" fill="#ff8a8a"/>
                  </g>
                </g>
              </g>
            </g>
          </g>
        </g>
      </g>
      <g id="Group_350" data-name="Group 350">
        <g id="Group_349" data-name="Group 349">
          <g id="Group_348" data-name="Group 348">
            <g id="Group_347" data-name="Group 347">
              <g id="Group_346" data-name="Group 346">
                <path id="Path_118" data-name="Path 118" d="M251.054,304.081c-21.933-5.351-37.1,10.832-35.075,35.837,1.288,15.882,9.389,35.822,28.213,36.265,19.617.461,29.86-18.373,29.86-40.362,0-16.827-5.653-26.181-19.957-30.87Q252.609,304.464,251.054,304.081Z" fill="#ffb8a1"/>
              </g>
            </g>
          </g>
        </g>
      </g>
      <g id="Group_351" data-name="Group 351">
        <path id="Path_119" data-name="Path 119" d="M212.947,317.06s-4.336,10.028-2.772,11.831c1.333,1.537,3.381.485,3.381.485s-.84,10.958,3.806,11.387,4.067-20.118,4.067-20.118,7.688.215,6.248-6.162c0,0,19.924,3.789,35.3-.257,0,0-.643,6.145,4.551,6.956,0,0-3.005,18.646,2.491,20.015s5.224-11.453,5.224-11.453,2.419.026,3.366-.906c2.258-2.222-1.427-14.269-7.474-22.17C264.513,298.019,231.455,281.591,212.947,317.06Z" fill="#3f2037"/>
      </g>
      <g id="Group_367" data-name="Group 367">
        <g id="Group_352" data-name="Group 352">
          <path id="Path_120" data-name="Path 120" d="M278.283,314.725s-1.464-.325-4.1-.755c-.258-.044-.526-.085-.807-.132-2.692-.42-6.394-.917-10.872-1.309l-.789-.069c-3.2-.263-6.773-.472-10.64-.562l-.776-.015c-3.331-.062-6.871-.034-10.571.123-.258.011-.515.021-.776.034-3.444.162-7.02.438-10.689.858q-.395.042-.789.093c-3.583.425-7.25.992-10.962,1.723-.268.052-.536.106-.807.163q-2.1.424-4.22.927s1.652-11.772,11.141-19.813c.515-.435,1.053-.863,1.615-1.272a29.922,29.922,0,0,1,9.347-4.579c.31-.09.621-.178.941-.263a37.44,37.44,0,0,1,6.611-1.092h0c.261-.021.521-.036.789-.054q1.279-.073,2.628-.075,1.839,0,3.55.129c.268.021.533.041.794.067a38.794,38.794,0,0,1,6.667,1.185c.32.085.632.175.941.271h0a30.915,30.915,0,0,1,9.428,4.663l0,0c.559.407,1.09.827,1.6,1.26l0,0A33.221,33.221,0,0,1,278.283,314.725Z" fill="#ff4f4e"/>
        </g>
        <g id="Group_365" data-name="Group 365">
          <g id="Group_354" data-name="Group 354">
            <g id="Group_353" data-name="Group 353">
              <path id="Path_121" data-name="Path 121" d="M224.237,294.719c-3.12,5.315-6.562,12.529-7.729,19.995a33.345,33.345,0,0,0-.4,4.161l-.773-.023a34.506,34.506,0,0,1,.368-3.975c1.033-6.926,4-13.64,6.921-18.886C223.137,295.556,223.675,295.128,224.237,294.719Z" fill="#c42c31"/>
            </g>
          </g>
          <g id="Group_356" data-name="Group 356">
            <g id="Group_355" data-name="Group 355">
              <path id="Path_122" data-name="Path 122" d="M234.525,289.877a94.03,94.03,0,0,0-6.266,23.021,58.563,58.563,0,0,0-.436,5.972l-.772-.015a58.455,58.455,0,0,1,.419-5.864,94.211,94.211,0,0,1,6.114-22.851C233.894,290.05,234.205,289.962,234.525,289.877Z" fill="#c42c31"/>
            </g>
          </g>
          <g id="Group_358" data-name="Group 358">
            <g id="Group_357" data-name="Group 357">
              <path id="Path_123" data-name="Path 123" d="M241.927,288.731c-.619,4.385-1.757,13.428-2.2,23.275-.1,2.26-.167,4.561-.183,6.859l-.773-.005c.016-2.286.08-4.573.18-6.82.441-9.78,1.564-18.78,2.188-23.255h0C241.4,288.764,241.659,288.749,241.927,288.731Z" fill="#c42c31"/>
            </g>
          </g>
          <g id="Group_360" data-name="Group 360">
            <g id="Group_359" data-name="Group 359">
              <path id="Path_124" data-name="Path 124" d="M251.259,318.86l-.773.005c-.016-2.34-.085-4.684-.191-6.982-.448-9.757-1.572-18.71-2.19-23.1.268.021.533.041.794.067.623,4.473,1.731,13.369,2.172,23.046C251.176,314.191,251.243,316.528,251.259,318.86Z" fill="#c42c31"/>
            </g>
          </g>
          <g id="Group_362" data-name="Group 362">
            <g id="Group_361" data-name="Group 361">
              <path id="Path_125" data-name="Path 125" d="M262.976,318.855l-.773.015a58.256,58.256,0,0,0-.492-6.41,94.2,94.2,0,0,0-6.145-22.423c.32.085.632.175.941.271h0a94.636,94.636,0,0,1,5.991,22.221A59.481,59.481,0,0,1,262.976,318.855Z" fill="#c42c31"/>
            </g>
          </g>
          <g id="Group_364" data-name="Group 364">
            <g id="Group_363" data-name="Group 363">
              <path id="Path_126" data-name="Path 126" d="M274.694,318.852l-.773.023a34.572,34.572,0,0,0-.549-5.037c-1.27-7.036-4.475-13.786-7.433-18.864.559.407,1.09.827,1.6,1.26l0,0a58.784,58.784,0,0,1,6.64,17.734A34.8,34.8,0,0,1,274.694,318.852Z" fill="#c42c31"/>
            </g>
          </g>
        </g>
        <g id="Group_366" data-name="Group 366">
          <path id="Path_127" data-name="Path 127" d="M209.835,315.8s-1.831,3.9.34,9.617c0,0,21.878-13.085,69.157-.847,0,0,2.961-3.35,0-9.4C279.332,315.17,242.844,299.161,209.835,315.8Z" fill="#c42c31"/>
        </g>
      </g>
      <g id="Group_369" data-name="Group 369">
        <g id="Group_368" data-name="Group 368">
          <path id="Path_128" data-name="Path 128" d="M245.758,353.995a7.812,7.812,0,0,1-3.08-.732.772.772,0,0,1-.458-.809l1.568-12.045a.773.773,0,0,1,1.533.2L243.83,352.06a3.879,3.879,0,0,0,3.706-.147.773.773,0,0,1,.864,1.282A4.606,4.606,0,0,1,245.758,353.995Z" fill="#ff8a8a"/>
        </g>
      </g>
      <g id="Group_371" data-name="Group 371">
        <g id="Group_370" data-name="Group 370">
          <path id="Path_129" data-name="Path 129" d="M244.325,361.936a17.869,17.869,0,0,1-7.845-1.86.773.773,0,0,1,.754-1.35c.375.208,8.932,4.819,16.338-2.033a.773.773,0,0,1,1.05,1.135A14.791,14.791,0,0,1,244.325,361.936Z" fill="#ff8a8a"/>
        </g>
      </g>
      <g id="Group_373" data-name="Group 373">
        <g id="Group_372" data-name="Group 372">
          <path id="Path_130" data-name="Path 130" d="M245.579,366.356a11.888,11.888,0,0,1-3.248-.458.773.773,0,0,1,.459-1.476h0c.035.011,3.463,1.046,5.874-.318a.773.773,0,0,1,.761,1.346A7.824,7.824,0,0,1,245.579,366.356Z" fill="#ff8a8a"/>
        </g>
      </g>
      <g id="Group_375" data-name="Group 375">
        <g id="Group_374" data-name="Group 374">
          <path id="Path_131" data-name="Path 131" d="M229.258,332.011a20.955,20.955,0,0,1,6.455-2.343A2.017,2.017,0,0,0,237.348,327l-.088-.244a2.005,2.005,0,0,0-2.1-1.321c-2.108.224-5.842.961-8.279,3.39a2,2,0,0,0-.487,2.018h0A2.008,2.008,0,0,0,229.258,332.011Z" fill="#3f2037"/>
        </g>
      </g>
      <g id="Group_377" data-name="Group 377">
        <g id="Group_376" data-name="Group 376">
          <path id="Path_132" data-name="Path 132" d="M261.246,332.011a20.962,20.962,0,0,0-6.456-2.343A2.017,2.017,0,0,1,253.155,327l.088-.244a2.006,2.006,0,0,1,2.1-1.321c2.108.224,5.843.961,8.279,3.39a2,2,0,0,1,.487,2.018h0A2.007,2.007,0,0,1,261.246,332.011Z" fill="#3f2037"/>
        </g>
      </g>
      <g id="Group_379" data-name="Group 379" opacity="0.5">
        <g id="Group_378" data-name="Group 378">
          <path id="Path_133" data-name="Path 133" d="M234.919,345.91c0,1.9-3.5,3.432-7.817,3.432s-7.817-1.536-7.817-3.432,3.5-3.433,7.817-3.433S234.919,344.014,234.919,345.91Z" fill="#ff8a8a"/>
        </g>
      </g>
      <g id="Group_381" data-name="Group 381" opacity="0.5">
        <g id="Group_380" data-name="Group 380">
          <path id="Path_134" data-name="Path 134" d="M271.7,345.91c0,1.9-3.5,3.432-7.817,3.432s-7.817-1.536-7.817-3.432,3.5-3.433,7.817-3.433S271.7,344.014,271.7,345.91Z" fill="#ff8a8a"/>
        </g>
      </g>
      <g id="Group_394" data-name="Group 394">
        <g id="Group_387" data-name="Group 387">
          <g id="Group_386" data-name="Group 386">
            <g id="Group_385" data-name="Group 385">
              <g id="Group_384" data-name="Group 384">
                <g id="Group_383" data-name="Group 383">
                  <g id="Group_382" data-name="Group 382">
                    <path id="Path_135" data-name="Path 135" d="M235.466,337.915c.036,2.094-.736,3.806-1.725,3.823s-1.82-1.666-1.856-3.761.735-3.8,1.724-3.823S235.429,335.821,235.466,337.915Z" fill="#3f2037"/>
                  </g>
                </g>
              </g>
            </g>
          </g>
        </g>
        <g id="Group_393" data-name="Group 393">
          <g id="Group_392" data-name="Group 392">
            <g id="Group_391" data-name="Group 391">
              <g id="Group_390" data-name="Group 390">
                <g id="Group_389" data-name="Group 389">
                  <g id="Group_388" data-name="Group 388">
                    <path id="Path_136" data-name="Path 136" d="M254.182,337.915c-.037,2.094.735,3.806,1.724,3.823s1.82-1.666,1.857-3.761-.736-3.8-1.725-3.823S254.218,335.821,254.182,337.915Z" fill="#3f2037"/>
                  </g>
                </g>
              </g>
            </g>
          </g>
        </g>
      </g>
    </g>
  </g>
</svg>
